<svg width="164" height="24" viewBox="0 0 164 24" fill="none" xmlns="http://www.w3.org/2000/svg">
<g clip-path="url(#clip0_1_15250)">
<path d="M90.7275 10.6273H83.836V4.25293H80.3662V19.9633H83.836V13.5937H90.7275V19.9633H94.1972V4.25293H90.7275V10.6273Z" fill="#0F0F0F"/>
<path d="M107.784 5.18385C106.471 4.53448 105.019 4.21639 103.556 4.25743H96.9473V19.9631H103.56C105.024 20.0041 106.476 19.686 107.788 19.0366C108.947 18.4396 109.892 17.499 110.495 16.3439C111.112 15.0177 111.431 13.5728 111.431 12.1102C111.431 10.6477 111.112 9.20284 110.495 7.87665C109.891 6.72074 108.944 5.78015 107.784 5.18385ZM107.438 14.7839C107.105 15.4945 106.544 16.0737 105.845 16.4302C105.018 16.833 104.105 17.0275 103.186 16.9966H100.393V7.22385H103.186C104.098 7.19313 105.004 7.38422 105.826 7.78067C106.525 8.13718 107.085 8.71643 107.419 9.42704C108.116 11.1478 108.116 13.0727 107.419 14.7935L107.438 14.7839Z" fill="#0F0F0F"/>
<path d="M125.866 11.7407V11.5439C126.628 11.3494 127.303 10.9069 127.786 10.2863C128.264 9.67452 128.518 8.9172 128.506 8.14068C128.536 7.59801 128.441 7.05564 128.227 6.55602C128.013 6.05639 127.686 5.61305 127.273 5.26068C126.45 4.57908 125.284 4.23828 123.774 4.23828H115.855V19.9439H124.302C125.235 19.9639 126.162 19.7822 127.018 19.4111C127.751 19.0928 128.376 18.5693 128.818 17.9039C129.25 17.2235 129.471 16.4299 129.451 15.6239C129.473 15.1445 129.399 14.6657 129.234 14.215C129.069 13.7644 128.817 13.3509 128.492 12.9983C127.781 12.2984 126.857 11.8558 125.866 11.7407ZM122.747 7.22387H122.862C123.419 7.20078 123.972 7.32496 124.465 7.58387C124.651 7.71749 124.798 7.89806 124.892 8.10717C124.986 8.31628 125.022 8.54645 124.998 8.77426C125.018 8.993 124.985 9.21341 124.901 9.41656C124.818 9.61971 124.686 9.79957 124.518 9.94068C124.102 10.2078 123.615 10.3402 123.121 10.3198H119.325V7.22387H122.747ZM125.626 16.1663C125.394 16.4526 125.084 16.6659 124.734 16.7807C124.253 16.9259 123.753 16.9987 123.251 16.9967H119.32V13.1567H123.16C123.67 13.1471 124.18 13.2019 124.676 13.3198C125.051 13.4088 125.388 13.6157 125.636 13.9102C125.857 14.245 125.974 14.6373 125.974 15.0383C125.974 15.4393 125.857 15.8315 125.636 16.1663H125.626Z" fill="#0F0F0F"/>
<path d="M143.057 4.69471C141.779 3.97736 140.339 3.60059 138.874 3.60059C137.409 3.60059 135.969 3.97736 134.692 4.69471C133.46 5.40693 132.449 6.44497 131.769 7.69471C131.068 9.02684 130.702 10.5095 130.702 12.0147C130.702 13.5199 131.068 15.0026 131.769 16.3347C132.452 17.5825 133.462 18.6199 134.692 19.3347C135.97 20.0494 137.41 20.4246 138.874 20.4246C140.338 20.4246 141.778 20.0494 143.057 19.3347C144.281 18.6166 145.288 17.5798 145.97 16.3347C146.667 15.0016 147.031 13.5193 147.031 12.0147C147.031 10.5101 146.667 9.02782 145.97 7.69471C145.29 6.44756 144.283 5.41008 143.057 4.69471ZM142.946 14.7747C142.563 15.55 141.984 16.2119 141.266 16.6947C140.554 17.1646 139.72 17.415 138.867 17.415C138.014 17.415 137.179 17.1646 136.467 16.6947C135.746 16.2021 135.167 15.5284 134.788 14.7411C134.372 13.8813 134.163 12.9361 134.178 11.9811C134.164 11.0232 134.373 10.0751 134.788 9.21152C135.163 8.42175 135.743 7.74706 136.467 7.25789C137.178 6.78652 138.014 6.53908 138.867 6.5475C139.721 6.5371 140.559 6.78834 141.266 7.2675C141.989 7.75876 142.569 8.43289 142.946 9.22113C143.348 10.0884 143.556 11.0326 143.556 11.9883C143.556 12.944 143.348 13.8882 142.946 14.7555V14.7747Z" fill="#0F0F0F"/>
<path d="M164 4.25293H159.724L155.731 9.70093L151.739 4.25293H147.443L153.202 12.1105L147.443 19.9633H151.739L155.731 14.5201L159.724 19.9633H164L158.241 12.1105L164 4.25293Z" fill="#0F0F0F"/>
<path d="M17.5892 0H12.79V24H17.5892V0Z" fill="#E81D2C"/>
<path d="M8.19643 0H5.79688V24H8.19643V0Z" fill="#E81D2C"/>
<path d="M1.19978 0H0V24H1.19978V0Z" fill="#E81D2C"/>
<path d="M58.18 0H53.3809V24H58.18V0Z" fill="#E81D2C"/>
<path d="M65.172 0H62.7725V24H65.172V0Z" fill="#E81D2C"/>
<path d="M41.5845 0V9.6H29.3852V0H22.1865V24H29.3852V14.4H41.5845V24H48.7832V0H41.5845Z" fill="#E81D2C"/>
<path d="M70.9693 0H69.7695V24H70.9693V0Z" fill="#E81D2C"/>
</g>
<defs>
<clipPath id="clip0_1_15250">
<rect width="164" height="24" fill="white"/>
</clipPath>
</defs>
</svg>
