<svg width="113" height="206" viewBox="0 0 113 206" fill="none" xmlns="http://www.w3.org/2000/svg">
<g clip-path="url(#clip0_1_13345)">
<path d="M41.342 0.917969H71.6888C82.6534 0.917969 93.1689 5.25958 100.922 12.9877C108.675 20.7158 113.031 31.1974 113.031 42.1266V168.151C113.031 178.167 109.039 187.773 101.933 194.856C94.8275 201.939 85.1902 205.918 75.1413 205.918H37.8895C27.8406 205.918 18.2032 201.939 11.0976 194.856C3.99192 187.773 0 178.167 0 168.151L0 42.1266C0 31.1974 4.35566 20.7158 12.1088 12.9877C19.8619 5.25958 30.3774 0.917969 41.342 0.917969V0.917969Z" fill="#219653"/>
<path d="M49.1795 5.15234H63.8207C76.2445 5.15234 88.1594 10.0718 96.9444 18.8284C105.729 27.585 110.665 39.4615 110.665 51.8453V158.3C110.665 169.81 106.077 180.849 97.9118 188.988C89.7463 197.128 78.6714 201.7 67.1236 201.7H45.8765C34.3287 201.7 23.2539 197.128 15.0883 188.988C6.9228 180.849 2.33545 169.81 2.33545 158.3V51.8453C2.33545 39.4615 7.27079 27.585 16.0557 18.8284C24.8407 10.0718 36.7557 5.15234 49.1795 5.15234Z" fill="#27AE60"/>
<path d="M43.8885 183.432L21.5067 194.252C19.2521 192.731 17.145 191.004 15.213 189.092L37.9995 177.694L26.6656 86.5437L2.33545 61.63V51.8408C2.33545 50.2713 2.41462 48.7194 2.56416 47.1895L29.4716 73.0983L43.8885 183.432Z" fill="#219653"/>
<path d="M86.3342 86.5262L75.0004 177.676L97.7868 189.074C95.8577 190.987 93.752 192.715 91.4976 194.234L69.1113 183.415L83.5283 73.0807L110.436 47.1719C110.585 48.7019 110.664 50.2406 110.664 51.8232V61.63L86.3342 86.5262Z" fill="#219653"/>
<path d="M38.6899 28.4697V24.4277L40.2425 25.9796V28.0795L39.2705 29.0659L38.6899 28.4697ZM43.6686 28.5749L44.4427 29.3465L43.6686 30.1224H40.348L39.5696 29.3465L40.348 28.5749H43.6686ZM43.7565 28.0795V25.9796L45.3135 24.4321V28.4697L44.7286 29.0659L43.7565 28.0795ZM45.3135 30.2276V34.2696L43.7565 32.7177V30.6134L44.7286 29.6446L45.3135 30.2276Z" fill="#D1DF56"/>
<path d="M47.0596 28.4704V24.4241L48.6165 25.9541V28.0715L47.6446 29.0667L47.0596 28.4704ZM48.6165 30.6186V32.7228L47.0596 34.2703V30.2284L47.6446 29.6453L48.6165 30.6186ZM53.3928 24.1348L51.8403 25.6823H48.9112L47.3543 24.1348H53.3928ZM53.3928 34.5641H47.3543L48.9112 33.0122H51.8403L53.3928 34.5641ZM52.1262 28.0759V25.9672L53.6787 24.4416V28.4704L53.0937 29.0667L52.1262 28.0759ZM53.6787 30.2284V34.2572L52.1262 32.7053V30.6142L53.0937 29.6453L53.6787 30.2284Z" fill="#D1DF56"/>
<path d="M59.3169 28.4704V24.4241L60.8738 25.9541V28.0715L59.9019 29.0667L59.3169 28.4704ZM60.8738 30.6186V32.7228L59.3169 34.2703V30.2284L59.9019 29.6453L60.8738 30.6186ZM65.6546 24.1348L64.102 25.6823H61.1729L59.616 24.1348H65.6546ZM65.6546 34.5641H59.616L61.1729 33.0122H64.102L65.6546 34.5641ZM64.3879 28.0759V25.9672L65.9404 24.4416V28.4704L65.3599 29.0667L64.3879 28.0759ZM65.9404 30.2284V34.2572L64.3879 32.6965V30.6054L65.3599 29.6366L65.9404 30.2284Z" fill="#D1DF56"/>
<path d="M67.6909 28.4704V24.4241L69.2435 25.9541V28.0715L68.2714 29.0667L67.6909 28.4704ZM69.2435 30.6186V32.7228L67.6909 34.2703V30.2284L68.2714 29.6453L69.2435 30.6186ZM74.0286 24.1348L72.4716 25.6823H69.5425L67.99 24.1348H74.0286ZM74.0286 34.5641H67.99L69.5425 33.0122H72.4716L74.0286 34.5641ZM72.7575 28.0759V25.9672L74.3101 24.4416V28.4704L73.7295 29.0667L72.7575 28.0759ZM74.3101 30.2284V34.2572L72.7443 32.6965V30.6054L73.7163 29.6366L74.3101 30.2284Z" fill="#D1DF56"/>
<path d="M49.3726 51.1133H47.4639V60.6351H49.3726V51.1133Z" fill="white"/>
<path d="M45.6346 51.1133H44.6802V60.6351H45.6346V51.1133Z" fill="white"/>
<path d="M42.8505 51.1133H42.3711V60.6351H42.8505V51.1133Z" fill="white"/>
<path d="M65.5313 51.1133H63.6226V60.6351H65.5313V51.1133Z" fill="white"/>
<path d="M68.3157 51.1133H67.3613V60.6351H68.3157V51.1133Z" fill="white"/>
<path d="M58.9257 51.1133V54.9229H54.0702V51.1133H51.207V60.6351H54.0702V56.8255H58.9257V60.6351H61.7932V51.1133H58.9257Z" fill="white"/>
<path d="M70.6288 51.1133H70.1494V60.6351H70.6288V51.1133Z" fill="white"/>
<path d="M45.872 64.6945H43.5454V62.5508H42.3711V67.8378H43.5454V65.694H45.872V67.8378H47.0463V62.5508H45.872V64.6945Z" fill="white"/>
<path d="M51.6333 62.8616C51.19 62.6412 50.6991 62.5328 50.2039 62.546H47.9697V67.8374H50.2039C50.6991 67.8505 51.19 67.7421 51.6333 67.5217C52.0239 67.3213 52.3433 67.0061 52.5481 66.6186C52.7566 66.1716 52.8647 65.6846 52.8647 65.1917C52.8647 64.6987 52.7566 64.2117 52.5481 63.7647C52.3433 63.3773 52.0239 63.062 51.6333 62.8616ZM51.5146 66.097C51.4021 66.3353 51.2133 66.5296 50.978 66.6493C50.7042 66.7815 50.4025 66.8461 50.0984 66.8378H49.1572V63.5455H50.0984C50.4025 63.5373 50.7042 63.6019 50.978 63.734C51.2133 63.8538 51.4021 64.0481 51.5146 64.2864C51.7491 64.8673 51.7491 65.5161 51.5146 66.097Z" fill="white"/>
<path d="M57.7469 65.067V65.0012C58.005 64.9302 58.2323 64.7761 58.3934 64.5629C58.5543 64.3562 58.6397 64.1011 58.6353 63.8395C58.6451 63.6579 58.6128 63.4766 58.5412 63.3093C58.4695 63.1421 58.3602 62.9936 58.2219 62.8751C57.8801 62.6256 57.4616 62.5031 57.0388 62.5287H54.3647V67.8201H57.2235C57.5378 67.826 57.8498 67.7648 58.1383 67.6404C58.3862 67.5318 58.5982 67.3555 58.7497 67.1318C58.8935 66.9021 58.9669 66.6354 58.9608 66.3646C58.9716 66.0412 58.8548 65.7264 58.6353 65.4879C58.3949 65.2523 58.082 65.1041 57.7469 65.067ZM56.6914 63.5458H56.7265C56.9159 63.5392 57.1037 63.5815 57.2719 63.6685C57.3344 63.7135 57.3839 63.774 57.4155 63.844C57.4472 63.914 57.4598 63.9911 57.4522 64.0675C57.4579 64.1413 57.4462 64.2155 57.418 64.2841C57.3897 64.3526 57.3457 64.4135 57.2895 64.462C57.1491 64.5508 56.9851 64.5952 56.8189 64.5892H55.5347V63.5458H56.6914ZM57.6633 66.5575C57.5865 66.6544 57.4824 66.7262 57.3643 66.7636C57.2019 66.8136 57.0328 66.8387 56.8629 66.8381H55.5435V65.5448H56.8321C57.0051 65.5412 57.178 65.5589 57.3467 65.5975C57.4716 65.6309 57.5835 65.7012 57.6677 65.7991C57.7482 65.9113 57.7885 66.0472 57.7821 66.1849C57.7871 66.3191 57.7451 66.4508 57.6633 66.5575Z" fill="white"/>
<path d="M63.5521 62.6946C63.1202 62.453 62.6333 62.3262 62.1381 62.3262C61.6429 62.3262 61.156 62.453 60.7241 62.6946C60.31 62.9352 59.9694 63.2838 59.739 63.7029C59.505 64.151 59.3828 64.6488 59.3828 65.154C59.3828 65.6591 59.505 66.1569 59.739 66.605C59.9675 67.0254 60.3086 67.3745 60.7241 67.6133C61.156 67.8549 61.6429 67.9817 62.1381 67.9817C62.6333 67.9817 63.1202 67.8549 63.5521 67.6133C63.9677 67.3745 64.3087 67.0254 64.5372 66.605C64.7712 66.1569 64.8934 65.6591 64.8934 65.154C64.8934 64.6488 64.7712 64.151 64.5372 63.7029C64.3068 63.2838 63.9663 62.9352 63.5521 62.6946ZM63.5169 66.0877C63.3854 66.3492 63.1904 66.5738 62.9495 66.7409C62.7083 66.8982 62.4264 66.982 62.1381 66.982C61.8499 66.982 61.5679 66.8982 61.3267 66.7409C61.0823 66.5758 60.8865 66.3489 60.7593 66.0833C60.6193 65.7936 60.5486 65.4755 60.5526 65.154C60.549 64.831 60.6197 64.5116 60.7593 64.2202C60.8865 63.9547 61.0823 63.7277 61.3267 63.5626C61.5667 63.4051 61.8485 63.3227 62.1359 63.3259C62.4254 63.322 62.7092 63.4061 62.9495 63.567C63.1917 63.7345 63.387 63.9608 63.5169 64.2246C63.6542 64.5161 63.7254 64.8341 63.7254 65.1561C63.7254 65.4782 63.6542 65.7962 63.5169 66.0877Z" fill="white"/>
<path d="M70.6246 62.5508H69.1821L67.8319 64.3833L66.4816 62.5508H65.0303L66.9786 65.1943L65.0303 67.8378H66.4816L67.8319 66.0053L69.1821 67.8378H70.6246L68.6807 65.1943L70.6246 62.5508Z" fill="white"/>
<path d="M51.251 87.2363H52.2933L54.5275 93.216H53.8591L51.8755 87.9071V93.216H51.251V87.2363ZM56.4275 87.2363H57.4655V93.216H56.8409V87.9071L54.8574 93.216H54.1933L56.4275 87.2363Z" fill="white"/>
<path d="M60.0424 88.0649V88.6479H58.2568V88.0649H60.0424ZM61.7489 92.6329V93.216H58.2568V92.6329H61.7489ZM60.3151 87.2363V93.216H59.6906V87.2363H60.3151Z" fill="white"/>
</g>
<defs>
<clipPath id="clip0_1_13345">
<rect width="113" height="205" fill="white" transform="translate(0 0.917969)"/>
</clipPath>
</defs>
</svg>
