<svg width="125" height="23" viewBox="0 0 125 23" fill="none" xmlns="http://www.w3.org/2000/svg">
<g clip-path="url(#clip0_1_6807)">
<path d="M103.481 19.0316H101.493L107.137 11.5021L101.493 3.97266H103.481L109.125 11.5021L103.481 19.0316ZM112.987 3.97266H114.975L109.339 11.5021L114.975 19.0316H112.987L107.351 11.5021L112.987 3.97266Z" fill="#010101"/>
<path d="M120.618 6.06827V7.56518H116.029V6.06827H120.618ZM124.999 17.5645V19.0614H116.045V17.5645H124.999ZM121.321 3.97266V19.0316H119.723V3.97266H121.321Z" fill="#010101"/>
<path d="M10.1477 10.1855H3.39533V4.07812H0V19.137H3.39533V13.0296H10.1477V19.137H13.5431V4.07812H10.1477V10.1855Z" fill="#010101"/>
<path d="M26.8563 4.96196C25.569 4.34011 24.1464 4.03446 22.7115 4.07134H16.2344V19.1302H22.7115C24.1464 19.1671 25.569 18.8614 26.8563 18.2395C27.99 17.6675 28.9144 16.7653 29.5021 15.6574C30.1066 14.3869 30.4198 13.0023 30.4198 11.6007C30.4198 10.1992 30.1066 8.81463 29.5021 7.54409C28.9144 6.43615 27.99 5.534 26.8563 4.96196ZM26.5121 14.1755C26.1911 14.8505 25.6542 15.4048 24.9827 15.7547C24.1768 16.1311 23.2905 16.3133 22.398 16.2861H19.6603V6.91541H22.3521C23.2446 6.88823 24.1309 7.0704 24.9368 7.44679C25.6083 7.79666 26.1452 8.35109 26.4662 9.02611C27.1491 10.6775 27.1491 12.5241 26.4662 14.1755H26.5121Z" fill="#010101"/>
<path d="M44.5671 11.2568V11.0622C45.3117 10.8763 45.9728 10.4554 46.4484 9.8647C46.9148 9.2767 47.1629 8.55082 47.1519 7.80645C47.1796 7.28962 47.085 6.77346 46.8754 6.2983C46.6658 5.82314 46.3469 5.40179 45.9436 5.06708C44.9543 4.35111 43.7379 4.00105 42.5101 4.07907H34.7559V19.138H43.0454C43.9603 19.1575 44.8685 18.9813 45.7066 18.6216C46.4373 18.3321 47.0587 17.8287 47.4858 17.1802C47.9129 16.5317 48.1248 15.77 48.0925 14.9991C48.1108 14.5377 48.0358 14.0774 47.8718 13.6445C47.7077 13.2117 47.4579 12.8148 47.1366 12.4768C46.4447 11.7988 45.5395 11.369 44.5671 11.2568ZM41.5083 6.92323H41.6154C42.1471 6.90587 42.6742 7.02451 43.1448 7.26749C43.3288 7.39526 43.4746 7.56872 43.5674 7.77C43.6601 7.97127 43.6964 8.1931 43.6724 8.41265C43.6907 8.62213 43.6571 8.83288 43.5746 9.02698C43.492 9.22109 43.363 9.39284 43.1983 9.52784C42.7953 9.78709 42.3189 9.91541 41.8371 9.89458H38.113V6.90076L41.5083 6.92323ZM44.3301 15.5005C44.1004 15.7738 43.7951 15.9765 43.4507 16.0843C42.9801 16.2263 42.4901 16.297 41.9977 16.2939H38.1742V12.6115H41.9136C42.4283 12.5972 42.9426 12.6502 43.443 12.7687C43.8058 12.8564 44.1301 13.0557 44.3683 13.3374C44.6115 13.6504 44.7334 14.0376 44.7124 14.4303C44.7152 14.8195 44.5801 15.1977 44.3301 15.5005Z" fill="#010101"/>
<path d="M61.3987 4.49726C60.148 3.81014 58.7379 3.44922 57.3036 3.44922C55.8694 3.44922 54.4592 3.81014 53.2086 4.49726C52.0029 5.18161 51.0113 6.17541 50.3409 7.37129C49.6702 8.64419 49.3203 10.0556 49.3203 11.4878C49.3203 12.92 49.6702 14.3314 50.3409 15.6043C51.0113 16.8002 52.0029 17.7941 53.2086 18.4784C54.4592 19.1655 55.8694 19.5264 57.3036 19.5264C58.7379 19.5264 60.148 19.1655 61.3987 18.4784C62.6008 17.7946 63.5876 16.8003 64.251 15.6043C64.9291 14.3336 65.2833 12.9213 65.2833 11.4878C65.2833 10.0542 64.9291 8.64196 64.251 7.37129C63.5876 6.17531 62.6008 5.18103 61.3987 4.49726ZM61.2916 14.1598C60.92 14.9114 60.353 15.5541 59.6475 16.0235C58.9506 16.4729 58.1344 16.7124 57.2998 16.7124C56.4653 16.7124 55.649 16.4729 54.9521 16.0235C54.2422 15.5505 53.6724 14.9024 53.3003 14.1448C52.8945 13.3215 52.6903 12.4169 52.7039 11.5028C52.6918 10.584 52.8958 9.67488 53.3003 8.84573C53.6704 8.0889 54.2408 7.44283 54.9521 6.97459C55.6474 6.52261 56.4652 6.2854 57.2998 6.29356C58.1369 6.28365 58.9567 6.52667 59.6475 6.98958C60.3586 7.45604 60.9268 8.10277 61.2916 8.86071C61.6893 9.68976 61.8954 10.5944 61.8954 11.5103C61.8954 12.4261 61.6893 13.3308 61.2916 14.1598Z" fill="#010101"/>
<path d="M81.9159 4.07812H77.7252L73.8175 9.29485L69.9099 4.07812H65.6963L71.3399 11.6076L65.6963 19.137H69.9099L73.8175 13.9128L77.7252 19.137H81.9159L76.2723 11.6076L81.9159 4.07812Z" fill="#010101"/>
<path d="M92.2929 0H91.1152V23H92.2929V0Z" fill="#E31F2B"/>
</g>
<defs>
<clipPath id="clip0_1_6807">
<rect width="125" height="23" fill="white"/>
</clipPath>
</defs>
</svg>
