<svg width="204" height="127" viewBox="0 0 204 127" fill="none" xmlns="http://www.w3.org/2000/svg">
<g clip-path="url(#clip0_1_13368)">
<path d="M204 22.4923V98.708C204 106.212 201.013 113.408 195.696 118.714C190.379 124.019 183.167 127 175.648 127H28.3523C20.8328 127 13.6212 124.019 8.30416 118.714C2.98707 113.408 0 106.212 0 98.708V22.4923C0.00146551 22.3559 0.0504158 22.2243 0.138567 22.1201C0.226718 22.0158 0.348524 21.9456 0.482998 21.9212C5.45515 20.8367 9.44552 3.51565 10.1123 0.440199C10.1411 0.310387 10.2137 0.194341 10.3178 0.111401C10.4219 0.0284602 10.5513 -0.0163647 10.6845 -0.0156158H193.331C193.464 -0.0163647 193.594 0.0284602 193.698 0.111401C193.802 0.194341 193.875 0.310387 193.903 0.440199C194.57 3.49993 198.555 20.821 203.533 21.9212C203.664 21.9497 203.781 22.0216 203.866 22.1253C203.951 22.229 203.998 22.3584 204 22.4923Z" fill="#333333"/>
<path d="M10.8 0H193.215C193.371 0 193.521 0.0618232 193.631 0.171869C193.742 0.281915 193.804 0.43117 193.804 0.586799V97.089C193.804 103.915 191.087 110.462 186.25 115.29C181.414 120.118 174.854 122.832 168.013 122.835H36.0125C29.1698 122.835 22.6073 120.122 17.7687 115.294C12.9302 110.466 10.2119 103.917 10.2119 97.089V0.586799C10.2119 0.43117 10.2739 0.281915 10.3841 0.171869C10.4944 0.0618232 10.644 0 10.8 0V0Z" fill="#4F4F4F"/>
<path d="M117.153 53.4199H113.95V69.4102H117.153V53.4199Z" fill="#DBDBDB"/>
<path d="M121.826 53.4199H120.224V69.4102H121.826V53.4199Z" fill="#DBDBDB"/>
<path d="M125.701 53.4199H124.897V69.4102H125.701V53.4199Z" fill="#DBDBDB"/>
<path d="M90.0504 53.4199H86.8477V69.4102H90.0504V53.4199Z" fill="#DBDBDB"/>
<path d="M83.7757 53.4199H82.1743V69.4102H83.7757V53.4199Z" fill="#DBDBDB"/>
<path d="M97.9257 69.4154V63.0183H106.074V69.4154H110.879V53.4199H106.074V59.8171H97.9257V53.4199H93.1216V69.4154H97.9257Z" fill="#DBDBDB"/>
<path d="M79.1031 53.4199H78.2998V69.4102H79.1031V53.4199Z" fill="#DBDBDB"/>
</g>
<defs>
<clipPath id="clip0_1_13368">
<rect width="204" height="127" fill="white"/>
</clipPath>
</defs>
</svg>
