<svg width="147" height="55" viewBox="0 0 147 55" fill="none" xmlns="http://www.w3.org/2000/svg">
<rect x="1" y="1" width="144.262" height="52.5017" rx="16" fill="white"/>
<rect x="0.5" y="0.5" width="145.262" height="53.5017" rx="16.5" stroke="black" stroke-opacity="0.14"/>
<path d="M34.0673 28.0466C34.0957 25.8284 35.2823 23.7296 37.1648 22.5677C35.9772 20.8651 33.9881 19.7855 31.9187 19.7205C29.7114 19.488 27.5716 21.0465 26.4468 21.0465C25.3003 21.0465 23.5685 19.7436 21.7037 19.7821C19.273 19.861 17.0069 21.2484 15.8244 23.3817C13.2822 27.8002 15.1784 34.2938 17.6136 37.8654C18.8319 39.6142 20.2558 41.5678 22.1189 41.4985C23.9421 41.4226 24.6231 40.3314 26.8238 40.3314C29.0042 40.3314 29.643 41.4985 31.544 41.4545C33.5003 41.4226 34.7329 39.6978 35.9085 37.9324C36.7839 36.6862 37.4575 35.309 37.9044 33.8516C35.6053 32.8754 34.0699 30.5527 34.0673 28.0466Z" fill="#090909"/>
<path d="M30.4767 17.3717C31.5434 16.0862 32.0689 14.4339 31.9416 12.7656C30.312 12.9375 28.8066 13.7194 27.7255 14.9556C26.6683 16.1634 26.1181 17.7867 26.2222 19.3911C27.8524 19.408 29.4551 18.6473 30.4767 17.3717Z" fill="#090909"/>
<path d="M99.0957 25.7562V28.4441H97.4174V30.2069H99.0957V36.1964C99.0957 38.2415 100.017 39.0596 102.336 39.0596C102.743 39.0596 103.131 39.0109 103.471 38.9525V37.2092C103.18 37.2384 102.996 37.2579 102.675 37.2579C101.637 37.2579 101.181 36.771 101.181 35.6607V30.2069H103.471V28.4441H101.181V25.7562H99.0957Z" fill="#090909"/>
<path d="M109.377 39.2057C112.462 39.2057 114.354 37.1313 114.354 33.6934C114.354 30.2751 112.453 28.1909 109.377 28.1909C106.292 28.1909 104.391 30.2751 104.391 33.6934C104.391 37.1313 106.283 39.2057 109.377 39.2057ZM109.377 37.3456C107.563 37.3456 106.545 36.0113 106.545 33.6934C106.545 31.395 107.563 30.0511 109.377 30.0511C111.182 30.0511 112.21 31.395 112.21 33.6934C112.21 36.0016 111.182 37.3456 109.377 37.3456Z" fill="#090909"/>
<path d="M115.973 39.0012H118.058V32.739C118.058 31.249 119.174 30.2459 120.755 30.2459C121.124 30.2459 121.745 30.314 121.919 30.3725V28.3078C121.696 28.2494 121.298 28.2201 120.988 28.2201C119.61 28.2201 118.437 28.9798 118.136 30.0219H117.981V28.3955H115.973V39.0012Z" fill="#090909"/>
<path d="M127.098 29.9732C128.641 29.9732 129.65 31.0542 129.698 32.7195H124.362C124.479 31.0639 125.556 29.9732 127.098 29.9732ZM129.688 36.1379C129.3 36.9657 128.437 37.4235 127.176 37.4235C125.507 37.4235 124.43 36.245 124.362 34.3849V34.268H131.823V33.5376C131.823 30.2069 130.047 28.1909 127.108 28.1909C124.13 28.1909 122.238 30.3432 122.238 33.7324C122.238 37.1216 124.091 39.2057 127.118 39.2057C129.533 39.2057 131.221 38.037 131.696 36.1379H129.688Z" fill="#090909"/>
<path d="M85.4178 35.0846C85.5787 37.6889 87.7405 39.3545 90.958 39.3545C94.3968 39.3545 96.5486 37.6082 96.5486 34.8222C96.5486 32.6318 95.3219 31.4205 92.3456 30.724L90.7469 30.3303C88.8566 29.8862 88.0924 29.2906 88.0924 28.2509C88.0924 26.9387 89.2789 26.0807 91.0586 26.0807C92.7478 26.0807 93.9142 26.9185 94.1253 28.261H96.3173C96.1866 25.8081 94.0348 24.082 91.0888 24.082C87.9215 24.082 85.8099 25.8081 85.8099 28.4023C85.8099 30.5423 87.0065 31.8141 89.6308 32.4299L91.501 32.8841C93.4215 33.3384 94.2661 34.0046 94.2661 35.1149C94.2661 36.407 92.9389 37.3457 91.129 37.3457C89.1884 37.3457 87.841 36.4675 87.65 35.0846H85.4178Z" fill="#090909"/>
<path d="M63.8117 28.2201C62.3759 28.2201 61.1342 28.9408 60.4939 30.1485H60.3387V28.3955H58.3306V42.5267H60.4163V37.3942H60.5812C61.1342 38.5142 62.3274 39.1765 63.8311 39.1765C66.4989 39.1765 68.1966 37.0631 68.1966 33.6934C68.1966 30.3238 66.4989 28.2201 63.8117 28.2201ZM63.2199 37.2969C61.4737 37.2969 60.3775 35.9139 60.3775 33.7032C60.3775 31.4827 61.4737 30.0998 63.2296 30.0998C64.9952 30.0998 66.0527 31.4535 66.0527 33.6934C66.0527 35.9431 64.9952 37.2969 63.2199 37.2969Z" fill="#090909"/>
<path d="M75.4949 28.2201C74.0592 28.2201 72.8174 28.9408 72.1772 30.1485H72.0219V28.3955H70.0138V42.5267H72.0995V37.3942H72.2645C72.8174 38.5142 74.0107 39.1765 75.5143 39.1765C78.1821 39.1765 79.8798 37.0631 79.8798 33.6934C79.8798 30.3238 78.1821 28.2201 75.4949 28.2201ZM74.9032 37.2969C73.157 37.2969 72.0607 35.9139 72.0607 33.7032C72.0607 31.4827 73.157 30.0998 74.9129 30.0998C76.6785 30.0998 77.7359 31.4535 77.7359 33.6934C77.7359 35.9431 76.6785 37.2969 74.9032 37.2969Z" fill="#090909"/>
<path d="M54.5884 39.0012H56.9815L51.7429 24.4353H49.3197L44.0811 39.0012H46.3937L47.731 35.1351H53.2612L54.5884 39.0012ZM50.4156 27.08H50.5866L52.688 33.2374H48.3041L50.4156 27.08Z" fill="#090909"/>
<path d="M44.0234 14.1602V19.9177H46.0941C47.8031 19.9177 48.7928 18.8604 48.7928 17.021C48.7928 15.2096 47.7952 14.1602 46.0941 14.1602H44.0234ZM44.9137 14.9742H45.9948C47.1831 14.9742 47.8866 15.7323 47.8866 17.033C47.8866 18.3537 47.195 19.1038 45.9948 19.1038H44.9137V14.9742Z" fill="#090909"/>
<path d="M51.8237 20.0015C53.0876 20.0015 53.8626 19.1517 53.8626 17.7432C53.8626 16.3427 53.0836 15.4889 51.8237 15.4889C50.5598 15.4889 49.7808 16.3427 49.7808 17.7432C49.7808 19.1517 50.5558 20.0015 51.8237 20.0015ZM51.8237 19.2395C51.0805 19.2395 50.6631 18.6928 50.6631 17.7432C50.6631 16.8016 51.0805 16.251 51.8237 16.251C52.5629 16.251 52.9842 16.8016 52.9842 17.7432C52.9842 18.6888 52.5629 19.2395 51.8237 19.2395Z" fill="#090909"/>
<path d="M60.4625 15.5727H59.608L58.837 18.8883H58.7694L57.8791 15.5727H57.0604L56.1701 18.8883H56.1065L55.3315 15.5727H54.4651L55.6574 19.9177H56.5358L57.4261 16.7178H57.4936L58.3879 19.9177H59.2742L60.4625 15.5727Z" fill="#090909"/>
<path d="M61.4466 19.9177H62.3011V17.3761C62.3011 16.6979 62.7025 16.2749 63.3345 16.2749C63.9664 16.2749 64.2685 16.622 64.2685 17.3203V19.9177H65.123V17.1048C65.123 16.0714 64.5904 15.4889 63.6246 15.4889C62.9728 15.4889 62.5435 15.7802 62.3329 16.2629H62.2693V15.5727H61.4466V19.9177Z" fill="#090909"/>
<path d="M66.4687 19.9177H67.3232V13.877H66.4687V19.9177Z" fill="#090909"/>
<path d="M70.5369 20.0015C71.8008 20.0015 72.5758 19.1517 72.5758 17.7432C72.5758 16.3427 71.7968 15.4889 70.5369 15.4889C69.2731 15.4889 68.4941 16.3427 68.4941 17.7432C68.4941 19.1517 69.2691 20.0015 70.5369 20.0015ZM70.5369 19.2395C69.7937 19.2395 69.3764 18.6928 69.3764 17.7432C69.3764 16.8016 69.7937 16.251 70.5369 16.251C71.2762 16.251 71.6975 16.8016 71.6975 17.7432C71.6975 18.6888 71.2762 19.2395 70.5369 19.2395Z" fill="#090909"/>
<path d="M75.1219 19.2674C74.6569 19.2674 74.319 19.04 74.319 18.6489C74.319 18.2659 74.5893 18.0624 75.1855 18.0225L76.2427 17.9547V18.3178C76.2427 18.8564 75.7657 19.2674 75.1219 19.2674ZM74.9033 19.9896C75.4716 19.9896 75.9446 19.7422 76.2029 19.3073H76.2705V19.9177H77.0932V16.9492C77.0932 16.0315 76.4811 15.4889 75.3961 15.4889C74.4144 15.4889 73.7149 15.9677 73.6275 16.7138H74.4542C74.5495 16.4066 74.8794 16.231 75.3564 16.231C75.9406 16.231 76.2427 16.4904 76.2427 16.9492V17.3243L75.0702 17.3921C74.0408 17.4559 73.4605 17.9068 73.4605 18.6888C73.4605 19.4828 74.0686 19.9896 74.9033 19.9896Z" fill="#090909"/>
<path d="M79.9929 19.9896C80.5891 19.9896 81.0939 19.7063 81.3522 19.2315H81.4198V19.9177H82.2385V13.877H81.384V16.2629H81.3204C81.0859 15.7842 80.5851 15.5009 79.9929 15.5009C78.9 15.5009 78.1965 16.3707 78.1965 17.7432C78.1965 19.1198 78.892 19.9896 79.9929 19.9896ZM80.2354 16.2709C80.9508 16.2709 81.3999 16.8415 81.3999 17.7472C81.3999 18.6569 80.9548 19.2195 80.2354 19.2195C79.512 19.2195 79.0788 18.6649 79.0788 17.7432C79.0788 16.8295 79.516 16.2709 80.2354 16.2709Z" fill="#090909"/>
<path d="M87.7797 20.0015C89.0435 20.0015 89.8186 19.1517 89.8186 17.7432C89.8186 16.3427 89.0396 15.4889 87.7797 15.4889C86.5158 15.4889 85.7368 16.3427 85.7368 17.7432C85.7368 19.1517 86.5118 20.0015 87.7797 20.0015ZM87.7797 19.2395C87.0364 19.2395 86.6191 18.6928 86.6191 17.7432C86.6191 16.8016 87.0364 16.251 87.7797 16.251C88.5189 16.251 88.9402 16.8016 88.9402 17.7432C88.9402 18.6888 88.5189 19.2395 87.7797 19.2395Z" fill="#090909"/>
<path d="M90.9497 19.9177H91.8042V17.3761C91.8042 16.6979 92.2056 16.2749 92.8375 16.2749C93.4695 16.2749 93.7715 16.622 93.7715 17.3203V19.9177H94.626V17.1048C94.626 16.0714 94.0935 15.4889 93.1277 15.4889C92.4759 15.4889 92.0466 15.7802 91.836 16.2629H91.7724V15.5727H90.9497V19.9177Z" fill="#090909"/>
<path d="M98.5615 14.4914V15.5926H97.874V16.3148H98.5615V18.7686C98.5615 19.6065 98.9391 19.9417 99.889 19.9417C100.056 19.9417 100.215 19.9217 100.354 19.8978V19.1836C100.235 19.1956 100.159 19.2035 100.028 19.2035C99.6028 19.2035 99.416 19.004 99.416 18.5492V16.3148H100.354V15.5926H99.416V14.4914H98.5615Z" fill="#090909"/>
<path d="M101.501 19.9177H102.356V17.3801C102.356 16.7218 102.745 16.2789 103.445 16.2789C104.049 16.2789 104.371 16.63 104.371 17.3243V19.9177H105.225V17.1128C105.225 16.0794 104.657 15.4929 103.735 15.4929C103.083 15.4929 102.626 15.7842 102.415 16.2709H102.348V13.877H101.501V19.9177Z" fill="#090909"/>
<path d="M108.308 16.2191C108.94 16.2191 109.353 16.6619 109.373 17.3442H107.187C107.235 16.6659 107.676 16.2191 108.308 16.2191ZM109.369 18.7447C109.21 19.0838 108.856 19.2714 108.339 19.2714C107.656 19.2714 107.215 18.7886 107.187 18.0265V17.9786H110.243V17.6794C110.243 16.3148 109.516 15.4889 108.312 15.4889C107.091 15.4889 106.316 16.3707 106.316 17.7592C106.316 19.1477 107.076 20.0015 108.316 20.0015C109.305 20.0015 109.997 19.5227 110.192 18.7447H109.369Z" fill="#090909"/>
</svg>
