<svg width="124" height="101" viewBox="0 0 124 101" fill="none" xmlns="http://www.w3.org/2000/svg">
<path d="M9.5876 35.5132H0V28.4181H9.5876V18.543H17.0658V28.4181H26.6534V35.5132H17.0658V45.4843H9.5876V35.5132Z" fill="#0F0F0F"/>
<path d="M45.0302 27.2887C46.6539 25.6706 47.573 23.4767 47.5871 21.1844V12.3322C47.5871 9.77552 46.4042 8.59291 44.0393 8.59291H42.8252C40.3644 8.59291 39.1819 9.77552 39.1819 12.3322V23.7413H29.8818V11.9803C29.8818 4.02262 33.8125 0.0917969 41.6424 0.0917969H45.4777C53.3395 0.0917969 57.2702 4.02262 57.2702 11.9803V20.8329C57.3339 25.5173 55.5552 30.0395 52.3169 33.4249L42.0263 46.2083C41.1334 47.1412 40.4383 48.2448 39.9824 49.453C39.5266 50.6611 39.3193 51.9489 39.3735 53.2391V55.508H57.2702V64.3606H29.6899V52.8876C29.6307 48.135 31.4315 43.5475 34.7076 40.1041L45.0302 27.2887Z" fill="#0F0F0F"/>
<path d="M78.0432 0C85.9689 0 89.9001 3.93121 89.9001 11.8889V21.732C89.9001 27.197 87.9825 29.9454 84.5949 31.3196C88.4299 32.4062 90.0917 34.8669 90.0917 39.5329V53.2113C90.0917 61.169 86.1608 65.0998 78.2031 65.0998H73.7928C65.8671 65.0998 61.9363 61.169 61.9363 53.2113V39.5329C61.9363 34.8669 63.566 32.4062 67.4011 31.3196C64.2052 30.0413 62.1278 27.2929 62.1278 21.732V11.8889C62.1278 3.93121 66.059 0 73.9848 0H78.0432ZM71.6514 52.8598C71.6514 55.3206 72.8341 56.5031 75.3908 56.5031H77.0207C77.5189 56.5848 78.0296 56.5471 78.5105 56.3935C78.9915 56.2398 79.4292 55.9745 79.7878 55.6191C80.1464 55.2636 80.4156 54.8281 80.5735 54.3485C80.7314 53.8689 80.7733 53.3587 80.696 52.8598V39.7248C80.7733 39.2258 80.7314 38.7157 80.5735 38.2361C80.4156 37.7565 80.1464 37.3209 79.7878 36.9655C79.4292 36.61 78.9915 36.3448 78.5105 36.1911C78.0296 36.0374 77.5189 35.9998 77.0207 36.0815H75.3908C72.8341 36.0815 71.6514 37.264 71.6514 39.7248V52.8598ZM76.9567 27.6763C79.4175 27.6763 80.6 26.4941 80.6 23.9374V12.1444C80.6761 11.6486 80.6341 11.1418 80.4779 10.6651C80.3217 10.1884 80.0555 9.75508 79.7008 9.40034C79.3461 9.04561 78.9128 8.77943 78.436 8.62322C77.9593 8.46702 77.4526 8.42509 76.9567 8.50111H75.4867C72.93 8.50111 71.7474 9.68363 71.7474 12.1444V23.9374C71.6495 24.4497 71.6784 24.9779 71.8317 25.4764C71.9849 25.9749 72.258 26.4286 72.6267 26.7974C72.9955 27.1662 73.4488 27.4388 73.9473 27.592C74.4458 27.7453 74.9745 27.7743 75.4867 27.6763H76.9567Z" fill="#0F0F0F"/>
<path d="M112.143 65.0042H107.285C99.3595 65.0042 95.4287 61.073 95.4287 53.1153V11.8889C95.4287 3.93121 99.3595 0 107.285 0H112.143C120.069 0 124 3.93121 124 11.8889V53.1153C124.032 61.073 120.101 65.0042 112.143 65.0042ZM110.673 8.59708H108.947C108.435 8.49914 107.906 8.5281 107.408 8.68135C106.909 8.8346 106.456 9.10763 106.087 9.47642C105.718 9.8452 105.445 10.2985 105.292 10.797C105.139 11.2955 105.11 11.8241 105.208 12.3364V52.6682C105.11 53.1805 105.139 53.7087 105.292 54.2072C105.445 54.7058 105.718 55.1594 106.087 55.5282C106.456 55.897 106.909 56.1696 107.408 56.3229C107.906 56.4761 108.435 56.5051 108.947 56.4071H110.769C113.229 56.4071 114.412 55.2249 114.412 52.6682V12.3364C114.348 9.7797 113.166 8.59708 110.705 8.59708H110.673Z" fill="#0F0F0F"/>
<path d="M40.5876 91.0187V96.164C40.6671 96.7409 40.612 97.3283 40.4265 97.8802C40.241 98.4321 39.93 98.9334 39.5183 99.3451C39.1066 99.7568 38.6053 100.068 38.0534 100.253C37.5015 100.439 36.9141 100.494 36.3373 100.414H35.4423C34.8631 100.499 34.2721 100.448 33.7161 100.265C33.16 100.082 32.6542 99.7723 32.2387 99.3599C31.8232 98.9475 31.5091 98.4439 31.3219 97.8892C31.1347 97.3345 31.0794 96.7439 31.16 96.164V79.9608C31.0848 79.3834 31.1443 78.7964 31.334 78.2458C31.5236 77.6953 31.8383 77.1962 32.2531 76.7875C32.6679 76.3789 33.1717 76.072 33.725 75.8907C34.2784 75.7093 34.8661 75.6586 35.4423 75.7424H36.3693C36.9377 75.6626 37.5169 75.7159 38.0612 75.8981C38.6056 76.0802 39.1 76.3863 39.5058 76.7922C39.9117 77.1981 40.2178 77.6925 40.4 78.2368C40.5822 78.7812 40.6355 79.3604 40.5557 79.9288V84.4031H38.6382V79.8968C38.6807 79.5931 38.6521 79.2837 38.5547 78.9929C38.4573 78.7021 38.2937 78.4381 38.0768 78.2212C37.86 78.0044 37.596 77.8407 37.3052 77.7433C37.0144 77.646 36.705 77.6173 36.4013 77.6599H35.4423C35.1362 77.6118 34.8229 77.6363 34.5279 77.7312C34.2329 77.8262 33.9644 77.9888 33.7438 78.2064C33.5231 78.424 33.3564 78.6903 33.2573 78.9839C33.1582 79.2775 33.1297 79.59 33.1734 79.8968V96.2596C33.1734 97.7617 33.9083 98.465 35.4423 98.465H36.2733C36.5752 98.5133 36.8844 98.4899 37.1756 98.3967C37.4669 98.3035 37.7319 98.1428 37.9496 97.9282C38.1674 97.7135 38.3317 97.4506 38.4291 97.1608C38.5265 96.871 38.5542 96.5622 38.5103 96.2596V91.0187H40.5876Z" fill="#0F0F0F"/>
<path d="M50.9111 86.8577V75.9277H52.9885V100.217H50.9111V88.8072H45.5422V100.217H43.4648V75.9277H45.5422V86.8577H50.9111Z" fill="#0F0F0F"/>
<path d="M65.9953 100.212H63.9818L63.2465 95.6096H58.0692L57.3662 100.212H55.3848L59.4116 75.8594H61.9364L65.9953 100.212ZM58.3891 93.8201H62.927L60.626 79.4067L58.3891 93.8201Z" fill="#0F0F0F"/>
<path d="M75.7421 100.218L70.2773 80.2117V89.7993V100.249H68.2959V75.9609H70.9483L76.2216 95.424V75.9609H78.203V100.249L75.7421 100.218Z" fill="#0F0F0F"/>
<path d="M88.7494 100.218L83.2842 80.2117V89.7993V100.249H81.3027V75.9609H83.9556L89.2284 95.424V75.9609H91.1779V100.249L88.7494 100.218Z" fill="#0F0F0F"/>
<path d="M101.693 75.9277V77.8772H96.4514V86.8577H101.533V88.8072H96.4514V98.3948H101.757V100.344H94.374V76.0557L101.693 75.9277Z" fill="#0F0F0F"/>
<path d="M106.615 75.9277V98.2988H111.568V100.248H104.537V75.9597L106.615 75.9277Z" fill="#0F0F0F"/>
<path d="M122.593 92.5495V96.2248C122.669 96.798 122.61 97.3809 122.422 97.9277C122.234 98.4744 121.922 98.9701 121.51 99.3758C121.098 99.7815 120.598 100.086 120.048 100.266C119.499 100.445 118.915 100.495 118.343 100.411H117.576C117.008 100.495 116.428 100.446 115.883 100.268C115.337 100.09 114.84 99.7883 114.431 99.3855C114.022 98.9827 113.712 98.4905 113.526 97.9476C113.34 97.4046 113.282 96.8254 113.357 96.2564V91.271H115.403V96.3204C115.403 97.7905 116.17 98.4617 117.64 98.4617H118.279C119.749 98.4617 120.516 97.7905 120.516 96.3204V92.6134C120.552 92.0878 120.443 91.5625 120.2 91.0947C119.958 90.6269 119.592 90.2345 119.142 89.9606L115.562 87.2762C114.838 86.8186 114.253 86.172 113.87 85.406C113.487 84.6399 113.321 83.7836 113.389 82.9299V79.9255C113.307 79.351 113.361 78.7652 113.547 78.2153C113.732 77.6653 114.044 77.1666 114.458 76.7593C114.871 76.352 115.374 76.0475 115.927 75.8702C116.48 75.693 117.066 75.6483 117.64 75.7392H118.311C118.879 75.655 119.459 75.7039 120.004 75.8819C120.55 76.06 121.047 76.362 121.456 76.7648C121.865 77.1676 122.175 77.6598 122.361 78.2028C122.547 78.7457 122.605 79.3245 122.53 79.8936V84.1443H120.484V79.83C120.484 78.3599 119.749 77.6566 118.247 77.6566H117.704C116.202 77.6566 115.467 78.3599 115.467 79.83V83.0258C115.436 83.5552 115.546 84.0831 115.788 84.5551C116.029 85.0271 116.393 85.4261 116.841 85.7103L120.42 88.3307C121.127 88.7752 121.701 89.4012 122.083 90.1432C122.465 90.8852 122.642 91.7162 122.593 92.5495V92.5495Z" fill="#0F0F0F"/>
</svg>
