<svg width="138" height="98" viewBox="0 0 138 98" fill="none" xmlns="http://www.w3.org/2000/svg">
<path d="M43.0687 73.4434V75.3493H38.1501V84.1106H42.915V86.0166H38.1501V97.1146H36.1211V73.4434H43.0687Z" fill="#E81D2C"/>
<path d="M54.7202 93.1488C54.7974 93.7146 54.7422 94.2906 54.5589 94.8315C54.3756 95.3724 54.0692 95.8634 53.6639 96.2657C53.2586 96.6681 52.7654 96.9706 52.2232 97.1499C51.681 97.3292 51.1045 97.3802 50.5392 97.2988H49.6786C49.1133 97.3802 48.5368 97.3292 47.9946 97.1499C47.4524 96.9706 46.9593 96.6681 46.5539 96.2657C46.1486 95.8634 45.8422 95.3724 45.6589 94.8315C45.4757 94.2906 45.4206 93.7146 45.4978 93.1488V73.4434H47.5266V93.2103C47.4849 93.5135 47.5144 93.822 47.6129 94.1117C47.7115 94.4015 47.8763 94.6643 48.0942 94.8791C48.3121 95.094 48.577 95.2552 48.868 95.3497C49.1591 95.4442 49.4681 95.4695 49.7707 95.4237H50.4779C50.7781 95.4643 51.0836 95.435 51.3706 95.3381C51.6577 95.2412 51.9186 95.0795 52.1328 94.8653C52.347 94.651 52.5087 94.3901 52.6056 94.1031C52.7025 93.816 52.7318 93.5106 52.6912 93.2103V73.4434H54.7202V93.1488Z" fill="#E81D2C"/>
<path d="M59.7925 73.4434V95.2086H64.6498V97.1146H57.7637V73.4434H59.7925Z" fill="#E81D2C"/>
<path d="M68.9226 73.4434V95.2086H73.7491V97.1146H66.8936V73.4434H68.9226Z" fill="#E81D2C"/>
<path d="M87.3064 84.0802V73.4434H89.4275V97.1146H87.3987V85.9862H82.2034V97.1146H80.2051V73.4434H82.2339V84.0802H87.3064Z" fill="#E81D2C"/>
<path d="M92.502 73.4387H96.652C97.3433 73.3278 98.0512 73.3825 98.7172 73.5982C99.3833 73.8139 99.9887 74.1843 100.484 74.6793C100.979 75.1744 101.349 75.78 101.565 76.4461C101.781 77.1122 101.835 77.8199 101.724 78.5111V92.099C101.829 92.7851 101.77 93.4857 101.554 94.145C101.337 94.8042 100.969 95.4034 100.478 95.8941C99.9875 96.3847 99.3883 96.7535 98.7291 96.97C98.0698 97.1865 97.3688 97.245 96.6828 97.1407H92.502V73.4387ZM94.5308 95.204H96.5599C96.9767 95.2596 97.4008 95.2183 97.7992 95.0835C98.1975 94.9487 98.5593 94.7238 98.8567 94.4264C99.154 94.1291 99.3789 93.7673 99.5137 93.3689C99.6485 92.9706 99.6897 92.5467 99.634 92.1298V78.5111C99.6897 78.0943 99.6485 77.6704 99.5137 77.272C99.3789 76.8737 99.154 76.5115 98.8567 76.2142C98.5593 75.9168 98.1975 75.6922 97.7992 75.5574C97.4008 75.4226 96.9767 75.3813 96.5599 75.437H94.5308V95.204Z" fill="#E81D2C"/>
<path d="M18.7217 26.7461V0.523438H28.2515V62.7751H18.7217V35.4766H9.49922V62.8674H0V0.615752H9.49922V26.838L18.7217 26.7461Z" fill="#E81D2C"/>
<path d="M42.332 62.7695H33.3555V50.8418H42.332V62.7695Z" fill="#E81D2C"/>
<path d="M61.7608 26.592C63.3312 25.0011 64.2237 22.8635 64.2508 20.6283V11.9897C64.2508 9.49966 63.0826 8.33166 60.777 8.33166H59.6088C57.211 8.33166 56.0736 9.49966 56.0736 11.9897V23.1797H46.8512V11.7132C46.8512 3.96628 50.6938 0.154297 58.3485 0.154297H62.0681C69.7227 0.154297 73.5348 3.96628 73.5348 11.7132V20.3206C73.63 24.8932 71.905 29.3164 68.7392 32.6172L58.6866 45.2523C57.8224 46.1662 57.149 47.2429 56.7056 48.4199C56.2622 49.5969 56.0578 50.8507 56.1042 52.1076V54.3209H73.5348V62.9591H46.6973V51.7695C46.6859 47.1948 48.4363 42.7913 51.5853 39.4729L61.7608 26.592Z" fill="#E81D2C"/>
<path d="M87.7675 27.022C90.0262 25.7768 92.5662 25.1312 95.1454 25.1468H95.5758C96.9407 25.0668 98.3068 25.2814 99.5814 25.7761C100.856 26.2708 102.009 27.034 102.963 28.0138C103.916 28.9936 104.648 30.167 105.108 31.4546C105.568 32.7421 105.745 34.1137 105.628 35.4759V51.7383C105.628 59.4852 101.786 63.2971 94.0695 63.2971H89.8887C82.1418 63.2971 78.2991 59.4852 78.2991 51.7383V11.5589C78.2991 3.81198 82.1418 0 89.8887 0H93.9772C101.693 0 105.352 3.62773 105.352 11.3746V19.9205H96.1291V11.9893C96.1291 9.49922 94.9609 8.33122 92.6553 8.33122H91.149C88.8434 8.33122 87.6752 9.49922 87.6752 11.9893L87.7675 27.022ZM87.7675 51.3079C87.7675 53.7979 88.9357 54.9352 91.2413 54.9352H92.8398C95.1454 54.9352 96.3136 53.7979 96.3136 51.3079V37.3511C96.3136 34.7688 95.2376 33.6007 92.6553 33.6007C90.9781 33.6133 89.319 33.9471 87.7675 34.5843V51.3079Z" fill="#E81D2C"/>
<path d="M137.661 51.7428C137.661 59.4897 133.849 63.3017 126.195 63.3017H122.198C114.543 63.3017 110.793 59.5817 110.793 51.8348V40.7987H120.015V51.3124C120.015 53.8025 121.184 54.9397 123.581 54.9397H124.75C127.147 54.9397 128.285 53.8025 128.285 51.3124V35.2958C128.285 32.7135 127.332 31.3919 124.996 31.3919C123.919 31.4577 122.872 31.7688 121.934 32.3016C120.996 32.8344 120.193 33.575 119.585 34.4661H111.223V0.650391H136.831V9.28857H120.015V25.9814C122.276 23.9347 125.236 22.8343 128.285 22.9072C129.601 22.8611 130.911 23.0971 132.128 23.5996C133.345 24.1021 134.44 24.8593 135.34 25.8204C136.24 26.7815 136.924 27.9242 137.345 29.1715C137.767 30.4189 137.916 31.7418 137.784 33.0517L137.661 51.7428Z" fill="#E81D2C"/>
</svg>
