<svg width="86" height="36" viewBox="0 0 86 36" fill="none" xmlns="http://www.w3.org/2000/svg">
<path fill-rule="evenodd" clip-rule="evenodd" d="M19.7856 0.472808H14.2226L12.1365 10.6532H17.6995L19.7856 0.472808ZM11.4411 0.472808H5.87812L3.79199 10.6532H9.355L11.4411 0.472808ZM45.7927 7.03712C45.0695 10.6253 43.9848 10.0411 42.2324 10.1524L43.5119 3.894C46.2934 3.72711 46.2934 4.70065 45.7927 7.03712ZM51.4948 6.25839C52.663 0.556301 48.9914 0.472808 44.2907 0.472808H38.7277L36.6416 10.6532H49.1306C50.4456 9.53584 51.2982 7.96938 51.5226 6.25839M29.8547 10.6532C28.1301 8.95649 26.3222 7.64908 26.7117 5.67421C26.962 4.50598 27.3792 3.81065 28.5752 3.81065C29.7713 3.81065 29.9104 4.50598 29.66 5.67421L29.2427 7.70482H34.8058L35.3065 5.25708C36.1409 1.27953 33.2481 0 29.5209 0C25.2374 0 22.0943 1.64099 21.1764 5.98013C20.7896 7.54564 20.9567 9.19692 21.6493 10.6532H29.8547Z" fill="black"/>
<path fill-rule="evenodd" clip-rule="evenodd" d="M43.7622 16.9988C43.2615 19.4743 42.9278 21.1711 40.0072 20.893L41.398 14.2173H43.4562C43.5763 14.205 43.6969 14.2342 43.7982 14.3C43.8994 14.3658 43.975 14.4642 44.0125 14.5789C44.0388 15.3931 43.9546 16.2072 43.7622 16.9988ZM10.718 17.6663C10.3285 19.5578 10.0225 20.9763 8.5483 20.9763C7.0741 20.9763 7.3801 19.5578 7.79733 17.6663L8.4927 14.2173H11.4411L10.718 17.6663ZM2.98529 14.1895L2.4012 16.971C1.78927 19.975 0.92704 24.7591 7.74173 24.7591C12.9153 24.7591 15.1127 22.5618 16.281 17.4995L16.9485 14.1895H24.6532C25.4558 14.717 26.0898 15.4643 26.4794 16.3421C26.869 17.22 26.9979 18.1915 26.8507 19.1406C26.5447 20.5314 25.9049 20.9485 25.0148 20.9485C24.1248 20.9485 23.6241 20.5314 23.9301 19.1406L24.4864 16.3591H18.9233L18.3114 19.4744C17.4491 23.591 20.6201 24.787 24.1526 24.787C26.1268 25.0073 28.1084 24.4426 29.6696 23.2144C31.2308 21.9862 32.2465 20.1932 32.4971 18.2227C32.822 16.8969 32.7544 15.5053 32.3024 14.2173H35.8071L33.721 24.3142H39.284C45.153 24.3142 47.6285 24.0916 49.1027 17.5273C49.3575 16.4435 49.4605 15.3295 49.4086 14.2173H2.98529V14.1895Z" fill="black"/>
<path fill-rule="evenodd" clip-rule="evenodd" d="M80.6726 11.4922H78.0857L78.7811 9.04444H81.368L80.6726 11.4922ZM79.3374 16.2208H76.7506L77.446 13.773H80.0328L79.3374 16.2208ZM76.389 6.62454L73.0234 18.585H81.7017L85.0673 6.54102L76.389 6.62454Z" fill="black"/>
<path fill-rule="evenodd" clip-rule="evenodd" d="M63.7335 4.2574C61.1783 4.13188 58.6451 4.78542 56.4696 6.13149C54.294 7.47755 52.5786 9.45271 51.5505 11.7953H3.51384L2.98535 14.2152H51.0776C50.8551 18.2206 54.9717 21.03 59.4221 21.03H71.327L76.0555 4.34093L63.7335 4.2574Z" fill="black"/>
<path fill-rule="evenodd" clip-rule="evenodd" d="M0.120117 33.851L0.759894 29.7901H1.28839L0.676452 33.6284C0.509562 34.3794 0.676418 34.7411 1.51087 34.7411C1.66384 34.7526 1.8176 34.7324 1.96237 34.6816C2.10714 34.6309 2.23984 34.5506 2.35216 34.4462C2.46448 34.3417 2.55399 34.2151 2.61505 34.0744C2.67611 33.9336 2.70741 33.7818 2.70698 33.6284L3.31892 29.7901H4.06989L3.43011 33.851C3.36139 34.2742 3.1324 34.6548 2.79059 34.9137C2.44879 35.1727 2.02038 35.2901 1.59431 35.2417C0.565155 35.2417 0.0923259 34.741 0.231401 33.851M7.96398 34.1847L8.6316 29.7901H9.27129L8.40903 35.1305H7.43549L6.60107 30.8469C6.55431 30.58 6.55431 30.3071 6.60107 30.0403C6.58565 30.1603 6.58565 30.2819 6.60107 30.4019C6.61007 30.5594 6.61007 30.7172 6.60107 30.8747L5.93354 35.1305H5.34936L6.18386 29.7901H6.8514L7.71366 34.1847C7.68253 34.3688 7.68253 34.5569 7.71366 34.7411C7.73268 34.6587 7.73268 34.573 7.71366 34.4906C7.69266 34.3897 7.69266 34.2856 7.71366 34.1847M10.7733 35.1305H10.1892L11.0237 29.7901H11.6356L10.7733 35.1305ZM14.3337 34.7411L16.3642 29.7901H17.0317L14.6396 35.1305H13.9164L13.1932 29.7901H13.833L14.3337 34.7411ZM20.2583 35.1305H17.4768L18.3112 29.7901H21.0927V30.3184H19.0066L18.7284 32.0986H20.6755V32.6271H18.7284L18.4225 34.6299H20.5086L20.2583 35.1305ZM23.3735 30.3184L23.0954 32.2376H24.0411C24.1828 32.2571 24.3272 32.2468 24.4647 32.2074C24.6023 32.168 24.7301 32.1004 24.84 32.0088C24.9499 31.9172 25.0396 31.8036 25.1032 31.6754C25.1667 31.5471 25.2029 31.4071 25.2093 31.2642C25.2093 30.6244 24.959 30.2906 24.208 30.3184H23.3735ZM22.9841 32.794L22.6226 35.1305H22.0384L22.8729 29.7901H24.2358C25.5153 29.7901 26.0438 30.2629 25.8213 31.3199C25.7698 31.6202 25.623 31.896 25.4025 32.1064C25.1821 32.3168 24.8998 32.4506 24.5974 32.488C25.2093 32.488 25.4597 32.8218 25.4041 33.4893C25.3755 33.8968 25.3755 34.3058 25.4041 34.7132C25.4041 34.9357 25.4041 35.0191 25.571 35.0191H24.8477C24.831 34.8434 24.831 34.6664 24.8477 34.4906C24.832 34.222 24.832 33.9527 24.8477 33.6841C24.8477 33.035 24.5974 32.7013 24.0968 32.6828L22.9841 32.794ZM30.6611 31.1808H30.0491C30.0491 30.5689 30.0492 30.2628 29.3816 30.2072C29.2434 30.1917 29.1034 30.2052 28.9707 30.2467C28.838 30.2883 28.7154 30.3572 28.6107 30.4488C28.506 30.5404 28.4216 30.6528 28.3627 30.7788C28.3039 30.9048 28.272 31.0418 28.269 31.1808C28.2257 31.3283 28.2422 31.487 28.3151 31.6224C28.388 31.7578 28.5114 31.8588 28.6584 31.9039L29.0478 32.0707H29.4372C30.2717 32.3767 30.6055 32.8496 30.4107 33.545C30.3426 33.992 30.1119 34.3981 29.7629 34.6855C29.4139 34.973 28.9711 35.1215 28.5193 35.1027C27.7683 35.1027 27.3232 34.8246 27.1563 34.2961C27.0772 33.967 27.0772 33.6237 27.1563 33.2946H27.7405C27.518 34.1847 27.7405 34.6298 28.5749 34.602C28.8511 34.6253 29.1253 34.5392 29.3386 34.3623C29.5519 34.1854 29.6872 33.9319 29.7154 33.6562C29.767 33.4535 29.7378 33.2387 29.6341 33.0571C29.5303 32.8755 29.3599 32.7412 29.159 32.6828C29.0576 32.698 28.9545 32.698 28.8531 32.6828C28.6025 32.6304 28.3657 32.5262 28.1577 32.3768C27.7683 32.21 27.6293 31.7927 27.7405 31.1808C27.7893 30.763 27.994 30.3788 28.3138 30.1055C28.6335 29.8321 29.0447 29.6897 29.465 29.7065C30.4942 29.7065 30.9114 30.2628 30.7445 31.2085M31.5233 35.1583L33.8876 29.8177H34.6664L35.334 35.1583H34.6664L34.4996 33.6284H32.8028L32.1631 35.1583H31.5233ZM34.444 33.0999L34.1936 30.3184L33.0532 33.0999H34.444ZM39.5897 35.1583H36.8082L37.6427 29.8177H38.2546L37.4758 34.6577H39.701L39.5897 35.1583ZM46.0984 31.2085H45.4865C45.4865 30.5966 45.4865 30.2907 44.7912 30.235C44.6537 30.2237 44.5154 30.2401 44.3844 30.2832C44.2534 30.3264 44.1324 30.3953 44.0286 30.4861C43.9249 30.5769 43.8404 30.6876 43.7803 30.8117C43.7201 30.9358 43.6855 31.0708 43.6785 31.2085C43.6351 31.356 43.6518 31.5148 43.7247 31.6502C43.7976 31.7856 43.9209 31.8867 44.0679 31.9317L44.4573 32.0986H44.8746C45.7091 32.4046 46.015 32.8775 45.8481 33.5729C45.7743 34.0172 45.5421 34.4199 45.1944 34.7062C44.8466 34.9926 44.4069 35.1433 43.9567 35.1305C43.2057 35.1305 42.7606 34.8522 42.5938 34.3238C42.5146 33.9947 42.5146 33.6515 42.5938 33.3225H43.1778C42.9553 34.2125 43.1778 34.6577 44.0123 34.6299C44.2868 34.6462 44.5574 34.5576 44.7691 34.382C44.9808 34.2064 45.1179 33.9569 45.1527 33.6841C45.2033 33.4776 45.1703 33.2594 45.0609 33.0771C44.9515 32.8948 44.7746 32.7632 44.5686 32.7106H44.2348C43.9942 32.6539 43.7673 32.5498 43.5673 32.4045C43.1501 32.2376 43.011 31.8204 43.1222 31.2085C43.1828 30.7957 43.3909 30.419 43.7079 30.1479C44.025 29.8769 44.4296 29.73 44.8468 29.7344C45.8759 29.7344 46.321 30.2906 46.1541 31.2363M50.0482 35.186H47.2667L48.1289 29.8456H50.9104V30.3741H48.8243L48.5461 32.1543H50.4932V32.6828H48.5461L48.2124 34.6854H50.3263L50.0482 35.186ZM53.1634 30.3741L52.8575 32.2933H53.8032C53.9458 32.3087 54.09 32.2957 54.2276 32.2549C54.3651 32.2142 54.4931 32.1467 54.6044 32.0561C54.7156 31.9656 54.8078 31.8539 54.8756 31.7275C54.9433 31.6011 54.9854 31.4626 54.9992 31.3199C54.9992 30.6801 54.7489 30.3463 53.9979 30.3741H53.1634ZM52.7741 32.8496L52.4125 35.186H51.8284L52.6628 29.8456H54.137C55.4165 29.8456 55.945 30.3184 55.7225 31.3754C55.6669 31.6739 55.5188 31.9475 55.2991 32.1572C55.0795 32.3668 54.7994 32.5021 54.4986 32.5437C55.0827 32.5437 55.3609 32.8775 55.2774 33.545C55.194 34.2126 55.2774 34.3517 55.2774 34.7689C55.2774 34.9914 55.2774 35.0748 55.4721 35.0748H54.7768C54.7568 34.8992 54.7568 34.7219 54.7768 34.5463C54.7464 34.2783 54.7464 34.0078 54.7768 33.7398C54.7768 33.1 54.6099 32.7663 53.9979 32.7385L52.7741 32.8496ZM57.6417 35.186H57.0575L57.892 29.8456H58.4761L57.6417 35.186ZM59.2271 35.186L61.6192 29.8456H62.4815L63.149 35.186H62.4815L62.2868 33.6562H60.5901L59.9503 35.186H59.2271ZM62.1477 33.1277L61.8974 30.3462L60.757 33.1277H62.1477ZM67.2935 35.186H64.512L65.263 29.7065H65.8471L65.0961 34.5463H67.2935V35.186ZM70.965 34.6854H71.9108C72.4949 34.6854 72.8565 34.3794 72.9677 33.6562C73.079 32.933 72.7174 32.5993 71.8273 32.6549H71.2989L70.965 34.6854ZM71.6604 30.3741L71.3823 32.1264H71.9108C72.6897 32.1264 73.1068 31.9039 73.1625 31.2085C73.2181 30.5131 72.9678 30.3463 72.1612 30.3741H71.6604ZM71.6604 35.186H70.2141L71.0485 29.8456H72.6062C73.4592 29.8456 73.8486 30.2907 73.7744 31.1808C73.7614 31.4592 73.6558 31.7252 73.4744 31.9368C73.293 32.1484 73.0462 32.2936 72.7731 32.349C73.385 32.349 73.6353 32.8496 73.5241 33.6284C73.5067 33.854 73.4443 34.074 73.3406 34.2752C73.237 34.4764 73.0941 34.6548 72.9205 34.8C72.7468 34.9451 72.5459 35.054 72.3295 35.1203C72.1131 35.1866 71.8856 35.2089 71.6604 35.186ZM75.2207 33.9066L75.8605 29.8456H76.389L75.7771 33.6841C75.638 34.4351 75.9161 34.7967 76.6115 34.7967C76.7658 34.8081 76.9209 34.7879 77.0672 34.7375C77.2134 34.687 77.3479 34.6073 77.4624 34.5032C77.5769 34.3991 77.669 34.2727 77.7331 34.1319C77.7972 33.9911 77.832 33.8388 77.8354 33.6841L78.4195 29.8456H79.1705L78.5586 33.9066C78.4899 34.3299 78.2609 34.7104 77.9191 34.9694C77.5773 35.2283 77.1489 35.3458 76.7228 35.2974C75.6658 35.2974 75.2208 34.7967 75.332 33.9066M83.6765 31.1251H83.0646C83.0646 30.5132 83.0646 30.2071 82.3692 30.1515C82.2332 30.1401 82.0963 30.1566 81.9669 30.2001C81.8375 30.2435 81.7183 30.3129 81.6167 30.4041C81.5151 30.4953 81.4332 30.6063 81.3761 30.7302C81.3189 30.8542 81.2878 30.9887 81.2845 31.1251C81.2411 31.2727 81.2577 31.4313 81.3306 31.5667C81.4035 31.7021 81.5268 31.8033 81.6739 31.8483C81.794 31.9243 81.9255 31.9807 82.0633 32.0152H82.4527C83.2871 32.3212 83.6209 32.794 83.4262 33.4893C83.3524 33.9337 83.1202 34.3364 82.7725 34.6227C82.4248 34.9091 81.9851 35.0598 81.5348 35.047C80.7838 35.047 80.3387 34.7689 80.1718 34.2404C80.1113 33.9094 80.1113 33.5701 80.1718 33.2391H80.756C80.5335 34.1292 80.756 34.5741 81.5904 34.5463C81.865 34.5626 82.1355 34.474 82.3473 34.2985C82.559 34.1229 82.6961 33.8736 82.7308 33.6007C82.7825 33.398 82.7533 33.1831 82.6495 33.0014C82.5457 32.8198 82.3754 32.6855 82.1745 32.6271C82.1745 32.6271 82.1745 32.6271 82.0355 32.6271H81.7017C81.4611 32.5704 81.2342 32.4664 81.0342 32.3212C80.6448 32.1543 80.4778 31.7371 80.6169 31.1251C80.6653 30.7122 80.8661 30.3322 81.1799 30.0595C81.4937 29.7868 81.898 29.6411 82.3136 29.6509C83.3706 29.6509 83.7878 30.2073 83.6209 31.153" fill="black"/>
</svg>
