<svg width="22" height="22" viewBox="0 0 22 22" fill="none" xmlns="http://www.w3.org/2000/svg">
<path d="M13.9884 20.3958H8.01177C3.51094 20.3958 1.58594 18.4708 1.58594 13.9699V13.8508C1.58594 9.78075 3.1901 7.81909 6.78344 7.47992C7.1501 7.45242 7.49844 7.72742 7.5351 8.10326C7.57177 8.47909 7.29677 8.81826 6.91177 8.85492C4.03344 9.12076 2.96094 10.4774 2.96094 13.8599V13.9791C2.96094 17.7099 4.28094 19.0299 8.01177 19.0299H13.9884C17.7193 19.0299 19.0393 17.7099 19.0393 13.9791V13.8599C19.0393 10.4591 17.9484 9.10242 15.0151 8.85492C14.6393 8.81826 14.3551 8.48826 14.3918 8.11242C14.4284 7.73659 14.7493 7.45242 15.1343 7.48909C18.7826 7.80076 20.4143 9.77159 20.4143 13.8691V13.9883C20.4143 18.4708 18.4893 20.3958 13.9884 20.3958Z" fill="#292D32"/>
<path d="M11 14.4375C10.6242 14.4375 10.3125 14.1259 10.3125 13.75V3.31836C10.3125 2.94253 10.6242 2.63086 11 2.63086C11.3758 2.63086 11.6875 2.94253 11.6875 3.31836V13.75C11.6875 14.1259 11.3758 14.4375 11 14.4375Z" fill="#292D32"/>
<path d="M14.071 6.04999C13.8968 6.04999 13.7227 5.98582 13.5852 5.84832L11.0002 3.26332L8.41518 5.84832C8.14935 6.11415 7.70935 6.11415 7.44352 5.84832C7.17768 5.58249 7.17768 5.14249 7.44352 4.87665L10.5143 1.80582C10.7802 1.53999 11.2202 1.53999 11.486 1.80582L14.5568 4.87665C14.8227 5.14249 14.8227 5.58249 14.5568 5.84832C14.4285 5.98582 14.2452 6.04999 14.071 6.04999Z" fill="#292D32"/>
</svg>
