<svg width="23" height="16" viewBox="0 0 23 16" fill="none" xmlns="http://www.w3.org/2000/svg">
<path d="M22.1525 5.60548H0V1.14954C0 0.938622 0.171033 0.767578 0.381958 0.767578H21.7706C21.9816 0.767578 22.1526 0.938622 22.1526 1.14954L22.1525 5.60548Z" fill="#239F40"/>
<path d="M21.7706 15.2812H0.381958C0.171033 15.2812 0 15.1102 0 14.8993V10.4434H22.1525V14.8993C22.1525 15.1102 21.9815 15.2812 21.7706 15.2812Z" fill="#DA0000"/>
<rect y="5.60547" width="22.1525" height="4.83765" fill="#F5F5F5"/>
<path d="M0.0600974 5.34937H0.063429C0.0966145 5.34937 0.123526 5.32249 0.123526 5.28925V5.1591C0.123526 5.12593 0.150395 5.09903 0.183624 5.09903H0.435739C0.468924 5.09903 0.495836 5.12589 0.495836 5.1591V5.28925C0.495836 5.32245 0.522705 5.34937 0.555934 5.34937H1.05359C1.08677 5.34937 1.11368 5.32249 1.11368 5.28925V5.03235C1.11368 4.99916 1.08682 4.97224 1.05359 4.97224H0.803073C0.769888 4.97224 0.742976 4.99911 0.742976 5.03235V5.03891C0.742976 5.0721 0.769844 5.09903 0.803073 5.09903H0.930061C0.963246 5.09903 0.990158 5.12589 0.990158 5.1591V5.16565C0.990158 5.19882 0.96329 5.22575 0.930061 5.22575H0.67946C0.646275 5.22575 0.619363 5.19888 0.619363 5.16565V5.03235C0.619363 4.99916 0.592494 4.97224 0.559265 4.97224H0.0600974C0.0269119 4.97224 0 4.99911 0 5.03235V5.28925C0 5.32242 0.0268686 5.34937 0.0600974 5.34937ZM0.308794 5.34937H0.312212C0.345398 5.34937 0.37231 5.32249 0.37231 5.28925V5.28583C0.37231 5.25266 0.345441 5.22575 0.312212 5.22575H0.308794C0.275609 5.22575 0.248697 5.25261 0.248697 5.28583V5.28925C0.248697 5.32242 0.275609 5.34937 0.308794 5.34937ZM0.0600974 4.84552H1.54947C1.58265 4.84552 1.60956 4.81865 1.60956 4.78543V4.77884C1.60956 4.74565 1.5827 4.71875 1.54947 4.71875H0.0600974C0.0269119 4.71875 0 4.74562 0 4.77884V4.78543C0 4.81865 0.0268686 4.84552 0.0600974 4.84552ZM1.54942 5.34937H1.29891C1.26572 5.34937 1.23881 5.32249 1.23881 5.28925V5.03235C1.23881 4.99916 1.26568 4.97224 1.29891 4.97224H1.67308C1.70627 4.97224 1.73318 4.94537 1.73318 4.91216V4.77884C1.73318 4.74565 1.76005 4.71875 1.79327 4.71875H1.79661C1.82979 4.71875 1.8567 4.74562 1.8567 4.77884V5.16565C1.8567 5.19882 1.88357 5.22575 1.9168 5.22575H1.92022C1.9534 5.22575 1.98032 5.19888 1.98032 5.16565V4.77884C1.98032 4.74565 2.00718 4.71875 2.04041 4.71875H2.04375C2.07693 4.71875 2.10384 4.74562 2.10384 4.77884V5.16565C2.10384 5.19882 2.13071 5.22575 2.16394 5.22575H2.16892C2.2021 5.22575 2.22901 5.19888 2.22901 5.16565V4.77884C2.22901 4.74565 2.25588 4.71875 2.28911 4.71875H2.29093C2.32411 4.71875 2.35103 4.74562 2.35103 4.77884V5.28925C2.35103 5.32245 2.32416 5.34937 2.29093 5.34937H1.79327C1.76009 5.34937 1.73318 5.32249 1.73318 5.28925V5.1591C1.73318 5.12593 1.70631 5.09903 1.67308 5.09903H1.42257C1.38938 5.09903 1.36247 5.12589 1.36247 5.1591V5.16565C1.36247 5.19882 1.38934 5.22575 1.42257 5.22575H1.54947C1.58265 5.22575 1.60956 5.25261 1.60956 5.28583V5.28925C1.60956 5.32242 1.58261 5.34937 1.54942 5.34937Z" fill="#F5F5F5"/>
<path d="M2.53617 5.34937H2.54115C2.57433 5.34937 2.60125 5.32249 2.60125 5.28925V5.1591C2.60125 5.12593 2.62811 5.09903 2.66134 5.09903H2.9103C2.94349 5.09903 2.9704 5.12589 2.9704 5.1591V5.28925C2.9704 5.32245 2.99726 5.34937 3.03049 5.34937H3.52815C3.56133 5.34937 3.58825 5.32249 3.58825 5.28925V5.03235C3.58825 4.99916 3.56137 4.97224 3.52815 4.97224H3.27763C3.24445 4.97224 3.21753 4.99911 3.21753 5.03235V5.03891C3.21753 5.0721 3.2444 5.09903 3.27763 5.09903H3.40462C3.43781 5.09903 3.46472 5.12589 3.46472 5.1591V5.16565C3.46472 5.19882 3.43785 5.22575 3.40462 5.22575H3.15411C3.12092 5.22575 3.09401 5.19888 3.09401 5.16565V5.03235C3.09401 4.99916 3.06714 4.97224 3.03391 4.97224H2.53617C2.50299 4.97224 2.47607 4.99911 2.47607 5.03235V5.28925C2.47612 5.32242 2.50303 5.34937 2.53617 5.34937ZM2.78336 5.34937H2.78669C2.81987 5.34937 2.84678 5.32249 2.84678 5.28925V5.28583C2.84678 5.25266 2.81991 5.22575 2.78669 5.22575H2.78336C2.75017 5.22575 2.72326 5.25261 2.72326 5.28583V5.28925C2.7233 5.32242 2.75017 5.34937 2.78336 5.34937ZM2.53617 4.84552H4.02403C4.05721 4.84552 4.08412 4.81865 4.08412 4.78543V4.77884C4.08412 4.74565 4.05725 4.71875 4.02403 4.71875H2.53617C2.50299 4.71875 2.47607 4.74562 2.47607 4.77884V4.78543C2.47612 4.81865 2.50303 4.84552 2.53617 4.84552ZM4.02403 5.34937H3.77191C3.73872 5.34937 3.71181 5.32249 3.71181 5.28925V5.03235C3.71181 4.99916 3.73868 4.97224 3.77191 4.97224H4.14608C4.17927 4.97224 4.20618 4.94537 4.20618 4.91216V4.77884C4.20618 4.74565 4.23305 4.71875 4.26628 4.71875H4.27126C4.30444 4.71875 4.33135 4.74562 4.33135 4.77884V5.16565C4.33135 5.19882 4.35822 5.22575 4.39145 5.22575H4.39642C4.42961 5.22575 4.45652 5.19888 4.45652 5.16565V4.77884C4.45652 4.74565 4.48339 4.71875 4.51662 4.71875H4.51843C4.55162 4.71875 4.57853 4.74562 4.57853 4.77884V5.16565C4.57853 5.19882 4.6054 5.22575 4.63863 5.22575H4.6436C4.67679 5.22575 4.7037 5.19888 4.7037 5.16565V4.77884C4.7037 4.74565 4.73057 4.71875 4.7638 4.71875H4.76713C4.80031 4.71875 4.82723 4.74562 4.82723 4.77884V5.28925C4.82723 5.32245 4.80036 5.34937 4.76713 5.34937H4.26637C4.23318 5.34937 4.20626 5.32249 4.20626 5.28925V5.1591C4.20626 5.12593 4.1794 5.09903 4.14617 5.09903H3.89721C3.86403 5.09903 3.83711 5.12589 3.83711 5.1591V5.16565C3.83711 5.19882 3.86398 5.22575 3.89721 5.22575H4.0242C4.05738 5.22575 4.0843 5.25261 4.0843 5.28583V5.28925C4.08408 5.32242 4.05721 5.34937 4.02403 5.34937Z" fill="#F5F5F5"/>
<path d="M5.01077 5.34937H5.01411C5.04729 5.34937 5.07421 5.32249 5.07421 5.28925V5.1591C5.07421 5.12593 5.10107 5.09903 5.13429 5.09903H5.3849C5.41808 5.09903 5.445 5.12589 5.445 5.1591V5.28925C5.445 5.32245 5.47186 5.34937 5.50509 5.34937H6.00432C6.03749 5.34937 6.0644 5.32249 6.0644 5.28925V5.03235C6.0644 4.99916 6.03754 4.97224 6.00432 4.97224H5.75378C5.7206 4.97224 5.6937 4.99911 5.6937 5.03235V5.03891C5.6937 5.0721 5.72056 5.09903 5.75378 5.09903H5.88079C5.91397 5.09903 5.94087 5.12589 5.94087 5.1591V5.16565C5.94087 5.19882 5.91402 5.22575 5.88079 5.22575H5.62866C5.59548 5.22575 5.56857 5.19888 5.56857 5.16565V5.03235C5.56857 4.99916 5.5417 4.97224 5.50848 4.97224H5.01082C4.97764 4.97224 4.95071 4.99911 4.95071 5.03235V5.28925C4.95064 5.32242 4.97759 5.34937 5.01077 5.34937ZM5.25791 5.34937H5.26124C5.29443 5.34937 5.32133 5.32249 5.32133 5.28925V5.28583C5.32133 5.25266 5.29448 5.22575 5.26124 5.22575H5.25791C5.22473 5.22575 5.19782 5.25261 5.19782 5.28583V5.28925C5.19782 5.32242 5.22473 5.34937 5.25791 5.34937ZM5.01077 4.84552H6.50019C6.53338 4.84552 6.56029 4.81865 6.56029 4.78543V4.77884C6.56029 4.74565 6.53342 4.71875 6.50019 4.71875H5.01077C4.97759 4.71875 4.95068 4.74562 4.95068 4.77884V4.78543C4.95064 4.81865 4.97759 4.84552 5.01077 4.84552ZM6.50019 5.34937H6.24808C6.21488 5.34937 6.18797 5.32249 6.18797 5.28925V5.03235C6.18797 4.99916 6.21485 4.97224 6.24808 4.97224H6.62216C6.65534 4.97224 6.68224 4.94537 6.68224 4.91216V4.77884C6.68224 4.74565 6.70912 4.71875 6.74235 4.71875H6.74577C6.77896 4.71875 6.80586 4.74562 6.80586 4.77884V5.16565C6.80586 5.19882 6.83274 5.22575 6.86597 5.22575H6.87093C6.90413 5.22575 6.93104 5.19888 6.93104 5.16565V4.77884C6.93104 4.74565 6.95791 4.71875 6.99113 4.71875H6.99612C7.0293 4.71875 7.05621 4.74562 7.05621 4.77884V5.16565C7.05621 5.19882 7.08308 5.22575 7.11631 5.22575H7.11813C7.15131 5.22575 7.17823 5.19888 7.17823 5.16565V4.77884C7.17823 4.74565 7.20509 4.71875 7.23833 4.71875H7.24165C7.27483 4.71875 7.30175 4.74562 7.30175 4.77884V5.28925C7.30175 5.32245 7.27488 5.34937 7.24165 5.34937H6.74236C6.70917 5.34937 6.68226 5.32249 6.68226 5.28925V5.1591C6.68226 5.12593 6.65539 5.09903 6.62216 5.09903H6.37164C6.33847 5.09903 6.31155 5.12589 6.31155 5.1591V5.16565C6.31155 5.19882 6.33842 5.22575 6.37164 5.22575H6.50028C6.53346 5.22575 6.56038 5.25261 6.56038 5.28583V5.28925C6.56029 5.32242 6.53338 5.34937 6.50019 5.34937Z" fill="#F5F5F5"/>
<path d="M7.48537 5.34937H7.48869C7.5219 5.34937 7.54881 5.32249 7.54881 5.28925V5.1591C7.54881 5.12593 7.57567 5.09903 7.6089 5.09903H7.85941C7.89259 5.09903 7.91951 5.12589 7.91951 5.1591V5.28925C7.91951 5.32245 7.94637 5.34937 7.9796 5.34937H8.4789C8.51208 5.34937 8.539 5.32249 8.539 5.28925V5.03235C8.539 4.99916 8.51215 4.97224 8.4789 4.97224H8.22679C8.1936 4.97224 8.16669 4.99911 8.16669 5.03235V5.03891C8.16669 5.0721 8.19356 5.09903 8.22679 5.09903H8.35378C8.38696 5.09903 8.41388 5.12589 8.41388 5.1591V5.16565C8.41388 5.19882 8.38701 5.22575 8.35378 5.22575H8.10327C8.07008 5.22575 8.04317 5.19888 8.04317 5.16565V5.03235C8.04317 4.99916 8.0163 4.97224 7.98308 4.97224H7.4854C7.45224 4.97224 7.42532 4.99911 7.42532 5.03235V5.28925C7.42532 5.32242 7.45224 5.34937 7.48537 5.34937ZM7.73254 5.34937H7.73589C7.76906 5.34937 7.79599 5.32249 7.79599 5.28925V5.28583C7.79599 5.25266 7.76913 5.22575 7.73589 5.22575H7.73254C7.69937 5.22575 7.67245 5.25261 7.67245 5.28583V5.28925C7.67249 5.32242 7.69937 5.34937 7.73254 5.34937ZM7.48537 4.84552H8.97324C9.00642 4.84552 9.03333 4.81865 9.03333 4.78543V4.77884C9.03333 4.74565 9.00647 4.71875 8.97324 4.71875H7.48537C7.45218 4.71875 7.42529 4.74562 7.42529 4.77884V4.78543C7.42532 4.81865 7.45224 4.84552 7.48537 4.84552ZM8.97324 5.34937H8.72112C8.68793 5.34937 8.66103 5.32249 8.66103 5.28925V5.03235C8.66103 4.99916 8.68788 4.97224 8.72112 4.97224H9.09843C9.13164 4.97224 9.15854 4.94537 9.15854 4.91216V4.77884C9.15854 4.74565 9.18542 4.71875 9.21864 4.71875H9.22197C9.25516 4.71875 9.28207 4.74562 9.28207 4.77884V5.16565C9.28207 5.19882 9.30894 5.22575 9.34216 5.22575H9.34399C9.37717 5.22575 9.40408 5.19888 9.40408 5.16565V4.77884C9.40408 4.74565 9.43095 4.71875 9.46417 4.71875H9.46916C9.50233 4.71875 9.52925 4.74562 9.52925 4.77884V5.16565C9.52925 5.19882 9.55612 5.22575 9.58934 5.22575H9.59276C9.62596 5.22575 9.65288 5.19888 9.65288 5.16565V4.77884C9.65288 4.74565 9.67973 4.71875 9.71297 4.71875H9.71628C9.74948 4.71875 9.7764 4.74562 9.7764 4.77884V5.28925C9.7764 5.32245 9.74953 5.34937 9.71628 5.34937H9.21843C9.18523 5.34937 9.15833 5.32249 9.15833 5.28925V5.1591C9.15833 5.12593 9.13145 5.09903 9.09822 5.09903H8.84612C8.81293 5.09903 8.78603 5.12589 8.78603 5.1591V5.16565C8.78603 5.19882 8.81288 5.22575 8.84612 5.22575H8.9731C9.00627 5.22575 9.0332 5.25261 9.0332 5.28583V5.28925C9.03328 5.32242 9.00642 5.34937 8.97324 5.34937Z" fill="#F5F5F5"/>
<path d="M9.96001 5.34937H9.96342C9.9966 5.34937 10.0235 5.32249 10.0235 5.28925V5.1591C10.0235 5.12593 10.0504 5.09903 10.0836 5.09903H10.3341C10.3673 5.09903 10.3942 5.12589 10.3942 5.1591V5.28925C10.3942 5.32245 10.4211 5.34937 10.4543 5.34937H10.9536C10.9868 5.34937 11.0137 5.32249 11.0137 5.28925V5.03235C11.0137 4.99916 10.9869 4.97224 10.9536 4.97224H10.7015C10.6683 4.97224 10.6414 4.99911 10.6414 5.03235V5.03891C10.6414 5.0721 10.6683 5.09903 10.7015 5.09903H10.83C10.8632 5.09903 10.8901 5.12589 10.8901 5.1591V5.16565C10.8901 5.19882 10.8633 5.22575 10.83 5.22575H10.5795C10.5463 5.22575 10.5194 5.19888 10.5194 5.16565V5.03235C10.5194 4.99916 10.4925 4.97224 10.4593 4.97224H9.96001C9.92682 4.97224 9.8999 4.99911 9.8999 5.03235V5.28925C9.89995 5.32242 9.92682 5.34937 9.96001 5.34937ZM10.2088 5.34937H10.2106C10.2438 5.34937 10.2707 5.32249 10.2707 5.28925V5.28583C10.2707 5.25266 10.2438 5.22575 10.2106 5.22575H10.2088C10.1756 5.22575 10.1487 5.25261 10.1487 5.28583V5.28925C10.1487 5.32242 10.1756 5.34937 10.2088 5.34937ZM9.96001 4.84552H11.4494C11.4827 4.84552 11.5096 4.81865 11.5096 4.78543V4.77884C11.5096 4.74565 11.4827 4.71875 11.4494 4.71875H9.96001C9.92682 4.71875 9.8999 4.74562 9.8999 4.77884V4.78543C9.89995 4.81865 9.92682 4.84552 9.96001 4.84552ZM11.4495 5.34937H11.1974C11.1642 5.34937 11.1373 5.32249 11.1373 5.28925V5.03235C11.1373 4.99916 11.1642 4.97224 11.1974 4.97224H11.5731C11.6063 4.97224 11.6332 4.94537 11.6332 4.91216V4.77884C11.6332 4.74565 11.6601 4.71875 11.6933 4.71875H11.6966C11.7298 4.71875 11.7567 4.74562 11.7567 4.77884V5.16565C11.7567 5.19882 11.7836 5.22575 11.8168 5.22575H11.8203C11.8534 5.22575 11.8804 5.19888 11.8804 5.16565V4.77884C11.8804 4.74565 11.9072 4.71875 11.9404 4.71875H11.9438C11.977 4.71875 12.0039 4.74562 12.0039 4.77884V5.16565C12.0039 5.19882 12.0307 5.22575 12.064 5.22575H12.0673C12.1005 5.22575 12.1274 5.19888 12.1274 5.16565V4.77884C12.1274 4.74565 12.1543 4.71875 12.1875 4.71875H12.1909C12.2241 4.71875 12.251 4.74562 12.251 4.77884V5.28925C12.251 5.32245 12.2242 5.34937 12.1909 5.34937H11.6933C11.6601 5.34937 11.6332 5.32249 11.6332 5.28925V5.1591C11.6332 5.12593 11.6063 5.09903 11.5731 5.09903H11.321C11.2878 5.09903 11.2609 5.12589 11.2609 5.1591V5.16565C11.2609 5.19882 11.2877 5.22575 11.321 5.22575H11.4494C11.4827 5.22575 11.5096 5.25261 11.5096 5.28583V5.28925C11.5096 5.32242 11.4827 5.34937 11.4495 5.34937Z" fill="#F5F5F5"/>
<path d="M12.4346 5.34937H12.438C12.4712 5.34937 12.4981 5.32249 12.4981 5.28925V5.1591C12.4981 5.12593 12.525 5.09903 12.5582 5.09903H12.8087C12.8419 5.09903 12.8689 5.12589 12.8689 5.1591V5.28925C12.8689 5.32245 12.8958 5.34937 12.9289 5.34937H13.4283C13.4614 5.34937 13.4884 5.32249 13.4884 5.28925V5.03235C13.4884 4.99916 13.4615 4.97224 13.4283 4.97224H13.1777C13.1444 4.97224 13.1176 4.99911 13.1176 5.03235V5.03891C13.1176 5.0721 13.1444 5.09903 13.1777 5.09903H13.3031C13.3363 5.09903 13.3632 5.12589 13.3632 5.1591V5.16565C13.3632 5.19882 13.3363 5.22575 13.3031 5.22575H13.0541C13.021 5.22575 12.994 5.19888 12.994 5.16565V5.03235C12.994 4.99916 12.9671 4.97224 12.9339 4.97224H12.4346C12.4015 4.97224 12.3745 4.99911 12.3745 5.03235V5.28925C12.3745 5.32242 12.4015 5.34937 12.4346 5.34937ZM12.6834 5.34937H12.6852C12.7184 5.34937 12.7453 5.32249 12.7453 5.28925V5.28583C12.7453 5.25266 12.7184 5.22575 12.6852 5.22575H12.6834C12.6502 5.22575 12.6233 5.25261 12.6233 5.28583V5.28925C12.6233 5.32242 12.6502 5.34937 12.6834 5.34937ZM12.4346 4.84552H13.924C13.9572 4.84552 13.9842 4.81865 13.9842 4.78543V4.77884C13.9842 4.74565 13.9572 4.71875 13.924 4.71875H12.4346C12.4015 4.71875 12.3745 4.74562 12.3745 4.77884V4.78543C12.3745 4.81865 12.4015 4.84552 12.4346 4.84552ZM13.9241 5.34937H13.6736C13.6404 5.34937 13.6135 5.32249 13.6135 5.28925V5.03235C13.6135 4.99916 13.6404 4.97224 13.6736 4.97224H14.0476C14.0808 4.97224 14.1077 4.94537 14.1077 4.91216V4.77884C14.1077 4.74565 14.1346 4.71875 14.1678 4.71875H14.1713C14.2045 4.71875 14.2314 4.74562 14.2314 4.77884V5.16565C14.2314 5.19882 14.2582 5.22575 14.2914 5.22575H14.2948C14.328 5.22575 14.3549 5.19888 14.3549 5.16565V4.77884C14.3549 4.74565 14.3817 4.71875 14.415 4.71875H14.4185C14.4516 4.71875 14.4785 4.74562 14.4785 4.77884V5.16565C14.4785 5.19882 14.5054 5.22575 14.5386 5.22575H14.5419C14.5751 5.22575 14.602 5.19888 14.602 5.16565V4.77884C14.602 4.74565 14.6289 4.71875 14.6621 4.71875H14.6656C14.6987 4.71875 14.7256 4.74562 14.7256 4.77884V5.28925C14.7256 5.32245 14.6988 5.34937 14.6656 5.34937H14.1678C14.1346 5.34937 14.1077 5.32249 14.1077 5.28925V5.1591C14.1077 5.12593 14.0808 5.09903 14.0475 5.09903H13.7955C13.7623 5.09903 13.7354 5.12589 13.7354 5.1591V5.16565C13.7354 5.19882 13.7623 5.22575 13.7955 5.22575H13.924C13.9572 5.22575 13.9841 5.25261 13.9841 5.28583V5.28925C13.9842 5.32242 13.9572 5.34937 13.9241 5.34937Z" fill="#F5F5F5"/>
<path d="M14.9092 5.34937H14.9127C14.9458 5.34937 14.9727 5.32249 14.9727 5.28925V5.1591C14.9727 5.12593 14.9996 5.09903 15.0328 5.09903H15.2849C15.3181 5.09903 15.345 5.12589 15.345 5.1591V5.28925C15.345 5.32245 15.3719 5.34937 15.4052 5.34937H15.9029C15.9361 5.34937 15.963 5.32249 15.963 5.28925V5.03235C15.963 4.99916 15.9361 4.97224 15.9029 4.97224H15.6523C15.6191 4.97224 15.5922 4.99911 15.5922 5.03235V5.03891C15.5922 5.0721 15.6191 5.09903 15.6523 5.09903H15.7809C15.8141 5.09903 15.841 5.12589 15.841 5.1591V5.16565C15.841 5.19882 15.8141 5.22575 15.7809 5.22575H15.5272C15.494 5.22575 15.4671 5.19888 15.4671 5.16565V5.03235C15.4671 4.99916 15.4402 4.97224 15.407 4.97224H14.9093C14.8761 4.97224 14.8492 4.99911 14.8492 5.03235V5.28925C14.8492 5.32242 14.876 5.34937 14.9092 5.34937ZM15.1564 5.34937H15.1614C15.1946 5.34937 15.2215 5.32249 15.2215 5.28925V5.28583C15.2215 5.25266 15.1946 5.22575 15.1614 5.22575H15.1564C15.1232 5.22575 15.0963 5.25261 15.0963 5.28583V5.28925C15.0963 5.32242 15.1232 5.34937 15.1564 5.34937ZM14.9092 4.84552H16.3987C16.4319 4.84552 16.4587 4.81865 16.4587 4.78543V4.77884C16.4587 4.74565 16.4319 4.71875 16.3987 4.71875H14.9092C14.876 4.71875 14.8491 4.74562 14.8491 4.77884V4.78543C14.8492 4.81865 14.876 4.84552 14.9092 4.84552ZM16.3987 5.34937H16.1482C16.1151 5.34937 16.0881 5.32249 16.0881 5.28925V5.03235C16.0881 4.99916 16.115 4.97224 16.1482 4.97224H16.5223C16.5555 4.97224 16.5824 4.94537 16.5824 4.91216V4.77884C16.5824 4.74565 16.6093 4.71875 16.6425 4.71875H16.6459C16.6791 4.71875 16.706 4.74562 16.706 4.77884V5.16565C16.706 5.19882 16.7329 5.22575 16.7661 5.22575H16.7694C16.8026 5.22575 16.8296 5.19888 16.8296 5.16565V4.77884C16.8296 4.74565 16.8564 4.71875 16.8896 4.71875H16.893C16.9263 4.71875 16.9532 4.74562 16.9532 4.77884V5.16565C16.9532 5.19882 16.98 5.22575 17.0133 5.22575H17.0182C17.0514 5.22575 17.0783 5.19888 17.0783 5.16565V4.77884C17.0783 4.74565 17.1052 4.71875 17.1384 4.71875H17.1401C17.1733 4.71875 17.2003 4.74562 17.2003 4.77884V5.28925C17.2003 5.32245 17.1734 5.34937 17.1401 5.34937H16.6425C16.6093 5.34937 16.5824 5.32249 16.5824 5.28925V5.1591C16.5824 5.12593 16.5555 5.09903 16.5223 5.09903H16.2733C16.2402 5.09903 16.2132 5.12589 16.2132 5.1591V5.16565C16.2132 5.19882 16.2401 5.22575 16.2733 5.22575H16.3988C16.432 5.22575 16.4589 5.25261 16.4589 5.28583V5.28925C16.4588 5.32242 16.4319 5.34937 16.3987 5.34937Z" fill="#F5F5F5"/>
<path d="M17.3853 5.34937H17.3871C17.4203 5.34937 17.4472 5.32249 17.4472 5.28925V5.1591C17.4472 5.12593 17.4741 5.09903 17.5073 5.09903H17.7579C17.7911 5.09903 17.818 5.12589 17.818 5.1591V5.28925C17.818 5.32245 17.8449 5.34937 17.8781 5.34937H18.3773C18.4105 5.34937 18.4374 5.32249 18.4374 5.28925V5.03235C18.4374 4.99916 18.4106 4.97224 18.3773 4.97224H18.1285C18.0953 4.97224 18.0684 4.99911 18.0684 5.03235V5.03891C18.0684 5.0721 18.0952 5.09903 18.1285 5.09903H18.2554C18.2885 5.09903 18.3154 5.12589 18.3154 5.1591V5.16565C18.3154 5.19882 18.2886 5.22575 18.2554 5.22575H18.0033C17.9701 5.22575 17.9432 5.19888 17.9432 5.16565V5.03235C17.9432 4.99916 17.9163 4.97224 17.8831 4.97224H17.3853C17.3521 4.97224 17.3252 4.99911 17.3252 5.03235V5.28925C17.3252 5.32242 17.3521 5.34937 17.3853 5.34937ZM17.6324 5.34937H17.6359C17.669 5.34937 17.696 5.32249 17.696 5.28925V5.28583C17.696 5.25266 17.6691 5.22575 17.6359 5.22575H17.6324C17.5992 5.22575 17.5724 5.25261 17.5724 5.28583V5.28925C17.5724 5.32242 17.5992 5.34937 17.6324 5.34937ZM17.3853 4.84552H18.8764C18.9095 4.84552 18.9365 4.81865 18.9365 4.78543V4.77884C18.9365 4.74565 18.9096 4.71875 18.8764 4.71875H17.3853C17.3521 4.71875 17.3252 4.74562 17.3252 4.77884V4.78543C17.3252 4.81865 17.3521 4.84552 17.3853 4.84552ZM18.8763 5.34937H18.6226C18.5894 5.34937 18.5625 5.32249 18.5625 5.28925V5.03235C18.5625 4.99916 18.5893 4.97224 18.6226 4.97224H18.9967C19.0299 4.97224 19.0568 4.94537 19.0568 4.91216V4.77884C19.0568 4.74565 19.0837 4.71875 19.1169 4.71875H19.1219C19.1551 4.71875 19.182 4.74562 19.182 4.77884V5.16565C19.182 5.19882 19.2089 5.22575 19.2421 5.22575H19.2455C19.2786 5.22575 19.3055 5.19888 19.3055 5.16565V4.77884C19.3055 4.74565 19.3324 4.71875 19.3656 4.71875H19.3674C19.4006 4.71875 19.4276 4.74562 19.4276 4.77884V5.16565C19.4276 5.19882 19.4544 5.22575 19.4876 5.22575H19.4926C19.5258 5.22575 19.5527 5.19888 19.5527 5.16565V4.77884C19.5527 4.74565 19.5796 4.71875 19.6128 4.71875H19.6162C19.6494 4.71875 19.6763 4.74562 19.6763 4.77884V5.28925C19.6763 5.32245 19.6494 5.34937 19.6162 5.34937H19.1169C19.0837 5.34937 19.0568 5.32249 19.0568 5.28925V5.1591C19.0568 5.12593 19.0299 5.09903 18.9967 5.09903H18.7462C18.713 5.09903 18.6861 5.12589 18.6861 5.1591V5.16565C18.6861 5.19882 18.713 5.22575 18.7462 5.22575H18.8764C18.9095 5.22575 18.9365 5.25261 18.9365 5.28583V5.28925C18.9365 5.32242 18.9095 5.34937 18.8763 5.34937Z" fill="#F5F5F5"/>
<path d="M19.8599 5.34937H19.8633C19.8965 5.34937 19.9234 5.32249 19.9234 5.28925V5.1591C19.9234 5.12593 19.9503 5.09903 19.9836 5.09903H20.234C20.2673 5.09903 20.2942 5.12589 20.2942 5.1591V5.28925C20.2942 5.32245 20.321 5.34937 20.3542 5.34937H20.8536C20.8867 5.34937 20.9137 5.32249 20.9137 5.28925V5.03235C20.9137 4.99916 20.8868 4.97224 20.8536 4.97224H20.6046C20.5714 4.97224 20.5445 4.99911 20.5445 5.03235V5.03891C20.5445 5.0721 20.5714 5.09903 20.6046 5.09903H20.7316C20.7648 5.09903 20.7917 5.12589 20.7917 5.1591V5.16565C20.7917 5.19882 20.7648 5.22575 20.7316 5.22575H20.4778C20.4446 5.22575 20.4177 5.19888 20.4177 5.16565V5.03235C20.4177 4.99916 20.3909 4.97224 20.3576 4.97224H19.86C19.8268 4.97224 19.7999 4.99911 19.7999 5.03235V5.28925C19.7999 5.32242 19.8268 5.34937 19.8599 5.34937ZM20.1071 5.34937H20.1106C20.1437 5.34937 20.1706 5.32249 20.1706 5.28925V5.28583C20.1706 5.25266 20.1437 5.22575 20.1106 5.22575H20.1071C20.0739 5.22575 20.047 5.25261 20.047 5.28583V5.28925C20.0471 5.32242 20.0739 5.34937 20.1071 5.34937ZM19.8599 4.84552H21.3478C21.381 4.84552 21.4079 4.81865 21.4079 4.78543V4.77884C21.4079 4.74565 21.381 4.71875 21.3478 4.71875H19.8599C19.8267 4.71875 19.7998 4.74562 19.7998 4.77884V4.78543C19.7999 4.81865 19.8268 4.84552 19.8599 4.84552ZM21.3478 5.34937H21.0973C21.0641 5.34937 21.0372 5.32249 21.0372 5.28925V5.03235C21.0372 4.99916 21.064 4.97224 21.0973 4.97224H21.4746C21.5078 4.97224 21.5347 4.94537 21.5347 4.91216V4.77884C21.5347 4.74565 21.5616 4.71875 21.5948 4.71875H21.595C21.6282 4.71875 21.6551 4.74562 21.6551 4.77884V5.16565C21.6551 5.19882 21.6819 5.22575 21.7152 5.22575H21.7218C21.7549 5.22575 21.7818 5.19888 21.7818 5.16565V4.77884C21.7818 4.74565 21.8087 4.71875 21.8419 4.71875H21.8421C21.8753 4.71875 21.9022 4.74562 21.9022 4.77884V5.16565C21.9022 5.19882 21.9291 5.22575 21.9623 5.22575H21.9657C21.9989 5.22575 22.0258 5.19888 22.0258 5.16565V4.77884C22.0258 4.74565 22.0527 4.71875 22.0859 4.71875H22.0925C22.1256 4.71875 22.1526 4.74562 22.1526 4.77884V5.28925C22.1526 5.32245 22.1257 5.34937 22.0925 5.34937H21.5948C21.5616 5.34937 21.5347 5.32249 21.5347 5.28925V5.1591C21.5347 5.12593 21.5078 5.09903 21.4746 5.09903H21.2209C21.1877 5.09903 21.1608 5.12589 21.1608 5.1591V5.16565C21.1608 5.19882 21.1877 5.22575 21.2209 5.22575H21.3478C21.381 5.22575 21.4079 5.25261 21.4079 5.28583V5.28925C21.4079 5.32242 21.381 5.34937 21.3478 5.34937Z" fill="#F5F5F5"/>
<path d="M0.0600974 5.73203H1.05363C1.08682 5.73203 1.11373 5.70514 1.11373 5.67191V5.5386C1.11373 5.50542 1.08686 5.47852 1.05363 5.47852H0.0600974C0.0269119 5.47852 0 5.50537 0 5.5386V5.67191C0 5.70514 0.0268686 5.73203 0.0600974 5.73203ZM1.29895 5.73203H2.29093C2.32411 5.73203 2.35103 5.70514 2.35103 5.67191V5.5386C2.35103 5.50542 2.32416 5.47852 2.29093 5.47852H1.29895C1.26577 5.47852 1.23886 5.50537 1.23886 5.5386V5.67191C1.23886 5.70514 1.26577 5.73203 1.29895 5.73203Z" fill="#F5F5F5"/>
<path d="M2.53617 5.73203H3.52815C3.56133 5.73203 3.58825 5.70514 3.58825 5.67191V5.5386C3.58825 5.50542 3.56137 5.47852 3.52815 5.47852H2.53617C2.50299 5.47852 2.47607 5.50537 2.47607 5.5386V5.67191C2.47612 5.70514 2.50303 5.73203 2.53617 5.73203ZM3.77191 5.73203H4.76704C4.80023 5.73203 4.82714 5.70514 4.82714 5.67191V5.5386C4.82714 5.50542 4.80027 5.47852 4.76704 5.47852H3.77191C3.73872 5.47852 3.71181 5.50537 3.71181 5.5386V5.67191C3.71181 5.70514 3.73872 5.73203 3.77191 5.73203Z" fill="#F5F5F5"/>
<path d="M5.01077 5.73203H6.00432C6.03749 5.73203 6.0644 5.70514 6.0644 5.67191V5.5386C6.0644 5.50542 6.03754 5.47852 6.00432 5.47852H5.01077C4.97759 5.47852 4.95068 5.50537 4.95068 5.5386V5.67191C4.95064 5.70514 4.97759 5.73203 5.01077 5.73203ZM6.24803 5.73203H7.24156C7.27475 5.73203 7.30166 5.70514 7.30166 5.67191V5.5386C7.30166 5.50542 7.27479 5.47852 7.24156 5.47852H6.24803C6.21485 5.47852 6.18793 5.50537 6.18793 5.5386V5.67191C6.18797 5.70514 6.21488 5.73203 6.24803 5.73203Z" fill="#F5F5F5"/>
<path d="M7.48537 5.73203H8.4789C8.51208 5.73203 8.539 5.70514 8.539 5.67191V5.5386C8.539 5.50542 8.51213 5.47852 8.4789 5.47852H7.48537C7.45218 5.47852 7.42529 5.50537 7.42529 5.5386V5.67191C7.42532 5.70514 7.45224 5.73203 7.48537 5.73203ZM8.72112 5.73203H9.71625C9.74944 5.73203 9.77634 5.70514 9.77634 5.67191V5.5386C9.77634 5.50542 9.74948 5.47852 9.71625 5.47852H8.72112C8.68793 5.47852 8.66103 5.50537 8.66103 5.5386V5.67191C8.66103 5.70514 8.68788 5.73203 8.72112 5.73203Z" fill="#F5F5F5"/>
<path d="M9.96001 5.73203H10.9536C10.9868 5.73203 11.0137 5.70514 11.0137 5.67191V5.5386C11.0137 5.50542 10.9868 5.47852 10.9536 5.47852H9.96001C9.92682 5.47852 9.8999 5.50537 9.8999 5.5386V5.67191C9.89995 5.70514 9.92682 5.73203 9.96001 5.73203ZM11.1973 5.73203H12.1909C12.2241 5.73203 12.251 5.70514 12.251 5.67191V5.5386C12.251 5.50542 12.2242 5.47852 12.1909 5.47852H11.1973C11.1641 5.47852 11.1372 5.50537 11.1372 5.5386V5.67191C11.1373 5.70514 11.1641 5.73203 11.1973 5.73203Z" fill="#F5F5F5"/>
<path d="M12.4346 5.73203H13.4283C13.4614 5.73203 13.4884 5.70514 13.4884 5.67191V5.5386C13.4884 5.50542 13.4615 5.47852 13.4283 5.47852H12.4346C12.4015 5.47852 12.3745 5.50537 12.3745 5.5386V5.67191C12.3745 5.70514 12.4015 5.73203 12.4346 5.73203ZM13.6736 5.73203H14.6656C14.6987 5.73203 14.7256 5.70514 14.7256 5.67191V5.5386C14.7256 5.50542 14.6988 5.47852 14.6656 5.47852H13.6736C13.6404 5.47852 13.6135 5.50537 13.6135 5.5386V5.67191C13.6135 5.70514 13.6404 5.73203 13.6736 5.73203Z" fill="#F5F5F5"/>
<path d="M14.9092 5.73203H15.9028C15.936 5.73203 15.963 5.70514 15.963 5.67191V5.5386C15.963 5.50542 15.9361 5.47852 15.9028 5.47852H14.9092C14.876 5.47852 14.8491 5.50537 14.8491 5.5386V5.67191C14.8492 5.70514 14.876 5.73203 14.9092 5.73203ZM16.1482 5.73203H17.1401C17.1732 5.73203 17.2001 5.70514 17.2001 5.67191V5.5386C17.2001 5.50542 17.1733 5.47852 17.1401 5.47852H16.1482C16.115 5.47852 16.0881 5.50537 16.0881 5.5386V5.67191C16.0881 5.70514 16.115 5.73203 16.1482 5.73203Z" fill="#F5F5F5"/>
<path d="M17.3853 5.73203H18.3773C18.4105 5.73203 18.4374 5.70514 18.4374 5.67191V5.5386C18.4374 5.50542 18.4105 5.47852 18.3773 5.47852H17.3853C17.3521 5.47852 17.3252 5.50537 17.3252 5.5386V5.67191C17.3252 5.70514 17.3521 5.73203 17.3853 5.73203ZM18.6226 5.73203H19.6162C19.6494 5.73203 19.6763 5.70514 19.6763 5.67191V5.5386C19.6763 5.50542 19.6494 5.47852 19.6162 5.47852H18.6226C18.5894 5.47852 18.5625 5.50537 18.5625 5.5386V5.67191C18.5625 5.70514 18.5894 5.73203 18.6226 5.73203Z" fill="#F5F5F5"/>
<path d="M19.8599 5.73203H20.8536C20.8867 5.73203 20.9137 5.70514 20.9137 5.67191V5.5386C20.9137 5.50542 20.8868 5.47852 20.8536 5.47852H19.8599C19.8267 5.47852 19.7998 5.50537 19.7998 5.5386V5.67191C19.7999 5.70514 19.8268 5.73203 19.8599 5.73203ZM21.0973 5.73203H22.0925C22.1256 5.73203 22.1526 5.70514 22.1526 5.67191V5.5386C22.1526 5.50542 22.1257 5.47852 22.0925 5.47852H21.0973C21.0641 5.47852 21.0372 5.50537 21.0372 5.5386V5.67191C21.0372 5.70514 21.0641 5.73203 21.0973 5.73203Z" fill="#F5F5F5"/>
<path d="M22.0922 10.6992H22.0889C22.0557 10.6992 22.0288 10.7261 22.0288 10.7593V10.8895C22.0288 10.9226 22.0019 10.9496 21.9687 10.9496H21.7166C21.6834 10.9496 21.6565 10.9227 21.6565 10.8895V10.7593C21.6565 10.7261 21.6296 10.6992 21.5964 10.6992H21.0987C21.0655 10.6992 21.0386 10.7261 21.0386 10.7593V11.0163C21.0386 11.0495 21.0655 11.0764 21.0987 11.0764H21.3492C21.3824 11.0764 21.4093 11.0495 21.4093 11.0163V11.0097C21.4093 10.9765 21.3824 10.9496 21.3492 10.9496H21.2222C21.1891 10.9496 21.1621 10.9227 21.1621 10.8895V10.883C21.1621 10.8498 21.189 10.8229 21.2222 10.8229H21.4728C21.506 10.8229 21.5329 10.8497 21.5329 10.883V11.0163C21.5329 11.0495 21.5598 11.0764 21.593 11.0764H22.0922C22.1254 11.0764 22.1523 11.0495 22.1523 11.0163V10.7593C22.1523 10.7261 22.1254 10.6992 22.0922 10.6992ZM21.8435 10.6992H21.8401C21.8069 10.6992 21.78 10.7261 21.78 10.7593V10.7628C21.78 10.7959 21.8069 10.8228 21.8401 10.8228H21.8435C21.8767 10.8228 21.9036 10.796 21.9036 10.7628V10.7593C21.9036 10.7261 21.8767 10.6992 21.8435 10.6992ZM22.0922 11.2031H20.6028C20.5697 11.2031 20.5427 11.2299 20.5427 11.2632V11.2698C20.5427 11.3029 20.5696 11.3298 20.6028 11.3298H22.0922C22.1254 11.3298 22.1523 11.3029 22.1523 11.2698V11.2632C22.1523 11.2299 22.1254 11.2031 22.0922 11.2031ZM20.6028 10.6992H20.8534C20.8866 10.6992 20.9135 10.7261 20.9135 10.7593V11.0163C20.9135 11.0495 20.8866 11.0764 20.8534 11.0764H20.4792C20.446 11.0764 20.4191 11.1032 20.4191 11.1365V11.2698C20.4191 11.3029 20.3922 11.3299 20.359 11.3299H20.3557C20.3225 11.3299 20.2956 11.303 20.2956 11.2698V10.883C20.2956 10.8498 20.2687 10.8229 20.2355 10.8229H20.2321C20.1989 10.8229 20.172 10.8498 20.172 10.883V11.2698C20.172 11.3029 20.1451 11.3299 20.1119 11.3299H20.1086C20.0754 11.3299 20.0484 11.303 20.0484 11.2698V10.883C20.0484 10.8498 20.0216 10.8229 19.9884 10.8229H19.9834C19.9502 10.8229 19.9233 10.8498 19.9233 10.883V11.2698C19.9233 11.3029 19.8964 11.3299 19.8632 11.3299H19.8614C19.8282 11.3299 19.8013 11.303 19.8013 11.2698V10.7594C19.8013 10.7262 19.8281 10.6992 19.8614 10.6992H20.359C20.3922 10.6992 20.4191 10.7261 20.4191 10.7594V10.8895C20.4191 10.9227 20.446 10.9496 20.4792 10.9496H20.7297C20.7629 10.9496 20.7898 10.9227 20.7898 10.8895V10.883C20.7898 10.8498 20.763 10.8229 20.7297 10.8229H20.6028C20.5697 10.8229 20.5427 10.796 20.5427 10.7628V10.7594C20.5427 10.7261 20.5697 10.6992 20.6028 10.6992Z" fill="#F5F5F5"/>
<path d="M19.6162 10.6992H19.6113C19.5781 10.6992 19.5512 10.7261 19.5512 10.7593V10.8895C19.5512 10.9226 19.5243 10.9496 19.4911 10.9496H19.2421C19.209 10.9496 19.182 10.9227 19.182 10.8895V10.7593C19.182 10.7261 19.1552 10.6992 19.1219 10.6992H18.6243C18.5911 10.6992 18.5642 10.7261 18.5642 10.7593V11.0163C18.5642 11.0495 18.591 11.0764 18.6243 11.0764H18.8748C18.908 11.0764 18.9349 11.0495 18.9349 11.0163V11.0097C18.9349 10.9765 18.908 10.9496 18.8748 10.9496H18.7478C18.7146 10.9496 18.6877 10.9227 18.6877 10.8895V10.883C18.6877 10.8498 18.7146 10.8229 18.7478 10.8229H18.9984C19.0316 10.8229 19.0585 10.8497 19.0585 10.883V11.0163C19.0585 11.0495 19.0854 11.0764 19.1186 11.0764H19.6162C19.6494 11.0764 19.6763 11.0495 19.6763 11.0163V10.7593C19.6763 10.7261 19.6494 10.6992 19.6162 10.6992ZM19.3691 10.6992H19.3658C19.3326 10.6992 19.3056 10.7261 19.3056 10.7593V10.7628C19.3056 10.7959 19.3325 10.8228 19.3658 10.8228H19.3691C19.4023 10.8228 19.4292 10.796 19.4292 10.7628V10.7593C19.4291 10.7261 19.4023 10.6992 19.3691 10.6992ZM19.6162 11.2031H18.1284C18.0952 11.2031 18.0683 11.2299 18.0683 11.2632V11.2698C18.0683 11.3029 18.0952 11.3298 18.1284 11.3298H19.6162C19.6494 11.3298 19.6763 11.3029 19.6763 11.2698V11.2632C19.6763 11.2299 19.6494 11.2031 19.6162 11.2031ZM18.1284 10.6992H18.3805C18.4137 10.6992 18.4406 10.7261 18.4406 10.7593V11.0163C18.4406 11.0495 18.4138 11.0764 18.3805 11.0764H18.0063C17.9732 11.0764 17.9462 11.1032 17.9462 11.1365V11.2698C17.9462 11.3029 17.9193 11.3299 17.8862 11.3299H17.8812C17.848 11.3299 17.8211 11.303 17.8211 11.2698V10.883C17.8211 10.8498 17.7942 10.8229 17.761 10.8229H17.756C17.7228 10.8229 17.6959 10.8498 17.6959 10.883V11.2698C17.6959 11.3029 17.669 11.3299 17.6358 11.3299H17.634C17.6008 11.3299 17.5739 11.303 17.5739 11.2698V10.883C17.5739 10.8498 17.547 10.8229 17.5138 10.8229H17.5088C17.4756 10.8229 17.4487 10.8498 17.4487 10.883V11.2698C17.4487 11.3029 17.4218 11.3299 17.3886 11.3299H17.3853C17.3521 11.3299 17.3252 11.303 17.3252 11.2698V10.7594C17.3252 10.7262 17.3521 10.6992 17.3853 10.6992H17.8861C17.9193 10.6992 17.9462 10.7261 17.9462 10.7594V10.8895C17.9462 10.9227 17.9731 10.9496 18.0063 10.9496H18.2553C18.2884 10.9496 18.3154 10.9227 18.3154 10.8895V10.883C18.3154 10.8498 18.2885 10.8229 18.2553 10.8229H18.1283C18.0951 10.8229 18.0681 10.796 18.0681 10.7628V10.7594C18.0683 10.7261 18.0952 10.6992 18.1284 10.6992Z" fill="#F5F5F5"/>
<path d="M17.1415 10.6992H17.1382C17.105 10.6992 17.0781 10.7261 17.0781 10.7593V10.8895C17.0781 10.9226 17.0512 10.9496 17.018 10.9496H16.7674C16.7343 10.9496 16.7073 10.9227 16.7073 10.8895V10.7593C16.7073 10.7261 16.6805 10.6992 16.6472 10.6992H16.148C16.1148 10.6992 16.0879 10.7261 16.0879 10.7593V11.0163C16.0879 11.0495 16.1148 11.0764 16.148 11.0764H16.3985C16.4318 11.0764 16.4586 11.0495 16.4586 11.0163V11.0097C16.4586 10.9765 16.4318 10.9496 16.3985 10.9496H16.2715C16.2383 10.9496 16.2115 10.9227 16.2115 10.8895V10.883C16.2115 10.8498 16.2383 10.8229 16.2715 10.8229H16.5237C16.5569 10.8229 16.5837 10.8497 16.5837 10.883V11.0163C16.5837 11.0495 16.6106 11.0764 16.6438 11.0764H17.1415C17.1747 11.0764 17.2016 11.0495 17.2016 11.0163V10.7593C17.2017 10.7261 17.1747 10.6992 17.1415 10.6992ZM16.8944 10.6992H16.8911C16.8579 10.6992 16.831 10.7261 16.831 10.7593V10.7628C16.831 10.7959 16.8578 10.8228 16.8911 10.8228H16.8944C16.9276 10.8228 16.9545 10.796 16.9545 10.7628V10.7593C16.9545 10.7261 16.9276 10.6992 16.8944 10.6992ZM17.1415 11.2031H15.6521C15.6189 11.2031 15.592 11.2299 15.592 11.2632V11.2698C15.592 11.3029 15.6189 11.3298 15.6521 11.3298H17.1415C17.1747 11.3298 17.2017 11.3029 17.2017 11.2698V11.2632C17.2017 11.2299 17.1747 11.2031 17.1415 11.2031ZM15.6522 10.6992H15.9042C15.9375 10.6992 15.9644 10.7261 15.9644 10.7593V11.0163C15.9644 11.0495 15.9375 11.0764 15.9042 11.0764H15.5302C15.4969 11.0764 15.4701 11.1032 15.4701 11.1365V11.2698C15.4701 11.3029 15.4432 11.3299 15.41 11.3299H15.4065C15.3734 11.3299 15.3465 11.303 15.3465 11.2698V10.883C15.3465 10.8498 15.3196 10.8229 15.2863 10.8229H15.2814C15.2482 10.8229 15.2213 10.8498 15.2213 10.883V11.2698C15.2213 11.3029 15.1945 11.3299 15.1612 11.3299H15.1562C15.123 11.3299 15.0961 11.303 15.0961 11.2698V10.883C15.0961 10.8498 15.0692 10.8229 15.036 10.8229H15.0342C15.001 10.8229 14.9741 10.8498 14.9741 10.883V11.2698C14.9741 11.3029 14.9472 11.3299 14.914 11.3299H14.9107C14.8775 11.3299 14.8506 11.303 14.8506 11.2698V10.7594C14.8506 10.7262 14.8775 10.6992 14.9107 10.6992H15.41C15.4432 10.6992 15.4701 10.7261 15.4701 10.7594V10.8895C15.4701 10.9227 15.4969 10.9496 15.5302 10.9496H15.7807C15.8139 10.9496 15.8408 10.9227 15.8408 10.8895V10.883C15.8408 10.8498 15.8139 10.8229 15.7807 10.8229H15.652C15.6189 10.8229 15.592 10.796 15.592 10.7628V10.7594C15.592 10.7261 15.6189 10.6992 15.6522 10.6992Z" fill="#F5F5F5"/>
<path d="M14.667 10.6992H14.6637C14.6305 10.6992 14.6036 10.7261 14.6036 10.7593V10.8895C14.6036 10.9226 14.5767 10.9496 14.5435 10.9496H14.293C14.2598 10.9496 14.2328 10.9227 14.2328 10.8895V10.7593C14.2328 10.7261 14.206 10.6992 14.1728 10.6992H13.6735C13.6403 10.6992 13.6133 10.7261 13.6133 10.7593V11.0163C13.6133 11.0495 13.6402 11.0764 13.6735 11.0764H13.9256C13.9588 11.0764 13.9857 11.0495 13.9857 11.0163V11.0097C13.9857 10.9765 13.9588 10.9496 13.9256 10.9496H13.7986C13.7654 10.9496 13.7385 10.9227 13.7385 10.8895V10.883C13.7385 10.8498 13.7654 10.8229 13.7986 10.8229H14.0491C14.0823 10.8229 14.1092 10.8497 14.1092 10.883V11.0163C14.1092 11.0495 14.1361 11.0764 14.1693 11.0764H14.667C14.7001 11.0764 14.7271 11.0495 14.7271 11.0163V10.7593C14.7271 10.7261 14.7001 10.6992 14.667 10.6992ZM14.4198 10.6992H14.4165C14.3833 10.6992 14.3564 10.7261 14.3564 10.7593V10.7628C14.3564 10.7959 14.3833 10.8228 14.4165 10.8228H14.4198C14.453 10.8228 14.4799 10.796 14.4799 10.7628V10.7593C14.4799 10.7261 14.453 10.6992 14.4198 10.6992ZM14.667 11.2031H13.1791C13.146 11.2031 13.119 11.2299 13.119 11.2632V11.2698C13.119 11.3029 13.1459 11.3298 13.1791 11.3298H14.667C14.7002 11.3298 14.7271 11.3029 14.7271 11.2698V11.2632C14.7271 11.2299 14.7001 11.2031 14.667 11.2031ZM13.1791 10.6992H13.4312C13.4644 10.6992 13.4914 10.7261 13.4914 10.7593V11.0163C13.4914 11.0495 13.4645 11.0764 13.4312 11.0764H13.054C13.0208 11.0764 12.9939 11.1032 12.9939 11.1365V11.2698C12.9939 11.3029 12.967 11.3299 12.9337 11.3299H12.9304C12.8972 11.3299 12.8703 11.303 12.8703 11.2698V10.883C12.8703 10.8498 12.8434 10.8229 12.8102 10.8229H12.8084C12.7752 10.8229 12.7483 10.8498 12.7483 10.883V11.2698C12.7483 11.3029 12.7214 11.3299 12.6882 11.3299H12.6832C12.6501 11.3299 12.6231 11.303 12.6231 11.2698V10.883C12.6231 10.8498 12.5963 10.8229 12.563 10.8229H12.5596C12.5264 10.8229 12.4995 10.8498 12.4995 10.883V11.2698C12.4995 11.3029 12.4727 11.3299 12.4394 11.3299H12.4361C12.4029 11.3299 12.376 11.303 12.376 11.2698V10.7594C12.376 10.7262 12.4029 10.6992 12.4361 10.6992H12.9337C12.9669 10.6992 12.9939 10.7261 12.9939 10.7594V10.8895C12.9939 10.9227 13.0207 10.9496 13.054 10.9496H13.3061C13.3392 10.9496 13.3661 10.9227 13.3661 10.8895V10.883C13.3661 10.8498 13.3393 10.8229 13.3061 10.8229H13.179C13.1459 10.8229 13.1189 10.796 13.1189 10.7628V10.7594C13.1191 10.7261 13.146 10.6992 13.1791 10.6992Z" fill="#F5F5F5"/>
<path d="M12.1924 10.6992H12.1889C12.1558 10.6992 12.1289 10.7261 12.1289 10.7593V10.8895C12.1289 10.9226 12.102 10.9496 12.0688 10.9496H11.8182C11.785 10.9496 11.7582 10.9227 11.7582 10.8895V10.7593C11.7582 10.7261 11.7313 10.6992 11.698 10.6992H11.1988C11.1656 10.6992 11.1386 10.7261 11.1386 10.7593V11.0163C11.1386 11.0495 11.1655 11.0764 11.1988 11.0764H11.4509C11.484 11.0764 11.511 11.0495 11.511 11.0163V11.0097C11.511 10.9765 11.4841 10.9496 11.4509 10.9496H11.3224C11.2892 10.9496 11.2623 10.9227 11.2623 10.8895V10.883C11.2623 10.8498 11.2892 10.8229 11.3224 10.8229H11.5729C11.6061 10.8229 11.633 10.8497 11.633 10.883V11.0163C11.633 11.0495 11.6599 11.0764 11.6931 11.0764H12.1924C12.2256 11.0764 12.2525 11.0495 12.2525 11.0163V10.7593C12.2524 10.7261 12.2256 10.6992 12.1924 10.6992ZM11.9436 10.6992H11.9418C11.9086 10.6992 11.8817 10.7261 11.8817 10.7593V10.7628C11.8817 10.7959 11.9085 10.8228 11.9418 10.8228H11.9436C11.9768 10.8228 12.0037 10.796 12.0037 10.7628V10.7593C12.0037 10.7261 11.9768 10.6992 11.9436 10.6992ZM12.1924 11.2031H10.7029C10.6697 11.2031 10.6428 11.2299 10.6428 11.2632V11.2698C10.6428 11.3029 10.6697 11.3298 10.7029 11.3298H12.1924C12.2256 11.3298 12.2525 11.3029 12.2525 11.2698V11.2632C12.2524 11.2299 12.2256 11.2031 12.1924 11.2031ZM10.7029 10.6992H10.955C10.9882 10.6992 11.0151 10.7261 11.0151 10.7593V11.0163C11.0151 11.0495 10.9882 11.0764 10.955 11.0764H10.5793C10.5461 11.0764 10.5191 11.1032 10.5191 11.1365V11.2698C10.5191 11.3029 10.4923 11.3299 10.4591 11.3299H10.4557C10.4225 11.3299 10.3956 11.303 10.3956 11.2698V10.883C10.3956 10.8498 10.3688 10.8229 10.3355 10.8229H10.3321C10.2989 10.8229 10.272 10.8498 10.272 10.883V11.2698C10.272 11.3029 10.2451 11.3299 10.2119 11.3299H10.2086C10.1754 11.3299 10.1485 11.303 10.1485 11.2698V10.883C10.1485 10.8498 10.1216 10.8229 10.0884 10.8229H10.0851C10.0519 10.8229 10.0249 10.8498 10.0249 10.883V11.2698C10.0249 11.3029 9.99809 11.3299 9.96486 11.3299H9.96144C9.92825 11.3299 9.90137 11.303 9.90137 11.2698V10.7594C9.90137 10.7262 9.92822 10.6992 9.96144 10.6992H10.4591C10.4923 10.6992 10.5192 10.7261 10.5192 10.7594V10.8895C10.5192 10.9227 10.5461 10.9496 10.5793 10.9496H10.8314C10.8646 10.9496 10.8915 10.9227 10.8915 10.8895V10.883C10.8915 10.8498 10.8646 10.8229 10.8314 10.8229H10.7029C10.6697 10.8229 10.6428 10.796 10.6428 10.7628V10.7594C10.6428 10.7261 10.6697 10.6992 10.7029 10.6992Z" fill="#F5F5F5"/>
<path d="M9.71776 10.6992H9.71434C9.68114 10.6992 9.65425 10.7261 9.65425 10.7593V10.8895C9.65425 10.9226 9.62738 10.9496 9.59415 10.9496H9.34364C9.31044 10.9496 9.28354 10.9227 9.28354 10.8895V10.7593C9.28354 10.7261 9.25667 10.6992 9.22343 10.6992H8.72415C8.69095 10.6992 8.66405 10.7261 8.66405 10.7593V11.0163C8.66405 11.0495 8.6909 11.0764 8.72415 11.0764H8.97473C9.00793 11.0764 9.03484 11.0495 9.03484 11.0163V11.0097C9.03484 10.9765 9.00797 10.9496 8.97473 10.9496H8.8493C8.81612 10.9496 8.78922 10.9227 8.78922 10.8895V10.883C8.78922 10.8498 8.81607 10.8229 8.8493 10.8229H9.09827C9.13145 10.8229 9.15837 10.8497 9.15837 10.883V11.0163C9.15837 11.0495 9.18524 11.0764 9.21846 11.0764H9.71776C9.75095 11.0764 9.77788 11.0495 9.77788 11.0163V10.7593C9.77788 10.7261 9.75095 10.6992 9.71776 10.6992ZM9.46902 10.6992H9.46721C9.43404 10.6992 9.4071 10.7261 9.4071 10.7593V10.7628C9.4071 10.7959 9.43398 10.8228 9.46721 10.8228H9.46902C9.50221 10.8228 9.52911 10.796 9.52911 10.7628V10.7593C9.52908 10.7261 9.50221 10.6992 9.46902 10.6992ZM9.71776 11.2031H8.2283C8.19513 11.2031 8.1682 11.2299 8.1682 11.2632V11.2698C8.1682 11.3029 8.19508 11.3298 8.2283 11.3298H9.71773C9.7509 11.3298 9.77782 11.3029 9.77782 11.2698V11.2632C9.77788 11.2299 9.75095 11.2031 9.71776 11.2031ZM8.2283 10.6992H8.47882C8.51199 10.6992 8.53893 10.7261 8.53893 10.7593V11.0163C8.53893 11.0495 8.51204 11.0764 8.47882 11.0764H8.10474C8.07155 11.0764 8.04463 11.1032 8.04463 11.1365V11.2698C8.04463 11.3029 8.01778 11.3299 7.98454 11.3299H7.98112C7.94794 11.3299 7.92102 11.303 7.92102 11.2698V10.883C7.92102 10.8498 7.89415 10.8229 7.86093 10.8229H7.8576C7.82442 10.8229 7.79749 10.8498 7.79749 10.883V11.2698C7.79749 11.3029 7.77063 11.3299 7.7374 11.3299H7.73399C7.70079 11.3299 7.67387 11.303 7.67387 11.2698V10.883C7.67387 10.8498 7.647 10.8229 7.61378 10.8229H7.61046C7.57727 10.8229 7.55034 10.8498 7.55034 10.883V11.2698C7.55034 11.3029 7.52348 11.3299 7.49026 11.3299H7.48685C7.45364 11.3299 7.42676 11.303 7.42676 11.2698V10.7594C7.42676 10.7262 7.45361 10.6992 7.48685 10.6992H7.98462C8.01781 10.6992 8.04472 10.7261 8.04472 10.7594V10.8895C8.04472 10.9227 8.07159 10.9496 8.10483 10.9496H8.35689C8.39009 10.9496 8.41699 10.9227 8.41699 10.8895V10.883C8.41699 10.8498 8.39012 10.8229 8.35689 10.8229H8.22839C8.19521 10.8229 8.1683 10.796 8.1683 10.7628V10.7594C8.1682 10.7261 8.19516 10.6992 8.2283 10.6992Z" fill="#F5F5F5"/>
<path d="M7.2432 10.6992H7.23978C7.2066 10.6992 7.1797 10.7261 7.1797 10.7593V10.8895C7.1797 10.9226 7.15282 10.9496 7.1196 10.9496H6.86752C6.83434 10.9496 6.80743 10.9227 6.80743 10.8895V10.7593C6.80743 10.7261 6.78056 10.6992 6.74733 10.6992H6.24954C6.21636 10.6992 6.18945 10.7261 6.18945 10.7593V11.0163C6.18945 11.0495 6.21632 11.0764 6.24954 11.0764H6.50014C6.53333 11.0764 6.56024 11.0495 6.56024 11.0163V11.0097C6.56024 10.9765 6.53337 10.9496 6.50014 10.9496H6.37151C6.33833 10.9496 6.31141 10.9227 6.31141 10.8895V10.883C6.31141 10.8498 6.33829 10.8229 6.37151 10.8229H6.62527C6.65845 10.8229 6.68537 10.8497 6.68537 10.883V11.0163C6.68537 11.0495 6.71223 11.0764 6.74547 11.0764H7.24313C7.27631 11.0764 7.30322 11.0495 7.30322 11.0163V10.7593C7.30325 10.7261 7.27639 10.6992 7.2432 10.6992ZM6.99603 10.6992H6.99104C6.95786 10.6992 6.93095 10.7261 6.93095 10.7593V10.7628C6.93095 10.7959 6.95782 10.8228 6.99104 10.8228H6.99603C7.02921 10.8228 7.05612 10.796 7.05612 10.7628V10.7593C7.05612 10.7261 7.02921 10.6992 6.99603 10.6992ZM7.2432 11.2031H5.75379C5.7206 11.2031 5.6937 11.2299 5.6937 11.2632V11.2698C5.6937 11.3029 5.72057 11.3298 5.75379 11.3298H7.2432C7.27639 11.3298 7.30331 11.3029 7.30331 11.2698V11.2632C7.30325 11.2299 7.27639 11.2031 7.2432 11.2031ZM5.75371 10.6992H6.00423C6.03741 10.6992 6.06432 10.7261 6.06432 10.7593V11.0163C6.06432 11.0495 6.03745 11.0764 6.00423 11.0764H5.63013C5.59695 11.0764 5.57004 11.1032 5.57004 11.1365V11.2698C5.57004 11.3029 5.54317 11.3299 5.50994 11.3299H5.50652C5.47334 11.3299 5.44643 11.303 5.44643 11.2698V10.883C5.44643 10.8498 5.41956 10.8229 5.38633 10.8229H5.383C5.34981 10.8229 5.32291 10.8498 5.32291 10.883V11.2698C5.32291 11.3029 5.29604 11.3299 5.2628 11.3299H5.25938C5.2262 11.3299 5.19929 11.303 5.19929 11.2698V10.883C5.19929 10.8498 5.17242 10.8229 5.13919 10.8229H5.13422C5.10104 10.8229 5.07411 10.8498 5.07411 10.883V11.2698C5.07411 11.3029 5.04725 11.3299 5.01402 11.3299H5.01225C4.97906 11.3299 4.95215 11.303 4.95215 11.2698V10.7594C4.95215 10.7262 4.97902 10.6992 5.01225 10.6992H5.5099C5.54308 10.6992 5.56999 10.7261 5.56999 10.7594V10.8895C5.56999 10.9227 5.59686 10.9496 5.6301 10.9496H5.87906C5.91223 10.9496 5.93915 10.9227 5.93915 10.8895V10.883C5.93915 10.8498 5.91228 10.8229 5.87906 10.8229H5.75362C5.72044 10.8229 5.69353 10.796 5.69353 10.7628V10.7594C5.69365 10.7261 5.72053 10.6992 5.75371 10.6992Z" fill="#F5F5F5"/>
<path d="M4.76709 10.6992H4.76527C4.73209 10.6992 4.70518 10.7261 4.70518 10.7593V10.8895C4.70518 10.9226 4.6783 10.9496 4.64508 10.9496H4.39448C4.36129 10.9496 4.33438 10.9227 4.33438 10.8895V10.7593C4.33438 10.7261 4.30751 10.6992 4.27428 10.6992H3.77516C3.74197 10.6992 3.71505 10.7261 3.71505 10.7593V11.0163C3.71505 11.0495 3.74193 11.0764 3.77516 11.0764H4.02402C4.05721 11.0764 4.08413 11.0495 4.08413 11.0163V11.0097C4.08413 10.9765 4.05726 10.9496 4.02402 10.9496H3.89712C3.86394 10.9496 3.83703 10.9227 3.83703 10.8895V10.883C3.83703 10.8498 3.8639 10.8229 3.89712 10.8229H4.14924C4.18243 10.8229 4.20934 10.8497 4.20934 10.883V11.0163C4.20934 11.0495 4.23621 11.0764 4.26944 11.0764H4.76722C4.80041 11.0764 4.82731 11.0495 4.82731 11.0163V10.7593C4.82723 10.7261 4.80027 10.6992 4.76709 10.6992ZM4.51995 10.6992H4.51653C4.48335 10.6992 4.45643 10.7261 4.45643 10.7593V10.7628C4.45643 10.7959 4.4833 10.8228 4.51653 10.8228H4.51995C4.55314 10.8228 4.58004 10.796 4.58004 10.7628V10.7593C4.58004 10.7261 4.55314 10.6992 4.51995 10.6992ZM4.76709 11.2031H3.27608C3.24289 11.2031 3.21598 11.2299 3.21598 11.2632V11.2698C3.21598 11.3029 3.24284 11.3298 3.27608 11.3298H4.76714C4.80031 11.3298 4.82723 11.3029 4.82723 11.2698V11.2632C4.82723 11.2299 4.80027 11.2031 4.76709 11.2031ZM3.27608 10.6992H3.52984C3.56301 10.6992 3.58993 10.7261 3.58993 10.7593V11.0163C3.58993 11.0495 3.56306 11.0764 3.52984 11.0764H3.15567C3.12248 11.0764 3.09557 11.1032 3.09557 11.1365V11.2698C3.09557 11.3029 3.0687 11.3299 3.03547 11.3299H3.03049C2.99731 11.3299 2.9704 11.303 2.9704 11.2698V10.883C2.9704 10.8498 2.94352 10.8229 2.9103 10.8229H2.90697C2.87378 10.8229 2.84687 10.8498 2.84687 10.883V11.2698C2.84687 11.3029 2.82 11.3299 2.78677 11.3299H2.78496C2.75177 11.3299 2.72485 11.303 2.72485 11.2698V10.883C2.72485 10.8498 2.69799 10.8229 2.66476 10.8229H2.65979C2.6266 10.8229 2.59969 10.8498 2.59969 10.883V11.2698C2.59969 11.3029 2.57281 11.3299 2.53959 11.3299H2.53617C2.50299 11.3299 2.47607 11.303 2.47607 11.2698V10.7594C2.47607 10.7262 2.50294 10.6992 2.53617 10.6992H3.03547C3.06865 10.6992 3.09557 10.7261 3.09557 10.7594V10.8895C3.09557 10.9227 3.12243 10.9496 3.15567 10.9496H3.40618C3.43937 10.9496 3.46627 10.9227 3.46627 10.8895V10.883C3.46627 10.8498 3.4394 10.8229 3.40618 10.8229H3.27617C3.24298 10.8229 3.21606 10.796 3.21606 10.7628V10.7594C3.21593 10.7261 3.24289 10.6992 3.27608 10.6992Z" fill="#F5F5F5"/>
<path d="M2.29253 10.6992H2.28911C2.25593 10.6992 2.22901 10.7261 2.22901 10.7593V10.8895C2.22901 10.9226 2.20214 10.9496 2.16892 10.9496H1.9184C1.88522 10.9496 1.8583 10.9227 1.8583 10.8895V10.7593C1.8583 10.7261 1.83144 10.6992 1.79821 10.6992H1.29895C1.26577 10.6992 1.23886 10.7261 1.23886 10.7593V11.0163C1.23886 11.0495 1.26572 11.0764 1.29895 11.0764H1.54791C1.58109 11.0764 1.60801 11.0495 1.60801 11.0163V11.0097C1.60801 10.9765 1.58114 10.9496 1.54791 10.9496H1.42092C1.38774 10.9496 1.36082 10.9227 1.36082 10.8895V10.883C1.36082 10.8498 1.38769 10.8229 1.42092 10.8229H1.67468C1.70787 10.8229 1.73478 10.8497 1.73478 10.883V11.0163C1.73478 11.0495 1.76165 11.0764 1.79488 11.0764H2.29253C2.32571 11.0764 2.35263 11.0495 2.35263 11.0163V10.7593C2.35263 10.7261 2.32571 10.6992 2.29253 10.6992ZM2.04539 10.6992H2.04197C2.00879 10.6992 1.98187 10.7261 1.98187 10.7593V10.7628C1.98187 10.7959 2.00874 10.8228 2.04197 10.8228H2.04539C2.07858 10.8228 2.10549 10.796 2.10549 10.7628V10.7593C2.10544 10.7261 2.07858 10.6992 2.04539 10.6992ZM2.29253 11.2031H0.804717C0.771532 11.2031 0.74462 11.2299 0.74462 11.2632V11.2698C0.74462 11.3029 0.771488 11.3298 0.804717 11.3298H2.29257C2.32576 11.3298 2.35267 11.3029 2.35267 11.2698V11.2632C2.35263 11.2299 2.32571 11.2031 2.29253 11.2031ZM0.804717 10.6992H1.05523C1.08842 10.6992 1.11533 10.7261 1.11533 10.7593V11.0163C1.11533 11.0495 1.08846 11.0764 1.05523 11.0764H0.677989C0.644803 11.0764 0.617892 11.1032 0.617892 11.1365V11.2698C0.617892 11.3029 0.591023 11.3299 0.557794 11.3299H0.557621C0.524436 11.3299 0.497524 11.303 0.497524 11.2698V10.883C0.497524 10.8498 0.470655 10.8229 0.437426 10.8229H0.430763C0.397578 10.8229 0.370666 10.8498 0.370666 10.883V11.2698C0.370666 11.3029 0.343797 11.3299 0.310568 11.3299H0.310439C0.277253 11.3299 0.250341 11.303 0.250341 11.2698V10.883C0.250341 10.8498 0.223472 10.8229 0.190244 10.8229H0.186782C0.153597 10.8229 0.126685 10.8498 0.126685 10.883V11.2698C0.126685 11.3029 0.0998163 11.3299 0.0665874 11.3299H0.0600974C0.0269119 11.3299 0 11.303 0 11.2698V10.7594C0 10.7262 0.0268686 10.6992 0.0600974 10.6992H0.557751C0.590936 10.6992 0.617848 10.7261 0.617848 10.7594V10.8895C0.617848 10.9227 0.644717 10.9496 0.677946 10.9496H0.931662C0.964847 10.9496 0.991759 10.9227 0.991759 10.8895V10.883C0.991759 10.8498 0.96489 10.8229 0.931662 10.8229H0.80476C0.771575 10.8229 0.744663 10.796 0.744663 10.7628V10.7594C0.74462 10.7261 0.771532 10.6992 0.804717 10.6992Z" fill="#F5F5F5"/>
<path d="M22.0922 10.3164H21.0987C21.0655 10.3164 21.0386 10.3433 21.0386 10.3765V10.5098C21.0386 10.543 21.0654 10.5699 21.0987 10.5699H22.0922C22.1254 10.5699 22.1523 10.5431 22.1523 10.5098V10.3765C22.1523 10.3433 22.1254 10.3164 22.0922 10.3164ZM20.8534 10.3164H19.8614C19.8282 10.3164 19.8013 10.3433 19.8013 10.3765V10.5098C19.8013 10.543 19.8281 10.5699 19.8614 10.5699H20.8534C20.8865 10.5699 20.9135 10.5431 20.9135 10.5098V10.3765C20.9135 10.3433 20.8865 10.3164 20.8534 10.3164Z" fill="#F5F5F5"/>
<path d="M19.6167 10.3164H18.6247C18.5915 10.3164 18.5646 10.3433 18.5646 10.3765V10.5098C18.5646 10.543 18.5914 10.5699 18.6247 10.5699H19.6167C19.6498 10.5699 19.6768 10.5431 19.6768 10.5098V10.3765C19.6767 10.3433 19.6498 10.3164 19.6167 10.3164ZM18.3809 10.3164H17.3858C17.3526 10.3164 17.3257 10.3433 17.3257 10.3765V10.5098C17.3257 10.543 17.3526 10.5699 17.3858 10.5699H18.3809C18.4141 10.5699 18.441 10.5431 18.441 10.5098V10.3765C18.441 10.3433 18.4141 10.3164 18.3809 10.3164Z" fill="#F5F5F5"/>
<path d="M17.142 10.3164H16.1484C16.1153 10.3164 16.0883 10.3433 16.0883 10.3765V10.5098C16.0883 10.543 16.1152 10.5699 16.1484 10.5699H17.142C17.1751 10.5699 17.2021 10.5431 17.2021 10.5098V10.3765C17.2021 10.3433 17.1751 10.3164 17.142 10.3164ZM15.9047 10.3164H14.9112C14.878 10.3164 14.8511 10.3433 14.8511 10.3765V10.5098C14.8511 10.543 14.878 10.5699 14.9112 10.5699H15.9047C15.9379 10.5699 15.9648 10.5431 15.9648 10.5098V10.3765C15.9648 10.3433 15.9379 10.3164 15.9047 10.3164Z" fill="#F5F5F5"/>
<path d="M14.6669 10.3164H13.6734C13.6402 10.3164 13.6133 10.3433 13.6133 10.3765V10.5098C13.6133 10.543 13.6402 10.5699 13.6734 10.5699H14.6669C14.7001 10.5699 14.7271 10.5431 14.7271 10.5098V10.3765C14.727 10.3433 14.7001 10.3164 14.6669 10.3164ZM13.4312 10.3164H12.4361C12.4029 10.3164 12.376 10.3433 12.376 10.3765V10.5098C12.376 10.543 12.4028 10.5699 12.4361 10.5699H13.4312C13.4644 10.5699 13.4913 10.5431 13.4913 10.5098V10.3765C13.4913 10.3433 13.4644 10.3164 13.4312 10.3164Z" fill="#F5F5F5"/>
<path d="M12.1924 10.3164H11.1988C11.1656 10.3164 11.1387 10.3433 11.1387 10.3765V10.5098C11.1387 10.543 11.1655 10.5699 11.1988 10.5699H12.1924C12.2256 10.5699 12.2525 10.5431 12.2525 10.5098V10.3765C12.2524 10.3433 12.2256 10.3164 12.1924 10.3164ZM10.9551 10.3164H9.96146C9.92828 10.3164 9.90137 10.3433 9.90137 10.3765V10.5098C9.90137 10.543 9.92822 10.5699 9.96146 10.5699H10.9551C10.9883 10.5699 11.0152 10.5431 11.0152 10.5098V10.3765C11.0151 10.3433 10.9883 10.3164 10.9551 10.3164Z" fill="#F5F5F5"/>
<path d="M9.71777 10.3164H8.72415C8.69096 10.3164 8.66406 10.3433 8.66406 10.3765V10.5098C8.66406 10.543 8.69092 10.5699 8.72415 10.5699H9.71777C9.75095 10.5699 9.77788 10.5431 9.77788 10.5098V10.3765C9.77788 10.3433 9.75095 10.3164 9.71777 10.3164ZM8.47884 10.3164H7.48685C7.45367 10.3164 7.42676 10.3433 7.42676 10.3765V10.5098C7.42676 10.543 7.45361 10.5699 7.48685 10.5699H8.47884C8.51199 10.5699 8.53893 10.5431 8.53893 10.5098V10.3765C8.53893 10.3433 8.51199 10.3164 8.47884 10.3164Z" fill="#F5F5F5"/>
<path d="M7.24357 10.3164H6.24995C6.21676 10.3164 6.18985 10.3433 6.18985 10.3765V10.5098C6.18985 10.543 6.21671 10.5699 6.24995 10.5699H7.24357C7.27675 10.5699 7.30367 10.5431 7.30367 10.5098V10.3765C7.30362 10.3433 7.27675 10.3164 7.24357 10.3164ZM6.00462 10.3164H5.01273C4.97955 10.3164 4.95264 10.3433 4.95264 10.3765V10.5098C4.95264 10.543 4.97951 10.5699 5.01273 10.5699H6.00462C6.03782 10.5699 6.06472 10.5431 6.06472 10.5098V10.3765C6.06467 10.3433 6.03782 10.3164 6.00462 10.3164Z" fill="#F5F5F5"/>
<path d="M4.76709 10.3164H3.77516C3.74197 10.3164 3.71506 10.3433 3.71506 10.3765V10.5098C3.71506 10.543 3.74193 10.5699 3.77516 10.5699H4.76713C4.80032 10.5699 4.82723 10.5431 4.82723 10.5098V10.3765C4.82723 10.3433 4.80027 10.3164 4.76709 10.3164ZM3.52979 10.3164H2.53617C2.50299 10.3164 2.47607 10.3433 2.47607 10.3765V10.5098C2.47607 10.543 2.50294 10.5699 2.53617 10.5699H3.52979C3.56298 10.5699 3.58989 10.5431 3.58989 10.5098V10.3765C3.58989 10.3433 3.56298 10.3164 3.52979 10.3164Z" fill="#F5F5F5"/>
<path d="M2.29253 10.3164H1.29895C1.26577 10.3164 1.23886 10.3433 1.23886 10.3765V10.5098C1.23886 10.543 1.26572 10.5699 1.29895 10.5699H2.29257C2.32576 10.5699 2.35267 10.5431 2.35267 10.5098V10.3765C2.35263 10.3433 2.32571 10.3164 2.29253 10.3164ZM1.05519 10.3164H0.0600974C0.0268686 10.3164 0 10.3433 0 10.3765V10.5098C0 10.543 0.0268686 10.5699 0.0600974 10.5699H1.05523C1.08842 10.5699 1.11533 10.5431 1.11533 10.5098V10.3765C1.11533 10.3433 1.08842 10.3164 1.05519 10.3164Z" fill="#F5F5F5"/>
<path d="M10.7602 6.21919C10.8735 6.24939 10.9945 6.21611 11.0775 6.13153C11.2029 6.25847 11.4084 6.26151 11.5384 6.13762C11.623 6.05603 11.6577 5.93211 11.6275 5.82031C11.5173 5.99861 11.2846 6.05603 11.1063 5.94417C11.0972 5.93806 11.0852 5.93207 11.0776 5.92601C10.91 6.04988 10.6728 6.01665 10.5458 5.85051C10.5412 5.84137 10.5322 5.82932 10.5261 5.82031C10.4808 5.99567 10.5865 6.17686 10.7602 6.21919Z" fill="#DA0000"/>
<path d="M11.464 9.74847C11.8701 9.52551 12.209 9.17422 12.3948 8.71154C12.7113 7.91847 12.512 7.02326 11.9066 6.44262C11.8858 6.42269 11.8542 6.44939 11.8693 6.47395C12.4663 7.44759 12.2311 8.72704 11.3073 9.42811L11.3515 6.59991C11.3521 6.56152 11.3349 6.52497 11.3051 6.50079L11.1548 6.37934C11.1088 6.34214 11.0431 6.34232 10.9973 6.37977L10.8492 6.50079C10.8197 6.52494 10.8028 6.56127 10.8034 6.59943L10.8463 9.42962C9.92231 8.72887 9.68656 7.44828 10.2827 6.47398C10.2978 6.44943 10.2661 6.42272 10.2454 6.44271C9.6412 7.02335 9.44067 7.9185 9.75706 8.71151C9.94291 9.17413 10.2818 9.52544 10.688 9.74841C10.4295 9.83703 10.1578 9.88401 9.88304 9.87615C9.85397 9.87531 9.84814 9.91615 9.87596 9.92454C10.225 10.0305 10.5841 10.0378 10.9216 9.96211L11.0542 10.2192C11.0633 10.237 11.0887 10.2371 11.098 10.2193L11.2314 9.96223C11.5689 10.0378 11.9281 10.0304 12.2774 9.92442C12.3052 9.91602 12.2994 9.87519 12.2704 9.876C11.9953 9.88401 11.7229 9.83703 11.464 9.74847Z" fill="#DA0000"/>
<path d="M13.1171 7.1194C12.9093 6.73107 12.5641 6.43673 12.1532 6.29252C12.1275 6.28348 12.1074 6.31748 12.1284 6.33484C13.0356 7.08211 13.2174 8.41304 12.5159 9.37659C12.4796 9.42495 12.4403 9.47631 12.4026 9.51853C13.2638 9.05623 13.5825 7.98058 13.1171 7.1194Z" fill="#DA0000"/>
<path d="M9.63778 9.37651C8.93625 8.41293 9.11669 7.08208 10.0236 6.33479C10.0447 6.31741 10.0246 6.28351 9.99886 6.29251C9.58848 6.43674 9.24566 6.73099 9.03647 7.11934C8.56814 7.9805 8.88996 9.05615 9.75261 9.51843C9.71186 9.4762 9.67255 9.42486 9.63778 9.37651Z" fill="#DA0000"/>
</svg>
