<svg width="23" height="16" viewBox="0 0 23 16" fill="none" xmlns="http://www.w3.org/2000/svg">
<path d="M22.1525 5.60553H0V1.14954C0 0.938622 0.171033 0.767578 0.381958 0.767578H21.7706C21.9816 0.767578 22.1526 0.938622 22.1526 1.14954L22.1525 5.60553V5.60553Z" fill="#CE1126"/>
<path d="M21.7706 15.2812H0.381958C0.171033 15.2812 0 15.1102 0 14.8993V10.4434H22.1525V14.8993C22.1525 15.1103 21.9815 15.2812 21.7706 15.2812Z" fill="black"/>
<rect y="5.60547" width="22.1525" height="4.83765" fill="#F5F5F5"/>
<path d="M13.329 7.05264C13.2889 7.03172 13.2413 6.95696 13.2562 6.92426C13.2718 6.88995 13.2475 6.89289 13.3296 6.91729C13.4779 6.95571 13.574 6.93818 13.6683 6.85792L13.7521 6.79159L13.85 6.84049C13.9041 6.86489 13.9599 6.88233 13.9757 6.87882C14.021 6.86836 14.1084 6.7566 14.1066 6.71819C14.1048 6.66592 14.1433 6.67983 14.1625 6.7357C14.2026 6.84049 14.1287 7.02122 14.0275 7.04566C13.9787 7.05961 13.9333 7.05613 13.8564 7.03173C13.7656 6.99677 13.7516 6.99677 13.7028 7.03173C13.6015 7.11204 13.4565 7.11909 13.329 7.05264Z" fill="#007A3D"/>
<path d="M13.7114 6.64756C13.6624 6.57888 13.6035 6.33864 13.6207 6.27983C13.6378 6.22586 13.655 6.21608 13.7015 6.23077C13.7849 6.26016 13.8046 6.31416 13.7947 6.51036C13.78 6.65735 13.7605 6.70645 13.7114 6.64756Z" fill="#007A3D"/>
<path d="M10.4274 7.70877C10.2262 7.82327 9.92688 7.84296 9.92688 8.16025C9.48861 8.17654 8.97173 8.19617 8.50556 8.18635C8.63192 8.02315 9.43151 7.28413 9.76401 6.99119C9.81905 6.94275 9.83774 6.84894 9.80573 6.78296L9.79712 6.76523C9.7492 6.66635 9.61878 6.64282 9.53936 6.71873C9.208 7.03572 8.87964 7.33105 8.82618 7.3817C8.39724 7.81521 8.27141 7.94157 8.204 8.0094C8.15601 8.05774 8.12934 8.12302 8.12967 8.19112V8.19559C8.13045 8.33705 8.24532 8.45132 8.38675 8.45132H10.2637C10.3701 8.45132 10.2393 8.08171 10.3766 8.08171C10.4721 8.08171 10.4809 8.21431 10.4767 8.35478C10.4735 8.46167 10.3854 8.54622 10.2786 8.54634C9.46709 8.54747 8.62235 8.55522 7.82744 8.55594C7.76181 8.556 7.70911 8.50271 7.70911 8.43704V8.29405C7.70911 8.17282 7.57448 8.10232 7.47313 8.16887C7.46941 8.17129 7.46578 8.17363 7.46215 8.17589C7.4092 8.209 7.3821 8.2738 7.40278 8.33267C7.41619 8.37092 7.42206 8.41748 7.4233 8.46617C7.42504 8.53052 7.37262 8.58354 7.30829 8.58554C7.04541 8.59358 6.75972 8.59596 6.67858 8.44095C6.63282 8.35354 6.53542 8.31227 6.44712 8.3564L6.4354 8.36227C6.34247 8.40875 6.30524 8.52371 6.35613 8.61426C6.45295 8.78641 6.54131 8.98614 6.49544 9.26585C6.45806 9.35399 6.38762 9.40919 6.3113 9.45888C6.22649 9.51408 6.27973 9.64326 6.37919 9.62488C6.62035 9.58032 6.78655 9.38945 6.83738 9.16444H10.5765C10.7136 9.16444 10.8248 9.05324 10.8248 8.91615V8.10466C10.7905 7.86255 10.5304 7.87236 10.4274 7.70877Z" fill="#007A3D"/>
<path d="M15.1702 6.63783C15.2253 6.67332 15.2806 6.70884 15.3422 6.73815C15.4095 6.77032 15.4353 6.85252 15.3959 6.91586C15.3854 6.9326 15.3768 6.95132 15.3718 6.97409V8.58349C15.4818 8.60638 15.5449 8.5847 15.5951 8.5501C15.6517 8.5111 15.7281 8.53948 15.746 8.60584C15.784 8.74703 15.8461 8.88491 15.8792 9.01049C15.9 9.08892 15.841 9.16572 15.7599 9.16572H15.1294C15.0735 9.16572 15.0283 9.12048 15.0283 9.06465V6.71527C15.0283 6.64245 15.1089 6.59841 15.1702 6.63783Z" fill="#007A3D"/>
<path d="M14.4066 7.02946C14.4071 7.47386 14.4122 7.95256 14.413 8.42892C14.4131 8.49066 14.363 8.54068 14.3013 8.54068H14.2941C14.2324 8.54068 14.1824 8.49069 14.1824 8.42904V7.30024C14.1824 7.23878 14.1102 7.20596 14.064 7.24637L13.916 7.3742C13.8858 7.40036 13.8684 7.43796 13.8682 7.47792C13.8677 7.66153 13.8661 8.19616 13.8655 8.42952C13.8653 8.49099 13.8154 8.54068 13.7538 8.54068H13.7437C13.6824 8.54068 13.6325 8.49141 13.6321 8.43004C13.631 8.27469 13.6291 7.98674 13.6283 7.77075C13.6281 7.7086 13.5546 7.67616 13.5079 7.71711C13.3546 7.85145 13.3192 7.88182 13.2387 7.96495C13.2453 8.00746 13.2781 7.96495 13.2976 7.9976V8.21354C12.7392 8.10841 12.6975 8.55456 12.7184 9.03326C12.7215 9.10521 12.7806 9.16212 12.8526 9.16212H14.606C14.671 9.16212 14.7237 9.10943 14.7237 9.04438V6.86458C14.7237 6.79176 14.6373 6.75438 14.5836 6.80356C14.5408 6.84274 14.495 6.882 14.4558 6.91752C14.4243 6.9463 14.4065 6.98671 14.4066 7.02946ZM13.1162 8.52435C13.0819 8.42619 13.2749 8.3902 13.2977 8.47857C13.3059 8.58648 13.1588 8.58978 13.1162 8.52435Z" fill="#007A3D"/>
<path d="M7.32503 9.33789C7.39209 9.33789 7.44604 9.39349 7.44604 9.45886C7.44604 9.52762 7.39209 9.57993 7.32503 9.57993C7.25636 9.57993 7.20068 9.52762 7.20068 9.45886C7.20073 9.39349 7.25641 9.33789 7.32503 9.33789Z" fill="#007A3D"/>
<path d="M11.3116 6.68641C11.3444 6.70611 11.3781 6.72494 11.4139 6.74185C11.4787 6.77243 11.5042 6.85287 11.4646 6.91255C11.4527 6.93049 11.4425 6.95088 11.4366 6.97667V8.58276C11.5531 8.60867 11.6169 8.58328 11.6677 8.54568C11.7183 8.50825 11.7912 8.53412 11.8074 8.59492C11.8365 8.70395 11.8803 8.81176 11.9141 8.91414C11.9554 9.0393 11.8626 9.16829 11.7307 9.16829H11.2389C11.1593 9.16829 11.0947 9.10374 11.0947 9.02405V6.81082C11.0947 6.69954 11.2162 6.6291 11.3116 6.68641Z" fill="#007A3D"/>
</svg>
