<svg width="148" height="16" viewBox="0 0 148 16" fill="none" xmlns="http://www.w3.org/2000/svg">
<g clip-path="url(#clip0_1_6789)">
<path d="M122.416 0.501953H124.952L130.394 15.4642H128.774L123.937 2.18253V15.4642H122.424L122.416 0.501953ZM135.026 0.501953H137.562V15.4642H136.048V2.18253L131.219 15.4642H129.592L135.026 0.501953Z" fill="black"/>
<path d="M143.837 2.59291V4.04887H139.492V2.59291H143.837ZM148 14.0237V15.4797H139.492V14.0237H148ZM144.511 0.517457V15.4797H142.997V0.501953L144.511 0.517457Z" fill="black"/>
<path d="M9.64312 6.69084H3.22447V0.626953H0V15.5815H3.22447V9.51756H9.64312V15.5815H12.8752V0.626953H9.64312V6.69084Z" fill="black"/>
<path d="M25.5232 1.50324C24.301 0.885463 22.9499 0.582385 21.5872 0.620364H15.4336V15.5826H21.5872C22.9499 15.6205 24.301 15.3175 25.5232 14.6997C26.6001 14.1296 27.4801 13.2348 28.0438 12.1363C28.6531 10.8849 28.952 9.49917 28.9141 8.10151C28.9526 6.70628 28.6537 5.32286 28.0438 4.07435C27.4825 2.97212 26.6021 2.07419 25.5232 1.50324V1.50324ZM25.1978 10.6571C24.8851 11.3251 24.3665 11.8693 23.7218 12.206C22.9543 12.5789 22.111 12.7594 21.2618 12.7327H18.6656V3.43935H21.2618C22.112 3.41106 22.9562 3.59439 23.7218 3.97367C24.3672 4.30944 24.886 4.85395 25.1978 5.52256C25.546 6.32624 25.714 7.19949 25.6897 8.07826C25.719 8.96495 25.5509 9.84681 25.1978 10.6571V10.6571Z" fill="black"/>
<path d="M42.3566 7.75076V7.55715C43.0658 7.37562 43.695 6.95558 44.143 6.36447C44.5889 5.78153 44.8265 5.06021 44.8166 4.32003C44.8416 3.80697 44.7509 3.29482 44.5514 2.82342C44.3519 2.35202 44.0489 1.93404 43.666 1.60172C42.7268 0.888745 41.5708 0.540171 40.4039 0.618165H33.0391V15.5804H40.9185C41.7873 15.5976 42.6496 15.4233 43.4467 15.0693C44.1268 14.7655 44.7074 14.2681 45.1194 13.6365C45.5218 12.9895 45.7273 12.2348 45.7098 11.4681C45.7286 11.0103 45.6577 10.5533 45.5018 10.1238C45.3458 9.6943 45.1077 9.30092 44.8014 8.96669C44.1455 8.28839 43.2831 7.85939 42.3566 7.75076V7.75076ZM39.4501 3.4449H39.556C40.082 3.42087 40.6046 3.54116 41.0698 3.79336C41.2441 3.91915 41.3823 4.09031 41.4701 4.28911C41.5579 4.48792 41.5922 4.7071 41.5693 4.92402C41.5877 5.13178 41.5567 5.34104 41.479 5.53388C41.4012 5.72672 41.2791 5.89746 41.1229 6.03152C40.735 6.28504 40.281 6.41196 39.821 6.39548H36.2861V3.4449H39.4501ZM42.1296 11.9638C41.9154 12.2385 41.6252 12.4409 41.297 12.5446C40.8505 12.6841 40.3861 12.7545 39.9193 12.7536H36.2635V9.09828H39.821C40.2948 9.08868 40.7678 9.14079 41.2288 9.25323C41.5751 9.34071 41.8854 9.5387 42.1145 9.81856C42.3437 10.1299 42.4588 10.5136 42.4399 10.9028C42.4591 11.2825 42.3495 11.6573 42.1296 11.9638Z" fill="black"/>
<path d="M58.3585 1.03662C57.1746 0.336823 55.8274 -0.0217668 54.4603 -0.00110837C53.0957 -0.0203652 51.7515 0.338177 50.5698 1.03662C49.4242 1.71513 48.4839 2.70406 47.8524 3.89436C47.1832 5.15254 46.8442 6.56675 46.8684 7.99895C46.8452 9.43104 47.1842 10.8449 47.8524 12.1034C48.4844 13.2914 49.4248 14.2777 50.5698 14.9534C51.7499 15.6568 53.0947 16.0182 54.4603 15.9989C55.8285 16.0203 57.1765 15.6588 58.3585 14.9534C59.4982 14.2731 60.4349 13.2878 61.0682 12.1034C61.7364 10.8449 62.0754 9.43104 62.0522 7.99895C62.0764 6.56675 61.7374 5.15254 61.0682 3.89436C60.435 2.70791 59.4985 1.72002 58.3585 1.03662ZM58.26 10.632C57.9055 11.3789 57.3653 12.0173 56.6934 12.4829C56.024 12.9467 55.2309 13.1874 54.4226 13.1722C53.627 13.181 52.8477 12.9404 52.1896 12.4829C51.5154 12.0165 50.9747 11.375 50.6229 10.6242C50.2366 9.80621 50.0422 8.90734 50.0552 7.99895C50.0429 7.08566 50.2372 6.18182 50.6229 5.35807C50.9707 4.60455 51.5121 3.96203 52.1896 3.49939C52.8506 3.05002 53.629 2.8152 54.4226 2.82563C55.2301 2.80758 56.0233 3.04564 56.6934 3.50714C57.3656 3.97573 57.9057 4.61665 58.26 5.36583C58.6464 6.18657 58.8407 7.08807 58.8277 7.99895C58.8433 8.91009 58.6488 9.81209 58.26 10.632V10.632Z" fill="black"/>
<path d="M77.8493 0.626953H73.8679L70.1515 5.80798L66.435 0.626953H62.4385L67.7975 8.10033L62.4385 15.5815H66.435L70.1515 10.4004L73.8679 15.5815H77.8493L72.4903 8.10033L77.8493 0.626953Z" fill="black"/>
<path d="M107.271 8.10156H91.3223" stroke="#EA0029" stroke-miterlimit="10"/>
</g>
<defs>
<clipPath id="clip0_1_6789">
<rect width="148" height="16" fill="white"/>
</clipPath>
</defs>
</svg>
