<svg width="174" height="317" viewBox="0 0 174 317" fill="none" xmlns="http://www.w3.org/2000/svg">
<g clip-path="url(#clip0_1_6765)">
<path d="M63.6594 0H110.388C127.272 0 143.464 6.71362 155.402 18.6639C167.34 30.6143 174.047 46.8224 174.047 63.7227V258.599C174.047 274.088 167.901 288.942 156.959 299.895C146.018 310.847 131.178 317 115.704 317H58.3431C42.8696 317 28.0298 310.847 17.0883 299.895C6.14685 288.942 0 274.088 0 258.599L0 63.7227C0 46.8224 6.70695 30.6143 18.6454 18.6639C30.5838 6.71362 46.7758 0 63.6594 0V0Z" fill="#1B1B1A"/>
<path d="M75.7272 6.54688H98.2721C117.403 6.54688 135.749 14.154 149.277 27.6947C162.804 41.2354 170.404 59.6006 170.404 78.7501V243.365C170.404 261.164 163.34 278.234 150.766 290.82C138.193 303.406 121.14 310.477 103.358 310.477H70.6412C52.8596 310.477 35.8063 303.406 23.2329 290.82C10.6594 278.234 3.5957 261.164 3.5957 243.365V78.7501C3.5957 59.6006 11.1952 41.2354 24.7225 27.6947C38.2498 14.154 56.5967 6.54688 75.7272 6.54688Z" fill="#232222"/>
<path d="M67.5801 282.231L33.116 298.961C29.6443 296.61 26.3998 293.939 23.4249 290.982L58.512 273.357L41.0599 132.408L3.5957 93.8828V78.7453C3.5957 76.3184 3.71762 73.9186 3.94787 71.5527L45.3806 111.617L67.5801 282.231Z" fill="#3E3E3F"/>
<path d="M132.94 132.381L115.488 273.33L150.575 290.955C147.605 293.913 144.362 296.585 140.891 298.934L106.42 282.203L128.619 111.589L170.052 71.5254C170.282 73.8913 170.404 76.2707 170.404 78.7179V93.8826L132.94 132.381Z" fill="#3E3E3F"/>
<path d="M59.5752 42.6057V36.3555L61.9658 38.7552V42.0024L60.4692 43.5277L59.5752 42.6057ZM67.2415 42.7684L68.4334 43.9615L67.2415 45.1614H62.1284L60.9296 43.9615L62.1284 42.7684H67.2415ZM67.3769 42.0024V38.7552L69.7743 36.3622V42.6057L68.8736 43.5277L67.3769 42.0024ZM69.7743 45.3241V51.5743L67.3769 49.1746V45.9206L68.8736 44.4225L69.7743 45.3241Z" fill="#D1DF56"/>
<path d="M72.4629 42.6068V36.3498L74.8603 38.7156V41.9899L73.3637 43.5287L72.4629 42.6068ZM74.8603 45.9285V49.1824L72.4629 51.5754V45.3252L73.3637 44.4236L74.8603 45.9285ZM82.215 35.9023L79.8243 38.2953H75.3141L72.9167 35.9023H82.215ZM82.215 52.0296H72.9167L75.3141 49.6298H79.8243L82.215 52.0296ZM80.2646 41.9967V38.736L82.6552 36.3769V42.6068L81.7544 43.5287L80.2646 41.9967ZM82.6552 45.3252V51.5551L80.2646 49.1553V45.9217L81.7544 44.4236L82.6552 45.3252Z" fill="#D1DF56"/>
<path d="M91.3379 42.6068V36.3498L93.7353 38.7156V41.9899L92.2387 43.5287L91.3379 42.6068ZM93.7353 45.9285V49.1824L91.3379 51.5754V45.3252L92.2387 44.4236L93.7353 45.9285ZM101.097 35.9023L98.7061 38.2953H94.1958L91.7984 35.9023H101.097ZM101.097 52.0296H91.7984L94.1958 49.6298H98.7061L101.097 52.0296ZM99.1463 41.9967V38.736L101.537 36.3769V42.6068L100.643 43.5287L99.1463 41.9967ZM101.537 45.3252V51.5551L99.1463 49.1417V45.9082L100.643 44.41L101.537 45.3252Z" fill="#D1DF56"/>
<path d="M104.232 42.6068V36.3498L106.623 38.7156V41.9899L105.126 43.5287L104.232 42.6068ZM106.623 45.9285V49.1824L104.232 51.5754V45.3252L105.126 44.4236L106.623 45.9285ZM113.991 35.9023L111.594 38.2953H107.084L104.693 35.9023H113.991ZM113.991 52.0296H104.693L107.084 49.6298H111.594L113.991 52.0296ZM112.034 41.9967V38.736L114.425 36.3769V42.6068L113.531 43.5287L112.034 41.9967ZM114.425 45.3252V51.5551L112.014 49.1417V45.9082L113.51 44.41L114.425 45.3252Z" fill="#D1DF56"/>
<path d="M76.0251 77.6211H73.0859V92.3451H76.0251V77.6211Z" fill="white"/>
<path d="M70.2694 77.6211H68.7998V92.3451H70.2694V77.6211Z" fill="white"/>
<path d="M65.9823 77.6211H65.2441V92.3451H65.9823V77.6211Z" fill="white"/>
<path d="M100.907 77.6211H97.9678V92.3451H100.907V77.6211Z" fill="white"/>
<path d="M105.194 77.6211H103.725V92.3451H105.194V77.6211Z" fill="white"/>
<path d="M90.7349 77.6211V83.5121H83.2584V77.6211H78.8496V92.3451H83.2584V86.4541H90.7349V92.3451H95.1505V77.6211H90.7349Z" fill="white"/>
<path d="M108.756 77.6211H108.018V92.3451H108.756V77.6211Z" fill="white"/>
<path d="M70.6349 98.6216H67.0523V95.3066H65.2441V103.482H67.0523V100.167H70.6349V103.482H72.4431V95.3066H70.6349V98.6216Z" fill="white"/>
<path d="M79.5065 95.7866C78.8239 95.4458 78.0681 95.2782 77.3055 95.2985H73.8652V103.481H77.3055C78.0681 103.501 78.8239 103.334 79.5065 102.993C80.108 102.683 80.5998 102.195 80.9151 101.596C81.2362 100.905 81.4026 100.152 81.4026 99.3897C81.4026 98.6274 81.2362 97.8743 80.9151 97.1831C80.5998 96.584 80.108 96.0965 79.5065 95.7866ZM79.3236 100.79C79.1504 101.158 78.8598 101.459 78.4974 101.644C78.0758 101.848 77.6113 101.948 77.143 101.935H75.6937V96.8441H77.143C77.6113 96.8314 78.0758 96.9313 78.4974 97.1356C78.8598 97.3208 79.1504 97.6213 79.3236 97.9898C79.6849 98.888 79.6849 99.8913 79.3236 100.79Z" fill="white"/>
<path d="M88.9198 99.1978V99.0961C89.3173 98.9862 89.6673 98.7479 89.9153 98.4182C90.1631 98.0987 90.2945 97.7041 90.2878 97.2997C90.3028 97.0189 90.2532 96.7384 90.1428 96.4798C90.0325 96.2213 89.8643 95.9915 89.6512 95.8083C89.1249 95.4226 88.4806 95.2332 87.8295 95.2727H83.7119V103.455H88.1139C88.5979 103.464 89.0783 103.369 89.5226 103.177C89.9042 103.009 90.2306 102.737 90.4639 102.391C90.6855 102.035 90.7984 101.623 90.789 101.204C90.8057 100.704 90.6257 100.217 90.2878 99.8486C89.9176 99.4843 89.4358 99.2551 88.9198 99.1978ZM87.2945 96.8455H87.3486C87.6402 96.8352 87.9295 96.9006 88.1884 97.0353C88.2846 97.1048 88.3609 97.1983 88.4096 97.3066C88.4583 97.4148 88.4778 97.534 88.4661 97.6522C88.4749 97.7664 88.4568 97.8811 88.4133 97.9871C88.3698 98.093 88.302 98.1873 88.2155 98.2623C87.9994 98.3996 87.7467 98.4682 87.4909 98.4589H85.5134V96.8455H87.2945ZM88.7911 101.503C88.6729 101.653 88.5125 101.763 88.3307 101.821C88.0806 101.899 87.8203 101.938 87.5586 101.937H85.5269V99.9367H87.5111C87.7776 99.9311 88.0438 99.9584 88.3035 100.018C88.4959 100.07 88.6683 100.178 88.7979 100.33C88.9219 100.503 88.9839 100.713 88.974 100.926C88.9817 101.134 88.917 101.338 88.7911 101.503Z" fill="white"/>
<path d="M97.8594 95.5287C97.1944 95.1552 96.4447 94.959 95.6821 94.959C94.9196 94.959 94.1699 95.1552 93.5049 95.5287C92.8671 95.9008 92.3427 96.4398 91.9879 97.0879C91.6276 97.7808 91.4395 98.5505 91.4395 99.3317C91.4395 100.113 91.6276 100.883 91.9879 101.576C92.3398 102.226 92.8649 102.765 93.5049 103.135C94.1699 103.508 94.9196 103.704 95.6821 103.704C96.4447 103.704 97.1944 103.508 97.8594 103.135C98.4993 102.765 99.0244 102.226 99.3764 101.576C99.7366 100.883 99.9248 100.113 99.9248 99.3317C99.9248 98.5505 99.7366 97.7808 99.3764 97.0879C99.0216 96.4398 98.4972 95.9008 97.8594 95.5287ZM97.8052 100.776C97.6028 101.18 97.3024 101.527 96.9316 101.786C96.5602 102.029 96.126 102.158 95.6821 102.158C95.2383 102.158 94.8041 102.029 94.4327 101.786C94.0564 101.53 93.7549 101.179 93.559 100.769C93.3435 100.321 93.2346 99.8289 93.2407 99.3317C93.2352 98.8324 93.3441 98.3384 93.559 97.8878C93.7549 97.4772 94.0564 97.1262 94.4327 96.8709C94.8023 96.6274 95.2362 96.4999 95.6787 96.5048C96.1245 96.4988 96.5615 96.6289 96.9316 96.8777C97.3045 97.1368 97.6052 97.4867 97.8052 97.8946C98.0167 98.3453 98.1262 98.8371 98.1262 99.3351C98.1262 99.833 98.0167 100.325 97.8052 100.776Z" fill="white"/>
<path d="M108.749 95.3066H106.528L104.449 98.1403L102.37 95.3066H100.135L103.135 99.3944L100.135 103.482H102.37L104.449 100.649L106.528 103.482H108.749L105.756 99.3944L108.749 95.3066Z" fill="white"/>
<path d="M78.917 133.479H80.522L83.9623 142.725H82.933L79.8787 134.516V142.725H78.917V133.479ZM86.888 133.479H88.4862V142.725H87.5245V134.516L84.4702 142.725H83.4476L86.888 133.479Z" fill="white"/>
<path d="M92.4546 134.76V135.661H89.7051V134.76H92.4546ZM95.0822 141.823V142.725H89.7051V141.823H95.0822ZM92.8745 133.479V142.725H91.9128V133.479H92.8745Z" fill="white"/>
</g>
<defs>
<clipPath id="clip0_1_6765">
<rect width="174" height="317" fill="white"/>
</clipPath>
</defs>
</svg>
