<svg width="22" height="16" viewBox="0 0 22 16" fill="none" xmlns="http://www.w3.org/2000/svg">
<path d="M-0.000488281 1.16758C-0.000488281 0.946663 0.178598 0.767578 0.399512 0.767578H21.3707C21.5916 0.767578 21.7707 0.946664 21.7707 1.16758V14.8814C21.7707 15.1023 21.5916 15.2814 21.3707 15.2814H0.399511C0.178597 15.2814 -0.000488281 15.1023 -0.000488281 14.8814V1.16758Z" fill="#D80027"/>
<path d="M10.5112 6.35742L11.2594 7.3884L12.4709 6.99554L11.7216 8.02557L12.4697 9.05649L11.2585 8.66214L10.5092 9.69223L10.51 8.41849L9.29883 8.02411L10.5104 7.63123L10.5112 6.35742Z" fill="#F0F0F0"/>
<path d="M8.46976 10.602C7.0466 10.602 5.89285 9.44824 5.89285 8.02509C5.89285 6.60191 7.0466 5.44818 8.46976 5.44818C8.91352 5.44818 9.33099 5.56041 9.69553 5.75792C9.1237 5.19865 8.34164 4.85352 7.47867 4.85352C5.72707 4.85352 4.30713 6.27348 4.30713 8.02504C4.30713 9.7766 5.7271 11.1966 7.47867 11.1966C8.34164 11.1966 9.1237 10.8514 9.69553 10.2922C9.33104 10.4898 8.91352 10.602 8.46976 10.602Z" fill="#F0F0F0"/>
</svg>
