<svg width="363" height="227" viewBox="0 0 363 227" fill="none" xmlns="http://www.w3.org/2000/svg">
<g clip-path="url(#clip0_1_6816)">
<path d="M363 40.2014V176.429C363 189.841 357.685 202.704 348.224 212.187C338.762 221.671 325.93 226.999 312.549 226.999H50.4504C37.0701 226.999 24.2378 221.671 14.7765 212.187C5.31523 202.704 0 189.841 0 176.429V40.2014C0.00260775 39.9576 0.0897105 39.7223 0.246568 39.5361C0.403425 39.3498 0.620168 39.2242 0.859452 39.1807C9.70696 37.2422 16.8075 6.28251 17.994 0.785443C18.0452 0.553418 18.1743 0.345998 18.3596 0.197749C18.5449 0.049501 18.7751 -0.030619 19.0122 -0.0292804H344.016C344.253 -0.030619 344.483 0.049501 344.668 0.197749C344.854 0.345998 344.983 0.553418 345.034 0.785443C346.22 6.25442 353.312 37.2141 362.169 39.1807C362.402 39.2315 362.611 39.36 362.762 39.5454C362.913 39.7308 362.997 39.9621 363 40.2014Z" fill="#E0E0DE"/>
<path d="M19.2183 0H343.811C344.088 0 344.354 0.110503 344.55 0.3072C344.747 0.503896 344.857 0.770674 344.857 1.04884V173.537C344.857 185.739 340.023 197.441 331.417 206.07C322.811 214.7 311.139 219.55 298.966 219.555H64.0817C51.9057 219.555 40.2283 214.707 31.6186 206.077C23.0088 197.447 18.1719 185.742 18.1719 173.537V1.04884C18.1719 0.770674 18.2821 0.503896 18.4784 0.3072C18.6746 0.110503 18.9407 0 19.2183 0V0Z" fill="#F0F0EF"/>
<path d="M208.463 95.4824H202.764V124.063H208.463V95.4824Z" fill="#E31F2B"/>
<path d="M216.778 95.4824H213.929V124.063H216.778V95.4824Z" fill="#E31F2B"/>
<path d="M223.673 95.4824H222.243V124.063H223.673V95.4824Z" fill="#E31F2B"/>
<path d="M160.236 95.4824H154.537V124.063H160.236V95.4824Z" fill="#E31F2B"/>
<path d="M149.071 95.4824H146.222V124.063H149.071V95.4824Z" fill="#E31F2B"/>
<path d="M174.25 124.073V112.639H188.75V124.073H197.298V95.4824H188.75V106.917H174.25V95.4824H165.701V124.073H174.25Z" fill="#E31F2B"/>
<path d="M140.757 95.4824H139.327V124.063H140.757V95.4824Z" fill="#E31F2B"/>
</g>
<defs>
<clipPath id="clip0_1_6816">
<rect width="363" height="227" fill="white"/>
</clipPath>
</defs>
</svg>
