<svg width="19" height="18" viewBox="0 0 19 18" fill="none" xmlns="http://www.w3.org/2000/svg">
<path d="M10.0206 7.24805C9.0744 7.24805 8.30469 8.01774 8.30469 8.96391C8.30469 9.91009 9.0744 10.6798 10.0206 10.6798C10.9667 10.6798 11.7364 9.91009 11.7364 8.96391C11.7364 8.01774 10.9667 7.24805 10.0206 7.24805Z" fill="#E81D2C"/>
<path d="M9.95312 0C5.0098 0 0.988281 4.02152 0.988281 8.96484C0.988281 13.9082 5.0098 18 9.95312 18C14.8964 18 18.9883 13.9082 18.9883 8.96484C18.9883 4.02152 14.8964 0 9.95312 0ZM13.7148 11.6016C13.0021 11.6016 12.3736 11.2443 11.9916 10.7017C11.5081 11.249 10.8093 11.6016 10.0234 11.6016C8.56962 11.6016 7.38672 10.4187 7.38672 8.96484C7.38672 7.51103 8.56962 6.32812 10.0234 6.32812C10.6193 6.32812 11.1634 6.53432 11.6055 6.86893V6.85547C11.6055 6.56399 11.8413 6.32812 12.1328 6.32812C12.4243 6.32812 12.6602 6.56399 12.6602 6.85547C12.6602 8.02828 12.6602 8.31885 12.6602 9.49219C12.6602 10.0736 13.1334 10.5469 13.7148 10.5469C14.2963 10.5469 14.7695 10.0736 14.7695 9.49219C14.7695 5.96282 12.434 4.21875 10.0234 4.21875C7.4063 4.21875 5.27734 6.34771 5.27734 8.96484C5.27734 11.582 7.4063 13.7109 10.0234 13.7109C11.0781 13.7109 12.0756 13.3731 12.9084 12.7335C13.4646 12.3089 14.1016 13.1471 13.5511 13.5698C12.5319 14.3521 11.3124 14.7656 10.0234 14.7656C6.82488 14.7656 4.22266 12.1634 4.22266 8.96484C4.22266 5.76629 6.82488 3.16406 10.0234 3.16406C12.9378 3.16406 15.8242 5.31334 15.8242 9.49219C15.8242 10.6555 14.8782 11.6016 13.7148 11.6016Z" fill="#E81D2C"/>
</svg>
