<svg width="16" height="18" viewBox="0 0 16 18" fill="none" xmlns="http://www.w3.org/2000/svg">
<path d="M15.1829 6.04158C14.3079 2.19159 10.9496 0.458252 7.99959 0.458252C7.99959 0.458252 7.99959 0.458252 7.99126 0.458252C5.04959 0.458252 1.68292 2.18325 0.807924 6.03325C-0.167075 10.3333 2.46626 13.9749 4.84959 16.2666C5.73292 17.1166 6.86626 17.5416 7.99959 17.5416C9.13292 17.5416 10.2663 17.1166 11.1413 16.2666C13.5246 13.9749 16.1579 10.3416 15.1829 6.04158ZM7.99959 10.2166C6.54959 10.2166 5.37459 9.04158 5.37459 7.59159C5.37459 6.14158 6.54959 4.96658 7.99959 4.96658C9.44959 4.96658 10.6246 6.14158 10.6246 7.59159C10.6246 9.04158 9.44959 10.2166 7.99959 10.2166Z" fill="#E81D2C"/>
</svg>
