<svg width="471" height="482" viewBox="0 0 471 482" fill="none" xmlns="http://www.w3.org/2000/svg">
<g clip-path="url(#clip0_1_17954)">
<path d="M355.446 197.734C326.971 197.734 301.784 211.747 286.37 233.217L256.184 237.491L273.118 261.592C271.406 268.306 270.494 275.335 270.494 282.589C270.494 329.453 308.528 367.443 355.446 367.443C402.363 367.443 440.397 329.453 440.397 282.589C440.397 235.725 402.363 197.734 355.446 197.734Z" fill="#E0E0E0"/>
<path d="M339.85 162.466C352.303 146.091 365.42 148.408 374.528 152.355C383.637 156.314 389.751 166.278 389.143 176.186C388.985 178.807 388.422 181.551 389.492 183.946C391.204 187.804 396.191 188.884 399.074 191.954C403.015 196.16 402.148 202.818 400.808 208.419C399.479 214.031 398.072 220.43 401.371 225.153C404.399 229.483 410.164 230.642 414.916 232.947C421.198 235.995 426.243 241.674 428.067 248.411C429.891 255.148 428.28 262.807 423.563 267.946C418.947 272.973 412 275.2 405.244 276.201C385.574 279.091 364.733 272.76 350.017 259.399C335.301 246.038 326.992 225.929 328.005 206.091" fill="#263238"/>
<path d="M416.469 269.645C416.469 269.645 416.897 269.24 417.595 268.385C418.293 267.542 419.239 266.169 419.813 264.156C420.387 262.154 420.511 259.534 419.88 256.632C419.295 253.731 417.797 250.582 415.253 247.838C413.981 246.477 412.483 245.206 410.749 244.126C409.026 243.036 407.067 242.203 405.018 241.36C402.969 240.516 400.796 239.662 398.747 238.391C396.686 237.12 394.84 235.399 393.32 233.364C390.246 229.281 388.636 223.95 388.512 218.462C388.444 215.718 388.703 212.906 389.221 210.128C389.728 207.351 390.437 204.584 390.978 201.772C391.349 199.782 391.687 197.769 391.665 195.834C391.62 193.877 391.079 191.999 390.358 190.2C389.638 188.389 388.782 186.635 388.107 184.813C387.442 182.946 387.15 181.045 386.936 179.178C386.71 177.3 386.71 175.444 386.497 173.69C386.316 171.913 385.956 170.192 385.494 168.528C384.571 165.221 383.175 162.129 381.317 159.643L381.295 159.609C378.187 154.683 373.053 151.962 368.437 151.321C363.753 150.623 359.609 152.029 356.749 153.761C353.833 155.516 352.066 157.596 351.03 159.07C349.994 160.565 349.611 161.465 349.555 161.443C349.555 161.443 349.859 160.509 350.85 158.957C351.852 157.428 353.597 155.268 356.535 153.424C359.418 151.602 363.663 150.095 368.515 150.77C373.289 151.388 378.615 154.144 381.891 159.25L381.869 159.216C383.839 161.847 385.258 164.963 386.226 168.348C386.699 170.046 387.082 171.801 387.273 173.622C387.499 175.456 387.499 177.278 387.735 179.111C387.949 180.944 388.253 182.811 388.884 184.565C389.548 186.331 390.392 188.085 391.135 189.93C391.879 191.763 392.453 193.765 392.509 195.845C392.532 197.926 392.182 199.939 391.811 201.964C391.27 204.809 390.561 207.575 390.054 210.32C389.537 213.052 389.278 215.797 389.345 218.485C389.458 223.849 391.012 229.011 393.961 232.959C395.414 234.938 397.193 236.591 399.163 237.828C401.134 239.066 403.273 239.92 405.322 240.775C407.371 241.63 409.375 242.496 411.132 243.643C412.9 244.756 414.431 246.083 415.726 247.5C418.315 250.334 419.824 253.607 420.376 256.587C420.973 259.568 420.804 262.256 420.162 264.303C419.531 266.361 418.518 267.733 417.764 268.554C417.009 269.386 416.514 269.712 416.514 269.712L416.469 269.645Z" fill="#455A64"/>
<path d="M370.928 250.414C370.826 250.29 372.099 249.008 373.787 247.535C375.476 246.072 376.917 244.982 377.03 245.105C377.131 245.229 375.859 246.511 374.17 247.984C372.481 249.446 371.04 250.537 370.928 250.414Z" fill="#FAFAFA"/>
<path d="M366.851 240.696L329.312 245.262C329.312 245.262 299.115 250.75 293.035 273.345C288.846 288.943 280.165 318.015 275.2 334.503C273.061 341.622 276.281 349.247 282.879 352.677C290.839 356.816 300.635 353.34 304.215 345.119L320.631 307.388C320.631 307.388 326.419 320.568 326.081 326.799C325.743 333.029 312.716 355.938 312.716 355.938C340.437 371.818 368.619 369.817 390.529 359.886L389.482 300.257C389.482 300.257 399.796 353.464 420.693 349.415C438.213 346.019 426.672 311.92 420.693 298.874C413.059 282.24 403.106 258.51 396.846 252.786C380.047 237.446 366.851 240.696 366.851 240.696Z" fill="#E81D2C"/>
<g opacity="0.2">
<path d="M332.195 248.265C329.921 251.807 326.802 254.698 323.638 257.475C321.51 259.342 319.292 261.221 316.646 262.233C314 263.256 310.814 263.29 308.506 261.637C306.209 259.983 305.297 256.385 307.087 254.18C308.269 252.729 310.228 252.201 312.041 251.751C318.121 250.255 324.201 248.759 330.281 247.264" fill="black"/>
</g>
<path d="M284.332 317.769C284.23 317.667 286.291 315.879 289.5 315.081C292.697 314.248 295.377 314.822 295.321 314.957C295.31 315.137 292.697 314.844 289.646 315.643C286.572 316.408 284.433 317.926 284.332 317.769Z" fill="#263238"/>
<path d="M289.286 312.595C289.207 312.471 290.952 311.583 293.283 311.819C295.614 312.033 297.167 313.236 297.055 313.349C296.965 313.506 295.388 312.595 293.227 312.404C291.065 312.179 289.342 312.764 289.286 312.595Z" fill="#263238"/>
<g opacity="0.2">
<path d="M296.74 315.383C293.475 313.764 289.354 314.045 286.348 316.103C285.718 316.53 284.929 317.048 284.265 316.665C283.635 316.294 283.668 315.349 284.017 314.708C284.851 313.179 286.753 312.605 288.476 312.425C291.595 312.099 294.804 312.616 297.664 313.899" fill="black"/>
</g>
<g opacity="0.2">
<path d="M357.752 290.18C355.77 294.161 350.096 296.646 347.427 300.988C345.175 304.654 344.342 308.973 342.991 313.044C339.264 324.279 331.248 334.03 320.945 339.878C322.995 335.986 324.672 331.915 325.933 327.675C326.485 323.784 324.83 320.118 324.83 320.118C326.113 316.159 331.754 310.704 334.344 307.443C337.44 303.529 340.559 299.593 344.376 296.376C348.193 293.16 352.787 290.675 357.752 290.18Z" fill="black"/>
</g>
<path d="M373.72 331.894C373.585 331.815 374.947 329.172 376.783 326.001C378.618 322.829 380.217 320.322 380.352 320.4C380.487 320.479 379.125 323.122 377.289 326.293C375.454 329.465 373.855 331.973 373.72 331.894Z" fill="#FAFAFA"/>
<path d="M404.165 316.002C404.243 316.002 404.21 317.239 404.097 319.218C403.996 321.198 403.77 323.919 403.894 326.922C404.108 332.962 406.45 337.426 406.225 337.494C406.191 337.516 406.034 337.246 405.775 336.752C405.516 336.257 405.189 335.515 404.829 334.592C404.119 332.725 403.433 330.015 403.309 326.956C403.185 323.908 403.478 321.164 403.68 319.196C403.906 317.228 404.086 316.013 404.165 316.013V316.002Z" fill="#263238"/>
<path d="M353.26 341.341C353.373 341.229 355.309 343.096 357.257 345.761C359.216 348.427 360.399 350.833 360.263 350.901C360.117 350.98 358.71 348.73 356.784 346.099C354.859 343.467 353.136 341.443 353.26 341.33V341.341Z" fill="#FAFAFA"/>
<path d="M372.379 345.693C372.446 345.547 374.315 346.334 376.545 347.436C378.774 348.539 380.519 349.562 380.452 349.708C380.384 349.854 378.515 349.078 376.286 347.965C374.056 346.863 372.311 345.839 372.379 345.693Z" fill="#FAFAFA"/>
<path d="M359.804 327.654C359.703 327.777 358.081 326.563 356.449 324.685C354.816 322.807 353.848 321.03 353.972 320.951C354.118 320.861 355.289 322.469 356.888 324.302C358.487 326.147 359.905 327.53 359.804 327.654Z" fill="#FAFAFA"/>
<path d="M336.497 343.061C336.395 342.926 338.084 341.566 339.942 339.676C341.811 337.798 343.14 336.089 343.286 336.19C343.41 336.269 342.273 338.158 340.359 340.092C338.456 342.027 336.587 343.196 336.497 343.061Z" fill="#FAFAFA"/>
<path d="M324.201 349.349C324.313 349.225 325.811 350.417 327.567 352.003C329.312 353.589 330.641 354.972 330.54 355.096C330.427 355.219 328.93 354.027 327.173 352.441C325.428 350.856 324.099 349.472 324.201 349.349Z" fill="#FAFAFA"/>
<path d="M347.507 306.218C347.417 306.083 349.308 304.767 351.718 303.282C354.127 301.798 356.154 300.707 356.233 300.853C356.323 300.988 354.431 302.304 352.022 303.788C349.612 305.273 347.586 306.364 347.507 306.218Z" fill="#FAFAFA"/>
<path d="M367.47 299.222C367.616 299.155 368.697 301.089 369.89 303.552C371.084 306.015 371.928 308.073 371.782 308.141C371.636 308.208 370.555 306.274 369.361 303.811C368.168 301.348 367.323 299.29 367.47 299.222Z" fill="#FAFAFA"/>
<path d="M381.149 296.254C381.014 296.175 381.971 294.308 383.289 292.104C384.606 289.888 385.788 288.167 385.935 288.257C386.07 288.336 385.113 290.203 383.795 292.407C382.478 294.612 381.296 296.343 381.149 296.254Z" fill="#FAFAFA"/>
<path d="M365.196 282.432C365.275 282.274 367.166 283.106 369.621 283.68C372.075 284.265 374.136 284.366 374.136 284.546C374.136 284.692 372.019 284.861 369.486 284.253C366.952 283.669 365.117 282.567 365.196 282.443V282.432Z" fill="#FAFAFA"/>
<path d="M374.609 266.821C374.451 266.832 374.181 264.943 374.023 262.592C373.854 260.242 373.854 258.33 374.023 258.318C374.181 258.307 374.451 260.197 374.609 262.547C374.778 264.898 374.778 266.809 374.609 266.821Z" fill="#FAFAFA"/>
<path d="M395.584 298.12C395.438 298.064 396.114 295.916 397.104 293.318C398.095 290.72 399.018 288.673 399.176 288.73C399.322 288.786 398.647 290.934 397.656 293.532C396.665 296.13 395.742 298.177 395.584 298.12Z" fill="#FAFAFA"/>
<path d="M398.603 309.503C398.727 309.424 399.921 311.133 400.776 313.54C401.643 315.947 401.801 318.027 401.655 318.039C401.486 318.061 401.069 316.082 400.225 313.731C399.391 311.381 398.446 309.581 398.603 309.503Z" fill="#FAFAFA"/>
<path d="M329.267 268.07C329.357 267.935 331.091 268.846 333.152 270.117C335.212 271.388 336.811 272.523 336.721 272.658C336.631 272.793 334.897 271.882 332.836 270.612C330.776 269.341 329.177 268.205 329.267 268.07Z" fill="#FAFAFA"/>
<path d="M318.38 286.503C318.268 286.379 319.822 284.872 321.353 282.713C322.895 280.565 323.819 278.608 323.976 278.675C324.123 278.72 323.425 280.846 321.826 283.061C320.249 285.288 318.459 286.627 318.369 286.514L318.38 286.503Z" fill="#FAFAFA"/>
<path d="M302.166 287.28C302.256 287.156 304.137 288.46 306.175 290.417C308.213 292.363 309.586 294.196 309.474 294.286C309.35 294.399 307.785 292.757 305.769 290.833C303.765 288.899 302.065 287.403 302.166 287.28Z" fill="#FAFAFA"/>
<path d="M306.062 271.512C305.949 271.4 307.717 269.51 310.014 267.295C312.311 265.079 314.259 263.381 314.371 263.494C314.484 263.606 312.716 265.495 310.419 267.722C308.122 269.938 306.174 271.636 306.062 271.524V271.512Z" fill="#FAFAFA"/>
<path d="M296.029 301.472C295.872 301.517 295.095 299.459 294.284 296.872C293.474 294.286 292.944 292.138 293.091 292.093C293.248 292.048 294.025 294.106 294.836 296.692C295.647 299.279 296.176 301.427 296.029 301.472Z" fill="#FAFAFA"/>
<path d="M303.788 311.098C303.63 311.087 303.709 308.714 303.979 305.823C304.249 302.922 304.598 300.583 304.756 300.594C304.914 300.605 304.835 302.967 304.564 305.868C304.294 308.77 303.945 311.109 303.788 311.098Z" fill="#FAFAFA"/>
<path d="M359.87 266.798C357.472 265.1 354.477 264.459 351.583 265.021C348.858 265.55 346.449 267.113 344.85 269.374L335.054 283.274L281.944 325.583C273.691 332.151 274.479 344.916 283.464 350.438C289.769 354.307 297.932 353.092 302.841 347.559L346.19 298.648L351.786 294.341L358.372 289.572L359.87 275.256C359.87 275.256 363.822 277.01 366.918 278.416C371.794 280.654 373.415 276.594 373.415 276.594L359.859 266.798H359.87Z" fill="#B78876"/>
<path d="M359.948 275.998C359.88 276.043 359.565 275.672 359.036 275.098C358.518 274.536 357.752 273.771 356.694 273.4C355.658 273.051 354.577 273.344 354.014 273.771C353.417 274.198 353.294 274.693 353.192 274.659C353.136 274.659 353.113 274.063 353.744 273.456C354.352 272.871 355.602 272.421 356.885 272.849C358.124 273.287 358.901 274.198 359.351 274.839C359.813 275.503 359.993 275.953 359.937 275.998H359.948Z" fill="#AA6550"/>
<path d="M352.99 279.822C352.99 279.822 353.125 279.394 353.655 278.978C354.172 278.562 355.073 278.135 356.132 278.135C357.19 278.135 358.079 278.573 358.597 279.001C359.127 279.428 359.307 279.81 359.25 279.855C359.183 279.912 358.89 279.642 358.361 279.349C357.832 279.046 357.032 278.731 356.132 278.731C355.22 278.731 354.42 279.034 353.891 279.327C353.362 279.619 353.058 279.889 352.99 279.833V279.822Z" fill="#AA6550"/>
<path d="M398.344 263.964L402.071 267.99C402.071 267.99 403.309 325.02 405.482 332.769C407.655 340.518 420.378 353.53 427.201 342.992C434.025 332.454 416.967 265.201 416.967 265.201C416.967 265.201 412.317 249.703 412.001 245.98L398.344 263.952V263.964Z" fill="#B78876"/>
<path d="M406.89 230.934L405.426 270.33C405.325 273.141 403.782 275.706 401.339 277.111L389.46 283.972C386.184 285.861 382.074 283.499 382.074 279.721V243.248C382.074 241.179 383.2 239.267 385.013 238.266L402.791 228.414C404.672 227.368 406.969 228.786 406.89 230.934Z" fill="#455A64"/>
<path d="M393.231 241.313C392.589 242.618 393.13 244.192 394.436 244.833C395.742 245.474 397.318 244.935 397.96 243.63C398.602 242.325 398.061 240.751 396.755 240.11C395.449 239.469 393.873 240.009 393.231 241.313Z" fill="#FAFAFA"/>
<path d="M412.001 245.992C412.001 245.992 403.208 233.823 401.249 233.924C399.301 234.026 389.843 239.671 390.259 240.897C390.676 242.123 392.624 242.843 394.369 242.022C396.114 241.201 399.199 238.221 399.92 238.839C400.641 239.458 402.69 241.606 402.69 241.606C402.69 241.606 394.009 246.037 393.345 247.758C392.669 249.523 391.081 252.582 393.142 253.707C394.482 254.438 396.632 253.606 397.454 250.119C397.454 250.119 395.81 255.146 398.355 256.372C401.091 257.699 401.924 254.91 404.131 252.166C405.989 249.861 406.822 252.796 406.822 252.796L412.001 245.981V245.992Z" fill="#B78876"/>
<path d="M405.336 246.094C405.325 246.184 404.706 246.128 403.726 246.252C402.758 246.364 401.429 246.713 400.18 247.523C398.941 248.332 398.085 249.412 397.59 250.244C397.083 251.088 396.892 251.684 396.802 251.65C396.734 251.639 396.802 250.987 397.23 250.053C397.658 249.12 398.525 247.905 399.864 247.028C401.204 246.151 402.668 245.847 403.693 245.836C404.728 245.813 405.348 246.027 405.336 246.094Z" fill="#AA6550"/>
<path d="M331.258 166.053V171.125L330.932 247.106C330.898 255.923 338.453 262.986 347.911 262.952C357.459 262.919 365.351 255.676 365.532 246.769C365.723 237.412 366.106 227.571 366.106 227.571C366.106 227.571 378.198 225.783 380.979 210.105C382.364 202.312 382.195 189.491 381.723 178.998C381.295 169.562 373.098 162.376 363.663 163.196L331.247 166.042L331.258 166.053Z" fill="#B78876"/>
<path d="M378.029 188.58C378.052 189.648 377.162 190.536 376.048 190.581C374.933 190.626 374.021 189.794 373.998 188.726C373.976 187.657 374.865 186.769 375.98 186.724C377.095 186.679 378.007 187.511 378.029 188.58Z" fill="#263238"/>
<path d="M378.828 185.633C378.569 185.892 377.06 184.733 374.887 184.7C372.714 184.632 371.104 185.723 370.879 185.453C370.766 185.329 371.025 184.868 371.735 184.373C372.421 183.879 373.604 183.418 374.955 183.44C376.306 183.474 377.432 183.991 378.085 184.508C378.749 185.037 378.963 185.509 378.839 185.622L378.828 185.633Z" fill="#263238"/>
<path d="M357.459 188.209C357.482 189.277 356.592 190.166 355.477 190.211C354.363 190.256 353.451 189.423 353.428 188.355C353.406 187.287 354.295 186.398 355.41 186.353C356.524 186.308 357.436 187.14 357.459 188.209Z" fill="#263238"/>
<path d="M357.47 185.656C357.211 185.915 355.702 184.757 353.529 184.723C351.356 184.656 349.746 185.746 349.51 185.477C349.397 185.353 349.656 184.892 350.365 184.397C351.052 183.902 352.234 183.441 353.586 183.463C354.937 183.497 356.063 184.015 356.716 184.532C357.369 185.06 357.594 185.533 357.47 185.645V185.656Z" fill="#263238"/>
<path d="M365.07 201.885C365.07 201.761 366.422 201.548 368.606 201.312C369.158 201.267 369.687 201.165 369.788 200.783C369.923 200.389 369.709 199.782 369.45 199.13C368.955 197.78 368.437 196.363 367.885 194.879C365.712 188.828 364.158 183.868 364.395 183.778C364.643 183.688 366.602 188.524 368.763 194.575C369.281 196.071 369.788 197.488 370.261 198.849C370.464 199.478 370.813 200.198 370.509 201.03C370.351 201.446 369.934 201.739 369.585 201.829C369.225 201.93 368.921 201.93 368.64 201.941C366.433 202.02 365.07 202.009 365.059 201.885H365.07Z" fill="#263238"/>
<path d="M366.105 227.582C366.105 227.582 355.51 228.077 345.129 221.588C345.129 221.588 350.049 232.474 365.824 231.282L366.105 227.571V227.582Z" fill="#AA6550"/>
<path d="M364.057 207.092C363.291 206.046 361.94 205.462 360.578 205.574C359.632 205.664 358.675 206.091 358.089 206.856C357.504 207.61 357.369 208.701 357.875 209.443C358.45 210.275 359.666 210.489 360.713 210.208C361.76 209.926 362.661 209.263 363.516 208.599C363.753 208.419 364.001 208.228 364.147 207.97C364.293 207.711 364.338 207.373 364.147 207.16" fill="#AA6550"/>
<path d="M358.652 203.267C359.001 203.256 358.967 205.607 360.96 207.316C362.942 209.026 365.464 208.812 365.475 209.138C365.509 209.284 364.912 209.588 363.843 209.599C362.807 209.622 361.287 209.251 360.071 208.216C358.855 207.17 358.348 205.787 358.292 204.819C358.224 203.83 358.495 203.256 358.652 203.267Z" fill="#263238"/>
<path d="M312.298 254.653C325.269 255.676 336.686 246.431 338.623 233.588C338.825 232.25 339.051 231.159 339.343 230.439C341.167 225.873 341.201 220.711 339.94 215.954C339.355 213.749 338.521 211.343 339.523 209.307C340.255 207.822 341.775 206.934 343.014 205.854C345.817 203.414 347.349 199.725 347.653 196.025C347.968 192.325 347.146 188.602 345.851 185.116C345.142 183.204 344.275 181.101 344.996 179.189C345.502 177.839 346.718 176.895 347.788 175.927C350.062 173.881 351.965 171.429 353.384 168.718C354.825 165.963 355.759 162.375 351.999 160.182C351.211 159.721 350.332 159.451 349.432 159.305C342.777 158.271 334.851 159.26 330.392 164.49C326.755 168.752 326.249 174.769 325.888 180.347C324.785 197.948 295.623 230.63 306.894 254.731L312.287 254.653H312.298Z" fill="#263238"/>
<path d="M358.18 177.165C357.955 177.75 355.793 177.435 353.237 177.694C350.681 177.908 348.61 178.616 348.283 178.076C348.137 177.818 348.508 177.278 349.342 176.716C350.175 176.165 351.503 175.647 353.035 175.501C354.566 175.366 355.962 175.625 356.885 176.018C357.809 176.412 358.281 176.884 358.18 177.165Z" fill="#263238"/>
<path d="M378.143 179.335C377.749 179.818 376.263 179.279 374.461 179.222C372.66 179.099 371.128 179.492 370.791 178.975C370.644 178.716 370.892 178.233 371.567 177.783C372.232 177.333 373.335 176.973 374.574 177.029C375.812 177.085 376.871 177.558 377.49 178.075C378.12 178.592 378.312 179.099 378.143 179.346V179.335Z" fill="#263238"/>
<path d="M438.226 190.21C438.226 191.425 437.235 192.414 436.019 192.414C434.803 192.414 433.812 191.425 433.812 190.21C433.812 188.996 434.803 188.006 436.019 188.006C437.235 188.006 438.226 188.996 438.226 190.21Z" fill="#455A64"/>
<path d="M444.859 192.414C446.078 192.414 447.066 191.428 447.066 190.21C447.066 188.993 446.078 188.006 444.859 188.006C443.64 188.006 442.652 188.993 442.652 190.21C442.652 191.428 443.64 192.414 444.859 192.414Z" fill="#455A64"/>
<path d="M455.87 189.109C456.478 190.166 456.117 191.515 455.059 192.123C454.001 192.73 452.649 192.37 452.041 191.313C451.433 190.256 451.794 188.906 452.852 188.299C453.91 187.692 455.262 188.051 455.87 189.109Z" fill="#455A64"/>
<path d="M444.992 164.468C444.992 164.468 445.138 164.457 445.442 164.468C445.769 164.468 446.196 164.49 446.748 164.502C447.041 164.513 447.356 164.513 447.716 164.547C448.077 164.592 448.46 164.648 448.876 164.704C449.293 164.76 449.743 164.828 450.227 164.895C450.7 165.008 451.207 165.143 451.736 165.266C453.853 165.806 456.42 166.74 459.043 168.449C461.667 170.136 464.391 172.532 466.598 175.804C468.771 179.077 470.449 183.193 470.888 187.815C470.933 188.974 471.068 190.155 470.956 191.347C470.911 191.943 470.922 192.55 470.843 193.158C470.753 193.765 470.663 194.361 470.573 194.979C470.077 197.386 469.357 199.86 468.118 202.166C466.902 204.471 465.337 206.665 463.423 208.621C461.475 210.533 459.19 212.198 456.656 213.48C454.123 214.773 451.319 215.662 448.403 216.01C447.683 216.157 446.939 216.157 446.208 216.202C445.465 216.247 444.733 216.28 443.978 216.246C442.492 216.19 440.995 215.999 439.52 215.684C436.311 214.998 433.293 213.705 430.647 211.95L430.917 211.973C427.844 213.21 424.826 214.413 421.876 215.594L421.336 215.808L421.493 215.257C422.405 211.95 423.295 208.723 424.151 205.607L424.196 205.844C421.662 202.481 420.041 198.635 419.377 194.822C419.039 192.91 418.904 191.009 419.028 189.176C419.061 188.254 419.106 187.343 419.287 186.466C419.354 186.027 419.422 185.577 419.489 185.15C419.568 184.711 419.703 184.295 419.805 183.868C421.55 177.075 425.738 172.059 429.882 169.191C431.953 167.729 434.003 166.683 435.883 166.031C436.344 165.862 436.806 165.705 437.234 165.548C437.684 165.435 438.112 165.323 438.518 165.221C438.923 165.12 439.317 165.019 439.689 164.929C440.06 164.862 440.432 164.817 440.769 164.76C441.456 164.67 442.053 164.558 442.582 164.535C443.1 164.513 443.539 164.502 443.911 164.49C444.249 164.49 444.519 164.479 444.721 164.468C444.902 164.468 444.992 164.468 444.992 164.468C444.992 164.468 444.902 164.49 444.721 164.502C444.519 164.513 444.249 164.535 443.911 164.569C443.55 164.592 443.111 164.625 442.593 164.659C442.075 164.704 441.479 164.828 440.803 164.929C438.146 165.413 434.16 166.47 430.084 169.45C426.02 172.318 421.933 177.289 420.255 183.969C420.154 184.385 420.03 184.801 419.951 185.229C419.883 185.656 419.827 186.095 419.759 186.522C419.591 187.388 419.557 188.277 419.523 189.188C419.41 190.987 419.557 192.854 419.895 194.721C420.559 198.455 422.158 202.211 424.646 205.506L424.725 205.619L424.691 205.754C423.835 208.869 422.957 212.097 422.056 215.403L421.674 215.066C424.612 213.885 427.63 212.67 430.704 211.433L430.85 211.377L430.974 211.456C433.563 213.154 436.513 214.436 439.643 215.099C441.085 215.403 442.548 215.594 444.001 215.65C444.733 215.684 445.453 215.65 446.174 215.617C446.894 215.572 447.615 215.572 448.324 215.437C451.173 215.099 453.92 214.233 456.397 212.974C458.886 211.725 461.115 210.106 463.029 208.239C464.909 206.327 466.452 204.179 467.645 201.93C468.873 199.68 469.582 197.263 470.077 194.901C470.167 194.305 470.258 193.709 470.348 193.124C470.438 192.539 470.426 191.943 470.472 191.358C470.584 190.188 470.449 189.03 470.415 187.894C469.999 183.351 468.377 179.302 466.26 176.063C464.11 172.835 461.442 170.44 458.863 168.753C456.285 167.043 453.763 166.087 451.668 165.514C451.139 165.379 450.644 165.244 450.182 165.12C449.709 165.041 449.259 164.974 448.842 164.906C448.426 164.839 448.043 164.772 447.694 164.715C447.345 164.682 447.018 164.67 446.737 164.648C446.185 164.603 445.757 164.58 445.431 164.558C445.138 164.535 444.98 164.513 444.98 164.502L444.992 164.468Z" fill="#455A64"/>
<path d="M207.003 325.99L167.246 332.682C152.362 319.861 133.007 312.09 111.817 312.09C64.8992 312.09 26.8652 350.08 26.8652 396.944C26.8652 443.808 64.8992 481.799 111.817 481.799C158.734 481.799 196.768 443.808 196.768 396.944C196.768 383.82 193.785 371.392 188.448 360.292L207.003 325.99Z" fill="#E0E0E0"/>
<path d="M32.7773 307.861C32.7773 309.075 33.7682 310.065 34.9842 310.065C36.2002 310.065 37.191 309.075 37.191 307.861C37.191 306.646 36.2002 305.656 34.9842 305.656C33.7682 305.656 32.7773 306.646 32.7773 307.861Z" fill="#263238"/>
<path d="M23.9375 307.861C23.9375 309.075 24.9283 310.065 26.1443 310.065C27.3603 310.065 28.3512 309.075 28.3512 307.861C28.3512 306.646 27.3603 305.656 26.1443 305.656C24.9283 305.656 23.9375 306.646 23.9375 307.861Z" fill="#263238"/>
<path d="M15.1332 306.759C14.5252 307.816 14.8855 309.166 15.9439 309.773C17.0022 310.38 18.3533 310.02 18.9614 308.963C19.5694 307.906 19.2091 306.557 18.1507 305.949C17.0923 305.342 15.7412 305.702 15.1332 306.759Z" fill="#263238"/>
<path d="M26.0092 282.118C26.0092 282.118 25.8629 282.14 25.5589 282.174C25.2323 282.196 24.8045 282.23 24.2528 282.264C23.9713 282.286 23.6448 282.298 23.2957 282.331C22.9467 282.388 22.5639 282.455 22.1473 282.523C21.7307 282.59 21.2916 282.669 20.8074 282.736C20.3345 282.86 19.8391 282.995 19.3212 283.13C17.227 283.703 14.7049 284.659 12.1265 286.369C9.5481 288.056 6.8909 290.451 4.72911 293.679C2.61235 296.918 0.991011 300.967 0.574416 305.51C0.540638 306.646 0.405526 307.805 0.518119 308.974C0.563156 309.559 0.551897 310.155 0.641971 310.74C0.732046 311.325 0.822121 311.921 0.912195 312.517C1.40761 314.879 2.11694 317.297 3.34421 319.546C4.5377 321.806 6.08022 323.943 7.96053 325.855C9.87462 327.722 12.104 329.342 14.5923 330.59C17.0693 331.849 19.8053 332.715 22.6652 333.053C23.3745 333.188 24.0951 333.188 24.8157 333.233C25.5363 333.278 26.2682 333.312 26.9888 333.267C28.4412 333.21 29.905 333.019 31.3461 332.715C34.4762 332.052 37.4262 330.781 40.0158 329.072L40.1397 328.993L40.286 329.049C43.3598 330.286 46.3773 331.501 49.316 332.682L48.9332 333.019C48.0325 329.701 47.143 326.485 46.2985 323.37L46.2648 323.235L46.3436 323.122C48.8319 319.827 50.4307 316.071 51.095 312.337C51.4328 310.47 51.5792 308.603 51.4666 306.804C51.4328 305.904 51.399 305.004 51.2301 304.138C51.1626 303.7 51.095 303.272 51.0387 302.845C50.9599 302.418 50.836 302.001 50.7347 301.585C49.0571 294.905 44.9699 289.934 40.9053 287.066C36.8294 284.097 32.8436 283.029 30.1864 282.545C29.5109 282.444 28.9141 282.309 28.3962 282.275C27.8783 282.241 27.4392 282.208 27.0789 282.185C26.7411 282.163 26.4821 282.14 26.2682 282.118C26.088 282.095 25.998 282.084 25.998 282.084C25.998 282.084 26.088 282.084 26.2682 282.084C26.4709 282.084 26.7411 282.084 27.0789 282.106C27.4504 282.118 27.8895 282.129 28.4075 282.151C28.9367 282.174 29.5334 282.298 30.2202 282.376C30.558 282.433 30.9296 282.466 31.3011 282.545C31.6727 282.635 32.0667 282.736 32.4721 282.837C32.8774 282.939 33.3053 283.051 33.7556 283.164C34.1948 283.321 34.6451 283.479 35.1068 283.647C36.9871 284.3 39.025 285.345 41.108 286.807C45.2514 289.675 49.4399 294.691 51.1851 301.484C51.2864 301.911 51.4215 302.328 51.5003 302.766C51.5679 303.205 51.6354 303.643 51.703 304.082C51.8719 304.97 51.9169 305.87 51.962 306.792C52.0858 308.637 51.9507 310.537 51.6129 312.438C50.9486 316.251 49.3273 320.097 46.7939 323.46L46.839 323.223C47.6947 326.339 48.5842 329.555 49.4962 332.873L49.6538 333.424L49.1134 333.21C46.1634 332.029 43.1572 330.826 40.0721 329.589L40.3423 329.566C37.6964 331.31 34.6789 332.614 31.47 333.3C29.995 333.615 28.4975 333.806 27.0113 333.863C26.2682 333.896 25.5251 333.863 24.782 333.818C24.0388 333.773 23.307 333.773 22.5864 333.626C19.6702 333.278 16.8667 332.389 14.3333 331.096C11.8 329.814 9.51432 328.149 7.56645 326.237C5.65237 324.281 4.08732 322.088 2.87132 319.782C1.62153 317.477 0.912195 315.014 0.416785 312.596C0.32671 311.988 0.236636 311.381 0.146561 310.774C0.0564867 310.166 0.067746 309.559 0.033968 308.963C-0.0786252 307.771 0.0564867 306.59 0.101524 305.432C0.540638 300.809 2.21828 296.693 4.39133 293.42C6.59815 290.148 9.33417 287.752 11.9463 286.065C14.5698 284.356 17.1369 283.422 19.2536 282.882C19.7828 282.748 20.2895 282.624 20.7624 282.511C21.2465 282.444 21.6969 282.376 22.1135 282.32C22.5301 282.264 22.9129 282.208 23.2732 282.163C23.6223 282.129 23.9488 282.129 24.2415 282.118C24.7932 282.106 25.2323 282.095 25.5476 282.084C25.8403 282.084 25.998 282.084 25.998 282.084L26.0092 282.118Z" fill="#263238"/>
<path d="M121.105 266.53C123.166 261.952 127.974 258.725 133.007 258.556C138.039 258.387 143.061 261.277 145.414 265.72C146.822 268.363 147.373 271.5 149.4 273.705C151.934 276.449 156.595 276.876 159.59 274.661C160.412 277.866 158.419 281.532 155.289 282.601C156.944 282.769 158.61 282.938 160.265 283.107C157.574 288.966 150.222 291.643 143.861 290.496C137.499 289.349 132.095 285.154 127.771 280.374" fill="#263238"/>
<path d="M121.139 266.609L136.496 271.636C141.901 275.201 146.202 280.442 148.319 286.549C149.039 288.618 149.523 290.777 150.436 292.768C151.348 294.759 152.755 296.637 154.759 297.536C156.234 298.2 157.912 298.267 159.42 298.83C161.988 299.774 163.924 302.125 164.577 304.768C165.23 307.411 164.633 310.29 163.181 312.595C162.449 313.754 161.481 314.867 161.425 316.239C161.38 317.161 161.774 318.039 161.988 318.938C162.719 321.986 161.267 325.428 158.565 327.036C155.862 328.644 152.124 328.273 149.794 326.181C148.814 328.43 147.508 330.758 145.279 331.816C143.049 332.873 139.773 331.928 139.311 329.51C138.208 331.827 135.438 333.221 132.905 332.749C130.371 332.265 128.322 329.96 128.142 327.407L86.0547 281.544C92.3374 264.764 116.905 266.249 121.15 266.631L121.139 266.609Z" fill="#263238"/>
<path d="M128.266 282.554C130.979 282.836 133.017 285.141 132.961 287.863L129.989 358.479C129.876 366.813 114.687 376.676 105.725 376.496C96.6723 376.305 99.3407 366.734 99.2056 358.805C98.9917 345.557 98.9917 340.575 98.9917 340.654C98.9917 340.654 87.5522 338.764 85.1877 323.896C84.0055 316.507 84.3771 304.384 85.0076 294.476C85.5706 285.557 91.5042 274.614 100.422 275.559L128.266 282.577V282.554Z" fill="#FFBE9D"/>
<path d="M88.8799 304.091C88.8461 305.103 89.6681 305.958 90.7264 306.014C91.7736 306.07 92.663 305.305 92.6968 304.293C92.7306 303.292 91.9087 302.426 90.8503 302.37C89.7919 302.314 88.9137 303.079 88.8799 304.091Z" fill="#263238"/>
<path d="M87.642 300.773C87.8784 301.021 89.3309 299.952 91.3913 299.964C93.4518 299.941 94.9605 300.998 95.1857 300.74C95.2983 300.627 95.0506 300.177 94.3975 299.705C93.7445 299.233 92.6411 298.771 91.3575 298.771C90.074 298.771 88.9931 299.244 88.3738 299.727C87.7433 300.211 87.5294 300.661 87.642 300.773Z" fill="#263238"/>
<path d="M109.013 304.091C108.979 305.103 109.801 305.958 110.859 306.014C111.906 306.07 112.796 305.305 112.83 304.293C112.863 303.292 112.041 302.426 110.983 302.37C109.925 302.314 109.047 303.079 109.013 304.091Z" fill="#263238"/>
<path d="M107.886 301.156C108.123 301.404 109.575 300.335 111.635 300.346C113.696 300.324 115.205 301.381 115.43 301.122C115.542 301.01 115.295 300.56 114.642 300.088C113.989 299.615 112.885 299.154 111.602 299.154C110.318 299.154 109.237 299.627 108.618 300.11C107.987 300.594 107.774 301.044 107.886 301.156Z" fill="#263238"/>
<path d="M100.41 316.362C100.41 316.249 99.1378 316.024 97.0661 315.765C96.5369 315.709 96.0415 315.608 95.9514 315.248C95.8276 314.866 96.0528 314.303 96.3005 313.696C96.7959 312.425 97.3138 311.098 97.8543 309.704C100.016 304.024 101.581 299.357 101.345 299.267C101.119 299.177 99.1716 303.721 97.0211 309.4C96.5032 310.806 96.0077 312.133 95.5349 313.415C95.3322 314.011 94.9944 314.686 95.2646 315.473C95.411 315.867 95.7938 316.148 96.1316 316.238C96.4694 316.339 96.7621 316.35 97.0211 316.362C99.1041 316.474 100.399 316.485 100.41 316.362Z" fill="#263238"/>
<path d="M98.9922 340.642C98.9922 340.642 109.024 341.283 118.977 335.334C118.977 335.334 114.125 345.546 99.1949 344.151L98.9922 340.642Z" fill="#EB996E"/>
<path d="M101.278 321.309C102.021 320.33 103.316 319.802 104.6 319.937C105.489 320.038 106.401 320.465 106.942 321.185C107.482 321.905 107.595 322.94 107.099 323.626C106.548 324.402 105.388 324.582 104.397 324.3C103.417 324.019 102.573 323.378 101.762 322.737C101.537 322.557 101.312 322.377 101.177 322.13C101.042 321.882 101.008 321.568 101.177 321.365" fill="#EB996E"/>
<path d="M106.468 317.789C106.13 317.767 106.13 319.994 104.216 321.579C102.302 323.165 99.9263 322.918 99.9038 323.221C99.87 323.356 100.433 323.649 101.435 323.682C102.426 323.716 103.867 323.401 105.038 322.434C106.209 321.467 106.704 320.173 106.783 319.263C106.873 318.329 106.614 317.778 106.468 317.789Z" fill="#263238"/>
<path d="M106.952 297.557C107.155 298.119 109.216 297.849 111.625 298.142C114.046 298.378 115.994 299.087 116.32 298.592C116.467 298.356 116.129 297.827 115.341 297.287C114.564 296.747 113.314 296.23 111.861 296.073C110.409 295.915 109.08 296.14 108.202 296.5C107.313 296.86 106.874 297.298 106.952 297.557Z" fill="#263238"/>
<path d="M88.3964 294.836C88.7567 295.297 90.1754 294.814 91.8868 294.791C93.5869 294.713 95.0394 295.106 95.3659 294.611C95.5123 294.375 95.2871 293.903 94.6566 293.464C94.0373 293.026 92.9902 292.666 91.8192 292.699C90.6483 292.733 89.6349 293.161 89.0382 293.633C88.4302 294.116 88.2388 294.589 88.3964 294.814V294.836Z" fill="#263238"/>
<path d="M131.305 306.33C132.431 305.554 134.019 305.835 135.201 306.521C137.937 308.096 139.311 311.717 138.286 314.697C137.273 317.689 133.985 319.724 130.844 319.32" fill="#FFBE9D"/>
<path d="M107.852 270.6C102.414 270.78 98.2932 272.434 93.5192 275.032C88.7453 277.629 84.7595 281.926 83.2845 287.144C82.9692 288.257 82.8004 289.517 83.4084 290.495C84.2078 291.789 86.1106 292.002 87.4955 291.373C88.8804 290.743 89.8825 289.506 90.8282 288.314C91.5376 291.046 94.2511 293.116 97.0772 293.082C99.9033 293.048 102.572 290.923 103.214 288.179C103.236 291.035 106.107 293.397 108.967 293.285C111.827 293.183 114.36 290.979 115.317 288.291C115.846 290.833 116.421 293.453 117.941 295.545C119.461 297.648 122.219 299.088 124.696 298.289C124.347 300.505 124.009 302.833 124.798 304.936C125.586 307.039 127.928 308.737 130.056 308.006C132.127 307.298 132.927 304.857 133.411 302.732C134.346 298.638 135.145 294.465 135.01 290.27C134.875 286.076 133.749 281.802 131.17 278.484C128.502 275.054 124.449 272.872 120.238 271.77C116.027 270.657 111.613 270.533 107.256 270.589" fill="#263238"/>
<path d="M132.353 314.888C132.398 314.787 132.928 315.012 133.648 314.686C134.358 314.405 134.999 313.359 134.932 312.144C134.887 310.907 134.087 310.03 133.344 309.76C132.601 309.456 132.049 309.602 132.016 309.49C131.959 309.411 132.522 309.017 133.502 309.242C133.975 309.355 134.526 309.636 134.966 310.153C135.393 310.659 135.675 311.368 135.709 312.11C135.821 313.606 134.875 314.967 133.84 315.203C132.826 315.473 132.275 314.956 132.353 314.888Z" fill="#EB996E"/>
<path d="M132.792 321.13C133.867 321.13 134.739 320.264 134.739 319.196C134.739 318.128 133.867 317.262 132.792 317.262C131.716 317.262 130.844 318.128 130.844 319.196C130.844 320.264 131.716 321.13 132.792 321.13Z" fill="#E81D2C"/>
<path d="M121.341 265.854C121.341 265.854 122.242 265.539 123.762 265.573C125.27 265.607 127.387 266.068 129.414 267.226C131.44 268.396 132.893 269.993 133.681 271.286C134.481 272.579 134.706 273.502 134.649 273.524C134.548 273.569 134.188 272.714 133.332 271.522C132.476 270.33 131.046 268.857 129.11 267.743C127.173 266.63 125.18 266.135 123.717 266C122.253 265.854 121.33 265.966 121.318 265.865L121.341 265.854Z" fill="#E81D2C"/>
<path d="M129.132 265.866C129.132 265.866 129.099 265.709 129.076 265.394C129.076 265.09 129.132 264.618 129.358 264.067C129.786 262.965 131.103 261.582 133.208 261.087C135.336 260.502 138.027 261.593 139.908 263.651C140.865 264.674 141.675 265.911 142.34 267.261C143.004 268.611 143.544 270.073 144.119 271.535C144.693 272.997 145.278 274.414 146.033 275.662C146.787 276.911 147.699 278.001 148.746 278.822C149.782 279.655 150.953 280.194 152.113 280.352C153.272 280.543 154.376 280.296 155.288 279.913C157.134 279.081 158.17 277.664 158.643 276.652C159.105 275.617 159.127 274.954 159.195 274.965C159.217 274.965 159.206 275.122 159.195 275.437C159.161 275.741 159.071 276.191 158.868 276.742C158.44 277.821 157.416 279.351 155.479 280.284C154.522 280.723 153.317 281.015 152.056 280.836C150.795 280.678 149.523 280.116 148.42 279.25C147.305 278.384 146.337 277.259 145.549 275.955C144.76 274.65 144.164 273.21 143.578 271.737C142.464 268.791 141.383 265.968 139.525 264.011C137.746 262.031 135.291 260.997 133.31 261.48C131.328 261.885 130.044 263.145 129.583 264.146C129.087 265.169 129.223 265.855 129.144 265.844L129.132 265.866Z" fill="#455A64"/>
<path d="M101.03 288.82C101.03 288.82 100.973 288.685 100.928 288.415C100.894 288.145 100.804 287.74 100.793 287.223C100.703 286.188 100.737 284.659 101.063 282.814C101.39 280.97 102.122 278.822 103.349 276.662C104.599 274.526 106.389 272.366 108.753 270.713C111.107 269.049 113.685 268.014 116.083 267.418C118.493 266.799 120.745 266.642 122.614 266.754C124.483 266.867 125.98 267.193 126.96 267.542C127.466 267.688 127.827 267.879 128.074 267.98C128.322 268.093 128.446 268.16 128.446 268.183C128.412 268.318 126.284 267.249 122.591 267.159C120.756 267.103 118.56 267.305 116.207 267.935C113.865 268.554 111.354 269.577 109.08 271.197C106.794 272.794 105.049 274.874 103.811 276.944C102.595 279.035 101.84 281.116 101.469 282.904C100.703 286.514 101.165 288.831 101.018 288.831L101.03 288.82Z" fill="#455A64"/>
<path d="M110.43 287.82C110.43 287.82 110.363 287.404 110.385 286.661C110.408 285.919 110.521 284.84 110.813 283.535C111.376 280.937 112.84 277.394 115.655 274.369C118.47 271.344 121.892 269.623 124.448 268.858C125.732 268.465 126.802 268.274 127.533 268.184C128.277 268.105 128.693 268.105 128.693 268.139C128.704 268.251 127.061 268.386 124.572 269.252C122.106 270.095 118.807 271.827 116.083 274.763C113.358 277.698 111.872 281.106 111.219 283.625C110.543 286.167 110.532 287.82 110.419 287.809L110.43 287.82Z" fill="#455A64"/>
<path d="M107.853 375.62C104.6 365.644 96.6279 355.488 87.8794 359.155C78.1401 363.237 75.4266 368.399 70.0897 376.407C64.7528 384.414 61.4763 393.58 58.2562 402.645C56.9951 406.187 55.7791 410.304 57.7157 413.531C59.3821 416.32 62.8162 417.423 65.9575 418.255C74.0755 420.414 82.2723 422.259 90.5254 423.788C93.8356 424.407 97.4724 424.924 100.4 423.26C104.115 421.156 105.253 416.433 106.029 412.238L114.181 368.096" fill="#E81D2C"/>
<path d="M98.4847 354.364L85.6716 359.886C79.1975 364.98 77.3622 373.708 77.5874 381.929L72.2617 472.058C72.2617 472.058 109.643 495.135 153.329 471.001C154.466 470.371 146.01 449.756 146.01 449.756L157.911 404.748C158.823 398.281 159.386 384.864 157.697 378.499C153.363 362.169 141.766 357.277 129.853 354.004C129.853 354.004 117.941 363.991 106.31 361.888C106.31 361.888 99.2165 361.224 98.4959 354.364H98.4847Z" fill="#E81D2C"/>
<g opacity="0.2">
<path d="M81.2695 429.399C88.6669 440.106 96.053 450.801 103.45 461.508C106.344 465.691 109.35 469.988 113.64 472.732C119.878 476.713 128.469 476.623 134.616 472.518C140.764 468.413 144.13 460.518 142.836 453.242C142.678 452.376 142.453 451.487 141.845 450.846C140.921 449.856 139.356 449.733 138.062 450.126C136.767 450.509 135.63 451.307 134.436 451.937C127.467 455.626 118.628 453.647 112.098 449.238C105.567 444.829 100.771 438.363 95.7603 432.278C93.9138 430.029 91.8871 427.723 89.1511 426.722C86.415 425.722 82.7783 426.543 81.6186 429.208" fill="black"/>
</g>
<path d="M118.629 385.235C122.857 385.235 126.285 381.821 126.285 377.609C126.285 373.398 122.857 369.984 118.629 369.984C114.401 369.984 110.973 373.398 110.973 377.609C110.973 381.821 114.401 385.235 118.629 385.235Z" fill="white"/>
<path d="M82.9375 371.109C82.9375 375.327 86.3716 378.735 90.5938 378.735C94.8161 378.735 98.2502 375.316 98.2502 371.109C98.2502 366.903 94.8161 363.484 90.5938 363.484C86.3716 363.484 82.9375 366.903 82.9375 371.109Z" fill="white"/>
<path d="M76.7539 444.156C76.7539 448.374 80.188 451.781 84.4102 451.781C88.6325 451.781 92.0666 448.363 92.0666 444.156C92.0666 439.95 88.6325 436.531 84.4102 436.531C80.188 436.531 76.7539 439.95 76.7539 444.156Z" fill="white"/>
<path d="M98.2501 473.744C102.479 473.744 105.906 470.33 105.906 466.119C105.906 461.908 102.479 458.494 98.2501 458.494C94.0216 458.494 90.5938 461.908 90.5938 466.119C90.5938 470.33 94.0216 473.744 98.2501 473.744Z" fill="white"/>
<path d="M133.941 475.6C138.17 475.6 141.598 472.186 141.598 467.975C141.598 463.763 138.17 460.35 133.941 460.35C129.713 460.35 126.285 463.763 126.285 467.975C126.285 472.186 129.713 475.6 133.941 475.6Z" fill="white"/>
<path d="M103.699 428.623C107.928 428.623 111.356 425.209 111.356 420.998C111.356 416.787 107.928 413.373 103.699 413.373C99.4708 413.373 96.043 416.787 96.043 420.998C96.043 425.209 99.4708 428.623 103.699 428.623Z" fill="white"/>
<path d="M96.0431 404.569C100.272 404.569 103.699 401.155 103.699 396.943C103.699 392.732 100.272 389.318 96.0431 389.318C91.8146 389.318 88.3867 392.732 88.3867 396.943C88.3867 401.155 91.8146 404.569 96.0431 404.569Z" fill="white"/>
<path d="M96.043 356.22C96.1781 356.118 96.9888 358.559 99.9837 361.067C101.459 362.315 103.497 363.485 105.917 364.283C108.349 365.071 111.198 365.442 114.125 365.115C117.064 364.756 119.766 363.845 122.075 362.709C124.383 361.584 126.308 360.268 127.851 359.065C129.393 357.862 130.564 356.793 131.352 356.04C132.14 355.286 132.579 354.859 132.613 354.892C132.636 354.915 132.264 355.399 131.521 356.197C130.778 357.007 129.641 358.131 128.121 359.38C126.601 360.628 124.664 362 122.333 363.181C120.003 364.362 117.233 365.318 114.216 365.678C111.187 366.015 108.259 365.61 105.771 364.778C103.283 363.923 101.211 362.686 99.736 361.359C98.2498 360.043 97.2815 358.728 96.7636 357.749C96.4708 357.277 96.3357 356.872 96.2006 356.613C96.088 356.343 96.0317 356.208 96.0542 356.197L96.043 356.22Z" fill="#263238"/>
<path d="M134.628 355.701C143.388 359.356 152.497 363.27 158.543 370.569C164.691 377.98 166.83 388.057 166.38 397.662C165.929 407.266 163.137 416.589 160.356 425.8C159.264 429.399 157.811 433.437 154.332 434.899C151.337 436.158 147.914 435.034 144.874 433.853C137.049 430.816 129.348 427.476 121.782 423.843C118.742 422.393 115.51 420.661 114.136 417.602C112.391 413.71 114.272 409.234 116.141 405.399C122.682 391.926 129.224 378.464 135.766 364.991" fill="#E81D2C"/>
<path d="M153.309 409.932C157.537 409.932 160.965 406.518 160.965 402.307C160.965 398.096 157.537 394.682 153.309 394.682C149.08 394.682 145.652 398.096 145.652 402.307C145.652 406.518 149.08 409.932 153.309 409.932Z" fill="white"/>
<path d="M133.029 423.877C137.258 423.877 140.686 420.463 140.686 416.252C140.686 412.041 137.258 408.627 133.029 408.627C128.801 408.627 125.373 412.041 125.373 416.252C125.373 420.463 128.801 423.877 133.029 423.877Z" fill="white"/>
<path d="M135.057 378.801C135.057 382.929 138.423 386.28 142.567 386.28C146.71 386.28 150.077 382.929 150.077 378.801C150.077 374.674 146.71 371.323 142.567 371.323C138.423 371.323 135.057 374.674 135.057 378.801Z" fill="white"/>
<path d="M119.496 422.65L117.548 430.163L78.636 401.833L66.7236 384.919C65.1248 382.658 62.7153 381.095 59.9906 380.566C57.0969 380.004 54.1019 380.645 51.7037 382.343L40.6133 390.204C40.6133 390.204 40.9173 396.165 43.6083 394.973C46.2992 393.781 51.6925 390.8 51.6925 390.8L53.1899 405.117L59.7766 409.886L66.3634 414.958L110.297 458.515C119.766 467.895 135.676 465.308 141.643 453.409L148.151 434.943L119.496 422.65Z" fill="#FFBE9D"/>
<path d="M116.568 429.094C116.591 429.038 117.323 429.274 118.201 430.095C119.09 430.904 120.014 432.355 120.475 434.121C120.937 435.887 120.937 437.54 120.892 438.698C120.847 439.868 120.745 440.588 120.667 440.588C120.588 440.588 120.532 439.868 120.475 438.71C120.408 437.551 120.34 435.954 119.901 434.278C119.462 432.603 118.651 431.231 117.897 430.387C117.142 429.544 116.512 429.184 116.557 429.094H116.568Z" fill="#EB996E"/>
<path d="M51.6362 391.543C51.5687 391.498 51.7601 391.048 52.2217 390.384C52.6721 389.743 53.449 388.832 54.6875 388.394C55.9598 387.966 57.2096 388.405 57.8289 389.001C58.4706 389.608 58.4481 390.216 58.3806 390.204C58.2905 390.238 58.1554 389.743 57.5586 389.316C56.9957 388.9 55.9148 388.596 54.8789 388.945C53.8205 389.316 53.0662 390.092 52.537 390.643C52.0191 391.217 51.7038 391.588 51.625 391.543H51.6362Z" fill="#EB996E"/>
<path d="M58.5939 395.366C58.5263 395.422 58.2336 395.164 57.6931 394.86C57.164 394.568 56.3645 394.253 55.4525 394.264C54.5405 394.264 53.7411 394.579 53.2232 394.883C52.694 395.186 52.4013 395.456 52.3337 395.389C52.2774 395.344 52.4688 394.961 52.9867 394.534C53.5047 394.107 54.3942 393.679 55.4525 393.668C56.5109 393.668 57.4117 394.095 57.9296 394.511C58.4588 394.939 58.6502 395.31 58.5939 395.355V395.366Z" fill="#EB996E"/>
<path d="M119.497 422.652C119.497 422.652 119.227 422.652 118.754 422.472C118.281 422.292 117.606 421.91 116.998 421.145C116.39 420.392 115.872 419.278 115.714 417.906C115.545 416.523 115.894 414.948 116.536 413.363C117.178 411.766 118.135 410.157 118.946 408.358C119.779 406.558 120.511 404.568 121.175 402.431C122.504 398.169 123.472 393.333 124.812 388.317C126.163 383.312 127.942 378.611 130.498 374.855C132.997 371.065 136.33 368.433 139.438 367.005C142.556 365.543 145.416 365.273 147.308 365.408C149.222 365.543 150.213 365.959 150.213 365.959C150.202 366.026 149.188 365.7 147.297 365.633C145.428 365.576 142.635 365.891 139.606 367.376C136.589 368.827 133.358 371.413 130.937 375.158C128.449 378.858 126.715 383.503 125.375 388.474C124.035 393.456 123.055 398.304 121.682 402.588C120.995 404.737 120.24 406.738 119.385 408.56C118.529 410.382 117.561 411.968 116.908 413.52C116.255 415.061 115.894 416.568 116.029 417.872C116.153 419.188 116.615 420.268 117.167 421.01C117.718 421.764 118.349 422.157 118.788 422.371C119.227 422.585 119.497 422.618 119.486 422.663L119.497 422.652Z" fill="#263238"/>
<path d="M76.3158 398.235C76.1582 398.213 76.5861 393.849 77.2841 388.485C77.9822 383.12 78.669 378.79 78.8267 378.813C78.9843 378.835 78.5565 383.199 77.8584 388.563C77.1603 393.928 76.4735 398.258 76.3158 398.235Z" fill="#263238"/>
<path d="M58.8194 414.938L56.7477 431.178L31.9547 410.068L18.3984 413.341C18.3984 413.341 32.3825 442.661 43.4279 454.278C54.4733 465.896 60.4295 467.549 64.5954 467.729C70.3264 467.976 72.9386 461.015 72.9386 461.015L75.4382 420.651L58.8194 414.949V414.938Z" fill="#FFBE9D"/>
<path d="M56.8504 430.74C56.9855 430.672 57.9538 432.427 58.5956 434.788C59.2486 437.15 59.3274 439.141 59.1811 439.152C59.0122 439.175 58.6744 437.251 58.0326 434.935C57.4021 432.629 56.6928 430.807 56.8504 430.729V430.74Z" fill="#EB996E"/>
<path d="M29.5672 368.906H10.8992C8.07311 368.906 5.55102 372.179 6.56436 374.844L25.3337 411.362C26.0543 412.779 27.518 413.667 29.1168 413.667L51.8719 413.622C54.484 413.273 55.4298 410.383 54.3489 408.809L36.2439 373.067C34.9942 370.526 32.4045 368.918 29.5672 368.918V368.906Z" fill="#455A64"/>
<path d="M28.3065 371.111H9.63857C7.29663 371.111 5.78788 373.574 6.84625 375.644L25.1652 411.362C25.8858 412.779 27.3495 413.668 28.9483 413.668H51.4444C52.8181 413.668 53.7076 412.228 53.0883 411.002L34.9833 375.261C33.7335 372.72 31.1439 371.111 28.3065 371.111Z" fill="#263238"/>
<path d="M26.7185 386.058L15.3578 390.59L12.9258 399.733L18.3978 413.342L38.4732 416.254L32.5958 410.249L33.3502 405.019C33.3502 405.019 38.9461 403.265 39.0924 402.41C39.2276 401.555 38.3944 398.687 37.5387 398.541C36.683 398.406 30.8056 400.588 30.8056 400.588C30.8056 400.588 37.7526 395.089 37.5612 394.211C37.3698 393.323 36.6154 391.074 35.2305 390.815C33.8456 390.567 22.6313 395.842 22.6313 395.842L20.8073 399.992L19.2197 393.357C19.2197 393.357 29.1842 390.567 26.7297 386.035L26.7185 386.058Z" fill="#FFBE9D"/>
<path d="M28.1489 407.493C28.0813 407.516 27.8674 407.1 27.7661 406.358C27.6535 405.627 27.7098 404.569 28.1038 403.49C28.4979 402.421 29.151 401.578 29.7139 401.094C30.2769 400.599 30.7048 400.431 30.7385 400.487C30.8511 400.622 29.3762 401.69 28.6556 403.692C27.8899 405.683 28.3178 407.448 28.1489 407.482V407.493Z" fill="#EB996E"/>
<path d="M22.7556 405.514C22.688 405.48 23.0934 404.412 23.206 402.545C23.296 401.622 23.3411 400.475 23.7802 399.249C23.9941 398.642 24.3206 398.012 24.8273 397.495C25.334 396.966 26.0095 396.595 26.6851 396.325C29.3986 395.336 31.8419 394.548 33.6321 393.964C35.4223 393.39 36.537 393.086 36.5595 393.154C36.582 393.233 35.5124 393.682 33.7672 394.346C32.022 395.021 29.5675 395.887 26.899 396.854C26.2572 397.113 25.6718 397.427 25.2326 397.877C24.7935 398.316 24.4895 398.867 24.2869 399.418C23.859 400.531 23.7577 401.645 23.6226 402.567C23.3974 404.445 22.8344 405.536 22.7556 405.491V405.514Z" fill="#EB996E"/>
<path d="M20.1428 403.456C19.9852 403.433 20.019 402.432 20.2104 401.218C20.4131 400.003 20.7058 399.047 20.8634 399.081C21.0211 399.103 20.9873 400.104 20.7959 401.319C20.5932 402.522 20.3005 403.49 20.1428 403.456Z" fill="#EB996E"/>
<path d="M19.8398 377.994C19.8398 379.31 20.9095 380.367 22.2156 380.367C23.5216 380.367 24.5913 379.299 24.5913 377.994C24.5913 376.69 23.5216 375.621 22.2156 375.621C20.9095 375.621 19.8398 376.69 19.8398 377.994Z" fill="#FAFAFA"/>
<path d="M66.3633 414.959C66.3633 414.959 66.6222 415.128 67.0614 415.51C67.5568 415.949 68.1648 416.5 68.9191 417.175C70.5743 418.704 72.8149 420.762 75.4721 423.225L75.5622 423.304V423.428C75.2581 427.218 74.9091 431.671 74.5375 436.428C74.0196 443.401 73.6255 449.722 73.4004 454.299C73.299 456.515 73.2202 458.348 73.1527 459.72C73.1076 461.002 73.0626 461.71 73.0175 461.71C72.9725 461.71 72.95 461.002 72.9275 459.72C72.9049 458.438 72.9275 456.582 72.9838 454.288C73.0964 449.699 73.4341 443.367 73.9521 436.395C74.3011 431.615 74.6839 427.15 75.0555 423.394L75.1343 423.596C72.5334 421.077 70.3378 418.963 68.7277 417.399C68.0184 416.691 67.4329 416.106 66.96 415.634C66.5547 415.218 66.352 414.993 66.3745 414.97L66.3633 414.959Z" fill="#EB996E"/>
<path d="M254.527 128.998L214.511 109.17C201.09 79.9522 171.568 59.6523 137.284 59.6523C90.366 59.6523 52.332 97.6428 52.332 144.507C52.332 191.371 90.366 229.361 137.284 229.361C184.201 229.361 220.287 193.26 222.145 148.038L254.538 129.009L254.527 128.998Z" fill="#E0E0E0"/>
<path d="M214.084 52.2158C214.084 53.4304 213.093 54.4201 211.877 54.4201C210.661 54.4201 209.67 53.4304 209.67 52.2158C209.67 51.0012 210.661 50.0115 211.877 50.0115C213.093 50.0115 214.084 51.0012 214.084 52.2158Z" fill="#263238"/>
<path d="M222.91 52.2158C222.91 53.4304 221.919 54.4201 220.703 54.4201C219.487 54.4201 218.496 53.4304 218.496 52.2158C218.496 51.0012 219.487 50.0115 220.703 50.0115C221.919 50.0115 222.91 51.0012 222.91 52.2158Z" fill="#263238"/>
<path d="M231.727 51.1142C232.335 52.1714 231.975 53.521 230.916 54.1283C229.858 54.7356 228.507 54.3757 227.899 53.3185C227.291 52.2614 227.651 50.9118 228.709 50.3045C229.768 49.6972 231.119 50.0571 231.727 51.1142Z" fill="#263238"/>
<path d="M220.839 26.462C220.839 26.462 220.986 26.4508 221.29 26.462C221.616 26.462 222.044 26.4845 222.596 26.4958C222.888 26.507 223.204 26.507 223.564 26.5408C223.924 26.5857 224.307 26.642 224.724 26.6982C225.14 26.7544 225.591 26.8219 226.075 26.8894C226.548 27.0019 227.054 27.1368 227.584 27.2605C229.7 27.8004 232.268 28.7338 234.891 30.4433C237.514 32.1302 240.239 34.5257 242.446 37.7984C244.619 41.0712 246.297 45.1874 246.736 49.8096C246.781 50.968 246.916 52.1489 246.803 53.341C246.758 53.9371 246.77 54.5444 246.691 55.1517C246.601 55.759 246.511 56.3551 246.42 56.9736C245.925 59.3804 245.204 61.8546 243.966 64.1601C242.75 66.4656 241.185 68.6587 239.271 70.6156C237.323 72.5275 235.037 74.1919 232.504 75.474C229.971 76.7674 227.167 77.6558 224.251 78.0045C223.53 78.1507 222.787 78.1507 222.055 78.1957C221.312 78.2406 220.58 78.2744 219.826 78.2406C218.34 78.1844 216.842 77.9932 215.367 77.6783C212.158 76.9923 209.141 75.699 206.495 73.9445L206.765 73.967C203.691 75.2041 200.674 76.4075 197.724 77.5884L197.183 77.802L197.341 77.251C198.253 73.9445 199.143 70.7168 199.998 67.6015L200.043 67.8377C197.51 64.475 195.889 60.6287 195.224 56.8162C194.887 54.9043 194.751 53.0036 194.875 51.1705C194.909 50.2483 194.954 49.3373 195.134 48.4601C195.202 48.0215 195.269 47.5716 195.337 47.1442C195.416 46.7056 195.551 46.2895 195.652 45.8621C197.397 39.0693 201.586 34.0534 205.729 31.1855C207.801 29.7235 209.85 28.6776 211.731 28.0253C212.192 27.8566 212.654 27.6991 213.082 27.5417C213.532 27.4292 213.96 27.3168 214.365 27.2155C214.771 27.1143 215.165 27.0131 215.536 26.9231C215.908 26.8557 216.279 26.8107 216.617 26.7544C217.304 26.6645 217.901 26.552 218.43 26.5295C218.948 26.507 219.387 26.4958 219.758 26.4845C220.096 26.4845 220.366 26.4733 220.569 26.462C220.749 26.462 220.839 26.462 220.839 26.462C220.839 26.462 220.749 26.4845 220.569 26.4958C220.366 26.507 220.096 26.5295 219.758 26.5632C219.398 26.5857 218.959 26.6195 218.441 26.6532C217.923 26.6982 217.326 26.8219 216.651 26.9231C213.994 27.4067 210.008 28.4639 205.932 31.4442C201.867 34.312 197.78 39.283 196.103 45.9634C196.001 46.3795 195.877 46.7956 195.799 47.223C195.731 47.6503 195.675 48.0889 195.607 48.5163C195.438 49.3823 195.404 50.2707 195.371 51.1817C195.258 52.9811 195.404 54.848 195.742 56.715C196.407 60.4488 198.005 64.2051 200.494 67.5003L200.573 67.6128L200.539 67.7477C199.683 70.863 198.805 74.0907 197.904 77.3972L197.521 77.0598C200.46 75.8789 203.477 74.6643 206.551 73.4272L206.698 73.3709L206.821 73.4497C209.411 75.1479 212.361 76.43 215.491 77.0935C216.932 77.3972 218.396 77.5884 219.848 77.6446C220.58 77.6783 221.301 77.6446 222.022 77.6109C222.742 77.5659 223.463 77.5659 224.172 77.4309C227.021 77.0935 229.768 76.2275 232.245 74.9679C234.733 73.7196 236.963 72.1001 238.877 70.2332C240.757 68.3213 242.3 66.1732 243.493 63.9239C244.72 61.6746 245.43 59.2567 245.925 56.8949C246.015 56.2988 246.105 55.7028 246.195 55.118C246.285 54.5331 246.274 53.9371 246.319 53.3523C246.432 52.1826 246.297 51.0243 246.263 49.8884C245.846 45.3448 244.225 41.2961 242.108 38.0571C239.958 34.8294 237.289 32.4339 234.711 30.7469C232.132 29.0375 229.61 28.0815 227.516 27.5079C226.987 27.373 226.491 27.238 226.03 27.1143C225.557 27.0356 225.107 26.9681 224.69 26.9006C224.273 26.8332 223.891 26.7657 223.542 26.7095C223.192 26.6757 222.866 26.6645 222.585 26.642C222.033 26.597 221.605 26.5745 221.278 26.552C220.986 26.5295 220.828 26.507 220.828 26.4958L220.839 26.462Z" fill="#263238"/>
<path d="M188.738 135.463C188.895 135.463 188.907 143.437 188.749 153.255C188.591 163.084 188.344 171.047 188.175 171.047C188.017 171.047 188.006 163.073 188.164 153.255C188.321 143.425 188.569 135.463 188.738 135.474V135.463Z" fill="#263238"/>
<path d="M155.995 93.3341C155.995 93.3341 155.995 93.5365 155.961 93.9189C155.928 94.3013 155.837 94.8636 155.68 95.5834C155.365 97.0117 154.678 99.0698 153.315 101.33C151.93 103.568 149.814 106.009 146.819 107.865C143.846 109.731 139.984 110.834 135.931 110.721C131.878 110.597 128.083 109.282 125.223 107.246C122.341 105.233 120.371 102.669 119.11 100.352C117.871 98.0126 117.308 95.932 117.072 94.4812C116.959 93.7502 116.891 93.1879 116.88 92.8055C116.858 92.4231 116.858 92.2207 116.88 92.2207C116.948 92.2207 116.993 93.0305 117.297 94.4475C117.601 95.8646 118.22 97.9002 119.47 100.161C120.742 102.399 122.713 104.873 125.527 106.807C128.32 108.764 132.001 110.013 135.942 110.136C139.883 110.238 143.632 109.192 146.526 107.403C149.453 105.626 151.548 103.276 152.955 101.105C154.34 98.9123 155.072 96.9217 155.455 95.5272C155.837 94.1214 155.928 93.3229 155.995 93.3229V93.3341Z" fill="#263238"/>
<path d="M87.2698 137.859C87.4274 137.859 87.5625 145.631 87.5738 155.213C87.5738 164.795 87.4499 172.566 87.2923 172.566C87.1346 172.566 86.9995 164.795 86.9883 155.213C86.9883 145.631 87.1121 137.859 87.2698 137.859Z" fill="#263238"/>
<path d="M120.506 90.2188H153.946C153.946 90.2188 184.177 100.959 194.007 108.494C203.836 116.018 218.912 169.045 218.912 169.045L188.715 168.157L186.452 213.693C155.522 235.691 118.4 234.083 89.7341 214.829L87.4935 171.722C87.4935 171.722 70.841 171.238 62.3402 170.979C53.8394 170.721 53.4453 168.393 53.4453 168.393C53.4453 168.393 72.7776 117.66 78.6774 107.842C83.8117 99.2834 113.705 91.647 120.506 90.2188Z" fill="#263238"/>
<path d="M200.954 120.641C200.954 120.641 200.571 120.934 199.76 121.339C198.95 121.743 197.666 122.216 195.943 122.396C194.221 122.587 192.07 122.475 189.683 121.89C187.285 121.339 184.684 120.248 181.914 118.932C179.133 117.639 176.138 116.075 172.67 115.153C169.214 114.22 165.295 114.276 161.4 115.288C157.493 116.278 153.62 118.1 149.758 120.203C145.896 122.328 141.977 124.735 137.676 126.658C133.387 128.57 128.804 129.841 124.311 129.616C119.83 129.425 115.664 128.053 111.937 126.456C108.188 124.848 104.81 122.958 101.59 121.339C98.3813 119.708 95.3187 118.302 92.4138 117.357C86.5928 115.423 81.4585 115.547 78.1708 116.413C76.5157 116.829 75.2884 117.357 74.4777 117.751C74.0724 117.942 73.7796 118.133 73.577 118.235C73.3743 118.347 73.2617 118.392 73.2617 118.392C73.2617 118.392 73.3518 118.313 73.5432 118.19C73.7459 118.066 74.0274 117.863 74.4214 117.661C75.2096 117.222 76.4368 116.66 78.1145 116.199C81.4247 115.254 86.6378 115.063 92.5377 116.975C95.4876 117.908 98.5727 119.292 101.804 120.911C105.047 122.52 108.425 124.386 112.151 125.961C115.856 127.535 119.954 128.874 124.345 129.042C128.725 129.256 133.206 128.019 137.451 126.13C141.707 124.229 145.614 121.833 149.499 119.708C153.383 117.594 157.301 115.76 161.287 114.771C165.25 113.747 169.292 113.714 172.817 114.681C176.352 115.637 179.347 117.234 182.117 118.55C184.875 119.899 187.42 120.99 189.784 121.564C192.138 122.171 194.243 122.317 195.943 122.16C197.643 122.013 198.916 121.586 199.738 121.226C200.56 120.866 200.965 120.608 200.987 120.641H200.954Z" fill="#FAFAFA"/>
<path d="M211.932 146.046C211.932 146.046 211.459 145.754 210.491 145.326C209.533 144.899 208.07 144.348 206.077 144.123C204.106 143.875 201.629 143.977 198.882 144.651C196.135 145.315 193.162 146.653 190.066 148.442C186.959 150.207 183.738 152.456 180.034 154.526C176.352 156.539 172.062 158.473 167.21 158.586C162.368 158.766 157.482 157.079 152.786 154.998C148.058 152.94 143.295 150.432 137.992 149.206C132.689 148.014 127.284 148.329 122.229 149.184C117.151 150.027 112.377 151.411 107.783 152.625C103.2 153.84 98.798 154.897 94.5871 155.392C90.3873 155.887 86.3903 155.864 82.8323 155.167C75.6939 153.772 70.706 150.083 68.229 146.946C66.9342 145.394 66.2811 143.943 65.8195 142.998C65.6506 142.526 65.5042 142.155 65.4029 141.874C65.3128 141.615 65.2678 141.491 65.279 141.48C65.3916 141.412 65.8533 143.707 68.3979 146.8C70.8862 149.859 75.8515 153.446 82.8999 154.762C86.4015 155.414 90.3536 155.426 94.5082 154.908C98.6742 154.391 103.054 153.334 107.625 152.108C112.197 150.893 116.993 149.487 122.105 148.621C127.194 147.744 132.677 147.429 138.093 148.633C143.498 149.881 148.283 152.412 152.989 154.47C157.662 156.55 162.458 158.203 167.165 158.046C171.871 157.956 176.105 156.078 179.764 154.098C183.446 152.074 186.688 149.836 189.818 148.082C192.948 146.305 195.955 144.978 198.758 144.337C201.551 143.684 204.061 143.617 206.066 143.898C208.07 144.157 209.545 144.753 210.502 145.214C211.459 145.686 211.887 146.035 211.887 146.035L211.932 146.046Z" fill="#FAFAFA"/>
<path d="M187.725 187.736C187.725 187.736 187.421 187.949 186.768 188.197C186.115 188.444 185.101 188.68 183.761 188.669C182.433 188.658 180.812 188.366 179.044 187.691C177.276 187.027 175.407 185.981 173.324 184.913C171.252 183.833 168.865 182.866 166.152 182.495C163.45 182.079 160.488 182.146 157.448 182.63C151.312 183.541 145.041 186.364 138.33 188.894C134.964 190.154 131.586 191.188 128.242 191.818C124.909 192.471 121.633 192.797 118.514 192.898C112.265 193.067 106.658 192.223 102.098 191.053C97.5263 189.895 93.9909 188.399 91.6264 187.252C90.4217 186.712 89.5547 186.184 88.9354 185.858C88.6652 185.7 88.44 185.576 88.2486 185.464C88.091 185.374 88.0234 185.318 88.0234 185.318C88.0234 185.318 88.1135 185.34 88.2711 185.419C88.4626 185.509 88.699 185.621 88.9805 185.756C89.611 186.049 90.5005 186.544 91.7052 187.05C94.0922 188.129 97.6276 189.569 102.176 190.66C106.725 191.762 112.287 192.56 118.48 192.358C121.565 192.246 124.808 191.908 128.107 191.256C131.417 190.615 134.75 189.591 138.105 188.343C144.782 185.835 151.109 183.001 157.347 182.101C160.443 181.629 163.45 181.584 166.208 182.023C168.978 182.427 171.433 183.451 173.504 184.553C175.587 185.655 177.422 186.712 179.145 187.387C180.868 188.073 182.444 188.388 183.75 188.433C186.385 188.523 187.691 187.635 187.702 187.725L187.725 187.736Z" fill="#FAFAFA"/>
<path d="M186.756 211.32C186.7 211.376 185.855 210.117 183.784 208.441C181.723 206.821 178.233 204.797 173.47 204.358C171.117 204.122 168.482 204.358 165.848 205.258C163.224 206.203 160.668 207.8 158.214 209.757C155.748 211.714 153.338 214.008 150.659 216.19C147.99 218.36 144.939 220.43 141.37 221.509C137.801 222.566 134.119 222.623 130.685 222.184C127.239 221.745 123.997 220.868 120.968 219.946C114.899 218.09 109.618 215.886 105.025 214.593C100.442 213.266 96.5239 212.996 93.8892 213.434C91.2545 213.839 89.9146 214.548 89.8809 214.458C89.8809 214.458 89.9597 214.402 90.1286 214.334C90.3312 214.255 90.5677 214.143 90.8717 214.019C91.1982 213.873 91.6035 213.727 92.1102 213.603C92.6056 213.457 93.1911 213.299 93.8554 213.209C96.5126 212.692 100.498 212.917 105.137 214.199C109.787 215.447 115.068 217.618 121.125 219.44C124.143 220.351 127.363 221.206 130.752 221.622C134.141 222.049 137.744 221.993 141.201 220.958C144.669 219.912 147.652 217.91 150.298 215.762C152.956 213.603 155.388 211.32 157.887 209.352C160.375 207.384 162.999 205.764 165.701 204.808C168.415 203.909 171.117 203.672 173.526 203.954C178.379 204.46 181.892 206.574 183.941 208.272C185.99 210.027 186.767 211.331 186.767 211.331L186.756 211.32Z" fill="#FAFAFA"/>
<g opacity="0.2">
<path d="M86.4453 206.878C93.2347 207.407 99.2809 202.852 104.314 198.275C109.358 193.698 114.616 188.603 121.36 187.636C128.42 186.624 135.604 190.447 142.596 189.042C145.748 188.412 148.687 186.747 151.896 186.624C157.188 186.421 161.624 190.346 165.429 194.024C170.384 198.803 175.326 203.583 180.281 208.363C181.801 209.825 184.683 212.018 186.586 211.107L186.957 203.718C184.582 190.414 182.003 176.738 171.746 167.932C164.135 161.398 153.776 159.149 143.8 158.013C131.719 156.641 118.636 156.798 108.491 163.501C101.724 167.966 96.9503 174.972 93.8202 182.451C90.6901 189.93 89.0687 197.926 87.4699 205.866" fill="black"/>
</g>
<path d="M216.458 168.965C216.751 170.719 221.626 198.813 220.748 204.369C219.87 209.925 218.406 217.235 211.966 219.855C205.526 222.487 196.169 218.978 190.9 209.913C185.63 200.849 162.808 168.999 162.808 168.999L145.84 166.952V138.6L178.323 159.248L193.242 172.778L192.104 168.245L216.47 168.965H216.458Z" fill="#EB996E"/>
<path d="M153.147 123.541H127.521C125.419 123.541 123.715 125.243 123.715 127.342V173.52C123.715 175.62 125.419 177.322 127.521 177.322H153.147C155.249 177.322 156.952 175.62 156.952 173.52V127.342C156.952 125.243 155.249 123.541 153.147 123.541Z" fill="#455A64"/>
<path d="M176.88 158.541C176.992 158.417 184.052 164.513 192.643 172.149C201.245 179.785 208.124 186.083 208.023 186.207C207.91 186.331 200.862 180.235 192.249 172.588C183.646 164.951 176.767 158.653 176.868 158.541H176.88Z" fill="#E07646"/>
<path d="M57.8698 170.562C57.8698 170.562 53.8164 205.483 53.8164 209.464C53.8164 213.445 57.3969 222.993 67.3614 223.792C77.3146 224.59 90.0714 202.311 90.0714 202.311L110.789 170.877L101.623 153.771L83.7099 171.608L57.8698 170.562Z" fill="#EB996E"/>
<path d="M150.342 144.561L123.522 143.818L101.611 153.76L110.776 170.866L126.81 168.538C126.81 168.538 136.189 167.009 136.763 166.435C137.844 165.355 138.778 162.038 139.431 159.159C140.084 156.223 139.758 153.153 138.486 150.431L137.878 149.914C137.878 149.914 146.705 148.07 148.169 147.428C151.682 145.876 150.342 144.561 150.342 144.561Z" fill="#EB996E"/>
<path d="M101.612 153.761C101.612 153.761 101.263 154.244 100.565 155.032C99.8666 155.83 98.8307 156.943 97.5359 158.315C94.9463 161.06 91.2757 164.771 87.1773 168.82C83.124 172.835 79.4534 176.467 76.6949 179.2C75.4226 180.471 74.353 181.539 73.531 182.36C72.7767 183.103 72.3488 183.496 72.3263 183.474C72.2925 183.451 72.6753 182.99 73.3734 182.203C74.0715 181.404 75.1073 180.291 76.4022 178.919C78.9918 176.175 82.6623 172.464 86.772 168.415C90.8253 164.4 94.4959 160.767 97.2544 158.034C98.5267 156.763 99.5964 155.695 100.418 154.874C101.173 154.132 101.601 153.738 101.623 153.761H101.612Z" fill="#E07646"/>
<path d="M128.051 152.512C127.949 152.41 129.965 150.746 133.061 150.15C136.146 149.52 138.657 150.296 138.601 150.42C138.578 150.6 136.123 150.116 133.185 150.723C130.235 151.286 128.152 152.669 128.062 152.512H128.051Z" fill="#E07646"/>
<path d="M140.109 155.503C140.053 155.671 137.959 154.839 135.279 155.109C132.599 155.334 130.685 156.526 130.606 156.369C130.494 156.267 132.374 154.772 135.234 154.535C138.083 154.266 140.199 155.401 140.109 155.514V155.503Z" fill="#E07646"/>
<path d="M138.419 160.43C138.363 160.497 138.059 160.306 137.552 160.115C137.045 159.924 136.313 159.8 135.503 159.901C134.692 160.014 134.016 160.34 133.589 160.655C133.149 160.969 132.913 161.228 132.845 161.183C132.789 161.149 132.902 160.778 133.33 160.34C133.746 159.901 134.512 159.451 135.435 159.328C136.37 159.204 137.214 159.429 137.743 159.744C138.272 160.059 138.475 160.385 138.43 160.43H138.419Z" fill="#E07646"/>
<path d="M138.216 107.043C147.11 106.526 154.024 99.1372 153.945 90.2412C153.9 84.8992 153.832 80.3219 153.832 80.3219C153.832 80.3219 167.4 78.2188 167.569 64.6668C167.738 51.1261 165.384 20.0184 165.384 20.0184C149.689 13.2818 131.561 15.5536 118.028 25.9678L116.023 27.5086L120.606 91.5908C121.259 100.689 129.107 107.572 138.216 107.055V107.043Z" fill="#EB996E"/>
<path d="M153.865 80.1197C153.865 80.1197 145.296 80.817 136.188 75.1038C136.188 75.1038 140.365 84.8544 153.898 83.6286L153.865 80.1197Z" fill="#E07646"/>
<path d="M117.69 41.5334C117.454 41.4322 108.368 38.778 108.672 48.0451C108.964 57.3009 118.219 55.0966 118.219 54.838C118.219 54.568 117.69 41.5447 117.69 41.5447V41.5334Z" fill="#EB996E"/>
<path d="M115.269 51.4077C115.269 51.4077 115.111 51.5201 114.841 51.6551C114.582 51.79 114.121 51.88 113.636 51.7226C112.646 51.3964 111.767 49.8669 111.677 48.2024C111.621 47.3589 111.779 46.5492 112.06 45.8744C112.319 45.1884 112.747 44.7048 113.231 44.5923C113.715 44.4686 114.076 44.7498 114.199 45.0084C114.335 45.2671 114.278 45.447 114.323 45.4695C114.346 45.492 114.515 45.3121 114.436 44.9297C114.391 44.7498 114.278 44.5361 114.053 44.3561C113.828 44.1874 113.49 44.0975 113.152 44.1537C112.443 44.2212 111.812 44.9072 111.508 45.6382C111.159 46.3805 110.979 47.2915 111.036 48.2362C111.159 50.1031 112.161 51.8125 113.524 52.1612C114.177 52.3074 114.717 52.0937 114.988 51.8688C115.269 51.6326 115.314 51.4189 115.28 51.4077H115.269Z" fill="#E07646"/>
<path d="M160.937 42.8481C160.971 43.8715 160.138 44.7375 159.068 44.805C157.998 44.8612 157.109 44.0852 157.075 43.0618C157.041 42.0384 157.875 41.1612 158.944 41.1049C160.014 41.0487 160.903 41.8247 160.937 42.8481Z" fill="#263238"/>
<path d="M162.818 39.069C162.582 39.3164 161.107 38.2368 159.024 38.2368C156.941 38.2143 155.41 39.2827 155.184 39.024C155.072 38.9116 155.319 38.4505 155.984 37.9669C156.637 37.4833 157.763 37.0109 159.058 37.0222C160.352 37.0222 161.445 37.5058 162.075 38.0006C162.717 38.4955 162.931 38.9453 162.818 39.0578V39.069Z" fill="#263238"/>
<path d="M140.052 43.0962C140.086 44.1196 139.253 44.9856 138.183 45.0531C137.114 45.1093 136.224 44.3333 136.19 43.3098C136.157 42.2864 136.99 41.4092 138.059 41.353C139.129 41.2967 140.019 42.0727 140.052 43.0962Z" fill="#263238"/>
<path d="M142.338 39.4518C142.101 39.6993 140.626 38.6196 138.543 38.6196C136.46 38.5971 134.929 39.6655 134.704 39.4069C134.591 39.2944 134.839 38.8333 135.503 38.3497C136.156 37.8661 137.271 37.3937 138.577 37.405C139.872 37.405 140.964 37.8886 141.595 38.3834C142.236 38.8783 142.45 39.3281 142.338 39.4406V39.4518Z" fill="#263238"/>
<path d="M149.904 54.8929C149.904 54.7692 151.188 54.5555 153.293 54.2856C153.822 54.2293 154.329 54.1281 154.419 53.757C154.543 53.3746 154.318 52.801 154.059 52.1825C153.563 50.9004 153.034 49.5508 152.483 48.1338C150.298 42.3756 148.711 37.6296 148.947 37.5509C149.184 37.4609 151.143 42.0719 153.327 47.8301C153.856 49.2472 154.352 50.608 154.836 51.9013C155.038 52.5086 155.388 53.1947 155.117 53.9819C154.971 54.3755 154.588 54.6679 154.239 54.7579C153.901 54.8591 153.597 54.8704 153.338 54.8816C151.222 54.9941 149.915 55.0053 149.904 54.8816V54.8929Z" fill="#263238"/>
<path d="M143.767 56.3322C144.105 56.3097 144.105 58.5703 146.041 60.1785C147.978 61.7867 150.387 61.5281 150.399 61.8542C150.432 62.0004 149.858 62.2928 148.845 62.3153C147.843 62.3491 146.39 62.0342 145.208 61.0445C144.026 60.066 143.519 58.7502 143.44 57.8167C143.35 56.872 143.609 56.3097 143.756 56.321L143.767 56.3322Z" fill="#263238"/>
<path d="M142.878 31.2987C142.676 31.861 140.593 31.5911 138.149 31.8947C135.695 32.1421 133.724 32.8507 133.398 32.3446C133.251 32.0972 133.601 31.5686 134.389 31.0175C135.177 30.4664 136.438 29.9491 137.913 29.7916C139.377 29.6342 140.728 29.8591 141.617 30.2302C142.518 30.5901 142.968 31.04 142.878 31.3099V31.2987Z" fill="#E81D2C"/>
<path d="M162.052 33.0409C161.681 33.5133 160.251 33.0184 158.528 32.9959C156.805 32.9172 155.342 33.3108 155.004 32.816C154.857 32.5798 155.083 32.1075 155.724 31.6576C156.355 31.2077 157.402 30.8478 158.596 30.8816C159.778 30.9153 160.814 31.3427 161.41 31.8375C162.018 32.3211 162.221 32.816 162.063 33.0409H162.052Z" fill="#E81D2C"/>
<path d="M171.994 11.4599C172.14 9.78416 171.51 7.97348 170.147 6.99504C168.774 6.00535 166.657 6.07283 165.542 7.34368C166.184 5.08315 164.326 2.47397 161.984 2.32777C159.778 2.19281 157.886 3.85728 155.747 4.4421C153.664 5.01567 151.423 4.52082 149.419 3.71108C147.415 2.90134 145.534 1.78794 143.508 1.04567C139.274 -0.495088 134.422 -0.303899 130.323 1.57426C126.225 3.45241 122.914 6.99504 121.327 11.2125C118.366 10.2902 114.988 11.786 113.164 14.3052C111.34 16.8132 110.867 20.1084 111.227 23.1899C111.475 25.2705 112.072 27.2836 112.781 29.263C112.781 29.4317 112.759 29.6116 112.77 29.7803C112.905 37.2255 113.749 45.9752 116.936 46.0202C122.475 46.1102 121.158 35.6735 121.158 35.6735C127.959 33.0418 125.425 22.8638 127.125 21.323C128.826 19.7822 132.384 16.1834 146.638 23.4598C152.166 26.2827 159.53 26.1927 163.538 25.2818C163.651 25.2593 163.775 25.2368 163.887 25.2143C163.91 25.2143 163.943 25.2143 163.966 25.1918C164.011 25.1918 164.045 25.158 164.079 25.1468C165.362 24.8094 166.589 24.3146 167.738 23.5948C169.033 22.7738 170.204 21.6716 170.744 20.2546C171.296 18.8263 171.082 17.0494 169.967 16.0147C171.014 14.6989 171.848 13.1356 171.983 11.4599H171.994Z" fill="#E81D2C"/>
</g>
<defs>
<clipPath id="clip0_1_17954">
<rect width="471" height="482" fill="white"/>
</clipPath>
</defs>
</svg>
