<svg width="164" height="24" viewBox="0 0 164 24" fill="none" xmlns="http://www.w3.org/2000/svg">
<g clip-path="url(#clip0_1_7308)">
<path d="M90.7275 10.6264H83.836V4.25195H80.3662V19.9624H83.836V13.5928H90.7275V19.9624H94.1972V4.25195H90.7275V10.6264Z" fill="black"/>
<path d="M107.784 5.18385C106.471 4.53448 105.019 4.21639 103.556 4.25743H96.9473V19.9631H103.56C105.024 20.0041 106.476 19.686 107.788 19.0366C108.947 18.4396 109.892 17.499 110.495 16.3439C111.112 15.0177 111.431 13.5728 111.431 12.1102C111.431 10.6477 111.112 9.20284 110.495 7.87665C109.891 6.72074 108.944 5.78015 107.784 5.18385ZM107.438 14.7839C107.105 15.4945 106.544 16.0737 105.845 16.4302C105.018 16.833 104.105 17.0275 103.186 16.9966H100.393V7.22385H103.186C104.098 7.19313 105.004 7.38422 105.826 7.78067C106.525 8.13718 107.085 8.71643 107.419 9.42704C108.116 11.1478 108.116 13.0727 107.419 14.7935L107.438 14.7839Z" fill="black"/>
<path d="M125.866 11.7408V11.544C126.628 11.3495 127.303 10.9071 127.786 10.2864C128.264 9.67465 128.518 8.91732 128.506 8.14081C128.536 7.59813 128.441 7.05576 128.227 6.55614C128.013 6.05651 127.686 5.61317 127.272 5.26081C126.45 4.57921 125.284 4.2384 123.774 4.2384H115.855V19.944H124.302C125.235 19.964 126.161 19.7823 127.018 19.4112C127.751 19.0929 128.376 18.5695 128.818 17.904C129.25 17.2236 129.471 16.43 129.451 15.624C129.472 15.1446 129.398 14.6658 129.234 14.2152C129.069 13.7645 128.817 13.351 128.491 12.9984C127.781 12.2985 126.857 11.8559 125.866 11.7408ZM122.747 7.22399H122.862C123.419 7.2009 123.971 7.32508 124.465 7.58399C124.651 7.71761 124.798 7.89818 124.892 8.10729C124.985 8.3164 125.022 8.54657 124.998 8.77438C125.018 8.99312 124.985 9.21353 124.901 9.41668C124.818 9.61983 124.686 9.79969 124.518 9.94081C124.102 10.2079 123.614 10.3403 123.121 10.32H119.325V7.22399H122.747ZM125.626 16.1664C125.394 16.4527 125.084 16.666 124.734 16.7808C124.253 16.926 123.753 16.9988 123.251 16.9968H119.32V13.1568H123.159C123.67 13.1472 124.179 13.202 124.676 13.32C125.051 13.4089 125.387 13.6159 125.636 13.9104C125.856 14.2452 125.974 14.6374 125.974 15.0384C125.974 15.4394 125.856 15.8316 125.636 16.1664H125.626Z" fill="black"/>
<path d="M143.057 4.69568C141.779 3.97834 140.339 3.60156 138.874 3.60156C137.409 3.60156 135.969 3.97834 134.692 4.69568C133.46 5.40791 132.449 6.44594 131.769 7.69568C131.069 9.02781 130.702 10.5104 130.702 12.0157C130.702 13.5209 131.069 15.0036 131.769 16.3357C132.452 17.5835 133.462 18.6209 134.692 19.3357C135.97 20.0504 137.41 20.4256 138.874 20.4256C140.339 20.4256 141.779 20.0504 143.057 19.3357C144.281 18.6176 145.288 17.5808 145.97 16.3357C146.667 15.0026 147.032 13.5203 147.032 12.0157C147.032 10.511 146.667 9.0288 145.97 7.69568C145.291 6.44853 144.283 5.41106 143.057 4.69568ZM142.946 14.7757C142.563 15.551 141.984 16.2128 141.267 16.6957C140.555 17.1655 139.72 17.416 138.867 17.416C138.014 17.416 137.18 17.1655 136.468 16.6957C135.746 16.2031 135.167 15.5294 134.788 14.7421C134.372 13.8823 134.163 12.9371 134.178 11.9821C134.164 11.0242 134.373 10.0761 134.788 9.2125C135.163 8.42272 135.743 7.74804 136.468 7.25887C137.178 6.7875 138.014 6.54006 138.867 6.54848C139.722 6.53808 140.559 6.78931 141.267 7.26848C141.989 7.75974 142.569 8.43387 142.946 9.22211C143.348 10.0894 143.556 11.0336 143.556 11.9893C143.556 12.945 143.348 13.8892 142.946 14.7565V14.7757Z" fill="black"/>
<path d="M164 4.25195H159.724L155.731 9.69995L151.739 4.25195H147.443L153.202 12.1096L147.443 19.9624H151.739L155.731 14.5192L159.724 19.9624H164L158.241 12.1096L164 4.25195Z" fill="black"/>
<path d="M17.5892 0H12.79V24H17.5892V0Z" fill="#E81D2C"/>
<path d="M8.19643 0H5.79688V24H8.19643V0Z" fill="#E81D2C"/>
<path d="M1.19978 0H0V24H1.19978V0Z" fill="#E81D2C"/>
<path d="M58.18 0H53.3809V24H58.18V0Z" fill="#E81D2C"/>
<path d="M65.172 0H62.7725V24H65.172V0Z" fill="#E81D2C"/>
<path d="M41.5845 0V9.6H29.3852V0H22.1865V24H29.3852V14.4H41.5845V24H48.7832V0H41.5845Z" fill="#E81D2C"/>
<path d="M70.9693 0H69.7695V24H70.9693V0Z" fill="#E81D2C"/>
</g>
<defs>
<clipPath id="clip0_1_7308">
<rect width="164" height="24" fill="white"/>
</clipPath>
</defs>
</svg>
