<svg width="18" height="18" viewBox="0 0 18 18" fill="none" xmlns="http://www.w3.org/2000/svg">
<path d="M17.3077 14.2751C17.3077 14.5751 17.241 14.8834 17.0993 15.1834C16.9577 15.4834 16.7744 15.7667 16.5327 16.0334C16.1244 16.4834 15.6743 16.8084 15.166 17.0168C14.666 17.2251 14.1244 17.3334 13.541 17.3334C12.691 17.3334 11.7827 17.1334 10.8243 16.7251C9.86602 16.3167 8.90768 15.7667 7.95768 15.0751C6.99935 14.3751 6.09102 13.6001 5.22435 12.7417C4.36602 11.8751 3.59102 10.9667 2.89935 10.0167C2.21602 9.06675 1.66602 8.11675 1.26602 7.17508C0.866016 6.22508 0.666016 5.31675 0.666016 4.45008C0.666016 3.88341 0.766016 3.34175 0.966016 2.84175C1.16602 2.33341 1.48268 1.86675 1.92435 1.45008C2.45768 0.925081 3.04102 0.666748 3.65768 0.666748C3.89102 0.666748 4.12435 0.716748 4.33268 0.816748C4.54935 0.916748 4.74102 1.06675 4.89102 1.28341L6.82435 4.00841C6.97435 4.21675 7.08268 4.40841 7.15768 4.59175C7.23268 4.76675 7.27435 4.94175 7.27435 5.10008C7.27435 5.30008 7.21602 5.50008 7.09935 5.69175C6.99102 5.88341 6.83268 6.08341 6.63268 6.28341L5.99935 6.94175C5.90768 7.03341 5.86602 7.14175 5.86602 7.27508C5.86602 7.34175 5.87435 7.40008 5.89102 7.46675C5.91602 7.53341 5.94102 7.58341 5.95768 7.63341C6.10768 7.90841 6.36602 8.26675 6.73268 8.70008C7.10768 9.13342 7.50768 9.57508 7.94102 10.0167C8.39102 10.4584 8.82435 10.8667 9.26602 11.2417C9.69935 11.6084 10.0577 11.8584 10.341 12.0084C10.3827 12.0251 10.4327 12.0501 10.491 12.0751C10.5577 12.1001 10.6243 12.1084 10.6993 12.1084C10.841 12.1084 10.9493 12.0584 11.041 11.9667L11.6743 11.3417C11.8827 11.1334 12.0827 10.9751 12.2744 10.8751C12.466 10.7584 12.6577 10.7001 12.866 10.7001C13.0243 10.7001 13.191 10.7334 13.3743 10.8084C13.5577 10.8834 13.7494 10.9917 13.9577 11.1334L16.716 13.0917C16.9327 13.2417 17.0827 13.4167 17.1743 13.6251C17.2577 13.8334 17.3077 14.0417 17.3077 14.2751Z" fill="#E81D2C"/>
</svg>
