<svg width="81" height="53" viewBox="0 0 81 53" fill="none" xmlns="http://www.w3.org/2000/svg">
<path d="M5.54738 18.6621H0.557617V14.9695H5.54738V9.83008H9.43933V14.9695H14.4291V18.6621H9.43933V23.8514H5.54738V18.6621Z" fill="white"/>
<path d="M23.9932 14.3848C24.8383 13.5427 25.3166 12.4009 25.3239 11.2079V6.60086C25.3239 5.27026 24.7083 4.65478 23.4775 4.65478H22.8457C21.565 4.65478 20.9495 5.27026 20.9495 6.60086V12.5386H16.1094V6.41772C16.1094 2.27622 18.1551 0.230469 22.2301 0.230469H24.2261C28.3177 0.230469 30.3634 2.27622 30.3634 6.41772V11.025C30.3966 13.4629 29.4708 15.8164 27.7855 17.5783L22.4299 24.2313C21.9652 24.7168 21.6034 25.2912 21.3662 25.9199C21.1289 26.5487 21.0211 27.2189 21.0492 27.8904V29.0712H30.3634V33.6785H16.0095V27.7074C15.9787 25.234 16.9159 22.8465 18.6209 21.0544L23.9932 14.3848Z" fill="white"/>
<path d="M41.1747 0.181641C45.2995 0.181641 47.3455 2.2276 47.3455 6.3691V11.4918C47.3455 14.336 46.3474 15.7664 44.5844 16.4816C46.5803 17.0471 47.4451 18.3277 47.4451 20.7561V27.8748C47.4451 32.0163 45.3994 34.0621 41.2579 34.0621H38.9626C34.8377 34.0621 32.792 32.0163 32.792 27.8748V20.7561C32.792 18.3277 33.6402 17.0471 35.6361 16.4816C33.9728 15.8163 32.8917 14.3859 32.8917 11.4918V6.3691C32.8917 2.2276 34.9376 0.181641 39.0625 0.181641H41.1747ZM37.8481 27.6919C37.8481 28.9726 38.4636 29.588 39.7942 29.588H40.6425C40.9018 29.6306 41.1676 29.611 41.4179 29.531C41.6682 29.451 41.896 29.313 42.0826 29.128C42.2692 28.943 42.4094 28.7163 42.4915 28.4667C42.5737 28.2171 42.5955 27.9516 42.5553 27.6919V20.856C42.5955 20.5963 42.5737 20.3308 42.4915 20.0812C42.4094 19.8316 42.2692 19.6049 42.0826 19.4199C41.896 19.2349 41.6682 19.0969 41.4179 19.0169C41.1676 18.9369 40.9018 18.9173 40.6425 18.9598H39.7942C38.4636 18.9598 37.8481 19.5753 37.8481 20.856V27.6919ZM40.6092 14.5855C41.8899 14.5855 42.5053 13.9702 42.5053 12.6396V6.50208C42.5449 6.24401 42.5231 5.98029 42.4418 5.73218C42.3605 5.48407 42.222 5.25856 42.0373 5.07394C41.8527 4.88933 41.6272 4.7508 41.3791 4.6695C41.131 4.58821 40.8673 4.56638 40.6092 4.60595H39.8442C38.5136 4.60595 37.8981 5.22138 37.8981 6.50208V12.6396C37.8471 12.9062 37.8622 13.1811 37.9419 13.4406C38.0217 13.7 38.1638 13.9361 38.3557 14.128C38.5477 14.32 38.7835 14.4619 39.043 14.5416C39.3024 14.6214 39.5776 14.6364 39.8442 14.5855H40.6092Z" fill="white"/>
<path d="M58.9214 34.0124H56.3933C52.2684 34.0124 50.2227 31.9664 50.2227 27.8249V6.3691C50.2227 2.2276 52.2684 0.181641 56.3933 0.181641H58.9214C63.0463 0.181641 65.092 2.2276 65.092 6.3691V27.8249C65.1087 31.9664 63.0629 34.0124 58.9214 34.0124ZM58.1564 4.6559H57.2582C56.9916 4.60493 56.7165 4.62 56.457 4.69975C56.1976 4.77951 55.9617 4.92161 55.7697 5.11354C55.5778 5.30547 55.4357 5.54136 55.356 5.80081C55.2762 6.06025 55.2611 6.33538 55.3121 6.60198V27.5922C55.2611 27.8588 55.2762 28.1337 55.356 28.3932C55.4357 28.6526 55.5778 28.8887 55.7697 29.0807C55.9617 29.2726 56.1976 29.4145 56.457 29.4942C56.7165 29.574 56.9916 29.5891 57.2582 29.5381H58.2062C59.4869 29.5381 60.1023 28.9228 60.1023 27.5922V6.60198C60.069 5.27137 59.4538 4.6559 58.1731 4.6559H58.1564Z" fill="white"/>
<path d="M21.6811 47.5509V50.2287C21.7225 50.5289 21.6938 50.8346 21.5972 51.1219C21.5007 51.4091 21.3389 51.67 21.1246 51.8843C20.9103 52.0986 20.6494 52.2604 20.3622 52.3569C20.0749 52.4535 19.7692 52.4821 19.469 52.4408H19.0033C18.7018 52.485 18.3943 52.4585 18.1049 52.3632C17.8154 52.268 17.5522 52.1066 17.336 51.892C17.1197 51.6774 16.9563 51.4152 16.8588 51.1266C16.7614 50.8379 16.7326 50.5305 16.7746 50.2287V41.7959C16.7355 41.4954 16.7664 41.1899 16.8651 40.9034C16.9638 40.6169 17.1276 40.3571 17.3435 40.1445C17.5594 39.9318 17.8216 39.7721 18.1095 39.6777C18.3975 39.5833 18.7034 39.5569 19.0033 39.6005H19.4857C19.7815 39.559 20.083 39.5867 20.3662 39.6815C20.6495 39.7763 20.9068 39.9357 21.1181 40.1469C21.3293 40.3581 21.4886 40.6154 21.5834 40.8987C21.6782 41.182 21.706 41.4834 21.6644 41.7793V44.1079H20.6665V41.7626C20.6887 41.6046 20.6738 41.4436 20.6231 41.2922C20.5724 41.1409 20.4872 41.0035 20.3744 40.8906C20.2615 40.7777 20.1241 40.6926 19.9728 40.6419C19.8214 40.5912 19.6604 40.5763 19.5023 40.5984H19.0033C18.844 40.5734 18.6809 40.5862 18.5274 40.6356C18.3738 40.685 18.2341 40.7697 18.1193 40.8829C18.0044 40.9961 17.9177 41.1347 17.8661 41.2875C17.8145 41.4403 17.7997 41.603 17.8224 41.7626V50.2785C17.8224 51.0602 18.2049 51.4262 19.0033 51.4262H19.4357C19.5929 51.4514 19.7538 51.4392 19.9054 51.3907C20.0569 51.3422 20.1948 51.2586 20.3082 51.1469C20.4215 51.0351 20.507 50.8983 20.5577 50.7475C20.6084 50.5966 20.6228 50.436 20.5999 50.2785V47.5509H21.6811Z" fill="white"/>
<path d="M27.053 45.3876V39.6992H28.1342V52.3401H27.053V46.4022H24.2589V52.3401H23.1777V39.6992H24.2589V45.3876H27.053Z" fill="white"/>
<path d="M34.904 52.338H33.8561L33.4734 49.9429H30.7789L30.413 52.338H29.3818L31.4776 39.6641H32.7916L34.904 52.338ZM30.9454 49.0115H33.3071L32.1096 41.5102L30.9454 49.0115Z" fill="white"/>
<path d="M39.9769 52.341L37.1328 41.9291V46.9188V52.3575H36.1016V39.7168H37.482L40.2264 49.8462V39.7168H41.2576V52.3575L39.9769 52.341Z" fill="white"/>
<path d="M46.7466 52.341L43.9023 41.9291V46.9188V52.3575H42.8711V39.7168H44.2517L46.9959 49.8462V39.7168H48.0105V52.3575L46.7466 52.341Z" fill="white"/>
<path d="M53.4827 39.6992V40.7138H50.755V45.3876H53.3997V46.4022H50.755V51.3919H53.516V52.4065H49.6738V39.7658L53.4827 39.6992Z" fill="white"/>
<path d="M56.044 39.6992V51.342H58.622V52.3566H54.9629V39.7159L56.044 39.6992Z" fill="white"/>
<path d="M64.3607 48.3487V50.2615C64.3999 50.5599 64.3694 50.8632 64.2716 51.1478C64.1737 51.4323 64.0112 51.6903 63.7969 51.9014C63.5825 52.1126 63.3221 52.271 63.0361 52.3645C62.7501 52.4581 62.4461 52.484 62.1484 52.4403H61.7493C61.4537 52.4841 61.1521 52.4586 60.8681 52.366C60.5841 52.2733 60.3255 52.1161 60.1126 51.9065C59.8998 51.6969 59.7385 51.4407 59.6416 51.1581C59.5446 50.8755 59.5146 50.5741 59.5539 50.278V47.6834H60.6184V50.3113C60.6184 51.0764 61.0175 51.4257 61.7826 51.4257H62.1153C62.8804 51.4257 63.2795 51.0764 63.2795 50.3113V48.382C63.2982 48.1085 63.2414 47.8351 63.1153 47.5916C62.9892 47.3482 62.7985 47.144 62.5642 47.0014L60.7014 45.6043C60.3246 45.3662 60.0202 45.0297 59.8209 44.631C59.6215 44.2323 59.5349 43.7867 59.5705 43.3423V41.7788C59.5277 41.4797 59.5558 41.1749 59.6523 40.8887C59.7489 40.6024 59.9112 40.3429 60.1264 40.1309C60.3416 39.919 60.6036 39.7605 60.8912 39.6682C61.1789 39.576 61.4842 39.5527 61.7826 39.6H62.132C62.4275 39.5562 62.7291 39.5817 63.0132 39.6743C63.2972 39.767 63.5558 39.9242 63.7686 40.1338C63.9815 40.3434 64.1427 40.5996 64.2397 40.8822C64.3367 41.1647 64.3667 41.466 64.3274 41.7621V43.9744H63.2629V41.729C63.2629 40.9639 62.8804 40.5979 62.0987 40.5979H61.8159C61.0341 40.5979 60.6517 40.9639 60.6517 41.729V43.3923C60.6354 43.6678 60.693 43.9425 60.8188 44.1882C60.9445 44.4338 61.1337 44.6415 61.3668 44.7894L63.2296 46.1531C63.5972 46.3845 63.8962 46.7103 64.0951 47.0964C64.2941 47.4826 64.3858 47.9151 64.3607 48.3487Z" fill="white"/>
</svg>
