<svg width="13" height="14" viewBox="0 0 13 14" fill="none" xmlns="http://www.w3.org/2000/svg">
<path d="M5.48294 11.2842C4.44855 11.2842 3.43737 10.9775 2.5773 10.4028C1.71724 9.82813 1.04688 9.01136 0.651035 8.0557C0.255189 7.10004 0.151627 6.04843 0.353428 5.03391C0.555228 4.01939 1.05333 3.08748 1.78476 2.35605C2.51619 1.62462 3.4481 1.12652 4.46262 0.924717C5.47714 0.722916 6.52869 0.826478 7.48435 1.22232C8.44001 1.61817 9.25684 2.28852 9.83152 3.14859C10.4062 4.00866 10.7129 5.01984 10.7129 6.05423C10.7129 7.44132 10.1619 8.7716 9.18113 9.75241C8.20031 10.7332 6.87003 11.2842 5.48294 11.2842ZM5.48294 2.16422C4.71315 2.16224 3.96009 2.38874 3.31906 2.81498C2.67804 3.24121 2.17789 3.84806 1.88193 4.55869C1.58597 5.26932 1.5075 6.05174 1.65647 6.80698C1.80543 7.56222 2.1751 8.25628 2.71872 8.8013C3.26235 9.34633 3.9555 9.71784 4.71036 9.86875C5.46522 10.0197 6.24788 9.94321 6.95926 9.64908C7.67065 9.35495 8.27876 8.85639 8.70664 8.21646C9.13452 7.57654 9.36295 6.82403 9.36295 6.05423C9.36032 5.02508 8.951 4.03869 8.22422 3.31003C7.49743 2.58137 6.51209 2.16949 5.48294 2.16422Z" fill="#EA0029"/>
<path d="M12.2836 13.5251C12.1943 13.5254 12.1058 13.5079 12.0234 13.4735C11.9409 13.4392 11.8662 13.3887 11.8036 13.3251L8.60358 10.1251C8.47097 9.99245 8.39648 9.8126 8.39648 9.62506C8.39648 9.43752 8.47097 9.25767 8.60358 9.12506C8.73618 8.99245 8.91604 8.91797 9.10358 8.91797C9.29111 8.91797 9.47097 8.99245 9.60358 9.12506L12.7236 12.3751C12.7927 12.4387 12.8478 12.5161 12.8855 12.6021C12.9232 12.6882 12.9427 12.7811 12.9427 12.8751C12.9427 12.969 12.9232 13.062 12.8855 13.148C12.8478 13.2341 12.7927 13.3114 12.7236 13.3751C12.5995 13.476 12.4434 13.5292 12.2836 13.5251Z" fill="#EA0029"/>
</svg>
