<svg width="17" height="16" viewBox="0 0 17 16" fill="none" xmlns="http://www.w3.org/2000/svg">
<path d="M1.5636 9.8432C1.47092 9.84597 1.37866 9.82979 1.29248 9.79559C1.2063 9.76139 1.128 9.70991 1.06244 9.64435C0.996876 9.57879 0.945391 9.50055 0.911192 9.41437C0.876994 9.32819 0.860817 9.23593 0.863585 9.14325V6.37323C0.863926 6.24991 0.896391 6.12881 0.957762 6.02185C1.01913 5.91489 1.10727 5.82577 1.21356 5.76324C1.3209 5.7046 1.44129 5.67383 1.5636 5.67383C1.68591 5.67383 1.80624 5.7046 1.91357 5.76324C2.01986 5.82577 2.10806 5.91489 2.16943 6.02185C2.2308 6.12881 2.26321 6.24991 2.26355 6.37323V9.19324C2.26407 9.3795 2.19243 9.55871 2.0636 9.69324C1.99759 9.75793 1.91937 9.80893 1.83356 9.84326C1.74774 9.87759 1.65602 9.89457 1.5636 9.89325V9.8432Z" fill="#EA0029"/>
<path d="M5.0829 12.6636C4.89501 12.6626 4.71521 12.5871 4.5829 12.4537C4.5182 12.3877 4.46726 12.3095 4.43293 12.2236C4.39861 12.1378 4.38156 12.0461 4.38288 11.9537V3.51367C4.38323 3.39036 4.41569 3.26925 4.47706 3.16229C4.53843 3.05533 4.62663 2.96621 4.73292 2.90369C4.83864 2.84022 4.95959 2.80664 5.0829 2.80664C5.2062 2.80664 5.32722 2.84022 5.43293 2.90369C5.53922 2.96621 5.62736 3.05533 5.68873 3.16229C5.7501 3.26925 5.78257 3.39036 5.78291 3.51367V11.9537C5.78423 12.0461 5.76725 12.1378 5.73292 12.2236C5.69859 12.3095 5.64759 12.3877 5.5829 12.4537C5.44938 12.5853 5.27035 12.6604 5.0829 12.6636Z" fill="#EA0029"/>
<path d="M15.6335 9.84314C15.4503 9.84317 15.2744 9.77141 15.1436 9.64319C15.0119 9.50967 14.9368 9.33064 14.9336 9.14319V6.37317C14.9358 6.25024 14.9691 6.12989 15.0303 6.02325C15.0915 5.91662 15.1786 5.82716 15.2836 5.76318C15.3927 5.70454 15.5147 5.67383 15.6385 5.67383C15.7624 5.67383 15.8845 5.70454 15.9936 5.76318C16.0986 5.82716 16.1857 5.91662 16.2469 6.02325C16.3081 6.12989 16.3413 6.25024 16.3436 6.37317V9.19318C16.3404 9.38063 16.2652 9.55966 16.1335 9.69318C16.0675 9.75787 15.9894 9.80887 15.9036 9.8432C15.8177 9.87753 15.726 9.89451 15.6335 9.89319V9.84314Z" fill="#EA0029"/>
<path d="M12.1231 12.6633C11.9356 12.6607 11.7565 12.5851 11.6239 12.4525C11.4913 12.3199 11.4157 12.1409 11.4131 11.9534V3.51337C11.4153 3.39044 11.4486 3.27009 11.5098 3.16345C11.571 3.05681 11.6581 2.96736 11.7631 2.90338C11.8707 2.84007 11.9933 2.80664 12.1181 2.80664C12.2429 2.80664 12.3655 2.84007 12.4731 2.90338C12.5794 2.96591 12.6676 3.05503 12.7289 3.16199C12.7903 3.26895 12.8227 3.39005 12.8231 3.51337V11.9534C12.8248 12.0467 12.8071 12.1394 12.7709 12.2255C12.7348 12.3116 12.681 12.3893 12.6131 12.4534C12.4832 12.5844 12.3075 12.6596 12.1231 12.6633Z" fill="#EA0029"/>
<path d="M8.6026 15.4738C8.51018 15.4751 8.4184 15.4581 8.33258 15.4238C8.24676 15.3894 8.16861 15.3385 8.1026 15.2738C7.97099 15.1403 7.89578 14.9613 7.89258 14.7738V0.693788C7.89365 0.570766 7.92761 0.450284 7.99091 0.344789C8.0542 0.239294 8.14458 0.152586 8.25262 0.0937518C8.35858 0.0325707 8.47872 0.000276941 8.60107 1.77099e-06C8.72343 -0.000273399 8.84366 0.031522 8.94989 0.0922259C9.05612 0.15293 9.1446 0.240398 9.20648 0.345949C9.26836 0.4515 9.30153 0.571441 9.30261 0.693788V14.7738C9.30313 14.9601 9.23143 15.1393 9.1026 15.2738C8.96697 15.4009 8.78847 15.4723 8.6026 15.4738Z" fill="#EA0029"/>
</svg>
