<svg width="18" height="20" viewBox="0 0 18 20" fill="none" xmlns="http://www.w3.org/2000/svg">
<path d="M10.0732 0.144531C9.89684 0.154371 9.73156 0.233407 9.61322 0.364502C9.52574 0.461842 9.46914 0.583023 9.45068 0.712585C9.43222 0.842148 9.45271 0.974263 9.50952 1.09216C9.56632 1.21006 9.65688 1.30839 9.76971 1.37469C9.88254 1.441 10.0125 1.47229 10.1432 1.46454C10.8942 1.46322 11.6382 1.61029 12.3322 1.8974C13.0262 2.18451 13.6566 2.60597 14.1873 3.13751C14.7179 3.66906 15.1382 4.30023 15.4241 4.99475C15.71 5.68927 15.8558 6.43345 15.8532 7.18451C15.8556 7.35941 15.9234 7.52712 16.0432 7.65454C16.104 7.71789 16.177 7.76824 16.2577 7.80261C16.3385 7.83699 16.4254 7.85462 16.5132 7.85449C16.6011 7.85582 16.6885 7.83871 16.7694 7.80426C16.8504 7.76981 16.9232 7.71885 16.9832 7.65454C17.103 7.52712 17.1708 7.35941 17.1732 7.18451C17.1732 5.32799 16.4357 3.5475 15.1229 2.23474C13.8102 0.921987 12.0297 0.184509 10.1732 0.184509L10.0732 0.144531ZM3.7832 3.66449C3.66761 3.66477 3.55413 3.69544 3.4541 3.75336C3.35407 3.81127 3.27099 3.89441 3.21319 3.99451C2.49105 5.25093 2.15267 6.69133 2.23974 8.13788C2.32682 9.58442 2.83554 10.9738 3.70318 12.1345L0.103207 18.9645C0.0381127 19.0658 0.00241803 19.1832 0.000118498 19.3035C-0.00218103 19.4239 0.0290279 19.5425 0.0902064 19.6462C0.151385 19.7499 0.24014 19.8346 0.346615 19.8908C0.45309 19.947 0.573044 19.9725 0.693173 19.9645H9.48321C9.59555 19.9666 9.70644 19.9389 9.80474 19.8845C9.90305 19.8301 9.98529 19.7508 10.0432 19.6545C10.0993 19.5554 10.1288 19.4434 10.1288 19.3295C10.1288 19.2156 10.0993 19.1037 10.0432 19.0045L7.89319 14.9345C9.73115 15.3735 11.6675 15.0908 13.3032 14.1445C13.3913 14.0951 13.4668 14.0261 13.524 13.9429C13.5813 13.8597 13.6186 13.7644 13.6332 13.6645C13.648 13.5628 13.6386 13.459 13.6056 13.3616C13.5726 13.2643 13.5169 13.1762 13.4432 13.1045L9.31323 8.96454L10.3132 7.90454C10.3794 7.84544 10.4324 7.77301 10.4687 7.69202C10.505 7.61102 10.5237 7.52326 10.5237 7.43451C10.5237 7.34576 10.505 7.258 10.4687 7.177C10.4324 7.09601 10.3794 7.02364 10.3132 6.96454C10.252 6.8997 10.1772 6.84905 10.0943 6.81622C10.0114 6.7834 9.92222 6.76919 9.83319 6.77454C9.66369 6.78359 9.50347 6.85474 9.38317 6.97449L8.32318 8.03448L4.18322 3.89453C4.0569 3.77298 3.88849 3.70491 3.71319 3.70453L3.7832 3.66449ZM10.9732 3.66449C10.7969 3.67433 10.6315 3.75343 10.5132 3.88452C10.454 3.94897 10.4085 4.0247 10.3793 4.10718C10.3501 4.18966 10.3378 4.27717 10.3432 4.3645C10.3556 4.5373 10.4345 4.6986 10.5632 4.81451C10.6262 4.87293 10.7002 4.91806 10.7809 4.94727C10.8617 4.97647 10.9475 4.98914 11.0332 4.9845C11.2069 4.98317 11.3792 5.01641 11.5399 5.08228C11.7007 5.14814 11.8467 5.24532 11.9695 5.36816C12.0924 5.491 12.1896 5.63704 12.2554 5.79779C12.3213 5.95854 12.3545 6.13079 12.3532 6.3045C12.3532 6.48048 12.4224 6.64941 12.5459 6.77478C12.6694 6.90015 12.8372 6.97186 13.0132 6.97449C13.1011 6.97581 13.1885 6.9587 13.2694 6.92426C13.3504 6.88981 13.4232 6.83884 13.4832 6.77454C13.5457 6.71363 13.5949 6.64035 13.6276 6.55945C13.6603 6.47854 13.6758 6.39173 13.6732 6.3045C13.6706 5.60514 13.3916 4.9352 12.897 4.44067C12.4025 3.94615 11.7326 3.66712 11.0332 3.66449H10.9732ZM3.9732 5.47449L11.8632 13.3645C10.7603 13.8056 9.55215 13.9134 8.38855 13.6745C7.22494 13.4356 6.15702 12.8606 5.31707 12.0207C4.47712 11.1807 3.90208 10.1128 3.6632 8.94916C3.42433 7.78555 3.5321 6.57742 3.9732 5.47449V5.47449ZM4.63318 13.1945C5.06455 13.5838 5.54137 13.9195 6.05322 14.1945L8.38317 18.6245H1.77319L4.63318 13.1945Z" fill="#EA0029"/>
</svg>
