<svg width="17" height="16" viewBox="0 0 17 16" fill="none" xmlns="http://www.w3.org/2000/svg">
<path d="M14.7933 0.0449545H2.4133C2.20938 0.043626 2.00723 0.0828257 1.81858 0.16025C1.62992 0.237674 1.4585 0.351808 1.3143 0.496004C1.17011 0.6402 1.05603 0.811561 0.978609 1.00022C0.901185 1.18887 0.861985 1.39102 0.863314 1.59494V13.9749C0.864437 14.3862 1.02588 14.7809 1.31333 15.075C1.45773 15.2191 1.62931 15.3331 1.81815 15.4104C2.00698 15.4876 2.20928 15.5266 2.4133 15.525H14.7933C15.205 15.526 15.6004 15.3643 15.8933 15.075C16.1807 14.7809 16.3422 14.3862 16.3433 13.9749V1.59494C16.3449 1.39092 16.3059 1.18862 16.2287 0.999789C16.1514 0.810953 16.0374 0.639369 15.8933 0.494967C15.6004 0.205699 15.205 0.0439344 14.7933 0.0449545ZM15.3133 13.9749C15.3147 14.0436 15.3021 14.1119 15.2765 14.1756C15.2508 14.2393 15.2126 14.2971 15.164 14.3457C15.1155 14.3942 15.0576 14.4325 14.9939 14.4582C14.9302 14.4838 14.862 14.4963 14.7933 14.495H2.4133C2.27573 14.4921 2.14402 14.4387 2.04331 14.3449C1.9947 14.2965 1.95635 14.2388 1.93057 14.1753C1.9048 14.1117 1.89211 14.0435 1.89328 13.9749V1.59494C1.89192 1.52628 1.90444 1.45808 1.93009 1.39438C1.95574 1.33068 1.99401 1.27284 2.04257 1.22428C2.09113 1.17572 2.14898 1.13744 2.21268 1.11179C2.27638 1.08614 2.34464 1.07362 2.4133 1.07498H14.7933C14.8619 1.07382 14.93 1.0865 14.9936 1.11228C15.0571 1.13805 15.1149 1.17635 15.1633 1.22495C15.2571 1.32566 15.3105 1.45737 15.3133 1.59494V13.9749Z" fill="#EA0029"/>
<path d="M5.50297 2.10362H3.44291C3.37425 2.10226 3.30605 2.11477 3.24235 2.14042C3.17864 2.16607 3.1208 2.20435 3.07224 2.25291C3.02368 2.30147 2.98541 2.35931 2.95976 2.42301C2.9341 2.48672 2.92159 2.55497 2.92295 2.62364V4.68363C2.92197 4.77506 2.94557 4.86509 2.99131 4.94425C3.03705 5.02342 3.10327 5.08883 3.18296 5.13365C3.26233 5.17833 3.35183 5.20182 3.44291 5.20182C3.53399 5.20182 3.62355 5.17833 3.70292 5.13365C3.78148 5.08836 3.84626 5.02254 3.8903 4.94328C3.93434 4.86401 3.95597 4.77426 3.95292 4.68363V3.13365H5.50297C5.59304 3.13365 5.68162 3.11068 5.76035 3.06693C5.83909 3.02319 5.90534 2.96012 5.95292 2.88364C5.9976 2.80427 6.0211 2.71472 6.0211 2.62364C6.0211 2.53255 5.9976 2.443 5.95292 2.36363C5.90811 2.28393 5.8427 2.21778 5.76353 2.17204C5.68436 2.12629 5.5944 2.10264 5.50297 2.10362Z" fill="#EA0029"/>
<path d="M13.723 10.3735C13.6544 10.3723 13.5863 10.385 13.5227 10.4108C13.4591 10.4366 13.4014 10.4749 13.353 10.5235C13.2607 10.6212 13.2074 10.7492 13.203 10.8835V12.4335H11.723C11.6333 12.4343 11.5453 12.4588 11.4681 12.5044C11.3908 12.5501 11.327 12.6153 11.283 12.6935C11.2383 12.7729 11.2148 12.8624 11.2148 12.9535C11.2148 13.0446 11.2383 13.1342 11.283 13.2135C11.3275 13.2906 11.3917 13.3543 11.4691 13.3983C11.5464 13.4422 11.6341 13.4648 11.723 13.4635H13.723C13.8583 13.4635 13.988 13.4098 14.0836 13.3141C14.1793 13.2185 14.233 13.0888 14.233 12.9535V10.8735C14.2327 10.7384 14.1787 10.6089 14.083 10.5135C14.036 10.4665 13.9797 10.4298 13.9177 10.4057C13.8558 10.3816 13.7895 10.3706 13.723 10.3735Z" fill="#EA0029"/>
</svg>
