<svg width="214" height="77" viewBox="0 0 214 77" fill="none" xmlns="http://www.w3.org/2000/svg">
<path fill-rule="evenodd" clip-rule="evenodd" d="M154.884 0.129629V6.82053C172.151 6.82053 189.418 6.82053 206.901 6.82053V69.8881H154.884V76.32H213.16V0H210.441C191.749 0 173.187 0 154.323 0" fill="white"/>
<path fill-rule="evenodd" clip-rule="evenodd" d="M154.885 44.4635C154.885 45.9299 155.118 47.387 155.575 48.7803C155.788 49.3966 156.063 49.9895 156.396 50.55C157.281 52.1599 158.657 53.4452 160.324 54.2191C162.077 54.9762 163.99 55.2878 165.892 55.1258H166.756V49.0822C166.756 48.8232 166.756 49.0822 166.367 49.0822C165.75 49.1489 165.128 49.1489 164.511 49.0822L163.561 48.6938C161.921 47.8737 161.662 45.8015 161.662 43.7295V35.096H169.907C169.907 35.4413 175.778 50.5931 176.598 52.9242L177.634 55.5144H184.929L188.642 45.4995C189.764 42.6073 190.973 39.1539 192.095 36.348L194.771 29.3117V28.9663H188.124C187.822 28.9663 187.735 29.657 187.562 30.0455L184.713 38.679C184.713 38.679 184.713 39.0675 184.498 39.2402L183.85 41.0963L183.03 43.5569C182.771 44.4203 182.469 45.2405 182.21 46.0607L181.26 48.521C181.26 48.0893 175.821 32.0744 175.173 30.0887C175.173 29.657 174.871 28.9663 174.612 28.9663H161.662V22.2754H154.885V44.4635Z" fill="white"/>
<path fill-rule="evenodd" clip-rule="evenodd" d="M56.1178 41.1848C56.1163 44.1402 57.0368 47.0223 58.751 49.4297C60.0678 51.2659 61.8174 52.7487 63.8447 53.7464C66.6367 55.0331 69.7623 55.4106 72.7804 54.8256C73.5054 54.7018 74.2147 54.499 74.8956 54.2212C77.3557 53.4185 79.4709 51.8055 80.8959 49.6455C81.6712 48.5482 82.2416 47.3199 82.5794 46.0195H75.2409C74.7619 46.9159 74.0449 47.6627 73.1689 48.1779C72.1226 48.713 70.9754 49.0217 69.8019 49.0843C69.5 49.1047 69.1972 49.1047 68.8954 49.0843C67.5064 48.93 66.1968 48.358 65.1398 47.4439C64.9228 47.3067 64.7327 47.1312 64.5786 46.9259C64.3972 46.7437 64.2378 46.5411 64.1038 46.3217C64.8376 45.9332 70.8379 43.5157 72.2192 42.9113L79.2124 39.976L80.4211 39.458L82.7521 38.4652C82.6687 37.6484 82.4651 36.8484 82.1477 36.0911C81.3372 33.6826 79.8359 31.5657 77.831 30.0043C75.611 28.3337 72.9247 27.3981 70.1472 27.328C67.937 27.2053 65.7336 27.6668 63.7584 28.6661C62.3074 29.3824 60.9926 30.3468 59.8733 31.5153L59.0963 32.4217C58.3153 33.3993 57.6625 34.4728 57.1538 35.616C56.4178 37.3973 56.0225 39.301 55.9883 41.228M62.377 40.7962C62.4612 40.0093 62.6055 39.2301 62.8087 38.4652C63.1307 37.3068 63.7442 36.2502 64.5905 35.3963C65.4369 34.5424 66.488 33.9196 67.6435 33.5873C68.0309 33.5462 68.4216 33.5462 68.809 33.5873C69.7493 33.481 70.7015 33.5677 71.607 33.8423C72.5126 34.117 73.3526 34.5737 74.0755 35.1845C74.3457 35.3751 74.5674 35.6264 74.7229 35.9182L73.1689 36.5226L71.6149 37.1703L70.881 37.5154L70.1041 37.8176L65.4851 39.7602C64.471 40.1561 63.4329 40.4877 62.377 40.753V40.7962Z" fill="white"/>
<path fill-rule="evenodd" clip-rule="evenodd" d="M108.955 41.2243C108.929 41.4826 108.929 41.7429 108.955 42.0013C108.942 42.7576 109.029 43.5121 109.214 44.2458C109.557 45.9305 110.232 47.5301 111.199 48.9512C112.373 50.7744 113.973 52.2849 115.861 53.3528C117.748 54.4206 119.867 55.0135 122.034 55.0809C123.925 55.1577 125.814 54.8795 127.603 54.2607L128.941 53.6563C131.439 52.4834 133.442 50.4653 134.596 47.9584C134.909 47.3433 135.141 46.6903 135.287 46.0158H127.991C127.514 46.9135 126.797 47.6608 125.919 48.1742C124.881 48.729 123.729 49.0389 122.552 49.0805C121.942 49.0729 121.334 49.0006 120.739 48.8648C120.197 48.7311 119.675 48.5279 119.185 48.2603C118.262 47.7916 117.464 47.1113 116.854 46.2748L135.502 38.4183C135.403 37.6088 135.214 36.8127 134.941 36.0441C134.682 35.3103 134.337 34.6626 134.035 33.9719C133.384 32.7252 132.523 31.6008 131.488 30.6482C130.431 29.6781 129.22 28.8902 127.905 28.317C125.351 27.2225 122.522 26.9421 119.803 27.5137C117.084 28.0853 114.607 29.4814 112.71 31.5116C110.976 33.3785 109.769 35.6727 109.214 38.1593C109.009 39.1688 108.893 40.1945 108.868 41.2243M115.3 40.7493C115.297 39.5011 115.598 38.2711 116.177 37.1655C116.756 36.0598 117.596 35.112 118.624 34.4038C118.917 34.215 119.219 34.0421 119.531 33.8858C120.741 33.3462 122.079 33.1572 123.391 33.3404C124.704 33.5235 125.939 34.0714 126.955 34.9218C126.955 34.9218 127.516 35.3102 127.603 35.6555L116.12 40.447C115.865 40.592 115.588 40.6942 115.3 40.7493Z" fill="white"/>
<path fill-rule="evenodd" clip-rule="evenodd" d="M12.9509 40.9255C12.8708 43.8214 13.6521 46.6757 15.1956 49.1272L16.6633 50.9833C17.8302 52.269 19.239 53.3121 20.8093 54.0528C22.3796 54.7935 24.0805 55.2173 25.8148 55.3001C27.0964 55.3753 28.3815 55.2294 29.6135 54.8685L30.8654 54.5231C33.4417 53.562 35.658 51.8283 37.211 49.559C38.1317 48.2482 38.8182 46.7876 39.2399 45.2422C40.1119 41.794 39.7135 38.147 38.1175 34.9684L37.2542 33.4574L35.7865 31.6444C34.9894 30.7969 34.0733 30.0698 33.067 29.486C30.8525 28.1292 28.2811 27.4695 25.6869 27.5927C23.0927 27.7159 20.5955 28.616 18.5195 30.1766C17.8764 30.6476 17.2703 31.1673 16.7065 31.7308C16.5784 31.8638 16.4628 32.0082 16.3611 32.1624C14.2069 34.7137 13.002 37.9319 12.9509 41.2706M26.2896 49.1704C24.92 49.176 23.5915 48.7027 22.5341 47.8322C21.5427 47.0583 20.7816 46.0284 20.3326 44.8536C19.5986 42.7725 19.5986 40.5029 20.3326 38.4217C20.7702 37.1827 21.5745 36.1062 22.6385 35.3351C23.7025 34.5641 24.976 34.1351 26.2896 34.105C27.2033 34.1233 28.1019 34.3414 28.9222 34.7442C29.7425 35.1469 30.4647 35.7243 31.0381 36.4359L31.7288 37.5151C31.9577 37.9123 32.1457 38.3319 32.2899 38.7671C32.7011 39.9477 32.8673 41.1996 32.7782 42.4465C32.6891 43.6934 32.3467 44.9091 31.7719 46.0192C31.2484 47.0241 30.462 47.8681 29.4965 48.4611C28.531 49.0541 27.4226 49.3737 26.2896 49.3861" fill="white"/>
<path fill-rule="evenodd" clip-rule="evenodd" d="M92.3777 54.4792H99.2846C99.5867 54.4792 99.9321 53.1843 100.018 52.9253L103.126 44.6372C103.601 43.4717 103.947 42.3923 104.421 41.27L109.084 28.8377C109.172 28.5401 109.288 28.2514 109.429 27.9746H102.393L96.0039 46.9249C96.0039 47.1839 96.0038 47.3567 95.7448 47.5293L89.2265 27.9746H82.0176C82.1659 28.2328 82.2819 28.5083 82.3629 28.7948L83.3126 31.2551C84.5645 34.5358 85.7731 37.9895 87.0682 41.227L91.9461 54.1773C91.9461 54.1773 91.9461 54.5224 92.2482 54.5224" fill="white"/>
<path fill-rule="evenodd" clip-rule="evenodd" d="M0 28.6635V54.564H6.86361V34.1459H11.6121V28.0591H6.86361C6.86361 25.1237 8.2018 23.354 11.1804 23.354H11.9574V16.8789H10.576H9.19469C6.87116 17.0447 4.68961 18.0585 3.06492 19.7278C0.970154 22.2206 -0.108773 25.411 0.0431437 28.6635" fill="white"/>
<path fill-rule="evenodd" clip-rule="evenodd" d="M138.136 39.764V54.2682V54.484H144.827V39.505C144.772 38.3654 145.026 37.232 145.561 36.2243L145.82 35.7927C145.931 35.6715 146.032 35.5415 146.122 35.4041C147.145 34.3784 148.517 33.777 149.964 33.7205C151.086 33.7205 151.561 33.7205 152.079 33.7205V27.2886C151.432 27.2886 150.525 27.2886 149.446 27.2886C146.972 27.2154 144.534 27.8927 142.453 29.2312C141.859 29.6331 141.31 30.0961 140.813 30.6125C140.573 30.8666 140.357 31.141 140.165 31.4327C139.939 31.7028 139.737 31.9916 139.561 32.2961C138.318 34.5357 137.72 37.0757 137.834 39.6344" fill="white"/>
<path fill-rule="evenodd" clip-rule="evenodd" d="M41.7422 38.7657V54.4355H48.6058V38.9815C48.5943 38.294 48.7199 37.611 48.9751 36.9725C49.2302 36.334 49.61 35.7527 50.0922 35.2625C50.5743 34.7723 51.1492 34.3832 51.7834 34.1175C52.4176 33.8518 53.0984 33.7148 53.7859 33.7149C54.4613 33.6648 55.1394 33.6648 55.8148 33.7149V27.283H54.8651C51.9723 26.9524 49.0524 27.6063 46.5769 29.1392L44.9797 30.4344L44.3323 31.125C42.6912 33.3027 41.7978 35.9524 41.7853 38.6793" fill="white"/>
</svg>
