<svg width="75" height="53" viewBox="0 0 75 53" fill="none" xmlns="http://www.w3.org/2000/svg">
<path d="M23.3019 39.7363V40.7675H20.6408V45.5078H23.2188V46.539H20.6408V52.5435H19.543V39.7363H23.3019Z" fill="white"/>
<path d="M29.6058 50.3978C29.6475 50.704 29.6176 51.0156 29.5185 51.3082C29.4193 51.6009 29.2535 51.8666 29.0342 52.0842C28.8149 52.3019 28.5481 52.4656 28.2548 52.5626C27.9614 52.6596 27.6495 52.6872 27.3437 52.6432H26.878C26.5722 52.6872 26.2602 52.6596 25.9669 52.5626C25.6735 52.4656 25.4067 52.3019 25.1874 52.0842C24.9681 51.8666 24.8024 51.6009 24.7032 51.3082C24.604 51.0156 24.5742 50.704 24.616 50.3978V39.7363H25.7137V50.4311C25.6911 50.5952 25.7071 50.7621 25.7604 50.9188C25.8137 51.0756 25.9029 51.2178 26.0208 51.334C26.1387 51.4503 26.282 51.5375 26.4394 51.5886C26.5969 51.6398 26.7641 51.6535 26.9278 51.6286H27.3105C27.4729 51.6506 27.6382 51.6348 27.7935 51.5823C27.9488 51.5299 28.0899 51.4424 28.2058 51.3265C28.3217 51.2106 28.4092 51.0695 28.4617 50.9142C28.5141 50.7588 28.5299 50.5936 28.508 50.4311V39.7363H29.6058V50.3978Z" fill="white"/>
<path d="M32.3497 39.7363V51.5123H34.9776V52.5435H31.252V39.7363H32.3497Z" fill="white"/>
<path d="M37.2902 39.7363V51.5123H39.9015V52.5435H36.1924V39.7363H37.2902Z" fill="white"/>
<path d="M47.2366 45.4913V39.7363H48.3843V52.5435H47.2866V46.5225H44.4757V52.5435H43.3945V39.7363H44.4922V45.4913H47.2366Z" fill="white"/>
<path d="M50.0469 39.7334H52.2922C52.6662 39.6733 53.0492 39.703 53.4096 39.8197C53.77 39.9363 54.0976 40.1367 54.3654 40.4046C54.6333 40.6725 54.8338 41.0001 54.9504 41.3605C55.0671 41.7209 55.0967 42.1038 55.0366 42.4778V49.8294C55.093 50.2006 55.0614 50.5797 54.9443 50.9364C54.8271 51.2931 54.6278 51.6172 54.3624 51.8827C54.0969 52.1482 53.7727 52.3477 53.416 52.4648C53.0593 52.5819 52.68 52.6136 52.3089 52.5572H50.0469V39.7334ZM51.1446 51.5093H52.2424C52.4679 51.5395 52.6974 51.5171 52.9129 51.4442C53.1284 51.3712 53.3242 51.2495 53.4851 51.0886C53.6459 50.9278 53.7676 50.732 53.8406 50.5165C53.9135 50.301 53.9358 50.0716 53.9056 49.8461V42.4778C53.9358 42.2522 53.9135 42.0229 53.8406 41.8074C53.7676 41.5918 53.6459 41.3959 53.4851 41.235C53.3242 41.0741 53.1284 40.9526 52.9129 40.8797C52.6974 40.8068 52.4679 40.7844 52.2424 40.8145H51.1446V51.5093Z" fill="white"/>
<path d="M10.1293 14.4708V0.283203H15.2853V33.9641H10.1293V19.1944H5.1395V34.014H0V0.333149H5.1395V14.5205L10.1293 14.4708Z" fill="white"/>
<path d="M22.9035 33.9612H18.0469V27.5078H22.9035V33.9612Z" fill="white"/>
<path d="M33.4156 14.3879C34.2653 13.5272 34.7482 12.3707 34.7629 11.1613V6.48747C34.7629 5.14023 34.1308 4.5083 32.8834 4.5083H32.2513C30.954 4.5083 30.3387 5.14023 30.3387 6.48747V12.5417H25.3489V6.33783C25.3489 2.14643 27.4279 0.0839844 31.5695 0.0839844H33.5819C37.7234 0.0839844 39.7859 2.14643 39.7859 6.33783V10.9948C39.8374 13.4688 38.9041 15.8619 37.1913 17.6478L31.7524 24.484C31.2848 24.9784 30.9205 25.561 30.6806 26.1978C30.4407 26.8346 30.3301 27.513 30.3552 28.193V29.3905H39.7859V34.0641H25.2657V28.0101C25.2595 25.535 26.2065 23.1525 27.9103 21.3571L33.4156 14.3879Z" fill="white"/>
<path d="M47.4861 14.6201C48.7082 13.9464 50.0824 13.5971 51.4779 13.6055H51.7108C52.4492 13.5622 53.1883 13.6783 53.8779 13.946C54.5676 14.2136 55.1916 14.6266 55.7075 15.1567C56.2234 15.6868 56.6192 16.3217 56.868 17.0183C57.1169 17.7149 57.2129 18.457 57.1496 19.194V27.9927C57.1496 32.1841 55.0705 34.2465 50.8958 34.2465H48.6338C44.4424 34.2465 42.3633 32.1841 42.3633 27.9927V6.25385C42.3633 2.06245 44.4424 0 48.6338 0H50.8458C55.0206 0 56.9999 1.96276 56.9999 6.15416V10.7778H52.0101V6.48673C52.0101 5.13949 51.3781 4.50755 50.1306 4.50755H49.3157C48.0682 4.50755 47.4362 5.13949 47.4362 6.48673L47.4861 14.6201ZM47.4861 27.7598C47.4861 29.107 48.1182 29.7223 49.3656 29.7223H50.2304C51.4779 29.7223 52.1099 29.107 52.1099 27.7598V20.2086C52.1099 18.8114 51.5278 18.1794 50.1306 18.1794C49.2232 18.1863 48.3256 18.3669 47.4861 18.7116V27.7598Z" fill="white"/>
<path d="M74.4802 27.9948C74.4802 32.1862 72.4178 34.2487 68.2763 34.2487H66.114C61.9725 34.2487 59.9434 32.236 59.9434 28.0446V22.0735H64.9331V27.7619C64.9331 29.1092 65.5651 29.7245 66.8624 29.7245H67.4945C68.7918 29.7245 69.4073 29.1092 69.4073 27.7619V19.0963C69.4073 17.6991 68.8917 16.9841 67.6276 16.9841C67.0451 17.0197 66.4785 17.188 65.9711 17.4762C65.4637 17.7645 65.029 18.1652 64.7002 18.6473H60.1762V0.351562H74.0311V5.0252H64.9331V14.0568C66.1562 12.9494 67.7578 12.354 69.4073 12.3935C70.1192 12.3685 70.8282 12.4962 71.4866 12.7681C72.1451 13.04 72.7376 13.4497 73.2245 13.9697C73.7114 14.4896 74.0814 15.1079 74.3094 15.7827C74.5375 16.4576 74.6183 17.1734 74.5467 17.8821L74.4802 27.9948Z" fill="white"/>
</svg>
