<svg width="153" height="36" viewBox="0 0 153 36" fill="none" xmlns="http://www.w3.org/2000/svg">
<path d="M36.2708 0V24.6163H26.4799V15.7989H9.65182V24.6163H0V0H9.65182V10.0691H26.4799V0H36.2708Z" fill="black"/>
<path d="M67.3126 6.25656H40.332V0.109375H70.1498C71.8664 0.116695 73.5105 0.801895 74.7243 2.01572C75.9381 3.22954 76.6233 4.87374 76.6306 6.59033V18.2727C76.6306 19.1225 76.4628 19.9639 76.1368 20.7486C75.8107 21.5333 75.3329 22.246 74.7307 22.8456C74.1286 23.4452 73.4139 23.92 72.6277 24.2426C71.8416 24.5653 70.9995 24.7295 70.1498 24.7258H40.3598V10.1784H49.6778V18.5229H67.2847L67.3126 6.25656Z" fill="black"/>
<path d="M124.417 1.88993C125.025 2.48842 125.505 3.20344 125.83 3.99202C126.155 4.7806 126.318 5.62661 126.308 6.47948V24.6426H116.963V6.25691H108.09V24.754H98.7994V6.25691H89.8986V24.754H80.5527V0.109728H119.855C120.704 0.100732 121.546 0.26375 122.33 0.588818C123.114 0.913886 123.824 1.39425 124.417 2.00113" fill="black"/>
<path d="M139.882 15.7989V24.6163H130.23V0H139.882V10.0691L139.854 13.3791L139.882 15.7989Z" fill="black"/>
<path d="M0.612305 30.7324H1.36332V32.457H3.33817V30.7324H4.11699V35.0716H3.33817V33.1245H1.36332V35.0716H0.612305V30.7324Z" fill="black"/>
<path d="M6.20312 30.7324H5.45215V35.0716H6.20312V30.7324Z" fill="black"/>
<path d="M11.3495 35.0726H10.8766L10.7375 34.5719C10.5912 34.7714 10.3978 34.9317 10.1746 35.0384C9.95135 35.1452 9.70523 35.1952 9.45805 35.1839C8.90011 35.122 8.3846 34.8564 8.01017 34.4381C7.63575 34.0199 7.42871 33.4784 7.42871 32.917C7.42871 32.3556 7.63575 31.814 8.01017 31.3957C8.3846 30.9774 8.90011 30.712 9.45805 30.6501C9.89677 30.6032 10.3362 30.732 10.6802 31.0083C11.0242 31.2845 11.2449 31.6857 11.2939 32.1242H10.5706C10.5234 31.8689 10.3839 31.6399 10.1787 31.4809C9.97353 31.3219 9.71703 31.2439 9.45805 31.2619C8.51234 31.2619 8.1229 32.0964 8.1229 32.9031C8.1229 33.7097 8.51234 34.5719 9.45805 34.5719C9.61831 34.5845 9.77938 34.5622 9.93018 34.5066C10.081 34.4509 10.2179 34.3632 10.3316 34.2495C10.4453 34.1359 10.533 33.9988 10.5886 33.848C10.6443 33.6972 10.6666 33.5361 10.6541 33.3759H9.51365V32.7917H11.3495V35.0726Z" fill="black"/>
<path d="M12.5723 30.7324H13.3232V32.457H15.2981V30.7324H16.0491V35.0716H15.2981V33.1245H13.3232V35.0716H12.5723V30.7324Z" fill="black"/>
<path d="M19.5264 30.7324H21.3065C22.6416 30.7324 23.2257 31.706 23.2257 32.9021C23.2257 34.0981 22.6416 35.0716 21.3065 35.0716H19.5264V30.7324ZM20.2773 34.4597H21.084C22.2801 34.4597 22.5304 33.7922 22.5304 32.9021C22.5304 32.012 22.2801 31.3723 21.084 31.3723H20.333L20.2773 34.4597Z" fill="black"/>
<path d="M24.3105 30.7324H27.4258V31.4H25.0615V32.5404H27.2589V33.1524H25.0615V34.4318H27.4815V35.0716H24.3105V30.7324Z" fill="black"/>
<path d="M28.5664 30.7324H31.5426V31.4H29.3174V32.5404H31.2923V33.1524H29.3174V35.0716H28.5664V30.7324Z" fill="black"/>
<path d="M33.3232 30.7324H32.5723V35.0716H33.3232V30.7324Z" fill="black"/>
<path d="M34.6582 30.7324H35.4648L37.4397 33.9312H37.4675V30.7324H38.1907V35.0716H37.3841L35.4092 31.9007H35.3814V35.0716H34.6582V30.7324Z" fill="black"/>
<path d="M40.2491 30.7324H39.498V35.0716H40.2491V30.7324Z" fill="black"/>
<path d="M41.1943 30.7324H44.7269V31.4H43.3361V35.0716H42.5851V31.4H41.1943V30.7324Z" fill="black"/>
<path d="M46.3955 30.7324H45.6445V35.0716H46.3955V30.7324Z" fill="black"/>
<path d="M51.6802 32.9034C51.6478 33.3073 51.4985 33.6929 51.2504 34.0134C51.0024 34.3338 50.6664 34.5751 50.2835 34.7077C49.9006 34.8403 49.4875 34.8585 49.0944 34.7602C48.7013 34.6618 48.3454 34.4511 48.0701 34.1538C47.7948 33.8564 47.612 33.4854 47.5441 33.0859C47.4762 32.6864 47.5262 32.2759 47.6878 31.9043C47.8495 31.5328 48.1158 31.2164 48.4543 30.9937C48.7929 30.771 49.1889 30.6517 49.5941 30.6504C49.8827 30.6495 50.1683 30.7085 50.4329 30.8236C50.6976 30.9387 50.9355 31.1074 51.1315 31.3191C51.3276 31.5309 51.4775 31.781 51.572 32.0537C51.6664 32.3264 51.7033 32.6158 51.6802 32.9034ZM48.2868 32.9034C48.2868 33.7379 48.6762 34.5722 49.5941 34.5722C50.512 34.5722 50.9292 33.7379 50.9292 32.9034C50.9292 32.069 50.5398 31.2623 49.5941 31.2623C48.6484 31.2623 48.2868 32.069 48.2868 32.9034Z" fill="black"/>
<path d="M52.7656 30.7324H53.5722L55.5471 33.9312V30.7324H56.2703V35.0716H55.4637L53.4888 31.9007V35.0716H52.7656V30.7324Z" fill="black"/>
<path d="M59.6914 30.7324H60.7762L61.9722 34.1259L63.1404 30.7324H64.1974V35.0716H63.4743V31.7338H63.4464L62.2504 35.0716H61.6385L60.4424 31.7338H60.4146V35.0716H59.6914V30.7324Z" fill="black"/>
<path d="M65.5879 30.7324H66.3667V33.2637C66.3667 33.8478 66.3668 34.5152 67.3681 34.5152C68.3694 34.5152 68.3972 33.8478 68.3972 33.2637V30.7324H69.1482V33.5139C69.1482 33.9861 68.9607 34.4389 68.6269 34.7728C68.293 35.1066 67.8402 35.2941 67.3681 35.2941C66.896 35.2941 66.4431 35.1066 66.1093 34.7728C65.7754 34.4389 65.5879 33.9861 65.5879 33.5139V30.7324Z" fill="black"/>
<path d="M70.3447 30.7324H71.0957V34.4318H73.2932V35.0716H70.3447V30.7324Z" fill="black"/>
<path d="M73.2646 30.7324H76.7694V31.4H75.4064V35.0716H74.6554V31.4H73.2646V30.7324Z" fill="black"/>
<path d="M78.4668 30.7324H77.7158V35.0716H78.4668V30.7324Z" fill="black"/>
<path d="M79.8018 30.7324H80.8865L82.0826 34.1259L83.2508 30.7324H84.3078V35.0716H83.5846V31.7338L82.3607 35.0716H81.7488L80.5528 31.7338H80.5249V35.0716H79.8018V30.7324Z" fill="black"/>
<path d="M85.6426 30.7324H88.7579V31.4H86.3936V32.5404H88.591V33.1524H86.3936V34.4318H88.8135V35.0716H85.6426V30.7324Z" fill="black"/>
<path d="M89.8984 30.7324H91.7065C93.0416 30.7324 93.5979 31.706 93.5979 32.9021C93.5979 34.0981 93.0416 35.0716 91.7065 35.0716H89.8984V30.7324ZM90.6495 34.4597H91.4005C92.5965 34.4597 92.8468 33.7922 92.8468 32.9021C92.8468 32.012 92.5965 31.3723 91.4005 31.3723H90.6217L90.6495 34.4597Z" fill="black"/>
<path d="M95.461 30.7324H94.71V35.0716H95.461V30.7324Z" fill="black"/>
<path d="M97.9931 30.7324H98.7998L100.469 35.0716H99.6342L99.2448 33.9312H97.4925L97.103 35.0716H96.3242L97.9931 30.7324ZM97.715 33.347H98.9667L98.3269 31.4835L97.715 33.347Z" fill="black"/>
<path d="M104.14 30.7324H103.389V35.0716H104.14V30.7324Z" fill="black"/>
<path d="M105.476 30.7324H106.282L108.257 33.9312V30.7324H108.98V35.0716H108.201L106.227 31.9007H106.199V35.0716H105.476V30.7324Z" fill="black"/>
<path d="M109.897 30.7324H113.402V31.4H112.039V35.0716H111.26V31.4H109.897V30.7324Z" fill="black"/>
<path d="M114.348 30.7324H117.463V31.4H115.099V32.5404H117.296V33.1524H115.099V34.4318H117.491V35.0716H114.348V30.7324Z" fill="black"/>
<path d="M118.604 30.7324H120.662C121.608 30.7324 122.108 31.1774 122.108 31.9284C122.126 32.1641 122.065 32.399 121.934 32.5956C121.803 32.7923 121.609 32.9393 121.385 33.0133C121.586 33.0599 121.763 33.1795 121.882 33.3491C122 33.5187 122.051 33.7262 122.025 33.9312C121.988 34.3281 122.075 34.7266 122.275 35.0716H121.441C121.385 34.8619 121.385 34.6415 121.441 34.4319C121.441 33.653 121.274 33.2914 120.578 33.2914H119.466V35.0716H118.715L118.604 30.7324ZM119.354 32.7074H120.606C121.079 32.7074 121.329 32.4849 121.329 32.0398C121.329 31.5948 120.996 31.3723 120.578 31.3723H119.354V32.7074Z" fill="black"/>
<path d="M123.276 30.7324H126.28V31.4H124.055V32.5404H126.002V33.1524H124.055V35.0716H123.276V30.7324Z" fill="black"/>
<path d="M128.144 30.7598H128.951L130.62 35.0711H129.813L129.396 33.9307H127.672L127.254 35.0711H126.476L128.144 30.7598ZM127.866 33.3465H129.201L128.562 31.483L127.866 33.3465Z" fill="black"/>
<path d="M134.374 32.1243C134.333 31.8714 134.2 31.6428 133.999 31.4833C133.798 31.3238 133.545 31.2449 133.29 31.2621C132.372 31.2621 131.982 32.0688 131.982 32.9033C131.982 33.7377 132.372 34.5721 133.29 34.5721C133.438 34.5721 133.585 34.5425 133.722 34.4848C133.859 34.4272 133.983 34.3427 134.086 34.2365C134.19 34.1302 134.271 34.0042 134.326 33.866C134.38 33.7278 134.406 33.5802 134.402 33.4317H135.125C135.122 33.6704 135.071 33.9057 134.974 34.1241C134.878 34.3424 134.739 34.5392 134.565 34.7026C134.391 34.8661 134.186 34.9931 133.962 35.0758C133.738 35.1585 133.5 35.1953 133.262 35.1841C132.704 35.1222 132.188 34.8566 131.814 34.4383C131.439 34.02 131.232 33.4785 131.232 32.9172C131.232 32.3558 131.439 31.8141 131.814 31.3959C132.188 30.9776 132.704 30.7121 133.262 30.6502C133.704 30.603 134.146 30.7309 134.495 31.0066C134.843 31.2822 135.07 31.6836 135.125 32.1243H134.374Z" fill="black"/>
<path d="M136.266 30.7324H139.381V31.4H137.017V32.5404H139.186V33.1524H137.017V34.4318H139.409V35.0716H136.266V30.7324Z" fill="black"/>
<path d="M18.525 32.8184H16.9951V33.2078H18.525V32.8184Z" fill="black"/>
<path fill-rule="evenodd" clip-rule="evenodd" d="M147.614 4.92332V0H148.699L149.839 3.44904V3.86633V4.00537V3.83849L149.978 3.39335L151.147 0H152.12V4.97883H151.397V1.19603L150.09 4.95116H149.394L148.115 1.14034V4.97883H147.364L147.614 4.92332ZM144.332 4.92332V0.695376H142.719V0H146.696V0.695376H145.111V4.97883H144.332V4.92332Z" fill="black"/>
</svg>
