<svg width="134" height="43" viewBox="0 0 134 43" fill="none" xmlns="http://www.w3.org/2000/svg">
<path d="M36.3567 9.81527C36.3702 11.1364 36.0465 12.4391 35.4163 13.6004C34.7861 14.7616 33.8702 15.7432 32.7551 16.4519C30.2939 18.171 27.3379 19.0378 24.338 18.9203H11.4696V25.0308H3.90234V12.567H24.9451C25.8895 12.6128 26.8201 12.3264 27.5754 11.7576C27.9111 11.5404 28.1846 11.2399 28.369 10.8852C28.5535 10.5305 28.6426 10.1338 28.6276 9.73426C28.6349 9.336 28.5424 8.94236 28.3587 8.58897C28.1749 8.23557 27.9056 7.93364 27.5754 7.71092C26.7911 7.21068 25.8749 6.957 24.9451 6.98254H3.90234L8.92019 0.629227H24.2571C27.2304 0.523537 30.157 1.39035 32.5933 3.09789C33.7147 3.81952 34.6339 4.81484 35.264 5.99014C35.8941 7.16544 36.2145 8.48185 36.1948 9.81527M84.755 0.629227L68.3255 22.6837C67.8973 23.41 67.3113 24.0307 66.6108 24.5C65.9104 24.9694 65.1134 25.2751 64.2788 25.3949C63.433 25.2781 62.6263 24.9647 61.9236 24.4798C61.2208 23.9949 60.6415 23.3519 60.2321 22.6027L44.0454 0.629227H53.4742L64.3598 15.7235L75.3262 0.629227H84.755ZM131.98 24.9093H120.973L113.608 18.7988H103.208V24.9093H95.6406V12.4457H116.683C117.752 12.5048 118.82 12.3106 119.799 11.8791C120.269 11.739 120.681 11.4502 120.973 11.0561C121.265 10.6621 121.421 10.1841 121.418 9.69375C121.418 7.79181 119.799 6.86127 116.683 6.86127H95.6406L100.537 0.507955H115.914C119.152 0.391727 122.362 1.1314 125.222 2.65257C126.463 3.36902 127.491 4.40211 128.202 5.64633C128.913 6.89055 129.281 8.30128 129.268 9.73426C129.275 11.4193 128.688 13.0528 127.609 14.3475C126.456 15.8204 124.915 16.9416 123.158 17.5848L131.98 24.9093Z" fill="#141E41"/>
<path d="M14.9495 40.6506V37.211C14.9593 37.0088 14.9593 36.8061 14.9495 36.6039C14.7743 36.2064 14.4567 35.889 14.0592 35.7137C14.2955 35.5472 14.467 35.304 14.5448 35.0256C14.7053 34.6849 14.775 34.3087 14.7472 33.9332C14.7472 32.274 13.695 31.4645 11.6312 31.4645H5.03516V40.5293H6.00632V36.4826H11.9549H12.9262C13.1541 36.5551 13.3619 36.6797 13.5331 36.8467C13.6457 37.0203 13.7278 37.212 13.776 37.4133C13.8221 37.6811 13.8221 37.9548 13.776 38.2226V38.6677C13.776 38.6677 13.776 39.0318 13.776 39.2746C13.776 39.5174 13.776 40.2055 13.776 40.4483L14.9495 40.6506ZM13.4118 33.8927C13.4118 34.7425 12.8452 35.1471 11.6717 35.1471H6.04683V32.6382H11.7527C12.8453 32.6382 13.4118 33.0024 13.4118 33.8927ZM41.9409 40.6506V39.7199H35.102V36.7254H41.6981V35.3494H35.102V32.719H41.9409C41.9409 32.719 41.9409 32.719 41.9409 32.5167V31.3027H34.0498V40.3673L41.9409 40.6506ZM70.9961 40.6506L66.4233 31.3027H64.8451L60.2319 40.4078H61.3649L62.4576 38.2629H68.6894L69.782 40.4078H70.9556L70.9961 40.6506ZM65.614 32.5572L68.0824 37.4943H63.105L65.614 32.5572ZM99.9702 36.6039C100.017 36.0248 100.017 35.4429 99.9702 34.8638C99.9986 34.4732 99.9986 34.081 99.9702 33.6904C99.7991 32.9994 99.3631 32.4033 98.7563 32.0311C97.8372 31.6411 96.8386 31.4747 95.8427 31.5455H89.9345V40.6101H96.1664C96.8491 40.63 97.531 40.5482 98.1897 40.3673C98.6643 40.2926 99.0958 40.0482 99.4037 39.6794C99.7106 39.3411 99.9081 38.918 99.9702 38.4654C100.112 37.7731 100.18 37.0677 100.173 36.3611M98.9991 36.3611C99.0435 36.751 99.0435 37.1446 98.9991 37.5345C98.9991 37.8987 98.9991 38.1416 98.9991 38.3439C98.944 38.5287 98.8507 38.6999 98.7252 38.8463C98.5997 38.9927 98.4448 39.1111 98.2706 39.1938C97.64 39.3766 96.9845 39.4585 96.3283 39.4366H90.7843V32.5572H95.8427C96.6755 32.4488 97.52 32.6349 98.2302 33.0833C98.705 33.8132 98.9057 34.6878 98.7967 35.5517L98.9991 36.3611ZM129.066 31.5455H127.65L123.886 35.3494L120.123 31.5455H118.787L123.401 36.2396V40.2862H124.372V36.2396L129.066 31.5455Z" fill="#141E41"/>
<path d="M1.39291 28.957H133.234V42.9991H0.988281V28.957H1.39291ZM132.384 29.8069H1.83805V41.947H132.384V29.8069Z" fill="#141E41"/>
</svg>
