<svg width="135" height="45" viewBox="0 0 135 45" fill="none" xmlns="http://www.w3.org/2000/svg">
<path d="M9.17228 9.66582C6.99323 9.66582 5.4222 9.66582 3.69922 9.66582H0.304042L0 4.60527H3.24316C5.25179 4.49531 7.26495 4.49531 9.27358 4.60527C11.6553 4.60527 14.3412 7.59106 14.6959 8.14772C21.7905 17.5097 28.733 27.4282 35.8276 37.0433L36.3344 37.6002C36.5843 37.8265 36.9091 37.9524 37.2465 37.9541C37.5396 37.9799 37.8311 37.889 38.0573 37.7011L38.4628 37.2965L63.8006 5.26317C64.2121 4.56712 64.8327 4.01823 65.5743 3.69441C66.9277 3.03298 68.3573 2.5399 69.8311 2.22665C71.6544 1.78435 73.5303 1.59708 75.4053 1.67007C81.1584 1.84552 86.6147 4.26119 90.608 8.40068C94.5391 12.4802 96.7367 17.9208 96.7398 23.5823C96.7299 26.4174 96.1507 29.2216 95.0365 31.8292C93.9224 34.4368 92.296 36.795 90.2534 38.764C88.2439 40.7086 85.861 42.2267 83.2482 43.2269C80.6354 44.227 77.8469 44.6887 75.0507 44.5837C70.0749 44.5105 65.2771 42.7228 61.4695 39.5232C57.6929 36.5349 55.106 32.3006 54.1723 27.5801L58.7837 21.457C58.6569 24.1224 59.1281 26.7821 60.1627 29.2424C61.1972 31.7027 62.7692 33.9012 64.7635 35.6771C67.5892 38.1275 71.1602 39.5539 74.8986 39.7255C77.0353 39.7999 79.1651 39.4463 81.1627 38.6855C83.1603 37.9248 84.9851 36.7722 86.5295 35.296C88.074 33.8197 89.3067 32.0496 90.1552 30.0899C91.0036 28.1303 91.4505 26.0208 91.4695 23.886C91.5116 19.5121 89.8388 15.2952 86.8085 12.1368C83.7783 8.97835 79.631 7.12874 75.2532 6.98358C73.8396 6.93534 72.4257 7.07152 71.0472 7.38851C69.9989 7.63422 68.9796 7.99057 68.0067 8.45134L42.3648 40.7377C41.9431 41.2284 41.4671 41.6699 40.9459 42.0535C39.8213 42.9272 38.4151 43.3593 36.9932 43.2679C35.5434 43.2139 34.1529 42.6796 33.0405 41.7495C32.4515 41.3288 31.952 40.7956 31.5708 40.1808C30.9627 39.4217 9.9831 9.81748 9.02026 9.81748M80.625 0L113.108 1.01217C119.001 1.23511 124.577 3.73402 128.661 7.98216C132.745 12.2303 135.017 17.8958 135 23.7846C134.854 29.5262 132.451 34.9797 128.311 38.9663C126.228 40.9668 123.764 42.5305 121.066 43.5648C118.368 44.5991 115.49 45.0831 112.601 44.9884L99.831 44.5837H97.2972V31.1732H102.365V39.3712L112.5 39.6748C114.712 39.7491 116.917 39.3813 118.985 38.5932C121.053 37.805 122.943 36.6123 124.543 35.085C126.143 33.5577 127.422 31.7266 128.304 29.6992C129.186 27.6718 129.653 25.489 129.679 23.2787C129.695 18.7513 127.95 14.3948 124.811 11.128C121.672 7.86126 117.385 5.93967 112.855 5.7691L90.4559 5.06055C87.6105 2.64372 84.247 0.912301 80.625 0Z" fill="#FB5A00"/>
</svg>
