<svg width="92" height="21" viewBox="0 0 92 21" fill="none" xmlns="http://www.w3.org/2000/svg">
<path d="M29.0416 3.4953C28.8784 2.86805 28.552 2.29578 28.0961 1.83732C27.6402 1.37885 27.0712 1.05073 26.4475 0.886602C24.2035 0.273559 15.1889 0.273438 15.1889 0.273438C15.1889 0.273438 6.10947 0.273571 3.90446 0.899658C3.28071 1.06379 2.71163 1.39191 2.25573 1.85037C1.79983 2.30884 1.47354 2.88111 1.31032 3.50835C0.898717 5.80668 0.698958 8.13827 0.713645 10.4735C0.698846 12.818 0.90299 15.1587 1.32331 17.4648C1.48403 18.0933 1.80949 18.6668 2.26579 19.1257C2.72208 19.5845 3.29248 19.9119 3.91744 20.0735C6.16136 20.6996 15.1889 20.6996 15.1889 20.6996C15.1889 20.6996 24.2684 20.6996 26.4475 20.0735C27.0737 19.9144 27.6453 19.5879 28.102 19.1287C28.5587 18.6694 28.8834 18.0945 29.0416 17.4648C29.8716 12.8413 29.8716 8.10574 29.0416 3.48224V3.4953ZM12.3354 14.8431V6.12995L19.8324 10.4866L12.3354 14.8431Z" fill="white"/>
<path d="M42.6356 18.8227C42.0189 18.3895 41.5807 17.7448 41.4034 17.0096C41.1453 15.9385 41.0318 14.8373 41.0661 13.7357V11.9096C41.0239 10.795 41.1597 9.68087 41.4682 8.60955C41.6759 7.871 42.1349 7.22926 42.7653 6.79649C43.459 6.38419 44.2558 6.18056 45.0611 6.2096C45.851 6.1714 46.6337 6.37608 47.305 6.79649C47.9257 7.23913 48.382 7.87707 48.6021 8.60955C48.8855 9.68122 49.0166 10.7879 48.9912 11.8965V13.7357C49.0243 14.8404 48.8931 15.9439 48.6021 17.0096C48.3866 17.7444 47.9293 18.3837 47.305 18.8227C46.5866 19.2086 45.7847 19.4105 44.9703 19.4105C44.1558 19.4105 43.354 19.2086 42.6356 18.8227ZM45.8523 16.8401C46.0453 16.1802 46.1242 15.4919 46.0857 14.8052V10.8922C46.1171 10.2186 46.0383 9.5445 45.8523 8.89663C45.7987 8.71422 45.6873 8.55425 45.5351 8.44125C45.383 8.32826 45.1984 8.26828 45.0092 8.27041C44.8251 8.27031 44.6462 8.3319 44.5006 8.44523C44.355 8.55857 44.2511 8.71737 44.2051 8.89663C44.0023 9.54111 43.9188 10.2174 43.9586 10.8922V14.8052C43.9307 15.4907 44.005 16.1767 44.1791 16.8401C44.2286 17.0213 44.3375 17.1804 44.4882 17.2916C44.6388 17.4029 44.8224 17.4598 45.0092 17.4531C45.2045 17.4632 45.3977 17.4089 45.5594 17.2981C45.721 17.1874 45.8421 17.0265 45.9042 16.8401H45.8523Z" fill="white"/>
<path d="M86.5155 13.7868V14.439C86.5057 15.0531 86.5317 15.667 86.5933 16.278C86.6134 16.599 86.7162 16.9092 86.8916 17.1781C86.9801 17.2785 87.0907 17.3568 87.2145 17.4066C87.3384 17.4564 87.4721 17.4764 87.605 17.465C87.7857 17.4784 87.9663 17.4371 88.1234 17.3464C88.2806 17.2558 88.4072 17.1199 88.487 16.9563C88.6787 16.4261 88.7668 15.8636 88.7464 15.2998L91.2109 15.4432C91.2109 15.5606 91.2109 15.7173 91.2109 15.8868C91.2459 16.3654 91.1783 16.8459 91.0127 17.2959C90.8471 17.746 90.5874 18.1551 90.251 18.4955C89.4949 19.1222 88.5314 19.4389 87.5531 19.3824C86.9918 19.4427 86.4246 19.3541 85.908 19.1252C85.3913 18.8964 84.9434 18.5353 84.6088 18.078C83.9696 16.8129 83.6785 15.3988 83.7657 13.9824V11.7259C83.6632 10.2761 83.9641 8.82639 84.6347 7.53897C84.9835 7.08423 85.4414 6.72595 85.9654 6.49781C86.4895 6.26967 87.0626 6.17914 87.6309 6.23462C88.4168 6.1847 89.1992 6.37562 89.8748 6.78234C90.4339 7.18613 90.83 7.77879 90.9904 8.45194C91.234 9.4854 91.3386 10.5471 91.3017 11.6085V13.7868H86.5025H86.5155ZM86.8916 8.42583C86.7218 8.69262 86.6194 8.99718 86.5933 9.31286C86.5314 9.92819 86.5054 10.5467 86.5155 11.1651V12.065H88.5908V11.152C88.6064 10.5292 88.5804 9.90603 88.5129 9.28675C88.4929 8.96579 88.3901 8.65569 88.2146 8.38682C88.1279 8.29652 88.0226 8.22633 87.9061 8.18127C87.7896 8.1362 87.6647 8.11726 87.5401 8.12586C87.4172 8.12765 87.296 8.15524 87.1844 8.2069C87.0727 8.25857 86.9729 8.33314 86.8916 8.42583Z" fill="white"/>
<path d="M35.7482 13.5516L32.5186 1.8125H35.3591L36.4876 7.14724C36.7859 8.45159 36.9804 9.59951 37.1231 10.5126H37.2009C37.3047 9.8343 37.5252 8.73858 37.8495 7.18641L39.0169 1.83861H41.8445L38.5758 13.5777V19.2125H35.7742V13.5908L35.7482 13.5516Z" fill="white"/>
<path d="M58.2005 6.46875V19.2514H55.9696L55.7361 17.6863H55.6064C55.3743 18.2199 54.9908 18.6727 54.504 18.9882C54.0172 19.3038 53.4487 19.4679 52.8696 19.4602C52.5179 19.4855 52.1654 19.4223 51.8439 19.2766C51.5224 19.1309 51.2419 18.9071 51.0277 18.6254C50.5615 17.8403 50.3528 16.9276 50.4311 16.0167V6.50792H53.2847V15.8471C53.2633 16.2596 53.325 16.6721 53.4662 17.06C53.5256 17.1725 53.6158 17.2656 53.7262 17.328C53.8366 17.3904 53.9625 17.4196 54.0889 17.4122C54.3387 17.4077 54.5819 17.3308 54.7893 17.1906C55.007 17.044 55.1817 16.8412 55.2951 16.6036V6.50792L58.2005 6.46875Z" fill="white"/>
<path d="M72.8052 6.46875V19.2514H70.5742L70.3407 17.6863H70.2759C70.046 18.2188 69.6649 18.6712 69.1803 18.9868C68.6958 19.3024 68.1294 19.4671 67.5521 19.4602C67.1985 19.4853 66.8441 19.4222 66.5206 19.2766C66.197 19.131 65.9142 18.9073 65.6973 18.6254C65.2376 17.8377 65.0293 16.9271 65.1006 16.0167V6.50792H67.9542V15.8471C67.9291 16.2609 67.9955 16.6751 68.1487 17.06C68.2046 17.1726 68.2923 17.266 68.4007 17.3287C68.5091 17.3913 68.6336 17.4204 68.7584 17.4122C69.0082 17.4077 69.2514 17.3308 69.4588 17.1906C69.6797 17.0476 69.8552 16.8438 69.9646 16.6036V6.50792L72.8052 6.46875Z" fill="white"/>
<path d="M65.9823 4.08205H63.1417V19.2516H60.366V4.13428H57.5254V1.8125H65.9823V4.12122V4.08205Z" fill="white"/>
<path d="M82.2219 8.50375C82.1268 7.85028 81.8374 7.24104 81.3917 6.75597C80.9449 6.37335 80.3694 6.17726 79.7834 6.20808C79.266 6.20692 78.7601 6.36132 78.3307 6.65152C77.8837 6.94288 77.5213 7.34789 77.28 7.82546V1.12109H74.5303V19.1732H76.878L77.1763 17.9472C77.403 18.3763 77.7444 18.7332 78.162 18.9777C78.6122 19.2231 79.1157 19.3529 79.6277 19.3559C80.0705 19.3724 80.5082 19.2576 80.8865 19.0256C81.2647 18.7937 81.5667 18.4549 81.7549 18.0515C82.2884 16.7283 82.5276 15.3037 82.4553 13.8777V11.8689C82.4732 10.7425 82.3951 9.61673 82.2219 8.50375ZM79.6277 13.7211C79.6392 14.4491 79.6002 15.177 79.511 15.8995C79.4845 16.3019 79.35 16.6895 79.1219 17.0212C79.0366 17.1279 78.9277 17.2129 78.8038 17.2696C78.6799 17.3262 78.5445 17.3529 78.4085 17.3473C78.1817 17.3454 77.9589 17.2871 77.76 17.1777C77.5555 17.0528 77.3859 16.8777 77.2671 16.669V9.4559C77.3591 9.13368 77.5335 8.84132 77.7729 8.60804C77.972 8.40507 78.2418 8.28809 78.5252 8.28195C78.656 8.27369 78.7867 8.29937 78.9048 8.35647C79.0229 8.41356 79.1244 8.50016 79.1997 8.60804C79.4088 8.95492 79.525 9.35039 79.5369 9.75587C79.5369 10.2907 79.6277 11.0602 79.6277 12.0646V13.7211Z" fill="white"/>
</svg>
