<svg width="13" height="16" viewBox="0 0 13 16" fill="none" xmlns="http://www.w3.org/2000/svg">
<path d="M9.78369 0.284803C9.73528 0.236201 9.67753 0.197906 9.61395 0.172132C9.55038 0.146358 9.48229 0.133672 9.4137 0.134839H0.803711C0.660494 0.134839 0.523145 0.191712 0.421875 0.292982C0.320605 0.394251 0.263672 0.531601 0.263672 0.674818V14.6748C0.263672 14.818 0.320605 14.9554 0.421875 15.0567C0.523145 15.1579 0.660494 15.2149 0.803711 15.2149H12.3937C12.5369 15.2149 12.6742 15.1579 12.7755 15.0567C12.8768 14.9554 12.9337 14.818 12.9337 14.6748V3.54481C12.9302 3.39955 12.8732 3.26072 12.7737 3.15486L9.78369 0.284803ZM4.9837 1.21486H7.72369V3.90486H5.02368L4.9837 1.21486ZM9.2937 14.1448H8.1037V12.8048C8.1037 12.6616 8.04683 12.5243 7.94556 12.423C7.84429 12.3217 7.70694 12.2648 7.56372 12.2648C7.4205 12.2648 7.28315 12.3217 7.18188 12.423C7.08062 12.5243 7.02368 12.6616 7.02368 12.8048V14.1448H5.95367V12.8048C5.95367 12.6616 5.8968 12.5243 5.79553 12.423C5.69426 12.3217 5.55691 12.2648 5.4137 12.2648C5.27048 12.2648 5.13313 12.3217 5.03186 12.423C4.93059 12.5243 4.87372 12.6616 4.87372 12.8048V14.1448H3.87372V11.4548H9.25372V14.1448H9.2937ZM11.8537 14.1448H10.3737V10.9148C10.3737 10.7716 10.3168 10.6342 10.2155 10.533C10.1142 10.4317 9.9769 10.3748 9.83368 10.3748H3.36371C3.22049 10.3748 3.08314 10.4317 2.98187 10.533C2.8806 10.6342 2.82367 10.7716 2.82367 10.9148V14.1448H1.34369V1.21486H3.90369V4.44484C3.90369 4.58805 3.96056 4.7254 4.06183 4.82667C4.1631 4.92794 4.30045 4.98482 4.44366 4.98482H8.21368C8.3569 4.98482 8.49425 4.92794 8.59552 4.82667C8.69679 4.7254 8.75372 4.58805 8.75372 4.44484V1.21486H9.19366L11.8537 3.77485V14.1448Z" fill="#EA0029"/>
</svg>
