<svg width="18" height="18" viewBox="0 0 18 18" fill="none" xmlns="http://www.w3.org/2000/svg">
<path d="M8.60272 17.2041C7.39539 17.1537 6.21153 16.854 5.12561 16.324C4.03969 15.7939 3.07519 15.0449 2.29272 14.1241V16.1241C2.2901 16.3027 2.21727 16.4731 2.09003 16.5984C1.96279 16.7238 1.79136 16.7941 1.61273 16.7941C1.43504 16.7941 1.26463 16.7235 1.13898 16.5978C1.01333 16.4722 0.942688 16.3018 0.942688 16.1241V12.1841C0.945314 12.0081 1.01709 11.8403 1.14246 11.7168C1.26782 11.5933 1.43676 11.5241 1.61273 11.5241H5.16272C5.34042 11.5241 5.51083 11.5947 5.63647 11.7203C5.76212 11.846 5.8327 12.0164 5.8327 12.1941C5.8327 12.3718 5.76212 12.5422 5.63647 12.6678C5.51083 12.7935 5.34042 12.8641 5.16272 12.8641H2.96271C3.96271 14.0541 5.96272 15.8641 8.60272 15.8641C10.5071 15.8588 12.3318 15.0992 13.6774 13.7517C15.0231 12.4042 15.7801 10.5784 15.7827 8.67407C15.8028 8.5092 15.8825 8.35742 16.0069 8.24731C16.1312 8.13721 16.2916 8.07642 16.4577 8.07642C16.6238 8.07642 16.7842 8.13721 16.9085 8.24731C17.0329 8.35742 17.1126 8.5092 17.1327 8.67407C17.13 10.9356 16.2305 13.1036 14.6314 14.7028C13.0323 16.3019 10.8642 17.2015 8.60272 17.2041ZM0.722717 9.37408C0.544109 9.37146 0.373722 9.29863 0.248352 9.17139C0.122982 9.04415 0.0527151 8.87272 0.0527344 8.69409C0.0553809 6.43261 0.954904 4.26452 2.55402 2.66541C4.15313 1.06629 6.32122 0.166709 8.5827 0.164062C9.92946 0.169975 11.2609 0.450644 12.4954 0.988831C13.73 1.52702 14.8417 2.31141 15.7627 3.29407V1.29407C15.751 1.19853 15.7599 1.1016 15.7885 1.0097C15.8171 0.917805 15.8648 0.833045 15.9286 0.760986C15.9924 0.688928 16.0708 0.631248 16.1586 0.591736C16.2463 0.552224 16.3415 0.531799 16.4377 0.531799C16.534 0.531799 16.6291 0.552224 16.7169 0.591736C16.8046 0.631248 16.883 0.688928 16.9468 0.760986C17.0106 0.833045 17.0584 0.917805 17.087 1.0097C17.1156 1.1016 17.1244 1.19853 17.1127 1.29407V5.21411C17.1141 5.30294 17.0977 5.39113 17.0646 5.47357C17.0316 5.55602 16.9824 5.63106 16.92 5.69434C16.8577 5.75761 16.7834 5.80787 16.7014 5.84216C16.6195 5.87646 16.5315 5.89411 16.4427 5.8941H12.9527C12.8572 5.90575 12.7602 5.89695 12.6683 5.86835C12.5764 5.83975 12.4917 5.79202 12.4196 5.72821C12.3476 5.66441 12.2899 5.58599 12.2504 5.49823C12.2109 5.41047 12.1904 5.3153 12.1904 5.21906C12.1904 5.12281 12.2109 5.0277 12.2504 4.93994C12.2899 4.85218 12.3476 4.77377 12.4196 4.70996C12.4917 4.64616 12.5764 4.59842 12.6683 4.56982C12.7602 4.54123 12.8572 4.53242 12.9527 4.54407H15.0827C14.2753 3.61005 13.2778 2.85923 12.1568 2.34186C11.0358 1.82449 9.81728 1.55249 8.5827 1.54407C6.67834 1.54671 4.85259 2.3037 3.50507 3.64935C2.15754 4.99501 1.39799 6.8197 1.3927 8.72406C1.38506 8.89744 1.31145 9.06135 1.18689 9.18219C1.06233 9.30303 0.896251 9.3717 0.722717 9.37408Z" fill="#EA0029"/>
</svg>
