<svg width="76" height="28" viewBox="0 0 76 28" fill="none" xmlns="http://www.w3.org/2000/svg">
<path fill-rule="evenodd" clip-rule="evenodd" d="M55.4254 0.078125V2.42601C61.5216 2.42601 67.6178 2.42601 73.7269 2.42601V24.7173H55.4254V26.9999V27.065H75.932C75.932 27.065 75.932 27.0651 75.932 26.9999V0.078125H74.9722C68.396 0.078125 61.8717 0.078125 55.3086 0.078125" fill="white"/>
<path fill-rule="evenodd" clip-rule="evenodd" d="M55.4248 15.7299C55.4293 16.2451 55.5169 16.7561 55.6842 17.243C55.7537 17.4605 55.8449 17.6702 55.9566 17.8691C56.2714 18.4397 56.757 18.8961 57.3444 19.1734C57.9584 19.4338 58.6259 19.5412 59.29 19.4865H59.6013V17.3342C59.6013 17.256 59.6013 17.3342 59.4716 17.3342C59.2539 17.3339 59.0367 17.3121 58.8231 17.2691C58.7036 17.2336 58.5866 17.1899 58.4729 17.1386C57.9151 16.8386 57.8114 16.1212 57.8114 15.3908V12.3256H60.7039C60.7039 12.456 62.7791 17.8038 63.0774 18.6386L63.4277 19.5387H66.0218L67.3189 16.0168C67.708 14.9864 68.136 13.7603 68.5381 12.769L69.472 10.2777C69.472 10.1994 69.472 10.1603 69.472 10.1603H67.1373C67.0465 10.1603 67.0076 10.3952 66.9557 10.5517L65.944 13.5908L65.8532 13.7995L65.6457 14.4517C65.529 14.7517 65.4511 15.0255 65.3603 15.3255C65.2695 15.6255 65.1658 15.9125 65.062 16.1995L64.7377 17.0734C64.7377 16.93 62.8181 11.2561 62.5846 10.5517C62.5846 10.3952 62.4938 10.1473 62.39 10.1473H57.8114V7.77344H55.4248V15.7299Z" fill="white"/>
<path fill-rule="evenodd" clip-rule="evenodd" d="M20.6506 14.5444C20.6411 15.5919 20.9636 16.6153 21.5715 17.4661C22.0309 18.1182 22.6466 18.6431 23.3614 18.9922C24.3455 19.4516 25.4494 19.5841 26.5133 19.3706C26.7649 19.327 27.0123 19.2615 27.2526 19.1749C28.1128 18.8731 28.8539 18.3015 29.3668 17.5444C29.6339 17.1463 29.8313 16.7052 29.9505 16.2401H27.3564C27.1959 16.5603 26.9426 16.824 26.63 16.9966C26.2681 17.1984 25.8634 17.3102 25.4498 17.3226C25.342 17.3355 25.2332 17.3355 25.1255 17.3226C24.6468 17.2715 24.1946 17.0761 23.8284 16.7619C23.7572 16.7034 23.692 16.6378 23.6338 16.5662C23.5706 16.5026 23.5141 16.4327 23.4652 16.3574C23.7246 16.214 25.8259 15.3662 26.3317 15.1445L28.7831 14.1009L29.1982 13.9314L30.0284 13.5661C29.993 13.2847 29.9233 13.0087 29.8209 12.7444C29.5523 11.8914 29.0321 11.1409 28.3292 10.5923C27.558 9.99527 26.6173 9.66152 25.6443 9.64002C24.8683 9.59555 24.0943 9.75749 23.4004 10.1096C22.8857 10.3641 22.4202 10.7086 22.0255 11.127L21.7531 11.44C21.4759 11.7842 21.2488 12.1663 21.0786 12.5748C20.8071 13.1956 20.6657 13.8661 20.6636 14.5444M22.9075 14.414C22.9379 14.133 22.9855 13.8542 23.0501 13.5792C23.164 13.1704 23.3799 12.7976 23.6773 12.4963C23.9747 12.195 24.3437 11.9751 24.7493 11.8575C24.8838 11.8138 25.0233 11.7874 25.1644 11.7792C25.4953 11.7395 25.8307 11.7688 26.1498 11.8653C26.4689 11.9618 26.7649 12.1235 27.0192 12.3401C27.097 12.3401 27.2267 12.4966 27.2397 12.6009L26.6949 12.8097L26.1631 13.0443L25.8907 13.1619L25.6313 13.2792L23.997 13.9705C23.8544 14.0227 23.0112 14.427 22.8945 14.427L22.9075 14.414Z" fill="white"/>
<path fill-rule="evenodd" clip-rule="evenodd" d="M39.2761 14.5696C39.2678 14.6608 39.2678 14.7524 39.2761 14.8435C39.2777 15.1112 39.3082 15.3781 39.3669 15.6393C39.5906 16.6898 40.1557 17.6355 40.9729 18.3274C41.7902 19.0194 42.8131 19.4182 43.8806 19.4609C44.5414 19.4909 45.2018 19.3935 45.8262 19.174L46.3191 18.9783C47.1928 18.5549 47.894 17.8405 48.3037 16.9565C48.4029 16.7326 48.4853 16.5017 48.5501 16.2654H45.956C45.797 16.5823 45.5489 16.8453 45.2425 17.0218C44.8767 17.2257 44.4673 17.3375 44.0493 17.3479C43.8308 17.3469 43.6132 17.3207 43.4007 17.2697C43.2128 17.2182 43.0304 17.1483 42.856 17.061C42.5341 16.8915 42.2547 16.6506 42.0388 16.3566L48.615 13.5653C48.5641 13.2827 48.4948 13.0038 48.4074 12.7305C48.3036 12.4696 48.1999 12.248 48.0961 12.0132C47.8595 11.5706 47.5528 11.1697 47.1881 10.8262C46.8094 10.4748 46.3697 10.1963 45.8911 10.0044C45.2601 9.73554 44.5789 9.60681 43.8939 9.62707C43.2088 9.64733 42.5362 9.81606 41.922 10.1218C41.4034 10.3696 40.9367 10.715 40.5472 11.1392C39.937 11.7965 39.5156 12.608 39.3279 13.4871C39.2449 13.842 39.2014 14.2051 39.1982 14.5696M41.4551 14.4131C41.4526 13.9699 41.5576 13.5327 41.761 13.1395C41.9644 12.7463 42.2602 12.409 42.6225 12.1566L42.9468 11.974C43.3702 11.7865 43.8373 11.7215 44.2955 11.786C44.7537 11.8505 45.1849 12.0421 45.5409 12.3393C45.5409 12.3393 45.7354 12.4696 45.7614 12.6001L41.7405 14.2958C41.6468 14.3482 41.5464 14.3877 41.4421 14.4131" fill="white"/>
<path fill-rule="evenodd" clip-rule="evenodd" d="M5.43604 14.426C5.40523 15.455 5.68572 16.4692 6.2403 17.3346L6.75908 17.9999C7.60179 18.8852 8.75756 19.4007 9.97577 19.4346C10.4121 19.4546 10.8491 19.4107 11.2728 19.3042C11.4239 19.2702 11.5716 19.2222 11.7139 19.1607C12.4362 18.8897 13.0825 18.4469 13.5976 17.8699C14.1126 17.293 14.481 16.599 14.6712 15.8476C14.969 14.6262 14.8312 13.3385 14.282 12.2086L13.9708 11.6738L13.452 11.0347C13.1717 10.7317 12.8482 10.4724 12.4921 10.2652C11.7115 9.79509 10.8106 9.56661 9.90175 9.60837C8.99288 9.65012 8.11632 9.96017 7.38164 10.4999C7.15522 10.6694 6.94269 10.857 6.74609 11.0608L6.61642 11.2173C5.8589 12.1153 5.43282 13.2486 5.41016 14.426M10.1055 17.2303C9.63315 17.2239 9.1765 17.0586 8.80846 16.7608C8.45122 16.4879 8.18074 16.1161 8.03017 15.6911C7.77086 14.9616 7.77086 14.1642 8.03017 13.4346C8.17092 12.982 8.44686 12.584 8.82049 12.2946C9.19413 12.0052 9.64738 11.8385 10.1185 11.8173C10.4417 11.8221 10.7597 11.8995 11.0492 12.044C11.3387 12.1884 11.5924 12.3962 11.7917 12.6521L12.0381 13.0304C12.1208 13.1696 12.1862 13.3185 12.2327 13.4738C12.3847 13.8974 12.447 14.3482 12.4158 14.7974C12.3845 15.2466 12.2603 15.6843 12.0511 16.0825C11.8676 16.44 11.5907 16.7406 11.2503 16.952C10.9098 17.1634 10.5186 17.2775 10.1185 17.2824" fill="white"/>
<path fill-rule="evenodd" clip-rule="evenodd" d="M33.4393 19.2512H35.9296C36.0204 19.2512 36.1372 18.7948 36.1761 18.7035L37.2786 15.7687C37.4343 15.3644 37.5639 14.973 37.7196 14.5817L39.3669 10.173C39.4001 10.0709 39.4391 9.97075 39.4836 9.87305H37.0062L34.7623 16.5905C34.7481 16.666 34.7171 16.7373 34.6715 16.7991L32.3757 9.87305H29.8594C29.8594 9.96435 29.9243 10.0556 29.9632 10.16L30.3004 11.0339C30.7414 12.2078 31.1694 13.4208 31.5975 14.5687L33.3225 19.1339C33.3225 19.1991 33.3225 19.2512 33.4133 19.2512" fill="white"/>
<path fill-rule="evenodd" clip-rule="evenodd" d="M0.999982 10.1355V19.2659H3.41251V12.04H5.08577V9.88776H3.41251C3.41251 8.84428 3.87949 8.21816 4.91715 8.21816H5.18956V5.93555H4.70957H4.21676C3.4006 6.00272 2.63596 6.36405 2.06359 6.95298C1.32189 7.83547 0.94165 8.96848 0.999982 10.1225" fill="white"/>
<path fill-rule="evenodd" clip-rule="evenodd" d="M49.4711 14.0487V19.1749C49.4711 19.1749 49.471 19.2531 49.5489 19.2531H51.8837V13.9575C51.8724 13.5548 51.9615 13.1557 52.143 12.7966L52.2338 12.6531L52.3506 12.5097C52.6932 12.1538 53.1559 11.9396 53.6476 11.9096C54.0368 11.9096 54.2054 11.9096 54.387 11.9096V9.62697C54.1665 9.62697 53.8422 9.62697 53.4531 9.62697C52.5968 9.62475 51.7601 9.8841 51.0535 10.3705C50.8459 10.5144 50.6545 10.6806 50.4828 10.8662C50.392 10.9575 50.3272 11.0488 50.2364 11.1531C50.1571 11.2477 50.0915 11.353 50.0418 11.4661C49.5892 12.2574 49.373 13.1632 49.4192 14.0748" fill="white"/>
<path fill-rule="evenodd" clip-rule="evenodd" d="M15.6436 13.6948V19.2513H18.0561V13.7731C18.0491 13.5296 18.091 13.2872 18.1793 13.0603C18.2676 12.8334 18.4004 12.6266 18.5699 12.4525C18.7394 12.2784 18.9421 12.1404 19.1658 12.0468C19.3895 11.9533 19.6296 11.906 19.8719 11.9078C20.1051 11.8914 20.3392 11.8914 20.5724 11.9078V9.62524H20.2481C19.2285 9.50787 18.1994 9.74245 17.3297 10.2905L16.772 10.7471L16.5514 10.9949C15.9782 11.743 15.6639 12.6591 15.6565 13.6036" fill="white"/>
</svg>
