<svg width="143" height="55" viewBox="0 0 143 55" fill="none" xmlns="http://www.w3.org/2000/svg">
<rect x="1" y="1" width="140.863" height="52.5017" rx="16" fill="white"/>
<rect x="0.5" y="0.5" width="141.863" height="53.5017" rx="16.5" stroke="black" stroke-opacity="0.14"/>
<path d="M71.5914 28.6504C69.268 28.6504 67.3742 30.4168 67.3742 32.8497C67.3742 35.2678 69.268 37.049 71.5914 37.049C73.9159 37.049 75.8096 35.2678 75.8096 32.8497C75.8086 30.4168 73.9149 28.6504 71.5914 28.6504ZM71.5914 35.3961C70.3181 35.3961 69.2205 34.3465 69.2205 32.8507C69.2205 31.339 70.3191 30.3053 71.5914 30.3053C72.8648 30.3053 73.9623 31.339 73.9623 32.8507C73.9623 34.3456 72.8648 35.3961 71.5914 35.3961ZM62.3904 28.6504C60.067 28.6504 58.1732 30.4168 58.1732 32.8497C58.1732 35.2678 60.067 37.049 62.3904 37.049C64.7149 37.049 66.6086 35.2678 66.6086 32.8497C66.6086 30.4168 64.7149 28.6504 62.3904 28.6504ZM62.3904 35.3961C61.1171 35.3961 60.0196 34.3465 60.0196 32.8507C60.0196 31.339 61.1181 30.3053 62.3904 30.3053C63.6638 30.3053 64.7613 31.339 64.7613 32.8507C64.7623 34.3456 63.6638 35.3961 62.3904 35.3961ZM51.4469 29.9399V31.7211H55.7125C55.585 32.7233 55.2511 33.455 54.7414 33.9634C54.121 34.5835 53.1499 35.2678 51.4469 35.2678C48.8211 35.2678 46.7683 33.1518 46.7683 30.5274C46.7683 27.903 48.8211 25.7871 51.4469 25.7871C52.8635 25.7871 53.8977 26.3439 54.6614 27.0598L55.9189 25.8029C54.852 24.7849 53.4364 24.0059 51.4469 24.0059C47.85 24.0059 44.8262 26.9324 44.8262 30.5274C44.8262 34.1224 47.85 37.049 51.4469 37.049C53.388 37.049 54.853 36.4121 55.998 35.2194C57.1755 34.0424 57.542 32.3876 57.542 31.0517C57.542 30.639 57.5104 30.2569 57.4462 29.9389L51.4469 29.9399ZM96.2051 31.3232C95.8554 30.3852 94.7885 28.6504 92.6083 28.6504C90.4439 28.6504 88.645 30.3527 88.645 32.8497C88.645 35.2036 90.4281 37.049 92.8147 37.049C94.7401 37.049 95.8544 35.872 96.3167 35.1878L94.8843 34.233C94.4072 34.933 93.7542 35.3941 92.8147 35.3941C91.8763 35.3941 91.2075 34.9646 90.7778 34.1214L96.3958 31.7991L96.2051 31.3232ZM90.4755 32.7233C90.4281 31.1001 91.733 30.2737 92.6725 30.2737C93.4045 30.2737 94.0249 30.64 94.2323 31.1643L90.4755 32.7233ZM85.9086 36.7952H87.7539V24.4521H85.9086V36.7952ZM82.8837 29.5894H82.8205C82.4066 29.0957 81.6104 28.6504 80.6087 28.6504C78.5075 28.6504 76.5821 30.4958 76.5821 32.8665C76.5821 35.2204 78.5075 37.05 80.6087 37.05C81.6113 37.05 82.4066 36.6047 82.8205 36.0962H82.8837V36.7004C82.8837 38.3069 82.0243 39.1659 80.6403 39.1659C79.5102 39.1659 78.8098 38.3553 78.5233 37.671L76.916 38.3395C77.3774 39.4522 78.6023 40.8207 80.6403 40.8207C82.8047 40.8207 84.6352 39.548 84.6352 36.4457V28.9062H82.8847L82.8837 29.5894ZM80.7677 35.3961C79.4944 35.3961 78.4284 34.3298 78.4284 32.8665C78.4284 31.3864 79.4944 30.3053 80.7677 30.3053C82.0243 30.3053 83.0112 31.3864 83.0112 32.8665C83.0112 34.3298 82.0243 35.3961 80.7677 35.3961ZM104.853 24.4521H100.436V36.7952H102.278V32.119H104.852C106.895 32.119 108.904 30.641 108.904 28.2861C108.904 25.9312 106.896 24.4521 104.853 24.4521ZM104.9 30.401H102.278V26.1702H104.9C106.278 26.1702 107.061 27.3106 107.061 28.2861C107.061 29.2419 106.278 30.401 104.9 30.401ZM116.292 28.6287C114.958 28.6287 113.576 29.2162 113.004 30.5185L114.64 31.2008C114.989 30.5185 115.641 30.2954 116.324 30.2954C117.277 30.2954 118.246 30.8671 118.262 31.8831V32.0104C117.928 31.8199 117.213 31.5345 116.34 31.5345C114.576 31.5345 112.781 32.5031 112.781 34.313C112.781 35.9648 114.227 37.0282 115.847 37.0282C117.086 37.0282 117.769 36.4723 118.198 35.8207H118.261V36.7735H120.041V32.041C120.042 29.8511 118.404 28.6287 116.292 28.6287ZM116.069 35.3932C115.467 35.3932 114.624 35.091 114.624 34.3446C114.624 33.3918 115.673 33.0264 116.579 33.0264C117.388 33.0264 117.77 33.2012 118.262 33.4392C118.119 34.5835 117.134 35.3932 116.069 35.3932ZM126.524 28.8983L124.411 34.2498H124.347L122.154 28.8983H120.169L123.457 36.3776L121.582 40.5383H123.505L128.574 28.8983H126.524ZM109.922 36.7952H111.764V24.4521H109.922V36.7952Z" fill="#090909"/>
<path d="M51.2175 17.1518C51.2175 17.9642 50.9727 18.6109 50.4822 19.0937C49.9255 19.6676 49.1991 19.9546 48.3069 19.9546C47.4522 19.9546 46.7248 19.6637 46.1276 19.082C45.5295 18.4994 45.2305 17.7781 45.2305 16.9172C45.2305 16.0553 45.5295 15.334 46.1276 14.7523C46.7248 14.1697 47.4522 13.8788 48.3069 13.8788C48.7313 13.8788 49.1369 13.9603 49.5219 14.1222C49.9078 14.2851 50.2167 14.5013 50.4477 14.7717L49.9275 15.2836C49.5357 14.8231 48.9958 14.5934 48.3059 14.5934C47.6821 14.5934 47.1432 14.8086 46.6882 15.239C46.2332 15.6695 46.0062 16.2289 46.0062 16.9162C46.0062 17.6036 46.2332 18.163 46.6882 18.5934C47.1432 19.0239 47.6821 19.2391 48.3059 19.2391C48.9672 19.2391 49.5189 19.0229 49.9601 18.5895C50.2463 18.3074 50.4121 17.9148 50.4565 17.4116H48.3059V16.7126H51.1751C51.2047 16.8648 51.2175 17.0112 51.2175 17.1518Z" fill="#090909"/>
<path d="M55.7676 14.7223H53.0711V16.5663H55.5031V17.2653H53.0711V19.1092H55.7676V19.8247H52.3102V14.0078H55.7676V14.7223Z" fill="#090909"/>
<path d="M58.9761 19.8247H58.2152V14.7223H56.561V14.0078H60.6303V14.7223H58.9761V19.8247Z" fill="#090909"/>
<path d="M63.5745 19.8247V14.0078H64.3354V19.8247H63.5745Z" fill="#090909"/>
<path d="M67.7101 19.8247H66.9491V14.7223H65.2949V14.0078H69.3642V14.7223H67.7101V19.8247Z" fill="#090909"/>
<path d="M77.0674 19.0734C76.4851 19.6609 75.7616 19.9546 74.8961 19.9546C74.0305 19.9546 73.307 19.6609 72.7257 19.0734C72.1434 18.4858 71.8532 17.7665 71.8532 16.9163C71.8532 16.066 72.1434 15.3467 72.7257 14.7592C73.307 14.1717 74.0305 13.877 74.8961 13.877C75.7567 13.877 76.4792 14.1726 77.0635 14.7631C77.6478 15.3535 77.9399 16.0709 77.9399 16.9163C77.9399 17.7665 77.6488 18.4858 77.0674 19.0734ZM73.2873 18.5857C73.7255 19.022 74.2614 19.2391 74.8961 19.2391C75.5307 19.2391 76.0676 19.021 76.5048 18.5857C76.9431 18.1494 77.1632 17.593 77.1632 16.9163C77.1632 16.2396 76.9431 15.6831 76.5048 15.2468C76.0676 14.8106 75.5307 14.5934 74.8961 14.5934C74.2614 14.5934 73.7255 14.8115 73.2873 15.2468C72.85 15.6831 72.6299 16.2396 72.6299 16.9163C72.6299 17.593 72.85 18.1494 73.2873 18.5857Z" fill="#090909"/>
<path d="M79.0078 19.8247V14.0078H79.9336L82.8117 18.5324H82.8442L82.8117 17.4117V14.0078H83.5726V19.8247H82.7781L79.7668 15.0801H79.7343L79.7668 16.2008V19.8247H79.0078Z" fill="#090909"/>
<path d="M51.2175 17.1518C51.2175 17.9642 50.9727 18.6109 50.4822 19.0937C49.9255 19.6676 49.1991 19.9546 48.3069 19.9546C47.4522 19.9546 46.7248 19.6637 46.1276 19.082C45.5295 18.4994 45.2305 17.7781 45.2305 16.9172C45.2305 16.0553 45.5295 15.334 46.1276 14.7523C46.7248 14.1697 47.4522 13.8788 48.3069 13.8788C48.7313 13.8788 49.1369 13.9603 49.5219 14.1222C49.9078 14.2851 50.2167 14.5013 50.4477 14.7717L49.9275 15.2836C49.5357 14.8231 48.9958 14.5934 48.3059 14.5934C47.6821 14.5934 47.1432 14.8086 46.6882 15.239C46.2332 15.6695 46.0062 16.2289 46.0062 16.9162C46.0062 17.6036 46.2332 18.163 46.6882 18.5934C47.1432 19.0239 47.6821 19.2391 48.3059 19.2391C48.9672 19.2391 49.5189 19.0229 49.9601 18.5895C50.2463 18.3074 50.4121 17.9148 50.4565 17.4116H48.3059V16.7126H51.1751C51.2047 16.8648 51.2175 17.0112 51.2175 17.1518Z" stroke="white" stroke-width="0.204511" stroke-miterlimit="10"/>
<path d="M55.7676 14.7223H53.0711V16.5663H55.5031V17.2653H53.0711V19.1092H55.7676V19.8247H52.3102V14.0078H55.7676V14.7223Z" stroke="white" stroke-width="0.204511" stroke-miterlimit="10"/>
<path d="M58.9761 19.8247H58.2152V14.7223H56.561V14.0078H60.6303V14.7223H58.9761V19.8247Z" stroke="white" stroke-width="0.204511" stroke-miterlimit="10"/>
<path d="M63.5745 19.8247V14.0078H64.3354V19.8247H63.5745Z" stroke="white" stroke-width="0.204511" stroke-miterlimit="10"/>
<path d="M67.7101 19.8247H66.9491V14.7223H65.2949V14.0078H69.3642V14.7223H67.7101V19.8247Z" stroke="white" stroke-width="0.204511" stroke-miterlimit="10"/>
<path d="M77.0674 19.0734C76.4851 19.6609 75.7616 19.9546 74.8961 19.9546C74.0305 19.9546 73.307 19.6609 72.7257 19.0734C72.1434 18.4858 71.8532 17.7665 71.8532 16.9163C71.8532 16.066 72.1434 15.3467 72.7257 14.7592C73.307 14.1717 74.0305 13.877 74.8961 13.877C75.7567 13.877 76.4792 14.1726 77.0635 14.7631C77.6478 15.3535 77.9399 16.0709 77.9399 16.9163C77.9399 17.7665 77.6488 18.4858 77.0674 19.0734ZM73.2873 18.5857C73.7255 19.022 74.2614 19.2391 74.8961 19.2391C75.5307 19.2391 76.0676 19.021 76.5048 18.5857C76.9431 18.1494 77.1632 17.593 77.1632 16.9163C77.1632 16.2396 76.9431 15.6831 76.5048 15.2468C76.0676 14.8106 75.5307 14.5934 74.8961 14.5934C74.2614 14.5934 73.7255 14.8115 73.2873 15.2468C72.85 15.6831 72.6299 16.2396 72.6299 16.9163C72.6299 17.593 72.85 18.1494 73.2873 18.5857Z" stroke="white" stroke-width="0.204511" stroke-miterlimit="10"/>
<path d="M79.0078 19.8247V14.0078H79.9336L82.8117 18.5324H82.8442L82.8117 17.4117V14.0078H83.5726V19.8247H82.7781L79.7668 15.0801H79.7343L79.7668 16.2008V19.8247H79.0078Z" stroke="white" stroke-width="0.204511" stroke-miterlimit="10"/>
<path d="M26.0716 26.4023L14.9629 38.0409C15.0876 38.483 15.3118 38.8907 15.6183 39.2329C15.9247 39.5751 16.3054 39.8427 16.7311 40.0152C17.1568 40.1877 17.6164 40.2606 18.0746 40.2283C18.5328 40.196 18.9776 40.0594 19.3749 39.8289L31.8743 32.71L26.0716 26.4023Z" fill="#EA4335"/>
<path d="M37.3049 24.424L31.8996 21.3281L25.8154 26.6673L31.9244 32.6935L37.2884 29.6307C37.7636 29.3819 38.1616 29.0078 38.4394 28.5489C38.7171 28.0899 38.8639 27.5638 38.8639 27.0274C38.8639 26.4909 38.7171 25.9648 38.4394 25.5059C38.1616 25.047 37.7636 24.6728 37.2884 24.424H37.3049Z" fill="#FBBC04"/>
<path d="M14.9626 15.9551C14.8955 16.2033 14.8621 16.4595 14.8633 16.7166V37.2786C14.864 37.5356 14.8974 37.7915 14.9626 38.0401L26.4522 26.6996L14.9626 15.9551Z" fill="#4285F4"/>
<path d="M26.1542 26.9983L31.8989 21.3281L19.4161 14.1761C18.9465 13.901 18.4124 13.7554 17.8681 13.7539C17.2109 13.7526 16.5712 13.9663 16.0466 14.3623C15.5221 14.7583 15.1414 15.315 14.9626 15.9475L26.1542 26.9983Z" fill="#34A853"/>
</svg>
