<svg width="212" height="61" viewBox="0 0 212 61" fill="none" xmlns="http://www.w3.org/2000/svg">
<path d="M7.89812 43.6985H2.96621L7.21216 23.677H0.222656L1.0065 19.7578H19.9175L19.1663 23.677H12.2094L7.89812 43.6985ZM19.6889 43.6985L24.6861 19.7578H29.5527L24.5554 43.6985H19.6889ZM44.8382 43.6985H40.1677L39.253 23.677L35.6277 43.6985H31.0551L36.0523 19.7578H43.0092L43.793 36.5784L52.1217 19.7578H59.242L54.0814 43.6985H49.7048L54.3753 23.8405L44.8382 43.6985ZM60.9076 43.6985L65.9048 19.7578H83.7706L82.8561 23.7097H69.9875L68.9097 29.1317H81.3537L80.4392 33.247H68.0279L66.4928 39.7793H80.6025L79.688 43.7312L60.9076 43.6985ZM93.5691 35.9578L98.2397 35.6639C98.1375 36.737 98.4149 37.8119 99.0236 38.7014C99.5355 39.203 100.153 39.5837 100.831 39.8154C101.51 40.0471 102.231 40.1239 102.943 40.0405C104.181 40.1789 105.426 39.8531 106.438 39.1261C106.779 38.9369 107.067 38.6661 107.277 38.3378C107.487 38.0096 107.613 37.6343 107.642 37.2456C107.671 36.8569 107.603 36.4672 107.444 36.1113C107.285 35.7554 107.04 35.4445 106.732 35.2066C105.61 34.5657 104.441 34.0089 103.237 33.5409C101.441 32.6263 99.9708 32.0059 99.1543 31.418C98.32 30.9019 97.6424 30.1678 97.1946 29.2949C96.6789 28.3671 96.4195 27.3187 96.4433 26.2574C96.4385 25.3238 96.6243 24.399 96.9893 23.5397C97.3544 22.6804 97.8909 21.9047 98.5663 21.2601C100.364 19.8233 102.641 19.123 104.935 19.3005C107.277 19.1505 109.595 19.8458 111.468 21.2601C112.23 21.9241 112.852 22.7348 113.295 23.6438C113.738 24.5527 113.994 25.5414 114.048 26.5513H109.181C109.116 25.57 108.685 24.6491 107.973 23.9711C107.022 23.2998 105.868 22.9769 104.707 23.0567C104.199 22.9844 103.683 23.0166 103.189 23.1514C102.694 23.2862 102.233 23.5207 101.832 23.8405C101.537 24.037 101.296 24.3042 101.13 24.618C100.965 24.9318 100.881 25.2821 100.885 25.6369C100.897 25.953 100.973 26.2635 101.107 26.5497C101.242 26.8359 101.433 27.092 101.669 27.3026C102.803 28.0501 104.02 28.6639 105.295 29.1317C107.205 29.8641 108.99 30.8888 110.586 32.1691C111.131 32.6975 111.56 33.3331 111.847 34.0359C112.133 34.7386 112.271 35.4931 112.251 36.2518C112.249 37.2948 112.017 38.3245 111.571 39.2674C111.125 40.2102 110.476 41.0429 109.671 41.7062C107.735 43.3388 105.242 44.1582 102.714 43.9926C100.89 44.061 99.0756 43.6914 97.4232 42.9147C96.0381 42.358 94.8854 41.3436 94.1571 40.0405C93.4915 38.7308 93.23 37.253 93.4058 35.7945M133.383 32.9203H124.14L121.887 43.5353H117.02L122.017 19.5944H127.08L125.283 28.8376H134.527L136.486 19.5944H141.484L136.323 43.5353H131.326L133.383 32.9203ZM142.757 43.5353L147.787 19.5944H152.752L147.787 43.5353H142.757ZM154.123 43.5353L159.121 19.5944H176.072L175.321 23.5465H163.334L162.126 29.2949H173.786L173.034 33.3776H161.374L159.251 43.5353H154.123ZM186.981 43.5353H182.147L186.23 23.5465H179.338L180.089 19.5944H199.164L198.282 23.5465H191.292L186.981 43.5353Z" fill="black"/>
<path d="M212 33.2487V31.2562V30.3418H209.093V32.7587L212 33.2487ZM155.496 46.1173H155.659V46.2806L155.823 46.4439L155.986 46.6071V46.9012H156.476V47.0645H156.639L158.762 45.3987V45.2354L158.599 45.0722H158.436V44.9087V44.7454H158.272V44.5821H158.109V44.4189H157.946L155.496 46.1173ZM158.991 50.8206H159.154H159.317V51.5391H159.742V51.7023H159.905H160.069H160.232H160.395H160.559L162.388 49.6119H162.224V49.4487H162.061V49.2854H161.898H161.734H161.571V49.1221H161.408H161.244L158.991 50.8206ZM163.367 54.7398H163.531H163.694H163.857H164.021H164.184H164.347H164.511L165.882 52.3229H165.719H165.556H166.274L166.111 52.1596H165.948H165.784V51.9964H165.49H165.327L163.367 54.7398ZM168.365 57.7773L168.528 57.9408H168.691H168.985H169.279H169.443H169.606L169.802 58.104H170.063H170.226H170.52H170.684L171.598 55.3604H171.272H170.978H170.651H170.488H170.324H170.063H169.736H169.54L168.365 57.7773ZM173.819 59.7371H173.982H174.44V59.9004H174.93H175.55V60.0637H176.301L176.791 57.3202H176.171V57.1567H175.42H175.256H174.799H174.309L173.819 59.7371ZM179.6 60.815H182.605V57.9408H182.442H180.939H179.862L179.6 60.815ZM185.479 60.4883H186.23H186.394H187.145L187.308 60.325H187.929H188.223L187.635 57.5814H187.341H186.753L186.427 57.7448H185.871H185.708H185.283L185.479 60.4883ZM191.26 59.2798H191.554L191.718 59.1165H191.881H192.404H192.73V58.9533H192.893H193.187H193.351L192.142 56.3729H192.404H192.24H191.914H191.75H191.456H191.293H191.13H190.836L191.26 59.2798ZM196.551 56.8629H196.715H196.878H197.205H197.368H197.531H197.695H197.858H198.021L196.519 54.5766H196.356H196.192V54.7398H196.029H195.866H195.702H195.67V54.9033H195.506H195.343L196.551 56.8629ZM201.385 53.5967V53.4335H201.549L201.712 53.2702H201.875H202.039H202.202H202.365V53.1067H202.529L200.569 51.1471H200.406H200.242V51.3104H200.079L199.916 51.4737H199.752H199.589V51.6371L201.385 53.5967ZM205.468 49.3508L205.631 49.1875H205.795H205.958V49.0241L206.121 48.8608L206.285 48.6975L204.031 47.195H203.868V47.3583H203.704V47.5218L203.541 47.685V47.8483H203.378H203.214V48.0116H203.051L205.468 49.3508ZM208.734 44.5168V44.3535H208.898V44.1902V43.8637H209.061V43.7002H209.224L209.388 43.537L206.807 42.4918V42.6552L206.644 42.8185V41.7406V41.9039H206.481V42.0672H206.317L208.734 44.5168ZM210.857 39.0624V38.4745V38.1479H211.021V37.5274V36.9068H211.184L208.473 36.2862L208.31 36.4495V37.0374V37.4947H208.146V37.952L207.983 38.2458V38.5726L210.857 39.0624Z" fill="black"/>
<path d="M203.41 1.56385L188.288 0.8125L195.833 13.8771L198.936 9.07595C202.006 11.1976 204.529 14.0187 206.295 17.3067C208.061 20.5947 209.02 24.2553 209.093 27.9869H211.804C211.874 26.8993 211.874 25.8083 211.804 24.7207C211.32 21.0759 210.072 17.5745 208.141 14.4452C206.211 11.316 203.641 8.62928 200.602 6.56095L203.41 1.56385Z" fill="black"/>
</svg>
