<svg width="156" height="35" viewBox="0 0 156 35" fill="none" xmlns="http://www.w3.org/2000/svg">
<path d="M48.6393 5.4525C48.3548 4.39857 47.7973 3.43832 47.0231 2.66873C46.2489 1.89913 45.2853 1.3475 44.2297 1.06934C31.3393 -0.356447 18.3311 -0.356447 5.44073 1.06934C4.3875 1.35237 3.42653 1.90568 2.65305 2.67453C1.87957 3.44337 1.32045 4.40099 1.0311 5.4525C0.321238 9.39067 -0.0234883 13.386 0.00131045 17.3876C-0.0244352 21.3991 0.329229 25.4042 1.05753 29.3491C1.34287 30.4055 1.90018 31.3685 2.67392 32.1423C3.44766 32.916 4.41078 33.4734 5.46716 33.7587C18.3496 35.1671 31.3472 35.1671 44.2297 33.7587C45.2885 33.4783 46.2542 32.9226 47.0287 32.1481C47.8032 31.3736 48.3589 30.4079 48.6393 29.3491C50.0476 21.437 50.0476 13.3384 48.6393 5.42623V5.4525ZM19.8843 24.8867V9.96781L32.7963 17.414L19.8843 24.8867Z" fill="#FF0000"/>
<path d="M72.1126 31.6734C71.0549 30.936 70.3036 29.8372 70.0002 28.584C69.5577 26.7523 69.3624 24.8697 69.4193 22.9862V19.8704C69.353 17.9713 69.5847 16.0735 70.1058 14.2461C70.4753 12.9813 71.2675 11.8815 72.3502 11.1304C73.5418 10.434 74.905 10.0863 76.2846 10.127C77.6501 10.0612 79.0035 10.4111 80.1661 11.1304C81.1908 11.9112 81.9325 13.0052 82.2785 14.2461C82.7867 16.0671 83.0182 17.9542 82.965 19.844V23.0126C83.0312 24.903 82.7995 26.792 82.2785 28.6105C81.9381 29.8468 81.1947 30.934 80.1661 31.6998C78.9262 32.3587 77.5434 32.7032 76.1393 32.7032C74.7352 32.7032 73.3525 32.3587 72.1126 31.6998V31.6734ZM77.6312 28.2672C77.9882 27.151 78.1316 25.9775 78.0537 24.8081V17.9956C78.115 16.8441 77.9719 15.691 77.6312 14.5894C77.5554 14.2717 77.3748 13.9889 77.1185 13.7865C76.8622 13.5841 76.5451 13.474 76.2185 13.474C75.8919 13.474 75.5749 13.5841 75.3186 13.7865C75.0623 13.9889 74.8817 14.2717 74.8059 14.5894C74.4809 15.694 74.3469 16.8459 74.4098 17.9956V24.8081C74.3615 25.9731 74.4861 27.1387 74.7795 28.2672C74.8584 28.5809 75.0436 28.8575 75.3036 29.0501C75.5635 29.2427 75.8823 29.3393 76.2054 29.3234C76.5253 29.3253 76.8373 29.2235 77.0944 29.033C77.3514 28.8426 77.5398 28.5738 77.6312 28.2672Z" fill="black"/>
<path d="M147.552 23.0649V24.1739C147.483 25.2289 147.483 26.2874 147.552 27.3425C147.582 27.8922 147.765 28.4225 148.08 28.8739C148.231 29.0423 148.42 29.1731 148.631 29.2556C148.842 29.3382 149.069 29.3703 149.295 29.3493C149.601 29.3761 149.909 29.3097 150.178 29.159C150.446 29.0082 150.663 28.7801 150.8 28.5043C151.123 27.5892 151.275 26.6226 151.249 25.6525L155.5 25.9165C155.515 26.1627 155.515 26.4097 155.5 26.6559C155.563 27.4839 155.447 28.3157 155.16 29.0948C154.873 29.8739 154.421 30.5822 153.836 31.1712C152.534 32.244 150.873 32.7818 149.189 32.6762C148.255 32.7474 147.318 32.5788 146.468 32.1859C145.617 31.7931 144.882 31.1892 144.33 30.4318C143.22 28.2649 142.718 25.8376 142.878 23.4082V19.553C142.696 17.0736 143.218 14.5931 144.383 12.3972C144.993 11.595 145.799 10.9643 146.725 10.5664C147.65 10.1684 148.663 10.0169 149.664 10.1264C151.011 10.0579 152.35 10.3786 153.519 11.0505C154.475 11.7419 155.15 12.7542 155.421 13.9023C155.842 15.6296 156.029 17.406 155.975 19.1833V22.9065H147.71L147.552 23.0649ZM148.212 13.8758C147.908 14.333 147.727 14.8602 147.684 15.4074C147.613 16.4624 147.613 17.521 147.684 18.576V20.1338H151.249V18.5496C151.273 17.4916 151.229 16.4332 151.117 15.3809C151.094 14.8216 150.911 14.2807 150.588 13.8231C150.441 13.6653 150.26 13.5428 150.059 13.465C149.858 13.3873 149.642 13.3562 149.427 13.3741C149.199 13.3564 148.97 13.3927 148.759 13.4799C148.548 13.567 148.361 13.7026 148.212 13.8758Z" fill="black"/>
<path d="M60.178 22.6695L54.5537 2.49609H59.4386L61.3926 11.6323C61.8943 13.8767 62.264 15.8042 62.5016 17.3621H62.6336C62.7921 16.2003 63.1618 14.352 63.7427 11.6851L65.723 2.52252H70.6343L65.1157 22.6431V32.281H60.31V22.6695H60.178Z" fill="black"/>
<path d="M98.7815 10.5489V32.333H94.9528L94.5567 29.6925C94.1583 30.597 93.503 31.3647 92.6721 31.8998C91.8412 32.435 90.8713 32.7141 89.8831 32.7027C89.2736 32.7522 88.6616 32.6476 88.1033 32.3985C87.5449 32.1493 87.0582 31.7636 86.6881 31.2769C85.89 29.9421 85.5298 28.3908 85.6582 26.8409V10.5754H90.5696V26.4183C90.5293 27.1281 90.6372 27.8386 90.8865 28.5044C90.9902 28.6907 91.1443 28.8438 91.3311 28.9465C91.5179 29.0492 91.7298 29.0974 91.9426 29.0853C92.3744 29.08 92.7958 28.9518 93.1573 28.7156C93.5402 28.4743 93.8434 28.1252 94.0287 27.7122V10.4434L98.7815 10.5489Z" fill="black"/>
<path d="M123.946 10.5489V32.333H120.117L119.721 29.6925C119.312 30.595 118.651 31.3598 117.817 31.894C116.983 32.4283 116.011 32.7092 115.021 32.7027C114.412 32.7498 113.8 32.6441 113.242 32.3951C112.684 32.1461 112.198 31.7617 111.826 31.2769C111.028 29.9421 110.668 28.3908 110.796 26.8409V10.5754H115.707V26.4183C115.667 27.1281 115.775 27.8386 116.024 28.5044C116.128 28.6907 116.282 28.8438 116.469 28.9465C116.656 29.0492 116.868 29.0974 117.08 29.0853C117.512 29.08 117.934 28.9518 118.295 28.7156C118.678 28.4743 118.981 28.1252 119.166 27.7122V10.4434L123.946 10.5489Z" fill="black"/>
<path d="M112.117 6.45684H107.364V32.3337H102.585V6.45684H97.7002V2.49609H112.223V6.43041L112.117 6.45684Z" fill="black"/>
<path d="M140.159 14.0346C139.992 12.9122 139.496 11.8647 138.733 11.0246C137.953 10.388 136.966 10.0592 135.96 10.1003C135.065 10.0936 134.19 10.3609 133.452 10.8662C132.676 11.3526 132.054 12.0481 131.656 12.8728V1.38672H126.903V32.2806H130.943L131.445 30.1945H131.577C131.959 30.9344 132.545 31.5487 133.267 31.9637C134.038 32.3797 134.9 32.5974 135.775 32.5974C136.546 32.6189 137.305 32.4123 137.958 32.0035C138.611 31.5948 139.128 31.0023 139.446 30.3002C140.362 28.0309 140.767 25.5879 140.634 23.1444V19.7118C140.642 17.8092 140.483 15.9094 140.159 14.0346ZM135.643 22.9068C135.666 24.1506 135.605 25.3945 135.459 26.6299C135.412 27.3233 135.174 27.9903 134.772 28.5574C134.622 28.7391 134.432 28.8838 134.216 28.98C134.001 29.0761 133.767 29.1213 133.531 29.1119C133.143 29.106 132.763 29.0064 132.422 28.8215C132.074 28.6125 131.79 28.3108 131.603 27.9501V15.619C131.739 15.0634 132.032 14.559 132.448 14.1668C132.787 13.8112 133.251 13.6025 133.742 13.5858C133.97 13.5688 134.199 13.6139 134.403 13.7162C134.608 13.8185 134.781 13.9742 134.904 14.1668C135.268 14.7547 135.469 15.4293 135.485 16.1207C135.608 17.4373 135.661 18.7594 135.643 20.0815V22.9068Z" fill="black"/>
</svg>
